<svg width="390" height="844" viewBox="0 0 390 844" fill="none" xmlns="http://www.w3.org/2000/svg">
<rect width="390" height="844" fill="#CAAD8C"/>
<rect x="19" y="181" width="351" height="482" rx="20" fill="#F6EDDD"/>
<path d="M187.649 443.26C187.649 437.14 189.809 431.86 194.129 428.32L195.929 429.91C192.269 433.24 190.559 437.83 190.559 443.26C190.559 448.69 192.269 453.28 195.929 456.61L194.129 458.2C189.809 454.66 187.649 449.38 187.649 443.26ZM219.072 442.84C219.072 447.73 217.242 452.14 212.922 453.79L218.232 459.16H214.212L209.712 454.48C209.412 454.48 209.112 454.51 208.812 454.51C201.522 454.51 198.552 449.05 198.552 442.84C198.552 436.63 201.522 431.17 208.812 431.17C216.102 431.17 219.072 436.63 219.072 442.84ZM215.922 442.84C215.922 437.71 213.702 433.84 208.812 433.84C203.922 433.84 201.702 437.71 201.702 442.84C201.702 447.97 203.922 451.84 208.812 451.84C213.702 451.84 215.922 447.97 215.922 442.84ZM235.893 444.28L242.043 454H238.593L232.743 444.46H226.383V454H223.413V431.65H234.303C237.993 431.65 240.873 434.53 240.873 438.07C240.873 441.1 238.803 443.59 235.893 444.28ZM226.383 441.88H233.733C236.073 441.88 237.723 440.35 237.723 438.07C237.723 435.79 236.073 434.29 233.733 434.29H226.383V441.88ZM271.738 447.1C272.248 445.09 272.698 443.11 272.968 441.07C270.028 441.58 266.608 441.7 263.338 441.7H256.528V439.15H263.158C266.398 439.15 269.938 439.06 273.238 438.58C273.298 437.68 273.358 436.78 273.358 435.82V434.41H257.278V431.86H276.358V434.14C276.358 438.37 275.788 443.11 274.678 447.1H271.738ZM279.388 452.8H254.188V450.25H263.218V444.31H266.218V450.25H279.388V452.8ZM304.653 442V444.55H285.633V431.56H304.353V434.11H288.633V442H304.653ZM307.593 450.25V452.8H282.393V450.25H307.593ZM318.338 443.26C318.338 449.38 316.178 454.66 311.858 458.2L310.058 456.61C313.718 453.28 315.428 448.69 315.428 443.26C315.428 437.83 313.718 433.24 310.058 429.91L311.858 428.32C316.178 431.86 318.338 437.14 318.338 443.26Z" fill="black"/>
<path d="M86.2171 126.45C86.2171 127.09 85.9971 127.63 85.5571 128.07C85.1171 128.51 84.5671 128.73 83.9071 128.73H81.6271V125.13H70.3771V120.54H81.6271V119.79C81.6271 119.03 81.2471 118.65 80.4871 118.65H70.3771V114.06H86.2171V126.45ZM70.3171 135.12V130.53H86.1871V135.12H80.4571V139.65H75.8671V135.12H70.3171ZM100.501 116.4V128.79C100.501 129.43 100.281 129.97 99.8406 130.41C99.4006 130.85 98.8606 131.07 98.2206 131.07H95.9106V127.47H90.1806V122.88H95.9106V122.13C95.9106 121.35 95.5306 120.96 94.7706 120.96H90.1806V116.4H100.501ZM108.691 131.07H104.101V116.4H108.691V131.07ZM139.866 145.32C138.966 145.32 138.116 145.15 137.316 144.81C136.536 144.47 135.846 144 135.246 143.4C134.646 142.82 134.176 142.13 133.836 141.33C133.496 140.53 133.326 139.68 133.326 138.78C133.326 137.88 133.496 137.03 133.836 136.23C134.176 135.45 134.646 134.76 135.246 134.16C135.846 133.56 136.536 133.09 137.316 132.75C138.116 132.41 138.966 132.24 139.866 132.24C140.766 132.24 141.616 132.41 142.416 132.75C143.216 133.09 143.916 133.56 144.516 134.16C145.116 134.76 145.586 135.45 145.926 136.23C146.266 137.03 146.436 137.88 146.436 138.78C146.436 139.68 146.266 140.53 145.926 141.33C145.586 142.13 145.116 142.82 144.516 143.4C143.916 144 143.216 144.47 142.416 144.81C141.616 145.15 140.766 145.32 139.866 145.32ZM139.086 128.25L134.796 131.1L132.786 127.8L129.636 122.61L126.486 127.8L124.476 131.1L122.256 129.93C121.936 129.75 121.646 129.58 121.386 129.42C121.146 129.26 120.976 129.03 120.876 128.73C120.656 128.15 120.746 127.53 121.146 126.87L121.746 125.88L124.296 121.71L124.686 121.05L127.506 116.43H131.796L134.586 121.05L135.006 121.71L137.526 125.88L139.086 128.25ZM149.286 126.12H145.926V131.07H141.336V116.4H145.926V121.53H149.286V126.12ZM139.866 136.86C139.346 136.86 138.896 137.05 138.516 137.43C138.136 137.81 137.946 138.26 137.946 138.78C137.946 139.32 138.136 139.78 138.516 140.16C138.896 140.54 139.346 140.73 139.866 140.73C140.406 140.73 140.866 140.54 141.246 140.16C141.626 139.78 141.816 139.32 141.816 138.78C141.816 138.26 141.626 137.81 141.246 137.43C140.866 137.05 140.406 136.86 139.866 136.86ZM170.734 128.25L166.414 131.1L164.434 127.8L161.284 122.61L158.134 127.8L156.124 131.1L153.904 129.93C153.584 129.75 153.294 129.58 153.034 129.42C152.794 129.26 152.624 129.03 152.524 128.73C152.304 128.15 152.394 127.53 152.794 126.87L153.394 125.88L155.914 121.71L156.334 121.05V121.02H152.704V116.43H170.434V121.02H166.204L166.234 121.05L166.624 121.71L169.174 125.88L170.734 128.25ZM181.924 126.12H178.564V131.07H173.974V116.4H178.564V121.53H181.924V126.12ZM217.229 145.02C216.329 145.02 215.479 144.85 214.679 144.51C213.899 144.17 213.209 143.7 212.609 143.1C212.009 142.52 211.539 141.83 211.199 141.03C210.859 140.23 210.689 139.38 210.689 138.48C210.689 137.58 210.859 136.73 211.199 135.93C211.539 135.15 212.009 134.46 212.609 133.86C213.209 133.26 213.899 132.79 214.679 132.45C215.479 132.11 216.329 131.94 217.229 131.94C218.129 131.94 218.979 132.11 219.779 132.45C220.579 132.79 221.279 133.26 221.879 133.86C222.479 134.46 222.949 135.15 223.289 135.93C223.629 136.73 223.799 137.58 223.799 138.48C223.799 139.38 223.629 140.23 223.289 141.03C222.949 141.83 222.479 142.52 221.879 143.1C221.279 143.7 220.579 144.17 219.779 144.51C218.979 144.85 218.129 145.02 217.229 145.02ZM212.519 128.28L208.229 131.16L206.219 127.86L203.069 122.67L199.919 127.86L197.939 131.16L195.689 129.96C195.369 129.8 195.079 129.64 194.819 129.48C194.579 129.3 194.409 129.07 194.309 128.79C194.109 128.21 194.199 127.59 194.579 126.93L195.179 125.94L197.729 121.77L198.119 121.11L200.939 116.49H205.229L208.019 121.11L208.439 121.77L210.959 125.94L212.519 128.28ZM223.559 116.46V131.13H219.419V126.18H217.649V131.13H213.509V116.46H217.649V121.59H219.419V116.46H223.559ZM217.229 136.56C216.709 136.56 216.259 136.75 215.879 137.13C215.499 137.51 215.309 137.96 215.309 138.48C215.309 139.02 215.499 139.48 215.879 139.86C216.259 140.24 216.709 140.43 217.229 140.43C217.769 140.43 218.229 140.24 218.609 139.86C218.989 139.48 219.179 139.02 219.179 138.48C219.179 137.96 218.989 137.51 218.609 137.13C218.229 136.75 217.769 136.56 217.229 136.56ZM251.089 116.46V131.13H246.469V126.18H243.529L244.939 128.34L240.649 131.22L238.639 127.92L235.519 122.73L232.339 127.92L230.389 131.22L228.109 130.02C227.809 129.86 227.529 129.7 227.269 129.54C227.029 129.36 226.859 129.13 226.759 128.85C226.519 128.27 226.609 127.65 227.029 126.99L227.629 126L230.149 121.83L230.569 121.17L233.359 116.55H237.649L240.469 121.17L240.889 121.83L241.609 123.06V121.59H246.469V116.46H251.089ZM244.819 145.32C243.919 145.32 243.069 145.15 242.269 144.81C241.489 144.47 240.799 144 240.199 143.4C239.599 142.82 239.129 142.13 238.789 141.33C238.449 140.53 238.279 139.68 238.279 138.78C238.279 137.88 238.449 137.03 238.789 136.23C239.129 135.45 239.599 134.76 240.199 134.16C240.799 133.56 241.489 133.09 242.269 132.75C243.069 132.41 243.919 132.24 244.819 132.24C245.719 132.24 246.569 132.41 247.369 132.75C248.169 133.09 248.869 133.56 249.469 134.16C250.069 134.76 250.539 135.45 250.879 136.23C251.219 137.03 251.389 137.88 251.389 138.78C251.389 139.68 251.219 140.53 250.879 141.33C250.539 142.13 250.069 142.82 249.469 143.4C248.869 144 248.169 144.47 247.369 144.81C246.569 145.15 245.719 145.32 244.819 145.32ZM244.819 136.86C244.299 136.86 243.849 137.05 243.469 137.43C243.089 137.81 242.899 138.26 242.899 138.78C242.899 139.32 243.089 139.78 243.469 140.16C243.849 140.54 244.299 140.73 244.819 140.73C245.359 140.73 245.819 140.54 246.199 140.16C246.579 139.78 246.769 139.32 246.769 138.78C246.769 138.26 246.579 137.81 246.199 137.43C245.819 137.05 245.359 136.86 244.819 136.86ZM278.92 130.59V135.18H265.45V130.59H269.77V128.19C269.05 127.95 268.38 127.6 267.76 127.14C267.14 126.68 266.61 126.15 266.17 125.55C265.73 124.93 265.38 124.25 265.12 123.51C264.88 122.77 264.76 121.99 264.76 121.17C264.76 120.15 264.95 119.2 265.33 118.32C265.73 117.42 266.26 116.64 266.92 115.98C267.58 115.32 268.35 114.8 269.23 114.42C270.13 114.02 271.09 113.82 272.11 113.82C273.13 113.82 274.08 114.02 274.96 114.42C275.86 114.8 276.64 115.32 277.3 115.98C277.98 116.64 278.51 117.42 278.89 118.32C279.29 119.2 279.49 120.15 279.49 121.17C279.49 121.99 279.36 122.78 279.1 123.54C278.84 124.28 278.48 124.96 278.02 125.58C277.58 126.2 277.04 126.74 276.4 127.2C275.78 127.64 275.1 127.98 274.36 128.22V130.59H278.92ZM289.39 126.12H286.03V135.09H281.44V116.4H286.03V121.53H289.39V126.12ZM272.11 123.36C272.71 123.36 273.22 123.15 273.64 122.73C274.08 122.29 274.3 121.77 274.3 121.17C274.3 120.57 274.08 120.06 273.64 119.64C273.22 119.2 272.71 118.98 272.11 118.98C271.51 118.98 270.99 119.2 270.55 119.64C270.13 120.06 269.92 120.57 269.92 121.17C269.92 121.77 270.13 122.29 270.55 122.73C270.99 123.15 271.51 123.36 272.11 123.36ZM272.83 148.44V139.05C272.83 138.39 273.05 137.84 273.49 137.4C273.93 136.96 274.47 136.74 275.11 136.74H277.39V142.68C277.39 143.46 277.78 143.85 278.56 143.85H286.03V148.44H272.83ZM306.16 128.1V130.62H308.44V135.21H292.57V130.62H294.64V128.1H292.51V116.91C292.51 116.25 292.73 115.7 293.17 115.26C293.61 114.82 294.16 114.6 294.82 114.6H295.33L295.36 114.57H302.74C303.52 114.57 303.91 114.19 303.91 113.43V111.45C303.91 110.69 303.52 110.31 302.74 110.31H292.51V105.69H308.53V119.22H298.27C297.51 119.22 297.13 119.6 297.13 120.36V122.34C297.13 123.12 297.51 123.51 298.27 123.51H308.53V128.1H306.16ZM301.57 130.62V128.1H299.23V130.62H301.57ZM314.235 126.54V116.55C314.235 115.89 314.455 115.35 314.895 114.93C315.355 114.47 315.895 114.24 316.515 114.24H318.825V126.54H314.235ZM318.975 131.1C318.975 131.46 318.905 131.8 318.765 132.12C318.645 132.42 318.465 132.69 318.225 132.93C317.985 133.15 317.705 133.33 317.385 133.47C317.085 133.61 316.755 133.68 316.395 133.68C316.035 133.68 315.695 133.61 315.375 133.47C315.075 133.33 314.805 133.15 314.565 132.93C314.345 132.69 314.165 132.42 314.025 132.12C313.905 131.8 313.845 131.46 313.845 131.1C313.845 130.4 314.095 129.8 314.595 129.3C315.095 128.8 315.695 128.55 316.395 128.55C317.115 128.55 317.725 128.8 318.225 129.3C318.725 129.8 318.975 130.4 318.975 131.1Z" fill="#F6EDDD"/>
<rect x="61" y="718" width="268" height="55" rx="20" fill="#623B1C"/>
<path d="M169.408 740.04C169.688 739.747 170.041 739.6 170.468 739.6H175.848V742.62H172.748C172.494 742.62 172.301 742.74 172.168 742.98C172.048 743.22 171.988 743.473 171.988 743.74V745.6C171.988 746.107 172.241 746.36 172.748 746.36H175.848V749.38H168.968V741.12C168.968 740.68 169.114 740.32 169.408 740.04ZM183.468 746.08H181.228V749.38H178.168V739.6H181.228V743.02H183.468V746.08ZM185.678 752.08V749.02H196.258V752.08H192.438V755.1H189.378V752.08H185.678ZM190.978 747.28C190.298 747.28 189.658 747.153 189.058 746.9C188.472 746.633 187.958 746.28 187.518 745.84C187.078 745.4 186.725 744.88 186.458 744.28C186.205 743.68 186.078 743.04 186.078 742.36C186.078 741.68 186.205 741.047 186.458 740.46C186.725 739.86 187.078 739.34 187.518 738.9C187.958 738.46 188.472 738.113 189.058 737.86C189.658 737.593 190.298 737.46 190.978 737.46C191.658 737.46 192.292 737.593 192.878 737.86C193.478 738.113 193.998 738.46 194.438 738.9C194.892 739.34 195.245 739.86 195.498 740.46C195.765 741.047 195.898 741.68 195.898 742.36C195.898 743.04 195.765 743.68 195.498 744.28C195.245 744.88 194.892 745.4 194.438 745.84C193.998 746.28 193.478 746.633 192.878 746.9C192.292 747.153 191.658 747.28 190.978 747.28ZM190.978 740.9C190.578 740.9 190.232 741.047 189.938 741.34C189.658 741.62 189.518 741.96 189.518 742.36C189.518 742.76 189.658 743.107 189.938 743.4C190.232 743.68 190.578 743.82 190.978 743.82C191.378 743.82 191.718 743.68 191.998 743.4C192.292 743.107 192.438 742.76 192.438 742.36C192.438 741.96 192.292 741.62 191.998 741.34C191.718 741.047 191.378 740.9 190.978 740.9ZM185.658 760.96V754.7C185.658 754.26 185.805 753.893 186.098 753.6C186.392 753.307 186.752 753.16 187.178 753.16H188.698V757.12C188.698 757.64 188.958 757.9 189.478 757.9H196.058V760.96H185.658ZM208.713 749.04V752.1H198.133V749.04H201.953V747.4H198.133V739.94C198.133 739.5 198.28 739.133 198.573 738.84C198.867 738.547 199.233 738.4 199.673 738.4H200.013L200.033 738.38H204.953C205.473 738.38 205.733 738.127 205.733 737.62V736.3C205.733 735.793 205.473 735.54 204.953 735.54H198.133V732.46H208.813V741.48H201.973C201.467 741.48 201.213 741.733 201.213 742.24V743.56C201.213 744.08 201.467 744.34 201.973 744.34H208.813V747.4H205.013V749.04H208.713ZM221.892 749.04V752.1H211.312V749.04H221.892ZM211.412 747.38V741.12C211.412 740.68 211.559 740.32 211.852 740.04C212.132 739.747 212.486 739.6 212.912 739.6H221.872V742.62H215.192C214.952 742.62 214.766 742.7 214.632 742.86C214.512 743.02 214.446 743.233 214.432 743.5C214.446 743.727 214.512 743.927 214.632 744.1C214.766 744.273 214.952 744.36 215.192 744.36H221.872V747.38H211.412Z" fill="#F6EDDD"/>
<rect x="20" y="181" width="351" height="482" rx="20" fill="#F6EDDD"/>
<rect x="46" y="209" width="299" height="163" rx="20" fill="#F5F1E9"/>
<rect x="46" y="392" width="299" height="163" rx="20" fill="#F5F1E9"/>
<rect x="74" y="230" width="122" height="122" fill="#D9D9D9"/>
<rect x="74" y="413" width="122" height="122" fill="#D9D9D9"/>
</svg>
