<svg width="200" height="200" viewBox="0 0 200 200" fill="none" xmlns="http://www.w3.org/2000/svg">
<g clip-path="url(#clip0_24_844)">
<path d="M167.07 193.091C121.097 197.578 76.0823 197.578 30.1116 193.091C18.0376 191.717 6.7404 180.419 5.36652 168.346C0.877991 122.375 0.877991 77.3602 5.36652 31.386C6.7404 19.3129 18.0376 8.01509 30.1116 6.64137C76.0848 2.15405 121.099 2.15405 167.07 6.64137C179.144 8.01509 190.441 19.3129 191.815 31.386C196.303 77.3576 196.303 122.372 191.815 168.346C190.441 180.419 179.144 191.717 167.07 193.091Z" fill="url(#paint0_radial_24_844)"/>
<path d="M36.8267 196.919C35.3238 196.919 34.046 195.768 33.917 194.243C28.5682 130.827 28.5682 69.1759 33.917 5.76004C34.0536 4.154 35.4401 2.96462 37.0746 3.09341C38.6813 3.22977 39.8755 4.64389 39.7414 6.24993C34.4205 69.335 34.4205 130.668 39.7414 193.753C39.8755 195.361 38.6838 196.775 37.0746 196.909C36.9911 196.917 36.9076 196.919 36.8267 196.919Z" fill="url(#paint1_radial_24_844)"/>
<path d="M57.8828 198.631C56.3444 198.631 55.054 197.427 54.968 195.869C51.4561 132.256 51.4561 67.7441 54.968 4.1313C55.0566 2.52021 56.4709 1.30811 58.0472 1.37376C59.659 1.46214 60.8911 2.84091 60.8026 4.45201C57.3034 67.8527 57.3034 132.145 60.8026 195.546C60.8911 197.157 59.6564 198.535 58.0472 198.624C57.9916 198.626 57.9384 198.629 57.8828 198.629V198.631Z" fill="url(#paint2_radial_24_844)"/>
<path d="M78.9414 199.657C77.3651 199.657 76.0646 198.399 76.0215 196.813C74.2681 132.572 74.2681 67.426 76.0215 3.18182C76.0671 1.57073 77.3423 0.315698 79.0223 0.340951C80.634 0.383879 81.9067 1.7273 81.8637 3.34091C80.1128 67.4765 80.1128 132.516 81.8637 196.652C81.9092 198.265 80.6366 199.609 79.0223 199.652C78.9945 199.652 78.9667 199.652 78.9414 199.652V199.657Z" fill="url(#paint3_radial_24_844)"/>
<path d="M100 200C98.3857 200 97.0776 198.692 97.0776 197.078V2.92168C97.0776 1.30806 98.3857 0 100 0C101.614 0 102.922 1.30806 102.922 2.92168V197.076C102.922 198.689 101.614 199.997 100 199.997V200Z" fill="url(#paint4_radial_24_844)"/>
<path d="M121.059 199.657C121.031 199.657 121.005 199.657 120.978 199.657C119.366 199.614 118.093 198.27 118.136 196.657C119.887 132.521 119.887 67.4815 118.136 3.34593C118.091 1.73232 119.366 0.3889 120.978 0.345972C122.602 0.282841 123.935 1.57323 123.978 3.18685C125.732 67.4285 125.732 132.577 123.978 196.818C123.935 198.404 122.635 199.662 121.059 199.662V199.657Z" fill="url(#paint5_radial_24_844)"/>
<path d="M142.117 198.631C142.062 198.631 142.008 198.631 141.953 198.626C140.341 198.538 139.109 197.159 139.197 195.548C142.697 132.147 142.697 67.8552 139.197 4.45446C139.109 2.84337 140.344 1.4646 141.953 1.37622C143.559 1.30552 144.943 2.52267 145.032 4.13376C148.544 67.7491 148.544 132.258 145.032 195.871C144.946 197.427 143.656 198.634 142.117 198.634V198.631Z" fill="url(#paint6_radial_24_844)"/>
<path d="M163.173 196.919C163.092 196.919 163.009 196.917 162.925 196.909C161.319 196.773 160.124 195.359 160.259 193.753C165.577 130.668 165.577 69.335 160.259 6.24991C160.124 4.64134 161.316 3.22722 162.925 3.09338C164.575 2.96207 165.946 4.15398 166.083 5.76002C171.429 69.1759 171.429 130.829 166.083 194.242C165.954 195.768 164.676 196.919 163.173 196.919Z" fill="url(#paint7_radial_24_844)"/>
<path d="M193.998 39.752C193.917 39.752 193.834 39.7495 193.75 39.7419C130.666 34.4212 69.3318 34.4212 6.24955 39.7419C4.60747 39.8732 3.22853 38.6813 3.0919 37.0752C2.9578 35.4667 4.14951 34.0526 5.7587 33.9187C69.1724 28.5728 130.825 28.5728 194.244 33.9187C195.851 34.0551 197.045 35.4692 196.911 37.0752C196.782 38.6005 195.504 39.752 194.001 39.752H193.998Z" fill="url(#paint8_radial_24_844)"/>
<path d="M195.711 60.8073C195.656 60.8073 195.603 60.8073 195.547 60.8023C132.146 57.3023 67.8541 57.3023 4.45309 60.8023C2.85655 60.9007 1.46242 59.6583 1.37387 58.0447C1.28531 56.4336 2.52003 55.0549 4.12922 54.9665C67.7453 51.4539 132.255 51.4539 195.868 54.9665C197.48 55.0549 198.712 56.4336 198.624 58.0447C198.538 59.6002 197.247 60.8073 195.709 60.8073H195.711Z" fill="url(#paint9_radial_24_844)"/>
<path d="M196.736 81.8651C196.708 81.8651 196.683 81.8651 196.655 81.8651C132.523 80.1151 67.4822 80.1151 3.34486 81.8651C3.31703 81.8651 3.2892 81.8651 3.2639 81.8651C1.6876 81.8651 0.387094 80.6075 0.344081 79.0217C0.298538 77.4081 1.57121 76.0646 3.18546 76.0217C67.4265 74.2667 132.573 74.2667 196.814 76.0217C198.426 76.0646 199.699 77.4081 199.656 79.0217C199.613 80.6075 198.312 81.8651 196.736 81.8651Z" fill="url(#paint10_radial_24_844)"/>
<path d="M197.078 102.923H2.92235C1.3081 102.923 0 101.615 0 100.001C0 98.3877 1.3081 97.0796 2.92235 97.0796H197.078C198.692 97.0796 200 98.3877 200 100.001C200 101.615 198.692 102.923 197.078 102.923Z" fill="url(#paint11_radial_24_844)"/>
<path d="M100 125.294C67.6517 125.294 35.306 124.854 3.18296 123.978C1.57124 123.935 0.298561 122.592 0.341574 120.978C0.387117 119.367 1.66991 118.125 3.34236 118.137C67.4797 119.887 132.518 119.887 196.653 118.137C198.312 118.084 199.608 119.365 199.653 120.978C199.699 122.592 198.424 123.935 196.812 123.978C164.691 124.854 132.343 125.294 99.9975 125.294H100Z" fill="url(#paint12_radial_24_844)"/>
<path d="M100 147.667C67.9706 147.667 35.9386 146.789 4.1318 145.034C2.52008 144.945 1.28788 143.566 1.37644 141.955C1.46499 140.344 2.86418 139.125 4.45566 139.198C67.8542 142.698 132.148 142.698 195.549 139.198C197.151 139.119 198.54 140.342 198.629 141.955C198.717 143.566 197.482 144.945 195.873 145.034C164.067 146.789 132.035 147.667 100.003 147.667H100Z" fill="url(#paint13_radial_24_844)"/>
<path d="M100 170.094C68.7321 170.094 37.4668 168.758 5.75868 166.084C4.15202 165.947 2.95778 164.533 3.09188 162.927C3.22851 161.319 4.60998 160.137 6.24953 160.261C69.3318 165.581 130.666 165.581 193.75 160.261C195.393 160.134 196.771 161.319 196.908 162.927C197.042 164.536 195.851 165.95 194.241 166.084C162.533 168.758 131.265 170.094 99.9975 170.094H100Z" fill="url(#paint14_radial_24_844)"/>
<path d="M176.578 77.6152C176.138 66.5371 175.379 55.4312 174.286 44.2621C173.178 34.4592 163.998 25.28 154.196 24.1715C116.869 20.5149 80.3127 20.5149 42.9851 24.1715C33.1832 25.28 24.0012 34.4592 22.8955 44.2621C21.5596 57.8428 20.7095 71.3022 20.3603 84.7465V84.7616C19.7227 108.282 20.5728 131.726 22.8955 155.473C24.0038 165.276 33.1832 174.455 42.9851 175.564C80.3127 179.205 116.869 179.205 154.196 175.564C163.998 174.455 173.18 165.276 174.286 155.473C176.836 129.312 177.593 103.547 176.578 77.6127V77.6152ZM171.89 153.715C170.812 163.2 161.921 172.091 152.435 173.17C116.289 176.69 80.8896 176.69 44.7436 173.17C35.2605 172.091 26.3669 163.2 25.2891 153.715C22.6324 126.509 21.967 99.7261 23.3155 72.7289C23.7558 63.8528 24.4086 54.959 25.2891 46.0222C26.3669 36.5375 35.258 27.6462 44.7436 26.5679C80.8896 23.0477 116.289 23.0477 152.435 26.5679C161.918 27.6462 170.812 36.5375 171.89 46.0222C172.71 54.4438 173.347 62.8351 173.772 71.1961C175.214 98.7059 174.592 125.991 171.89 153.713V153.715Z" fill="url(#paint15_linear_24_844)"/>
<path d="M172.072 151.786C172.011 152.422 171.951 153.076 171.89 153.713C170.797 163.197 161.921 172.074 152.42 173.167C116.289 176.687 80.8896 176.687 44.7436 173.167C35.2605 172.074 26.3669 163.197 25.2891 153.713C25.198 152.801 25.1069 151.892 25.031 150.98C25.0411 150.97 25.0411 150.965 25.031 150.965C21.7696 115.776 21.8607 81.254 25.2891 46.0196C26.3669 36.5349 35.2579 27.6436 44.7436 26.5653C80.8896 23.0451 116.289 23.0451 152.42 26.5653C161.918 27.6436 170.797 36.5349 171.89 46.0196C175.349 81.5267 175.409 116.307 172.072 151.783V151.786Z" fill="url(#paint16_radial_24_844)"/>
<path style="mix-blend-mode:multiply" d="M176.578 77.6152C176.578 77.6152 175.743 75.0951 173.77 71.1961C166.986 57.8579 146.699 28.3431 99.9924 28.3431C47.4585 28.3431 31.025 46.7949 23.3181 72.7289C22.1643 76.5824 21.2079 80.6051 20.3578 84.7465C20.707 71.3022 21.5571 57.8428 22.893 44.2621C24.0012 34.4592 33.1807 25.28 42.9826 24.1715C80.3102 20.5149 116.866 20.5149 154.194 24.1715C163.996 25.28 173.178 34.4592 174.283 44.2621C175.376 55.4312 176.135 66.5371 176.576 77.6152H176.578Z" fill="url(#paint17_linear_24_844)"/>
<g style="mix-blend-mode:soft-light">
<path d="M172.072 151.786C172.011 152.422 171.951 153.076 171.89 153.713C170.797 163.197 161.921 172.074 152.42 173.167C116.289 176.687 80.8896 176.687 44.7436 173.167C35.2605 172.074 26.3669 163.197 25.2891 153.713C25.198 152.801 25.1069 151.892 25.031 150.98C30.3874 158.948 47.2763 173.074 99.9924 173.074C148.959 173.074 166.091 160.296 172.069 151.783L172.072 151.786Z" fill="#F7BCB1"/>
</g>
<path d="M172.679 121.059C172.679 121.135 172.664 121.226 172.664 121.317C172.558 125.794 172.36 130.314 172.072 134.882C170.265 163.97 168.886 171.361 124.894 170.389C64.7445 169.069 49.5534 173.076 35.8677 160.692C22.6197 148.72 22.9841 122.074 24.8361 91.1781C24.8361 91.0569 24.8513 90.9205 24.8513 90.7993L25.0335 87.9307C27.0374 55.671 26.9615 36.9742 40.7383 30.8304C51.0867 26.2016 56.4582 30.8455 89.811 28.1132C123.164 25.3961 162.268 23.1815 167.138 48.4009C171.31 69.9031 173.375 94.6073 172.677 121.057L172.679 121.059Z" fill="url(#paint18_radial_24_844)"/>
<path style="mix-blend-mode:multiply" opacity="0.8" d="M172.664 121.317C172.558 125.794 172.36 130.314 172.072 134.882C170.265 163.97 168.886 171.361 124.894 170.389C64.7446 169.069 49.5534 173.076 35.8677 160.692C22.6197 148.72 22.9841 122.074 24.8361 91.1781C24.0012 112.423 29.3424 153.15 46.8841 162.316C64.5168 171.543 104.137 164.682 134.848 163.667C165.577 162.634 166.258 153.425 169.172 144.152C171.708 136.034 172.494 124.168 172.661 121.314L172.664 121.317Z" fill="url(#paint19_radial_24_844)"/>
<path style="mix-blend-mode:multiply" d="M41.1634 117.163C48.7969 149.306 78.1545 158.685 121.937 155.97C165.719 153.256 165.16 120.703 165.16 120.703C165.16 120.703 159.583 149.975 111.667 150.983C63.7477 151.99 41.1634 117.163 41.1634 117.163Z" fill="url(#paint20_radial_24_844)"/>
<path style="mix-blend-mode:multiply" d="M52.5137 61.4917C52.5137 61.4917 70.192 50.0575 103.16 51.0171C136.128 51.9766 147.484 50.262 147.484 50.262C147.484 50.262 133.35 34.0526 99.1119 35.3784C64.8711 36.7041 52.5137 61.4892 52.5137 61.4892V61.4917Z" fill="url(#paint21_radial_24_844)"/>
<path style="mix-blend-mode:screen" opacity="0.3" d="M32.0522 53.8781C48.7944 56.565 71.6317 37.1839 107.284 32.1486C142.937 27.1133 141.292 47.1408 163.004 57.4917C163.004 57.4917 166.032 38.8228 146.29 31.1941C126.547 23.5654 101.055 30.1966 66.9357 31.1941C32.8164 32.1915 32.0522 53.8756 32.0522 53.8756V53.8781Z" fill="url(#paint22_radial_24_844)"/>
<path style="mix-blend-mode:screen" opacity="0.5" d="M36.8292 116.036C36.8292 116.036 45.9201 155.672 95.9466 158.096C145.973 160.521 160.35 140.496 160.35 140.496C160.35 140.496 133.322 175.551 83.8727 165.162C34.4204 154.771 36.8292 116.039 36.8292 116.039V116.036Z" fill="url(#paint23_radial_24_844)"/>
<path style="mix-blend-mode:screen" opacity="0.75" d="M96.521 165.16C76.0924 160.632 96.0504 161.788 112.909 158.937C129.767 156.089 131.804 155.826 129.441 159.369C127.078 162.912 111.616 168.505 96.521 165.16Z" fill="url(#paint24_radial_24_844)"/>
<path style="mix-blend-mode:screen" opacity="0.5" d="M94.3956 34.6637C80.7099 33.1511 107.16 26.6537 117.653 27.6739C128.148 28.6941 126.84 30.6713 124.553 31.1158C122.268 31.5602 113.974 29.5653 94.3931 34.6637H94.3956Z" fill="url(#paint25_radial_24_844)"/>
<path style="mix-blend-mode:multiply" d="M88.2448 129.011C88.2448 129.011 122 144.049 144.078 125.41C166.156 106.771 150.143 90.2161 150.143 90.2161C150.143 90.2161 171.128 102.122 161.526 120.983C151.924 139.844 109.954 144.21 88.2448 129.014V129.011Z" fill="url(#paint26_linear_24_844)"/>
<g style="mix-blend-mode:soft-light" opacity="0.2">
<path d="M157.577 124.105C150.388 130.923 160.681 108.865 160.233 102.6C159.785 96.3347 169.737 112.572 157.577 124.105Z" fill="#F7BCB1"/>
</g>
<g style="mix-blend-mode:soft-light" opacity="0.2">
<path d="M55.5803 134.37C45.1155 128.342 57.0225 145.736 73.1928 151.637C89.3632 157.538 103.795 153.968 104.957 152.453C106.118 150.937 82.5317 148.599 73.3295 145.695C64.1298 142.791 55.5803 134.372 55.5803 134.372V134.37Z" fill="#F7BCB1"/>
</g>
<g style="mix-blend-mode:soft-light" opacity="0.2">
<path d="M103.16 49.7797C86.0258 47.3151 101.424 35.8834 117.086 37.896C132.748 39.9086 141.396 48.5424 139.362 49.7797C137.328 51.0171 106.993 50.3302 103.16 49.7797Z" fill="#F7BCB1"/>
</g>
<g style="mix-blend-mode:soft-light" opacity="0.2">
<path d="M59.1453 55.2392C60.7039 51.0145 67.7707 44.1763 74.6705 43.454C81.5702 42.7318 72.9449 51.6332 66.9079 53.6989C60.8709 55.7645 59.1453 55.2367 59.1453 55.2367V55.2392Z" fill="#F7BCB1"/>
</g>
<path style="mix-blend-mode:screen" opacity="0.3" d="M147.959 90.3246C140.948 92.269 140.493 107.312 134.011 119.511C127.528 131.708 112.046 132.897 112.046 132.897C112.046 132.897 136.341 135.018 148.311 118.324C160.284 101.63 147.959 90.3271 147.959 90.3271V90.3246Z" fill="url(#paint27_radial_24_844)"/>
<path style="mix-blend-mode:screen" opacity="0.5" d="M152.81 98.6907C150.348 91.9812 143.023 113.041 145.399 116.036C147.775 119.031 156.337 108.309 152.81 98.6907Z" fill="url(#paint28_radial_24_844)"/>
<path style="mix-blend-mode:screen" opacity="0.3" d="M29.9016 134.814C40.0071 136.104 29.178 114.054 28.6694 92.7741C28.1608 71.494 35.6046 37.8606 33.8613 38.3732C32.118 38.8858 23.3485 78.9939 26.7996 103.223C30.2508 127.453 28.8845 134.683 29.8991 134.811L29.9016 134.814Z" fill="url(#paint29_radial_24_844)"/>
<path style="mix-blend-mode:screen" opacity="0.3" d="M165.157 136.789C172.74 118.269 168.937 96.067 165.157 82.3172C161.377 68.5649 161.931 48.3075 163.644 45.6106C165.354 42.9162 164.183 67.5548 168.016 86.3879C171.849 105.221 175.108 125.228 169.549 136.789C163.991 148.349 165.157 136.789 165.157 136.789Z" fill="url(#paint30_radial_24_844)"/>
<path style="mix-blend-mode:multiply" opacity="0.5" d="M44.5209 110.877C41.1406 114.87 49.5256 135.011 65.9237 137.418C82.3192 139.824 67.8415 133.705 58.7962 124.38C49.7533 115.052 44.5209 110.88 44.5209 110.88V110.877Z" fill="url(#paint31_radial_24_844)"/>
<path style="mix-blend-mode:screen" opacity="0.2" d="M51.0285 108.956C44.3767 107.617 58.5583 125.973 67.376 131.723C76.1936 137.473 90.5144 130.602 90.5144 127.923C90.5144 125.243 80.9681 130.2 70.0225 125.039C59.0795 119.877 53.9028 109.534 51.0285 108.956Z" fill="url(#paint32_radial_24_844)"/>
<g style="mix-blend-mode:multiply">
<path d="M5.09323 167.707C5.43227 169.632 5.65493 171.273 7.00351 172.692C8.05859 173.801 9.17946 174.384 10.6444 174.813C12.451 175.344 14.427 174.576 16.2209 174.223C18.0452 173.861 20.4286 173.425 22.2756 173.92C25.3979 174.758 25.7597 178.902 26.2632 181.49C26.5693 183.058 26.9109 184.768 27.8066 186.119C28.2898 186.846 28.9401 188.137 29.856 188.387C31.8852 188.937 32.6519 185.116 32.7025 183.811C32.7556 182.445 32.6923 181.061 32.6923 179.692C32.6923 178.207 32.8366 176.778 32.3078 175.369C31.6044 173.49 31.154 171.611 30.0078 170.013C28.9325 168.508 26.8527 168.556 25.1119 168.182C24.525 168.056 23.9911 168.18 23.4041 168.117C22.7032 168.043 21.9872 167.771 21.2964 167.619C19.8871 167.308 18.4121 166.935 16.9623 166.947C15.4644 166.963 14.0399 167.038 12.5977 166.609C10.5609 166.003 9.61465 166.124 5.0907 167.713L5.09323 167.707Z" fill="#EABEB0"/>
<path d="M40.3613 191.091C40.4954 187.859 41.3379 184.351 44.5892 182.937C45.7025 182.452 46.5197 182.126 47.7317 182.361C48.1795 182.447 48.7817 182.576 49.1967 182.743C49.5079 182.869 49.7634 183.243 50.0291 183.349C50.3074 183.46 50.7173 183.498 51.0108 183.515C51.0816 183.745 51.2309 183.826 51.4586 183.76C51.656 183.601 51.8533 183.442 52.0482 183.283C53.0046 182.773 53.4524 182.525 53.8825 181.508C54.2393 180.662 54.7301 179.586 54.5201 178.667C54.3962 178.127 53.9129 176.818 53.5106 176.412C52.5289 175.417 50.7628 175.384 49.5028 175.079C48.0328 174.723 46.3856 175.008 44.9434 175.291C43.8808 175.5 42.5094 175.051 41.4923 175.359C39.6073 175.927 39.2025 179.508 39.2126 181.033C39.2202 182.334 39.2202 183.632 39.2025 184.932C39.1848 186.328 39.2151 189.397 40.3613 191.094V191.091Z" fill="#EABEB0"/>
<path d="M61.0632 190.326C61.2276 190.02 62.2473 187.606 62.9633 187.111C63.3074 186.874 63.9248 186.818 64.322 186.687C65.2936 186.361 65.9641 186.149 66.9888 186.121C69.1724 186.066 71.6975 185.243 73.3472 183.811C75.4168 182.013 77.0994 178.02 73.4433 177.2C71.3154 176.723 69.3723 177.298 67.2064 177.293C65.6529 177.291 63.2315 176.841 61.8298 177.467C60.0815 178.248 60.2965 180.422 60.2965 181.99C60.2965 184.614 60.3446 187.541 61.0632 190.326Z" fill="#EABEB0"/>
<path d="M87.8956 178.823C89.186 179.061 90.8837 179.068 91.6529 180.328C92.035 180.952 92.3462 182.137 92.4651 182.834C92.8041 184.813 92.5081 187.167 92.4904 189.177C92.4803 190.331 92.7004 191.29 92.8775 192.402C92.9686 192.97 93.128 193.732 93.5404 194.184C94.426 195.154 95.476 193.932 95.7619 192.99C96.3843 190.945 96.569 188.568 96.1364 186.475C95.7644 184.682 96.1769 182.566 96.7107 180.816C97.0776 179.614 97.237 178.74 96.2502 177.748C95.1749 176.667 92.7257 176.47 87.8931 178.823H87.8956Z" fill="#EABEB0"/>
<path d="M103.039 192.624C103.504 190.97 104.106 189.376 104.572 187.725C104.977 186.296 105.627 184.682 106.442 183.437C107.621 181.637 110.25 181.705 112.061 181.127C112.777 180.897 113.759 180.417 114.523 180.546C115.194 180.659 115.725 181.286 116.077 181.831C116.889 183.086 116.783 184.869 117.653 186.084C118.088 186.005 118.187 185.025 118.182 184.68C118.174 184.023 118.101 183.296 118.197 182.647C118.283 182.058 118.377 181.531 118.372 180.93C118.364 179.972 118.366 179.013 118.372 178.053C118.372 177.803 118.463 177.44 118.268 177.293C118.164 177.215 117.456 177.26 117.319 177.278C116.891 177.334 116.527 177.488 116.072 177.48C115.507 177.473 114.92 177.526 114.356 177.485C112.838 177.377 111.378 177.089 109.84 177.091C108.387 177.094 107.12 177.142 105.711 177.52C104.952 177.725 104.225 178.152 103.454 178.273C103.423 178.467 103.314 178.624 103.271 178.803C103.191 179.142 103.254 179.465 103.239 179.808C103.218 180.311 103.051 180.786 103.026 181.288C102.991 182.003 103.036 182.733 103.036 183.45C103.036 184.429 103.031 185.407 103.036 186.387C103.041 187.331 102.821 188.23 102.841 189.167L103.034 192.616L103.039 192.624Z" fill="#EABEB0"/>
<path d="M123.93 187.642C124.942 185.154 126.417 182.174 129.307 181.538C130.342 181.311 131.921 181.591 132.814 182.119C134.013 182.826 134.575 184.048 134.934 185.341C135.293 186.626 135.556 187.955 135.89 189.248C136.037 189.811 136.075 190.402 136.285 190.95C136.47 191.437 136.781 191.879 137.042 192.331C137.328 192.826 137.705 193.051 138.231 192.621C138.954 192.028 139.046 190.844 139.215 190C139.759 187.278 140.027 184.465 140.03 181.692C140.03 180.735 140.03 179.778 140.03 178.821C140.03 178.164 140.116 177.513 139.886 176.904C139.716 176.46 139.557 176.228 139.033 176.132C138.666 176.066 138.281 176.167 137.925 176.235C137.358 176.344 136.781 176.412 136.212 176.518C134.914 176.76 133.699 177.111 132.368 177.101C131.197 177.094 129.977 176.995 128.814 177.116C127.85 177.215 126.751 177.346 125.836 177.672C125.297 177.864 124.965 178.134 124.882 178.72C124.73 179.776 124.694 180.808 124.694 181.887C124.694 182.652 124.717 183.417 124.702 184.18C124.689 184.821 124.416 185.467 123.928 187.639L123.93 187.642Z" fill="#EABEB0"/>
<path d="M145.783 194.351C146.345 194.273 146.968 194.268 147.514 194.169C147.891 194.101 148.243 193.917 148.617 193.823C149.247 193.664 150.186 193.437 150.538 192.826C150.879 192.23 150.849 191.328 150.74 190.679C150.497 189.232 149.809 187.94 149.326 186.578C149.014 185.7 148.579 184.826 148.476 183.889C148.349 182.738 148.992 181.601 150.014 181.109C150.791 180.733 151.55 180.306 152.304 179.889C152.681 179.682 152.959 179.422 153.275 179.134C153.584 178.854 153.617 178.639 153.829 178.296C154.275 177.573 155.074 176.586 154.34 175.834C153.976 175.46 153.432 175.298 152.893 175.22C152.448 175.154 151.97 175.346 151.537 175.43C150.925 175.551 150.34 175.526 149.728 175.586C149.3 175.629 148.898 175.758 148.463 175.768C148.111 175.776 147.752 175.715 147.403 175.778C147.038 175.844 146.446 175.882 146.209 176.185C145.781 176.733 145.801 177.899 145.783 178.541C145.766 179.132 145.657 179.695 145.606 180.283C145.543 181.031 145.637 181.775 145.548 182.523C145.394 183.811 145.186 185.164 145.204 186.462C145.209 186.94 145.158 187.44 145.224 187.909C145.295 188.414 145.409 188.861 145.404 189.381C145.394 190.273 145.404 191.164 145.396 192.056C145.389 192.96 145.578 193.828 145.781 194.356L145.783 194.351Z" fill="#EABEB0"/>
<path d="M166.675 187.642C167.136 185.745 167.297 183.811 167.826 181.929C168.046 181.147 168.272 180.366 168.497 179.586C168.775 178.621 168.99 177.548 169.537 176.692C170.367 175.392 171.543 174.561 173.031 174.22C173.823 174.038 174.637 173.912 175.447 173.854C176.533 173.776 177.456 173.985 178.516 174.177C179.938 174.435 181.56 174.902 183.015 174.574C183.511 174.462 184.035 174.26 184.52 174.114C185.282 173.884 185.76 173.392 186.458 173.068C188.523 172.116 190.178 170.212 190.881 168.033C190.982 167.718 191.213 166.788 190.914 166.564C190.803 166.48 190.304 166.556 190.163 166.556C189.75 166.556 189.34 166.558 188.928 166.556C187.501 166.548 186.097 166.781 184.677 166.915C183.83 166.995 182.949 167.129 182.096 167.134C181.251 167.139 180.444 167.303 179.604 167.331C177.066 167.415 174.582 167.705 172.039 167.705C171.234 167.705 170.43 167.71 169.625 167.705C169.028 167.702 168.358 167.743 167.965 168.266C167.305 169.154 167.277 170.533 167.108 171.571C166.852 173.124 166.867 174.682 166.867 176.25C166.867 177.104 166.913 177.97 166.877 178.821C166.842 179.7 166.67 180.523 166.675 181.412C166.683 182.912 166.675 184.414 166.675 187.639V187.642Z" fill="#EABEB0"/>
<path d="M172.234 161.382C174.422 159.912 176.543 157.627 177.269 155.043C177.863 152.925 178.506 150.728 181.132 150.634C182.537 150.584 183.885 150.733 185.269 150.935C186.408 151.102 187.663 151.579 188.819 151.374C189.636 151.23 190.284 150.874 190.927 150.344C191.526 149.849 192.22 149.119 192.559 148.42C192.842 147.834 192.989 147.319 193.148 146.715C193.272 146.251 193.462 145.98 193.131 145.564C192.819 145.17 192.45 145.281 191.982 145.276C190.686 145.263 189.401 145.491 188.121 145.645C187.562 145.713 187 145.629 186.438 145.703C185.755 145.794 185.115 145.862 184.422 145.857C182.699 145.844 180.968 145.809 179.247 145.844C178.671 145.857 178.127 146.026 177.552 146.049C177.104 146.066 176.73 146.061 176.297 146.182C175.634 146.369 175.176 146.541 174.802 147.097C174.349 147.768 174.185 148.569 174.149 149.389C174.091 150.698 173.962 151.963 173.962 153.286C173.962 154.538 174.038 155.809 173.868 157.051C173.775 157.73 173.684 158.412 173.603 159.094C173.56 159.46 173.623 160.278 172.236 161.382H172.234Z" fill="#EABEB0"/>
<path d="M175.493 136.847C176.092 135.402 176.409 133.882 177.127 132.493C177.836 131.127 178.898 129.806 180.298 129.092C181.373 128.541 182.926 128.549 184.113 128.597C185.34 128.647 186.484 128.892 187.569 129.46C188.579 129.986 189.082 130.839 189.829 131.645C190.236 132.084 190.684 132.675 191.359 132.41C191.972 132.17 192.564 131.193 192.807 130.64C192.969 130.269 193.05 129.872 193.214 129.496C193.434 128.996 193.735 128.534 193.9 128.011C194.14 127.251 194.254 126.453 194.421 125.68C194.507 125.279 194.828 124.521 194.651 124.12C194.444 123.652 193.922 123.61 193.477 123.62C192.377 123.645 191.339 124.102 190.266 124.342C188.953 124.635 187.567 124.95 186.218 124.971C184.951 124.991 183.739 124.885 182.484 124.791C181.965 124.751 181.461 124.781 180.945 124.685C180.561 124.612 180.186 124.463 179.802 124.405C179.156 124.306 178.327 124.332 177.694 124.486C177.259 124.592 176.558 124.463 176.29 124.955C176.239 125.049 176.285 125.173 176.254 125.256C176.221 125.347 176.135 125.508 176.113 125.602C175.991 126.072 175.946 126.63 175.89 127.112C175.738 128.473 175.865 129.925 175.877 131.296C175.885 132.079 175.695 132.822 175.67 133.599C175.65 134.281 175.766 134.864 175.488 136.849L175.493 136.847Z" fill="#EABEB0"/>
<path d="M182.967 137.806C182.977 137.175 183.063 136.559 183.227 135.953C183.458 135.72 183.701 135.506 183.961 135.306C184.379 134.981 184.735 134.774 185.272 134.723C186.097 134.647 186.99 134.776 187.488 135.501C188.02 136.274 187.746 137.013 187.109 137.635C185.973 138.738 184.257 138.029 182.967 137.617V137.809V137.806Z" fill="#EABEB0"/>
<path d="M3.94452 144.705C3.97741 145.238 4.05585 145.763 4.17983 146.281C4.51128 146.324 4.65044 146.619 4.92876 146.773C5.47021 147.074 6.29758 146.996 6.88458 147.046C8.96944 147.228 11.0417 147.48 13.0784 147.963C14.5485 148.311 15.8945 148.94 16.7548 150.248C17.2937 151.069 17.3646 152.235 17.5948 153.18C17.944 154.617 19.8973 157.266 21.5368 156.016C22.268 155.46 22.521 154.604 22.6931 153.72C22.8145 153.084 22.6804 152.432 22.7741 151.791C22.8601 151.195 22.9739 150.677 22.9082 150.071C22.7994 149.074 22.6602 148.011 22.3996 147.041C22.2503 146.485 21.9669 145.799 21.4938 145.46C20.9726 145.089 19.8973 145.233 19.285 145.268C18.3792 145.321 17.4885 145.627 16.5853 145.67C15.3328 145.728 14.0424 145.713 12.8128 145.513C11.7425 145.339 10.6065 145.276 9.52102 145.281C8.63799 145.281 7.75243 145.278 6.8694 145.281C6.11035 145.283 4.98948 145.337 3.94705 144.705H3.94452Z" fill="#EABEB0"/>
<path d="M2.98556 130.521C3.51943 129.642 3.77498 129.19 4.54415 128.637C5.66248 127.832 7.05914 127.266 8.37483 126.892C10.1358 126.39 12.203 126.806 13.5187 128.135C14.6977 129.324 15.2873 131.122 15.9072 132.64C16.3221 133.655 16.8307 135.14 15.8667 136.039C14.7509 137.079 13.0126 137.051 11.5957 137.041C10.8898 137.036 10.0827 137.274 10.738 138.023C11.8032 139.243 13.9589 139.289 15.4416 139.582C16.1602 139.723 16.8889 139.624 17.5973 139.768C18.0856 139.867 18.1641 139.905 18.6549 139.773C18.9864 139.685 19.1837 139.637 19.4646 139.443C19.839 139.18 20.211 138.948 20.3754 138.534C20.7752 137.526 20.7195 136.188 20.5728 135.13C20.3248 133.364 20.378 131.566 20.0946 129.799C19.92 128.713 19.8061 127.617 19.6189 126.549C19.4418 125.529 18.9105 124.413 17.9363 123.993C17.3822 123.756 16.8408 123.817 16.2487 123.819C15.4669 123.822 14.6825 123.814 13.9007 123.819C13.1695 123.824 12.4864 123.764 11.7602 123.668C10.7051 123.529 9.68293 123.834 8.62785 123.824C7.90928 123.817 7.23372 123.806 6.52527 123.915C5.98635 123.998 5.48031 123.945 4.94898 124.001C2.65411 124.241 3.25376 127.327 2.98303 130.526L2.98556 130.521Z" fill="#EABEB0"/>
<path d="M3.17535 118.256C3.29427 117.723 3.43849 117.2 3.61307 116.683C3.84079 116.683 3.97489 116.471 4.13935 116.347C4.45056 116.11 4.70358 115.913 5.08816 115.799C5.78902 115.592 6.47217 115.567 7.19833 115.572C9.13897 115.582 11.0796 115.663 13.0025 115.347C15.014 115.016 16.2538 113.473 16.8889 111.625C17.4582 109.968 17.0002 107.827 15.0469 107.408C14.0728 107.198 13.2758 107.501 12.332 107.668C11.3883 107.832 10.4167 108.079 9.46283 108.107C8.07883 108.148 6.17614 108.256 5.19443 107.044C4.68081 106.41 4.83262 105.491 5.16154 104.84C5.35636 104.453 5.44239 104.216 5.84975 104.021C6.36843 103.774 6.93013 103.579 7.48677 103.473C8.62788 103.256 9.87019 102.923 11.0391 103.158C12.0563 103.365 13.1518 103.36 14.1968 103.314C14.7028 103.292 15.176 103.125 15.6871 103.112C16.2235 103.097 16.608 103.062 17.1293 102.968C17.8731 102.834 18.5942 102.807 19.0446 103.501C19.5835 104.329 19.4671 105.582 19.4671 106.519C19.4671 108.17 19.2748 109.766 19.2748 111.415C19.2748 112.695 19.4646 113.923 19.4671 115.2C19.4671 115.92 19.6189 116.902 19.0446 117.443C18.7562 117.716 18.2501 117.801 17.8858 117.923C17.2811 118.12 16.7371 118.352 16.1121 118.476C15.3505 118.627 14.6294 118.567 13.8653 118.685C12.9646 118.822 12.0967 118.897 11.1834 118.791C9.60705 118.61 8.04341 118.551 6.46711 118.455C6.01421 118.428 5.59673 118.294 5.1413 118.259C4.6884 118.226 4.2026 118.001 3.17535 118.259V118.256Z" fill="#EABEB0"/>
<path d="M4.13424 82.2212C5.61186 82.2212 7.16539 82.0873 8.63036 82.2287C9.88027 82.3499 11.2314 82.9813 12.2308 83.7363C14.1234 85.1681 15.5023 87.1327 16.4638 89.2817C17.0761 90.6503 17.577 92.0342 18.1261 93.4256C18.2779 93.8119 18.4854 94.2261 18.6954 94.5846C18.8447 94.8372 19.2293 95.6907 19.5405 95.6326C19.7935 95.5846 19.9681 95.0872 20.0414 94.8902C20.2616 94.3094 20.3147 93.5821 20.4083 92.971C20.5677 91.9281 20.4235 90.7564 20.4235 89.6983C20.4235 89.2034 20.4235 88.7084 20.4286 88.2135C20.4361 87.5948 20.2666 87.0418 20.2236 86.4358C20.1679 85.6782 20.3451 84.8903 20.1907 84.1403C20.0465 83.4358 20.0288 82.754 20.0414 82.0343C20.0516 81.4838 20.0161 81.4484 19.4646 81.4585C18.7789 81.4712 18.0907 81.4636 17.405 81.4585C16.2664 81.451 15.1658 81.6505 14.0146 81.6505C13.4377 81.6505 12.8532 81.6858 12.2789 81.6606C11.664 81.6328 11.0846 81.4585 10.4673 81.4535C8.48361 81.4434 6.49995 81.4585 4.13171 82.2237L4.13424 82.2212Z" fill="#EABEB0"/>
<path d="M2.79328 62.6683C4.63272 61.9057 6.69228 61.5345 8.69617 61.729C9.96379 61.8527 11.2238 62.1987 12.4838 62.388C13.5465 62.5471 14.3562 62.782 15.3227 63.2441C17.1419 64.1153 17.8756 66.037 18.4146 67.8602C18.9004 69.5041 19.08 71.2086 19.4696 72.8803C19.6012 73.4485 19.7834 74.0142 19.9959 74.5571C20.1528 74.9561 20.3501 75.1126 20.6285 75.4434C20.5956 74.8349 20.8233 74.3525 20.8106 73.7364C20.7803 72.1026 21.1598 70.5167 21.2028 68.8905C21.2585 66.7996 21.0029 64.739 21.0029 62.6456C21.0029 62.1229 21.3141 60.1709 20.7727 59.8325C20.4691 59.6431 19.6822 59.8199 19.3836 59.8906C18.9459 59.9941 18.574 59.9512 18.1287 59.9765C17.7339 59.9992 17.3747 60.1659 16.98 60.1835C16.1728 60.2214 15.4062 60.3729 14.5889 60.3679C13.5668 60.3628 12.5446 60.3679 11.5224 60.3679C10.5862 60.3679 9.62981 60.4184 8.69364 60.378C7.86375 60.3426 7.07686 60.176 6.22925 60.176C5.6043 60.176 5.11598 60.2416 4.5138 60.3502C4.07608 60.4285 3.80282 60.4992 3.36257 60.5547C3.06401 60.5926 3.10702 60.4891 2.97545 60.7366C2.97039 60.7467 2.84388 61.2946 2.83629 61.3249C2.73003 61.7441 2.79328 62.234 2.79328 62.6658V62.6683Z" fill="#EABEB0"/>
<path d="M3.94451 44.2696C4.74404 43.5045 5.16911 43.1762 6.15082 42.7469C7.02879 42.3631 7.927 42.0525 8.8581 41.8151C11.0771 41.2469 13.6072 40.7217 15.8743 41.2444C16.7067 41.4363 17.5037 41.6459 18.0856 42.2949C18.7334 43.0196 19.1053 43.9035 19.333 44.8428C19.5481 45.7241 19.748 46.6054 19.8391 47.5095C19.9251 48.3655 19.8391 49.1736 20.006 50.0221C20.0819 50.4135 20.0288 50.7847 20.1376 51.1685C20.2287 51.4917 20.3628 51.8099 20.4792 52.1256C20.6614 52.618 20.9675 53.1256 21.0485 53.6407C21.2433 53.618 21.2787 53.4311 21.4305 53.32C21.6026 53.1937 21.7645 53.2367 21.9189 53.0473C22.3211 52.5574 22.1542 51.5574 22.1542 50.9917C22.1542 48.2872 21.8733 45.3832 22.7715 42.7797C23.0372 42.0121 23.3155 41.2065 23.6874 40.4742C23.9253 40.0045 24.444 39.2671 24.2719 38.7015C24.1302 38.2318 23.5786 38.2848 23.1738 38.3177C21.9922 38.4111 20.8739 38.9111 19.6695 38.906C16.9698 38.8959 14.303 39.5449 11.6135 39.6611C10.442 39.7116 9.32872 40.055 8.15219 40.05C7.42603 40.0474 6.76059 39.9894 6.05467 39.8656C5.4702 39.7621 4.93634 39.5778 4.32404 39.6636C3.9268 39.7192 4.00017 39.6535 3.94198 40.0474C3.92427 40.1636 3.91162 40.5096 3.93692 40.6257C3.99764 40.9085 4.12415 41.0929 4.14186 41.3883C4.16211 41.7217 4.1368 42.0651 4.1368 42.3984C4.1368 43.0853 4.1368 43.7721 3.94451 44.2671V44.2696Z" fill="#EABEB0"/>
<path d="M39.2126 24.9087C39.2126 23.1613 39.2025 21.4517 39.587 19.7346C39.9767 17.982 40.3208 16.2295 40.8825 14.525C41.4164 12.9064 41.9148 11.1867 42.851 9.74983C43.6277 8.55793 44.5133 7.66652 45.6949 6.8736C46.1048 6.60088 46.8208 6.45694 46.9853 5.9317C47.1168 5.51251 46.9043 5.4014 46.4995 5.35342C45.9201 5.28776 45.3331 5.39382 44.7739 5.50746C44.0427 5.65392 43.228 5.55039 42.4866 5.55039C41.515 5.55039 40.2424 5.36857 39.6376 6.30795C39.2505 6.91148 39.0405 7.70945 39.0152 8.42156C38.9672 9.71195 38.828 10.967 38.828 12.2675C38.828 14.2952 38.8482 16.323 38.8229 18.3482C38.8103 19.4037 39.1316 20.4366 39.2101 21.4871C39.2581 22.1259 39.3467 22.7547 39.4023 23.3911C39.4428 23.8759 39.6579 24.4214 39.2101 24.9062L39.2126 24.9087Z" fill="#EABEB0"/>
<path d="M34.0358 6.31548C33.082 6.57557 31.7207 6.68668 31.1514 7.64122C30.3468 8.98716 30.5847 10.5654 30.5847 12.0705C30.5847 13.7219 30.6353 15.381 30.5948 17.03C30.5492 18.9315 30.3873 21.1082 29.7345 22.9087C29.2133 24.3456 28.1329 25.7041 27.1259 26.843C26.8274 27.1814 26.5617 27.545 26.2075 27.8278C25.6002 28.3127 24.8766 28.593 24.2086 28.9793C23.0979 29.6207 21.9618 30.1864 20.8435 30.8051C20.4614 31.0172 18.9003 31.6308 18.9079 32.1561C19.2773 32.2621 19.7631 32.1889 20.1528 32.1889H22.1491C23.4066 32.1889 24.6894 32.2621 25.9443 32.1939C26.9716 32.1359 27.8344 31.8682 28.6617 31.2394C29.1602 30.8606 29.5169 30.3278 30.0508 30.0323C30.567 29.747 31.0173 29.3177 31.4525 28.9263C32.2698 28.1915 32.5127 27.098 32.5 26.0147C32.4899 25.0652 32.8011 24.1057 32.6544 23.1738C32.4772 22.0526 32.5051 20.9845 32.5 19.8456C32.4924 18.6386 32.7024 17.482 32.6923 16.2724C32.6822 15.0553 32.9099 13.8709 32.8897 12.6563C32.8593 10.9568 33.4387 9.34826 34.0358 6.31042V6.31548Z" fill="#EABEB0"/>
<path d="M61.0632 4.59082C61.6122 5.28273 62.2195 5.97969 62.642 6.76504C63.0747 7.57058 63.3909 8.50744 63.7021 9.36349C64.4713 11.4771 64.57 13.7927 65.3189 15.9164C65.7313 17.0907 66.4347 18.3331 67.5809 18.9214C67.9452 19.1083 68.3273 19.2624 68.7119 19.3962C69.395 19.631 69.9517 19.6588 70.6525 19.7497C71.151 19.8154 71.5001 19.9972 71.9986 19.8381C72.3756 19.7194 72.6311 19.4846 72.9474 19.2548C73.8911 18.573 74.0404 17.3407 74.296 16.2523C74.5819 15.0276 74.9412 13.8508 75.2498 12.6311C75.3738 12.1412 75.3764 11.6816 75.4573 11.1943C75.513 10.8534 75.6876 10.5756 75.6193 10.217C76.1202 10.5604 75.8217 12.0276 75.8217 12.5225C75.8217 13.9038 75.9988 15.419 75.7787 16.7826C75.6218 17.7472 75.5307 18.7649 75.6193 19.7472C75.6673 20.2876 75.8166 20.7043 75.8217 21.2674C75.8242 21.8078 75.9026 22.1335 75.2448 22.2345C74.5591 22.3406 73.6381 22.2547 72.9702 22.2345C71.8113 22.2017 70.6854 22.0224 69.519 22.0275C68.851 22.0325 68.1805 22.0275 67.5126 22.0376C66.3411 22.0502 65.2177 21.732 64.0311 21.8583C63.1936 21.9467 62.4016 22.2093 61.5894 22.3734C61.22 22.4492 60.5318 22.5502 60.2383 22.285C60.046 22.1133 60.1017 21.934 60.0992 21.6765C60.0916 21.0098 60.1042 20.3406 60.1042 19.674C60.1042 18.5427 60.1093 17.4088 60.1042 16.2775C60.0941 14.1867 60.6938 12.1387 60.6786 10.0579C60.6735 9.19682 60.6786 8.3332 60.6786 7.4721C60.6786 7.07059 60.7621 6.55797 60.6887 6.16403C60.6356 5.88626 60.423 5.65394 61.0632 4.59082Z" fill="#EABEB0"/>
<path d="M81.7625 8.42407C81.9826 10.4013 81.9396 12.3255 82.7594 14.1892C83.3236 15.472 84.2901 16.8608 85.4211 17.7118C86.3649 18.4214 87.7287 18.8381 88.8268 19.2371C89.6997 19.5552 90.4714 19.8987 91.3898 20.0729C92.1995 20.227 92.9104 20.1158 93.6467 19.785C94.2666 19.5073 94.6993 18.8911 95.18 18.3962C95.8454 17.7169 96.3667 16.8406 96.5008 15.8911C96.6349 14.9391 96.6526 13.9518 96.9537 13.0351C97.4698 13.1917 96.9764 16.1058 96.9233 16.4922C96.8525 17.0098 96.941 17.5325 96.9157 18.0553C96.8955 18.4997 96.7437 18.9138 96.7032 19.3532C96.6551 19.9164 96.8019 20.5174 96.7184 21.078C96.6045 21.8406 95.6354 21.8456 94.9599 21.8406C94.2059 21.8355 93.4494 21.8406 92.6929 21.8406C91.8604 21.8406 90.9116 21.9593 90.0944 21.8254C89.2974 21.6941 88.6193 21.6512 87.7995 21.6512C87.3846 21.6512 86.9645 21.6285 86.5496 21.6436C86.0866 21.6613 85.664 21.8204 85.2035 21.8532C84.6343 21.8911 84.0498 21.8305 83.478 21.8431C83.0908 21.8507 82.8758 21.8027 82.7619 21.4214C82.5064 20.5527 82.4836 19.4517 82.3824 18.5426C82.2205 17.0957 82.0256 15.6538 81.808 14.2169C81.6411 13.1235 81.4513 12.0099 81.3703 10.9064C81.3223 10.2549 81.1882 9.65638 81.76 8.4266L81.7625 8.42407Z" fill="#EABEB0"/>
<path d="M102.657 4.39889C102.851 5.962 102.806 7.42915 102.834 8.99479C102.864 10.6008 103.279 12.4973 103.843 13.9998C104.61 16.0402 105.738 17.7144 107.072 19.4037C107.424 19.8507 107.671 20.1209 107.641 20.6891C107.616 21.1588 107.358 21.3886 106.872 21.4669C105.969 21.6133 104.903 21.4568 103.99 21.4568C103.332 21.4568 102.184 21.7093 102.077 20.8861C102.001 20.3002 102.077 19.6083 102.08 19.03C102.082 18.0174 101.913 17.078 101.882 16.0831C101.817 13.9947 101.89 11.8937 101.89 9.80539C101.89 8.95944 101.898 8.11349 101.89 7.26754C101.89 6.94684 101.86 6.62361 101.905 6.30543C101.951 5.9923 102.138 5.67665 102.657 4.39636V4.39889Z" fill="#EABEB0"/>
<path d="M174.916 49.6357C175.032 48.762 174.979 48.209 175.417 47.5069C175.92 46.6989 176.495 46.0928 177.208 45.459C178.83 44.0221 180.68 43.4918 182.825 43.7343C184.444 43.9186 186.013 44.3858 187.627 44.6156C188.3 44.7115 189.209 44.7721 189.872 44.6105C191.023 44.3277 192.139 43.1939 192.172 41.9691C192.194 41.0828 192.86 39.7469 191.59 39.4666C190.542 39.2368 189.419 39.3833 188.351 39.2419C186.529 38.9995 184.697 38.8985 182.861 38.9035C181.092 38.906 179.356 38.704 177.595 38.7116C176.373 38.7166 174.951 38.906 173.752 38.6687C173.484 38.6156 172.866 38.3404 172.593 38.5071C172.35 38.6535 172.464 38.5954 172.421 38.8985C172.378 39.2116 172.474 39.406 172.563 39.6939C172.745 40.2671 172.798 40.8631 172.988 41.4338C173.481 42.906 173.99 44.363 174.387 45.8605C174.534 46.416 174.779 46.9236 174.878 47.4943C174.949 47.9135 174.85 48.2999 174.916 49.6357Z" fill="#EABEB0"/>
<path d="M176.259 69.1859C176.5 67.6203 176.808 66.5193 178 65.3956C179.167 64.2946 180.669 63.5471 182.112 62.8678C184.386 61.7946 186.911 62.3527 189.292 62.6683C190.537 62.835 191.678 63.0522 192.943 63.0522C193.194 63.0522 193.847 63.1658 194.054 63.0193C194.231 62.8931 194.315 62.2997 194.282 62.0901C194.231 61.7593 194.12 61.5825 194.087 61.2315C194.052 60.8552 194.074 60.7138 193.71 60.5547C192.9 60.2037 191.729 60.3653 190.863 60.3679C189.399 60.3729 187.934 60.3679 186.466 60.3679H182.38C181.256 60.3679 179.991 60.2088 178.883 60.4108C177.967 60.5775 176.55 60.8148 175.723 60.3881C175.604 60.7845 175.685 61.2997 175.685 61.7062C175.685 62.734 175.67 63.7188 175.829 64.7314C175.953 65.5193 176.09 66.3021 176.216 67.0875C176.295 67.5673 176.512 68.1228 176.259 69.1834V69.1859Z" fill="#EABEB0"/>
<path d="M177.216 87.5872C177.446 87.0594 177.631 86.3195 178.099 85.9988C178.418 85.7791 178.85 85.6175 179.187 85.4003C180.47 84.567 181.892 84.0569 183.384 83.7387C186.051 83.1706 188.887 82.8549 191.618 82.9787C192.478 83.0165 193.328 83.4458 194.087 83.8271C194.537 84.0519 195.084 84.3069 195.441 84.6377C195.387 84.1251 195.425 83.5948 195.425 83.0797C195.425 82.812 195.59 81.6731 195.398 81.4787C195.274 81.3549 194.73 81.4484 194.545 81.4484C193.783 81.4433 193.055 81.5696 192.296 81.6251C189.758 81.8145 187.142 81.6403 184.594 81.6403C183.832 81.6403 183.068 81.6226 182.306 81.6327C181.492 81.6428 180.702 81.8221 179.893 81.8372C179.412 81.8448 178.868 81.9029 178.397 81.7893C178.175 81.7362 177.747 81.4686 177.514 81.6479C177.307 81.8095 177.431 82.2287 177.395 82.4938C177.357 82.7817 177.236 83.0443 177.208 83.3347C177.173 83.7084 177.246 84.0948 177.231 84.4685C177.198 85.2236 177.051 85.7917 177.173 86.5493C177.241 86.9685 177.345 87.365 177.218 87.5796L177.216 87.5872Z" fill="#EABEB0"/>
<path d="M187.951 103.112C186.846 103.415 185.664 103.531 184.725 104.254C183.774 104.989 183.144 105.809 182.767 106.971C182.317 108.36 182.003 109.908 181.737 111.347C181.507 112.592 181.552 114.228 180.91 115.375C180.204 116.637 178.476 116.17 177.59 115.38C176.477 114.385 176.831 112.372 176.831 111.052C176.831 109.087 177.023 107.17 177.023 105.208C177.023 104.658 176.91 103.978 177.056 103.448C177.208 102.893 177.474 102.749 177.97 102.63C178.58 102.483 179.258 102.486 179.888 102.526C180.788 102.582 181.742 102.716 182.628 102.877C183.41 103.019 184.191 102.925 184.976 103.069C185.274 103.125 185.57 103.09 185.869 103.13C186.178 103.173 186.479 103.36 187.946 103.112H187.951Z" fill="#EABEB0"/>
<path d="M168.016 7.08318C167.254 9.82304 167.047 11.4165 167.616 14.2245C168.034 16.2851 168.831 18.2396 169.742 20.131C170.556 21.8229 171.528 23.6335 172.692 25.1183C173.663 26.3582 175.045 27.3481 176.085 28.5678C176.606 29.1789 177.373 29.7975 176.975 30.5576C176.581 31.3102 174.891 31.5223 174.152 31.6258C173.332 31.7394 172.295 32.1132 171.46 32.0046C170.964 31.9415 169.921 31.7243 169.534 31.4415C169.122 31.141 168.94 30.3228 168.785 29.9036C168.423 28.9036 168.312 27.7597 168.019 26.7142C167.361 24.3759 167.196 22.0047 166.784 19.6335C166.544 18.2497 166.465 16.8886 166.187 15.5023C165.931 14.2346 166.242 12.9392 166.017 11.669C165.825 10.5756 165.726 9.73214 165.719 8.60336C165.716 8.16902 165.676 7.72206 165.752 7.30287C165.83 6.87359 166.27 6.90389 168.019 7.07813L168.016 7.08318Z" fill="#EABEB0"/>
<path d="M145.017 5.93417C145.214 7.55536 145.245 9.17402 145.414 10.775C145.508 11.6715 145.867 12.2901 146.178 13.1285C146.411 13.7548 146.421 14.4517 146.636 15.0755C147.314 17.0426 149.257 18.5476 150.861 19.732C151.894 20.4946 153.523 21.5703 153.756 22.8935C153.986 24.2142 152.061 23.9365 151.152 23.9491C150.047 23.9642 148.873 23.4794 147.881 23.0021C146.785 22.4769 146.621 21.2168 146.358 20.1335C146.11 19.1108 146.168 18.0805 145.892 17.0477C145.573 15.8558 145.515 14.7977 145.368 13.5982C145.222 12.4139 145.009 11.3583 145.032 10.1488C145.057 8.83312 144.602 7.63364 145.022 5.93164L145.017 5.93417Z" fill="#EABEB0"/>
<path d="M138.114 5.9342C138.474 8.40387 138.633 10.3912 137.75 12.7573C137.214 14.1891 136.295 16.0174 135.076 16.9846C132.791 18.7952 129.929 18.6108 127.207 18.5856C126.458 18.578 125.795 18.5022 125.304 19.1941C125.071 19.5224 124.608 20.434 124.765 20.8002C124.92 21.1638 125.942 21.6007 126.288 21.6739C126.835 21.7875 127.571 21.6007 128.128 21.6335C128.897 21.6815 129.588 21.9769 130.352 22.0552C132.649 22.2926 135.26 21.5476 137.52 22.0199C138.276 22.1789 138.276 22.5704 138.985 22.136C139.645 21.7345 139.655 21.1941 139.645 20.4972C139.633 19.4441 139.749 18.3734 139.562 17.3381C139.314 15.9669 139.453 14.5654 139.177 13.2068C138.696 10.8306 138.879 8.36347 138.112 5.9342H138.114Z" fill="#EABEB0"/>
<path d="M117.797 10.5326C117.797 13.4871 118.136 16.3507 115.118 18.0401C113.539 18.9239 111.641 19.5628 110.171 20.5956C110.331 21.6234 112.33 21.6789 113.053 21.8405C114.26 22.1133 115.72 22.0501 116.752 21.3809C117.673 20.7825 118.01 19.6209 118.2 18.6032C118.354 17.7749 118.194 16.6739 118.189 15.8255C118.182 14.7068 117.6 13.5427 117.797 12.4492V10.5326Z" fill="#EABEB0"/>
</g>
<g style="mix-blend-mode:soft-light" opacity="0.5">
<path d="M33.8436 174.606C33.8461 176.629 33.8385 178.654 33.8132 180.677C34.0207 180.982 34.175 181.316 34.2763 181.674C34.5242 183.162 34.5849 184.662 34.8481 186.152C35.2225 188.273 35.8424 190.275 36.27 192.371C38.6256 192.025 37.8691 185.798 37.8666 184.381C37.8666 182.268 38.0386 180.217 37.4466 178.172C37.1733 177.227 36.6192 174.169 35.5666 174.033L33.8411 174.609L33.8436 174.606Z" fill="#F7BCB1"/>
<path d="M55.6942 176.334C55.1476 181.169 55.0009 186.445 56.1116 191.268C56.4406 192.697 56.8505 194.803 58.4242 195.232C60.6331 193.119 60.2864 190.015 60.2915 187.24C60.2965 184.753 60.251 182.475 59.788 180.038C59.4692 178.359 59.4338 176.894 57.9941 175.755L55.6942 176.331V176.334Z" fill="#F7BCB1"/>
<path d="M76.9704 177.483C76.3606 182.402 75.7382 187.599 77.2588 192.414C77.861 194.318 78.8452 195.77 80.2748 193.482C80.9352 192.424 80.839 191.452 80.9807 190.29C81.1553 188.854 81.5652 187.614 81.5829 186.139C81.6107 183.811 81.6714 178.397 79.2703 176.909L76.9704 177.485V177.483Z" fill="#F7BCB1"/>
<path d="M24.4516 166.367C22.053 166.702 19.8239 166.432 17.4405 166.069C16.8738 165.983 13.668 165.137 14.4828 164.182C15.7478 162.7 18.7183 162.93 20.4363 162.912C21.5015 162.902 22.4983 163.058 23.4826 163.49C24.0443 163.738 24.4061 164.215 24.4516 166.364V166.367Z" fill="#F7BCB1"/>
<path d="M18.1262 175.374C16.8838 175.197 16.2715 175.089 15.1102 175.586C14.1614 175.995 13.3365 176.722 12.9292 177.68C12.0411 179.76 13.6149 182.058 15.2342 183.22C17.0053 184.49 20.421 185.755 21.9796 183.596C22.7893 182.472 22.85 181.326 22.6349 179.985C22.5109 179.207 22.3313 178.392 21.9417 177.695C21.5419 176.985 20.9144 176.407 18.1287 175.374H18.1262Z" fill="#F7BCB1"/>
<path d="M23.3029 187.066C23.0702 186.53 22.6603 185.912 22.802 185.356C22.8551 185.144 23.0955 184.793 23.222 184.606C23.5155 184.177 24.0013 183.778 24.5301 184.091C24.9223 184.323 25.2107 184.95 25.193 185.384C25.1601 186.139 24.6945 186.715 24.0696 187.066H23.3029Z" fill="#F7BCB1"/>
<path d="M48.2201 184.573C47.1599 184.273 46.3452 184.076 45.2623 184.283C44.1414 184.498 43.2989 185.116 42.5879 185.993C41.2596 187.631 41.4341 190.49 43.0484 191.876C44.6702 193.27 47.5344 193.455 49.2827 192.222C51.3069 190.795 52.2405 187.914 50.9046 185.725L48.2201 184.576V184.573Z" fill="#F7BCB1"/>
<path d="M66.622 190.326C66.3235 189.788 65.6074 189.023 65.9136 188.346C66.159 187.798 66.6777 187.283 67.1736 186.947C68.717 185.897 70.7892 185.922 72.2592 187.035C73.16 187.717 73.6534 188.861 72.9601 189.856C72.487 190.533 71.9177 190.75 71.1232 190.914C69.9087 191.164 68.6284 191.222 67.3912 191.285L66.6246 190.328L66.622 190.326Z" fill="#F7BCB1"/>
<path d="M88.2802 177.291C86.8406 177.447 84.9961 177.904 83.855 176.725C82.8075 175.642 82.891 174.622 84.2547 173.829C85.3984 173.162 86.8279 173.096 88.1057 172.884C89.9502 172.576 91.8149 172.336 93.672 172.106C95.3394 171.902 97.0169 171.796 98.6944 171.733C99.9545 171.685 101.202 171.526 102.464 171.533C103.641 171.541 104.886 171.404 106.052 171.569C106.604 171.644 107.737 171.831 108.198 172.195C109.463 173.197 107.542 174.435 106.675 174.763C105.432 175.235 104.005 175.341 102.702 175.553C100.693 175.884 98.7374 176.336 96.7007 176.483C93.2419 176.733 89.8388 177.111 88.2802 177.288V177.291Z" fill="#F7BCB1"/>
<path d="M99.3978 180.932C99.0386 182.172 99.0132 183.046 99.0158 184.323C99.0208 186.025 99.0107 187.705 99.1448 189.404C99.1904 189.98 99.5016 193.222 100.772 192.242C101.49 191.687 101.723 190.588 102.039 189.796C102.437 188.806 102.586 187.841 102.71 186.783C102.852 185.576 102.917 184.465 102.672 183.263C102.48 182.321 102.092 181.596 99.3953 180.932H99.3978Z" fill="#F7BCB1"/>
<path d="M120.482 180.551C120.079 184.096 119.432 187.785 120.305 191.316C120.53 192.22 121.011 193.058 121.431 193.881C121.603 194.217 121.871 194.962 122.22 195.172C122.825 195.538 123.09 194.452 123.245 193.965C124.173 190.99 124.14 187.654 123.67 184.604C123.478 183.361 123.318 182.174 122.971 180.96C122.736 180.134 122.544 179.523 120.482 180.551Z" fill="#F7BCB1"/>
<path d="M142.714 178.442C142.436 179.086 142.186 179.74 141.96 180.407C141.9 181.071 141.834 181.732 141.763 182.397C141.586 183.876 141.343 185.351 141.346 186.846C141.346 188.096 141.508 189.349 141.753 190.573C141.9 191.301 142.026 192.159 142.375 192.828C142.828 192.929 143.064 191.753 143.137 191.54C143.676 189.998 143.987 188.475 144.124 186.844C144.276 185.033 144.427 183.124 144.081 181.323C143.911 180.44 143.661 179.182 142.717 178.445L142.714 178.442Z" fill="#F7BCB1"/>
<path d="M162.842 175.182C162.409 179.104 161.777 183.083 161.693 187.03C161.655 188.788 161.84 190.402 162.414 192.056C162.642 192.71 162.908 193.485 163.419 193.985C164.008 193.952 164.562 192.359 164.735 191.884C165.473 189.864 166.184 187.722 166.473 185.588C166.792 183.237 166.779 180.821 166.501 178.465C166.382 177.457 166.205 176.472 165.883 175.508C165.701 174.965 165.425 174.407 162.842 175.182Z" fill="#F7BCB1"/>
<path d="M182.008 163.49C181.436 163.336 180.859 163.192 180.282 163.066C179.923 163.114 179.561 163.159 179.199 163.2C177.575 163.392 175.979 163.657 174.39 164.043C173.512 164.258 171.991 164.397 171.295 165.033C171.024 165.281 170.959 165.313 171.293 165.604C171.824 166.063 173.395 165.988 173.922 165.995C175.66 166.026 177.406 166.008 179.141 165.947C180.89 165.887 182.623 165.712 184.353 165.468C186.337 165.187 188.364 164.945 190.251 164.255L182.01 163.488L182.008 163.49Z" fill="#F7BCB1"/>
<path d="M192.167 141.448C191.031 141.031 190.337 140.844 189.178 140.736C187.549 140.582 185.892 140.395 184.257 140.321C182.919 140.261 181.436 140.42 180.128 140.728C179.779 140.811 179.23 140.96 178.977 141.236C177.78 142.536 181.479 142.791 182.028 142.801C184.918 142.862 187.789 142.756 192.167 141.445V141.448Z" fill="#F7BCB1"/>
<path d="M195.043 119.981C194.525 119.812 193.968 119.536 193.434 119.425C193.052 119.347 192.625 119.387 192.24 119.362C190.375 119.233 188.612 119.256 186.75 119.4C185.229 119.516 183.622 119.647 182.178 120.168C181.631 120.365 180.181 120.708 180.098 121.473C180.05 121.928 180.74 122.443 181.092 122.632C182.147 123.2 183.739 123.258 184.9 123.264C186.825 123.271 188.738 123.019 190.616 122.604C191.281 122.458 191.934 122.332 192.554 122.046C193.007 121.837 193.419 121.476 195.043 119.983V119.981Z" fill="#F7BCB1"/>
<path d="M188.91 109.438C187.855 109.43 187.433 109.259 186.61 109.819C185.51 110.567 184.69 111.319 184.085 112.516C183.67 113.337 183.311 114.19 183.678 115.11C184.103 116.173 185.391 116.413 186.395 116.514C188.607 116.731 191.663 116.289 192.797 114.069C194.024 111.668 191.903 108.9 188.91 109.438Z" fill="#F7BCB1"/>
<path d="M183.734 97.7462C182.395 98.0492 181.072 98.3775 179.736 98.6957C179.06 98.8573 177.444 99.2739 177.889 100.228C178.124 100.731 178.848 100.996 179.328 101.213C180.12 101.574 180.973 101.716 181.831 101.787C183.789 101.951 185.753 102.026 187.719 101.971C189.27 101.925 190.8 101.832 192.245 101.241C192.738 101.039 193.831 100.807 194.059 100.236C194.345 99.5088 192.68 99.0517 192.237 98.8952C190.256 98.1931 188.326 97.8901 183.734 97.7437V97.7462Z" fill="#F7BCB1"/>
<path d="M184.5 91.8043C184.412 91.2134 184.439 90.6351 184.589 90.072C184.581 89.8296 184.695 89.6705 184.933 89.5897C185.325 89.1629 185.864 88.8498 186.39 88.6326C187.481 88.1831 188.822 88.3245 189.629 89.2942C190.335 90.1427 189.667 91.4937 189.092 92.2134C188.25 93.274 186.319 93.8144 185.075 93.3371L184.5 91.8043Z" fill="#F7BCB1"/>
<path d="M183.351 77.4283C182.656 77.1682 182.033 76.797 181.322 76.8677C180.632 76.9359 179.812 77.2288 179.192 77.5596C178.347 78.0116 177.552 78.85 178.587 79.5419C179.321 80.0318 180.29 80.1505 181.13 80.3121C182.15 80.5065 183.136 80.6833 184.176 80.706C186.026 80.7464 187.84 80.451 189.657 80.1606C190.628 80.0065 191.724 79.7969 192.614 79.3525C192.991 79.1656 193.627 78.898 193.528 78.3828C193.432 77.8778 192.394 77.648 191.982 77.5192C191.061 77.2338 190.125 77.2237 189.166 77.2288C187.531 77.2364 185.937 77.2591 183.351 77.4308V77.4283Z" fill="#F7BCB1"/>
<path d="M182.775 70.7187C182.079 70.9308 181.229 70.951 180.991 71.7061C180.735 72.5091 181.095 72.8197 181.818 73.2288C183.65 74.2641 186.327 73.8096 188.164 72.9939C189.206 72.5318 191.175 71.1354 190.689 69.7238C189.801 67.1379 186.355 67.6758 184.31 67.8425L182.777 70.7187H182.775Z" fill="#F7BCB1"/>
<path d="M5.66761 141.448C5.28049 141.859 5.01483 142.329 4.87061 142.862C5.33616 143.271 5.85737 143.445 6.47727 143.529C7.77524 143.7 9.22756 143.622 10.5281 143.518C11.7173 143.422 12.9596 143.339 14.1057 142.983C14.4245 142.885 15.0976 142.741 15.3683 142.488C16.312 141.617 14.6978 140.844 14.0248 140.523C11.9551 139.536 9.5995 140.046 5.67014 141.448H5.66761Z" fill="#F7BCB1"/>
<path d="M3.94458 121.705C4.96424 121.137 5.73341 120.799 6.86187 120.562C8.2484 120.271 9.63241 119.993 11.0544 119.963C12.2764 119.935 13.4327 120.051 14.6168 120.36C15.1608 120.501 16.0034 120.665 16.3045 121.223C16.9699 122.463 14.4549 123.003 13.7212 123.13C12.5067 123.334 11.2138 123.488 9.98157 123.43C8.83793 123.375 7.76008 122.935 6.62909 122.854L3.94458 121.705Z" fill="#F7BCB1"/>
<path d="M4.32663 100.047C4.85037 99.6755 5.36906 99.2083 5.98895 99.0012C6.60884 98.7942 7.30464 98.6931 7.93971 98.5265C9.92337 98.0012 11.8944 97.6452 13.9489 97.582C14.7054 97.5593 18.4222 97.3674 18.1237 99.0012C18.0326 99.4987 17.5164 99.6048 17.1141 99.779C15.9705 100.276 14.9534 100.393 13.7186 100.552C12.4535 100.713 11.1733 100.976 9.89301 100.976C9.22504 100.976 8.56466 100.888 7.89923 100.824C7.53235 100.789 6.61896 100.835 4.3241 100.047H4.32663Z" fill="#F7BCB1"/>
<path d="M4.90097 77.4283C4.43289 77.552 3.96987 77.6985 3.51697 77.8702C3.55998 79.2515 5.30833 79.3399 6.36341 79.3626C8.79744 79.4182 11.5503 79.2237 13.878 78.4762C14.8243 78.1732 15.2646 77.754 14.2829 77.052C12.4257 75.7263 9.66023 76.2136 4.89844 77.4283H4.90097Z" fill="#F7BCB1"/>
<path d="M7.96757 55.3856C7.17562 55.6205 6.59874 55.6381 6.23187 56.3881C6.09271 56.676 5.95861 56.9285 6.05729 57.2543C6.26476 57.9336 7.17562 58.0725 7.75756 58.0876C8.62288 58.1078 9.50844 58.1103 10.3611 57.9664C11.3302 57.8023 13.3821 57.5826 14.0071 56.6407C14.7155 55.575 12.3043 54.7594 11.6085 54.6205L7.96757 55.3881V55.3856Z" fill="#F7BCB1"/>
<path d="M7.58546 47.911C7.57534 46.6282 7.53232 46.2696 8.4862 45.5575C9.38188 44.8883 10.1688 44.3883 11.2567 44.0827C12.58 43.709 14.0197 43.9565 14.804 45.1989C15.6415 46.5246 15.2595 48.2443 14.2752 49.3781C13.4302 50.3503 11.4743 51.1508 10.2674 50.5978L7.58293 47.9135L7.58546 47.911Z" fill="#F7BCB1"/>
<path d="M15.2519 17.2421C13.9413 18.0502 12.9166 18.8154 12.031 20.1057C11.0113 21.5931 9.89299 23.3052 9.46793 25.0653C9.20732 26.141 9.20732 28.2168 10.5179 28.694C11.2188 28.9491 12.1094 28.7092 12.8179 28.5779C14.2626 28.3127 15.6087 27.7597 16.9648 27.2168C19.0522 26.3809 21.3294 25.3304 22.8019 23.5653C23.9152 22.232 25.2233 20.1891 25.2107 18.3785C25.2005 16.775 24.4137 15.7472 22.9208 15.222C20.5982 14.4063 18.0958 15.4694 15.2544 17.2396L15.2519 17.2421Z" fill="#F7BCB1"/>
<path d="M25.4105 10.7245C24.5452 11.323 24.0493 11.5806 23.9 12.626C23.8241 13.1538 23.9759 13.7422 24.2441 14.2018C24.9096 15.3381 26.2531 14.9644 27.0577 14.1891C27.7383 13.5351 28.3455 12.4265 27.9205 11.4947C27.7712 11.169 27.5966 10.6008 27.293 10.4013C26.8249 10.0957 26.4504 10.371 25.9849 10.5351L25.4105 10.7271V10.7245Z" fill="#F7BCB1"/>
<path d="M170.893 9.76746C170.253 11.5654 169.969 13.1285 170.139 15.0527C170.263 16.4669 170.799 17.7219 171.424 18.9795C172.171 20.4719 173.221 22.1941 174.299 23.4718C175.809 25.2647 178.559 27.2445 181.054 26.6334C182.327 26.3228 183.187 25.4238 183.473 24.1158C183.777 22.7345 183.521 21.0779 183.141 19.7421C182.84 18.684 182.231 17.6032 181.77 16.6108C181.305 15.6058 180.844 14.5654 180.171 13.679C179.083 12.2497 177.646 11.2851 176.049 10.5099C175.389 10.1892 174.891 9.97452 174.162 9.94675C173.879 9.93665 173.577 10.0629 170.893 9.76998V9.76746Z" fill="#F7BCB1"/>
<path d="M184.118 28.3582C183.951 26.9567 183.766 25.3305 185.075 24.3406C185.945 23.6815 186.894 23.9669 187.4 24.9012C188.364 26.684 187.056 29.5527 184.887 29.6991L184.121 28.3582H184.118Z" fill="#F7BCB1"/>
<path d="M183.734 46.7595C183.286 46.5701 182.656 46.1459 182.152 46.1232C181.904 46.1131 181.537 46.2923 181.322 46.3833C180.411 46.7696 179.46 47.56 178.901 48.3782C178.385 49.1332 178.16 50.2443 178.413 51.1357C178.757 52.3453 179.893 52.8503 181.057 52.8958C182.312 52.9463 183.382 52.916 184.518 52.3352C185.452 51.8554 186.281 51.4488 186.813 50.5044C187.703 48.9186 186.77 46.1737 184.885 45.7999L183.734 46.7595Z" fill="#F7BCB1"/>
<path d="M176.641 57.4941C177.712 56.7467 178.481 56.3073 179.741 55.9967C180.905 55.7113 182.193 55.6785 183.382 55.7896C184.465 55.8906 185.411 56.2214 186.413 56.6154C186.836 56.782 187.316 56.8957 187.587 57.3022C188.336 58.4259 185.353 58.4664 184.875 58.5093C183.597 58.6204 182.327 58.6507 181.044 58.6532C179.847 58.6532 178.296 58.8931 176.641 57.4941Z" fill="#F7BCB1"/>
<path d="M186.418 34.8758C185.464 34.6485 184.561 34.353 183.587 34.2545C181.808 34.0753 179.951 33.8429 178.162 33.9414C176.912 34.0096 175.571 34.1889 174.324 34.3429C174.137 34.3657 172.5 34.4944 172.568 35.0727C172.618 35.497 174.063 35.7722 174.344 35.8379C175.455 36.103 176.611 36.2949 177.747 36.3757C178.531 36.3959 179.313 36.4237 180.095 36.4591C180.867 36.5677 181.641 36.6081 182.418 36.5803C183.524 36.502 184.601 36.1661 186.416 34.8732L186.418 34.8758Z" fill="#F7BCB1"/>
<path d="M162.842 7.27507C162.591 7.8887 162.338 8.50233 162.085 9.11343C162.009 9.63868 161.959 10.169 161.936 10.6993C161.794 12.5048 161.645 14.2624 161.789 16.0755C161.921 17.7345 162.098 19.429 162.46 21.0577C162.579 21.5981 162.718 22.1284 163.065 22.5678C164.982 21.2774 165.165 17.9062 165.306 15.8861C165.413 14.3583 165.471 12.6967 165.175 11.1841C164.972 10.1488 164.408 9.24222 162.847 7.27002L162.842 7.27507Z" fill="#F7BCB1"/>
<path d="M140.799 7.27515C140.531 8.63877 140.409 9.71956 140.409 11.0781C140.409 12.8054 140.303 14.5352 140.609 16.2422C140.7 16.7573 141.237 20.4391 142.423 19.5225C142.945 19.1184 143.289 17.9543 143.453 17.3836C143.775 16.2624 143.896 15.0781 143.904 13.9114C143.919 11.4645 143.16 8.88876 140.802 7.27515H140.799Z" fill="#F7BCB1"/>
<path d="M120.289 18.3911C119.523 15.7548 118.66 13.1816 119.118 10.4114C119.26 9.5579 119.568 6.81046 121.051 7.27257C121.572 7.43419 121.962 8.10084 122.182 8.57054C122.68 9.6387 122.708 11.1463 122.756 12.3053C122.799 13.3432 122.698 14.3583 122.374 15.3533C122.187 15.924 121.765 17.2573 120.292 18.3911H120.289Z" fill="#F7BCB1"/>
<path d="M99.0132 5.74231C98.2744 6.41654 97.8873 6.5024 97.7431 7.38623C97.566 8.4645 97.3029 9.50994 97.3029 10.6084C97.3029 11.765 97.4521 13.1185 97.905 14.1967C98.0315 14.4947 98.2871 15.1084 98.6185 15.2245C100.754 15.9619 100.354 6.61604 99.0107 5.74231H99.0132Z" fill="#F7BCB1"/>
<path d="M77.9293 15.9012C77.3803 15.0199 76.9324 14.5906 76.9096 13.6361C76.8818 12.3583 76.601 11.0983 76.8413 9.8205C77.0007 8.97455 77.3879 6.53771 78.5947 6.50488C79.9231 6.467 80.2292 8.65384 80.2596 9.55535C80.3254 11.5124 79.8396 13.179 77.9293 15.9012Z" fill="#F7BCB1"/>
<path d="M57.6121 8.80798C57.0656 9.15899 56.5393 9.53777 56.0358 9.94686C56.0282 10.0655 56.0181 10.1842 56.0105 10.3054C55.6689 11.2372 55.6967 12.813 55.674 13.77C55.6512 14.7625 55.6335 15.7523 56.0231 16.6816C56.0889 16.8407 56.3698 17.5427 56.6405 17.6336C57.0276 17.7649 57.4805 16.9139 57.5817 16.717C57.9865 15.9165 58.0979 14.8685 58.1586 13.9998C58.2876 12.164 58.2522 10.2171 57.6146 8.80798H57.6121Z" fill="#F7BCB1"/>
<path d="M47.0688 11.1084C46.2895 11.5528 45.6342 11.8887 45.1409 12.6463C44.3084 13.924 43.3748 15.5528 43.0813 17.0629C42.8485 18.2573 42.975 19.9467 43.8479 20.8886C44.7866 21.9012 46.707 21.9921 47.9266 21.6663C50.5731 20.9593 52.0836 18.2952 52.2279 15.6513C52.2962 14.376 51.7775 13.0478 50.8337 12.174C49.8773 11.2877 48.5971 11.5453 47.0714 11.1084H47.0688Z" fill="#F7BCB1"/>
<path d="M50.3277 7.65898C50.4086 8.43422 50.2366 9.48471 51.1272 9.73219C51.6585 9.87865 52.2152 9.84582 52.5466 9.39886C53.3512 8.32059 52.1393 7.36605 51.0918 7.27515L50.3251 7.65898H50.3277Z" fill="#F7BCB1"/>
<path d="M35.9538 10.1513C34.5926 12.9114 34.0106 15.8507 34.3952 18.9214C34.4838 19.6386 34.7849 23.3835 36.1613 22.9718C36.8191 22.7749 37.3505 21.136 37.5048 20.6209C37.9451 19.1689 38.0943 17.6714 38.0969 16.1563C38.1019 14.5275 37.9046 12.9871 37.5326 11.4114C37.3201 10.5074 37.1708 9.62605 35.9538 10.1513Z" fill="#F7BCB1"/>
<path d="M21.3851 36.7925C19.5431 37.2369 17.8251 37.5172 15.9123 37.5677C15.3987 37.5803 12.0867 37.9667 12.1879 36.8632C12.2435 36.2647 13.3847 35.8177 13.8401 35.6283C14.8623 35.2016 15.9148 34.9137 17.0129 34.7773C18.1641 34.6359 19.3154 34.6056 20.4641 34.7925C21.1169 34.8985 22.2048 34.8278 21.3851 36.7925Z" fill="#F7BCB1"/>
</g>
</g>
<defs>
<radialGradient id="paint0_radial_24_844" cx="0" cy="0" r="1" gradientUnits="userSpaceOnUse" gradientTransform="translate(101.827 87.6307) scale(132.819 128.14)">
<stop stop-color="#F1842A"/>
<stop offset="0.25" stop-color="#EE802A"/>
<stop offset="0.46" stop-color="#E8762A"/>
<stop offset="0.64" stop-color="#DC652A"/>
<stop offset="0.79" stop-color="#D0532B"/>
<stop offset="0.92" stop-color="#B33A3A"/>
<stop offset="0.97" stop-color="#A83141"/>
</radialGradient>
<radialGradient id="paint1_radial_24_844" cx="0" cy="0" r="1" gradientUnits="userSpaceOnUse" gradientTransform="translate(35.0328 99.9311) scale(68.6486 66.2305)">
<stop stop-color="#F1842A"/>
<stop offset="0.46" stop-color="#EF802A"/>
<stop offset="0.83" stop-color="#EA762A"/>
<stop offset="1" stop-color="#E66F2A"/>
</radialGradient>
<radialGradient id="paint2_radial_24_844" cx="0" cy="0" r="1" gradientUnits="userSpaceOnUse" gradientTransform="translate(56.7872 99.9261) scale(69.8327 67.3729)">
<stop stop-color="#F1842A"/>
<stop offset="0.46" stop-color="#EF802A"/>
<stop offset="0.83" stop-color="#EA762A"/>
<stop offset="1" stop-color="#E66F2A"/>
</radialGradient>
<radialGradient id="paint3_radial_24_844" cx="0" cy="0" r="1" gradientUnits="userSpaceOnUse" gradientTransform="translate(78.5112 99.9235) scale(70.5463 68.0613)">
<stop stop-color="#F1842A"/>
<stop offset="0.46" stop-color="#EF802A"/>
<stop offset="0.83" stop-color="#EA762A"/>
<stop offset="1" stop-color="#E66F2A"/>
</radialGradient>
<radialGradient id="paint4_radial_24_844" cx="0" cy="0" r="1" gradientUnits="userSpaceOnUse" gradientTransform="translate(100.235 99.921) scale(70.774 68.281)">
<stop stop-color="#F1842A"/>
<stop offset="0.46" stop-color="#EF802A"/>
<stop offset="0.83" stop-color="#EA762A"/>
<stop offset="1" stop-color="#E66F2A"/>
</radialGradient>
<radialGradient id="paint5_radial_24_844" cx="0" cy="0" r="1" gradientUnits="userSpaceOnUse" gradientTransform="translate(121.959 99.9185) scale(70.5463 68.0613)">
<stop stop-color="#F1842A"/>
<stop offset="0.46" stop-color="#EF802A"/>
<stop offset="0.83" stop-color="#EA762A"/>
<stop offset="1" stop-color="#E66F2A"/>
</radialGradient>
<radialGradient id="paint6_radial_24_844" cx="0" cy="0" r="1" gradientUnits="userSpaceOnUse" gradientTransform="translate(143.683 99.9159) scale(69.8327 67.3729)">
<stop stop-color="#F1842A"/>
<stop offset="0.46" stop-color="#EF802A"/>
<stop offset="0.83" stop-color="#EA762A"/>
<stop offset="1" stop-color="#E66F2A"/>
</radialGradient>
<radialGradient id="paint7_radial_24_844" cx="0" cy="0" r="1" gradientUnits="userSpaceOnUse" gradientTransform="translate(165.438 99.9108) scale(68.6486 66.2305)">
<stop stop-color="#F1842A"/>
<stop offset="0.46" stop-color="#EF802A"/>
<stop offset="0.83" stop-color="#EA762A"/>
<stop offset="1" stop-color="#E66F2A"/>
</radialGradient>
<radialGradient id="paint8_radial_24_844" cx="0" cy="0" r="1" gradientUnits="userSpaceOnUse" gradientTransform="translate(99.8229 34.9176) rotate(90.01) scale(68.6285 66.2459)">
<stop stop-color="#F1842A"/>
<stop offset="0.46" stop-color="#EF802A"/>
<stop offset="0.83" stop-color="#EA762A"/>
<stop offset="1" stop-color="#E66F2A"/>
</radialGradient>
<radialGradient id="paint9_radial_24_844" cx="0" cy="0" r="1" gradientUnits="userSpaceOnUse" gradientTransform="translate(99.8216 56.6656) rotate(90.01) scale(69.8123 67.3886)">
<stop stop-color="#F1842A"/>
<stop offset="0.46" stop-color="#EF802A"/>
<stop offset="0.83" stop-color="#EA762A"/>
<stop offset="1" stop-color="#E66F2A"/>
</radialGradient>
<radialGradient id="paint10_radial_24_844" cx="0" cy="0" r="1" gradientUnits="userSpaceOnUse" gradientTransform="translate(99.8203 78.3833) rotate(90.01) scale(70.5256 68.0771)">
<stop stop-color="#F1842A"/>
<stop offset="0.46" stop-color="#EF802A"/>
<stop offset="0.83" stop-color="#EA762A"/>
<stop offset="1" stop-color="#E66F2A"/>
</radialGradient>
<radialGradient id="paint11_radial_24_844" cx="0" cy="0" r="1" gradientUnits="userSpaceOnUse" gradientTransform="translate(99.8191 100.101) rotate(90.01) scale(70.7531 68.2969)">
<stop stop-color="#F1842A"/>
<stop offset="0.46" stop-color="#EF802A"/>
<stop offset="0.83" stop-color="#EA762A"/>
<stop offset="1" stop-color="#E66F2A"/>
</radialGradient>
<radialGradient id="paint12_radial_24_844" cx="0" cy="0" r="1" gradientUnits="userSpaceOnUse" gradientTransform="translate(99.8204 121.819) rotate(90.01) scale(70.5256 68.0771)">
<stop stop-color="#F1842A"/>
<stop offset="0.46" stop-color="#EF802A"/>
<stop offset="0.83" stop-color="#EA762A"/>
<stop offset="1" stop-color="#E66F2A"/>
</radialGradient>
<radialGradient id="paint13_radial_24_844" cx="0" cy="0" r="1" gradientUnits="userSpaceOnUse" gradientTransform="translate(99.8191 143.536) rotate(90.01) scale(69.8123 67.3886)">
<stop stop-color="#F1842A"/>
<stop offset="0.46" stop-color="#EF802A"/>
<stop offset="0.83" stop-color="#EA762A"/>
<stop offset="1" stop-color="#E66F2A"/>
</radialGradient>
<radialGradient id="paint14_radial_24_844" cx="0" cy="0" r="1" gradientUnits="userSpaceOnUse" gradientTransform="translate(99.8178 165.284) rotate(90.01) scale(68.6285 66.2459)">
<stop stop-color="#F1842A"/>
<stop offset="0.46" stop-color="#EF802A"/>
<stop offset="0.83" stop-color="#EA762A"/>
<stop offset="1" stop-color="#E66F2A"/>
</radialGradient>
<linearGradient id="paint15_linear_24_844" x1="98.5856" y1="178.296" x2="98.5856" y2="21.4291" gradientUnits="userSpaceOnUse">
<stop stop-color="#F1842A"/>
<stop offset="0.25" stop-color="#EE802A"/>
<stop offset="0.46" stop-color="#E8762A"/>
<stop offset="0.64" stop-color="#DC652A"/>
<stop offset="0.79" stop-color="#D0532B"/>
<stop offset="0.92" stop-color="#B33A3A"/>
<stop offset="0.97" stop-color="#A83141"/>
</linearGradient>
<radialGradient id="paint16_radial_24_844" cx="0" cy="0" r="1" gradientUnits="userSpaceOnUse" gradientTransform="translate(100.81 93.6841) scale(139.802 134.878)">
<stop stop-color="#F1842A"/>
<stop offset="0.25" stop-color="#EE802A"/>
<stop offset="0.46" stop-color="#E8762A"/>
<stop offset="0.64" stop-color="#DC652A"/>
<stop offset="0.79" stop-color="#D0532B"/>
<stop offset="0.92" stop-color="#B33A3A"/>
<stop offset="0.97" stop-color="#A83141"/>
</radialGradient>
<linearGradient id="paint17_linear_24_844" x1="98.4693" y1="84.7465" x2="98.4693" y2="21.4291" gradientUnits="userSpaceOnUse">
<stop stop-color="white"/>
<stop offset="0.17" stop-color="#FDFBFB"/>
<stop offset="0.33" stop-color="#F8EFF1"/>
<stop offset="0.49" stop-color="#F0DBE0"/>
<stop offset="0.65" stop-color="#E5C0C8"/>
<stop offset="0.81" stop-color="#D69DAA"/>
<stop offset="0.97" stop-color="#C57285"/>
<stop offset="0.99" stop-color="#C26B7F"/>
</linearGradient>
<radialGradient id="paint18_radial_24_844" cx="0" cy="0" r="1" gradientUnits="userSpaceOnUse" gradientTransform="translate(99.6938 87.6436) scale(93.4241 93.3966)">
<stop stop-color="#852411"/>
<stop offset="0.34" stop-color="#812210"/>
<stop offset="0.62" stop-color="#771D0D"/>
<stop offset="0.88" stop-color="#67160A"/>
<stop offset="0.97" stop-color="#4A0F1A"/>
<stop offset="1" stop-color="#400D21"/>
</radialGradient>
<radialGradient id="paint19_radial_24_844" cx="0" cy="0" r="1" gradientUnits="userSpaceOnUse" gradientTransform="translate(99.6179 124.872) scale(72.869 72.8476)">
<stop stop-color="#F7C0D0"/>
<stop offset="0.99" stop-color="#C26B7F"/>
</radialGradient>
<radialGradient id="paint20_radial_24_844" cx="0" cy="0" r="1" gradientUnits="userSpaceOnUse" gradientTransform="translate(104.309 133.871) scale(54.9553 54.9392)">
<stop stop-color="white"/>
<stop offset="0.99" stop-color="#C26B7F"/>
</radialGradient>
<radialGradient id="paint21_radial_24_844" cx="0" cy="0" r="1" gradientUnits="userSpaceOnUse" gradientTransform="translate(100.924 46.4696) scale(41.4746 41.4624)">
<stop stop-color="white"/>
<stop offset="0.99" stop-color="#C26B7F"/>
</radialGradient>
<radialGradient id="paint22_radial_24_844" cx="0" cy="0" r="1" gradientUnits="userSpaceOnUse" gradientTransform="translate(98.8134 40.3231) scale(56.3975 56.381)">
<stop stop-color="#BB6955"/>
<stop offset="0.39" stop-color="#B96754"/>
<stop offset="0.53" stop-color="#B26451"/>
<stop offset="0.63" stop-color="#A65D4B"/>
<stop offset="0.72" stop-color="#955444"/>
<stop offset="0.78" stop-color="#7F473A"/>
<stop offset="0.85" stop-color="#64382D"/>
<stop offset="0.9" stop-color="#43261F"/>
<stop offset="0.95" stop-color="#1F120E"/>
<stop offset="0.99" stop-color="#010101"/>
</radialGradient>
<radialGradient id="paint23_radial_24_844" cx="0" cy="0" r="1" gradientUnits="userSpaceOnUse" gradientTransform="translate(99.709 137.757) scale(57.0351 57.0184)">
<stop stop-color="#BB6955"/>
<stop offset="0.39" stop-color="#B96754"/>
<stop offset="0.53" stop-color="#B26451"/>
<stop offset="0.63" stop-color="#A65D4B"/>
<stop offset="0.72" stop-color="#955444"/>
<stop offset="0.78" stop-color="#7F473A"/>
<stop offset="0.85" stop-color="#64382D"/>
<stop offset="0.9" stop-color="#43261F"/>
<stop offset="0.95" stop-color="#1F120E"/>
<stop offset="0.99" stop-color="#010101"/>
</radialGradient>
<radialGradient id="paint24_radial_24_844" cx="0" cy="0" r="1" gradientUnits="userSpaceOnUse" gradientTransform="translate(109.243 161.538) scale(15.3632 15.3587)">
<stop stop-color="#F5A276"/>
<stop offset="0.37" stop-color="#F3A075"/>
<stop offset="0.51" stop-color="#EC9C71"/>
<stop offset="0.6" stop-color="#E0946C"/>
<stop offset="0.68" stop-color="#CF8964"/>
<stop offset="0.74" stop-color="#B97A59"/>
<stop offset="0.8" stop-color="#9E684C"/>
<stop offset="0.85" stop-color="#7D533C"/>
<stop offset="0.9" stop-color="#583A2A"/>
<stop offset="0.94" stop-color="#2F1F17"/>
<stop offset="0.99" stop-color="#010101"/>
</radialGradient>
<radialGradient id="paint25_radial_24_844" cx="0" cy="0" r="1" gradientUnits="userSpaceOnUse" gradientTransform="translate(108.802 30.6252) scale(15.1962 15.1918)">
<stop stop-color="#F5A276"/>
<stop offset="0.37" stop-color="#F3A075"/>
<stop offset="0.51" stop-color="#EC9C71"/>
<stop offset="0.6" stop-color="#E0946C"/>
<stop offset="0.68" stop-color="#CF8964"/>
<stop offset="0.74" stop-color="#B97A59"/>
<stop offset="0.8" stop-color="#9E684C"/>
<stop offset="0.85" stop-color="#7D533C"/>
<stop offset="0.9" stop-color="#583A2A"/>
<stop offset="0.94" stop-color="#2F1F17"/>
<stop offset="0.99" stop-color="#010101"/>
</radialGradient>
<linearGradient id="paint26_linear_24_844" x1="104.913" y1="145.645" x2="155.883" y2="94.5747" gradientUnits="userSpaceOnUse">
<stop stop-color="white"/>
<stop offset="0.99" stop-color="#C26B7F"/>
</linearGradient>
<radialGradient id="paint27_radial_24_844" cx="0" cy="0" r="1" gradientUnits="userSpaceOnUse" gradientTransform="translate(134.392 115.391) rotate(-45.0039) scale(25.2365 25.2365)">
<stop stop-color="#BB6955"/>
<stop offset="0.39" stop-color="#B96754"/>
<stop offset="0.53" stop-color="#B26451"/>
<stop offset="0.63" stop-color="#A65D4B"/>
<stop offset="0.72" stop-color="#955444"/>
<stop offset="0.78" stop-color="#7F473A"/>
<stop offset="0.85" stop-color="#64382D"/>
<stop offset="0.9" stop-color="#43261F"/>
<stop offset="0.95" stop-color="#1F120E"/>
<stop offset="0.99" stop-color="#010101"/>
</radialGradient>
<radialGradient id="paint28_radial_24_844" cx="0" cy="0" r="1" gradientUnits="userSpaceOnUse" gradientTransform="translate(149.564 105.567) scale(10.0043 10.0014)">
<stop stop-color="#F5A276"/>
<stop offset="0.37" stop-color="#F3A075"/>
<stop offset="0.51" stop-color="#EC9C71"/>
<stop offset="0.6" stop-color="#E0946C"/>
<stop offset="0.68" stop-color="#CF8964"/>
<stop offset="0.74" stop-color="#B97A59"/>
<stop offset="0.8" stop-color="#9E684C"/>
<stop offset="0.85" stop-color="#7D533C"/>
<stop offset="0.9" stop-color="#583A2A"/>
<stop offset="0.94" stop-color="#2F1F17"/>
<stop offset="0.99" stop-color="#010101"/>
</radialGradient>
<radialGradient id="paint29_radial_24_844" cx="0" cy="0" r="1" gradientUnits="userSpaceOnUse" gradientTransform="translate(30.3166 79.3572) scale(47.046 47.0322)">
<stop stop-color="#BB6955"/>
<stop offset="0.39" stop-color="#B96754"/>
<stop offset="0.53" stop-color="#B26451"/>
<stop offset="0.63" stop-color="#A65D4B"/>
<stop offset="0.72" stop-color="#955444"/>
<stop offset="0.78" stop-color="#7F473A"/>
<stop offset="0.85" stop-color="#64382D"/>
<stop offset="0.9" stop-color="#43261F"/>
<stop offset="0.95" stop-color="#1F120E"/>
<stop offset="0.99" stop-color="#010101"/>
</radialGradient>
<radialGradient id="paint30_radial_24_844" cx="0" cy="0" r="1" gradientUnits="userSpaceOnUse" gradientTransform="translate(167.72 86.3992) scale(47.1219 47.1081)">
<stop stop-color="#BB6955"/>
<stop offset="0.39" stop-color="#B96754"/>
<stop offset="0.53" stop-color="#B26451"/>
<stop offset="0.63" stop-color="#A65D4B"/>
<stop offset="0.72" stop-color="#955444"/>
<stop offset="0.78" stop-color="#7F473A"/>
<stop offset="0.85" stop-color="#64382D"/>
<stop offset="0.9" stop-color="#43261F"/>
<stop offset="0.95" stop-color="#1F120E"/>
<stop offset="0.99" stop-color="#010101"/>
</radialGradient>
<radialGradient id="paint31_radial_24_844" cx="0" cy="0" r="1" gradientUnits="userSpaceOnUse" gradientTransform="translate(58.5789 123.678) rotate(22.0509) scale(17.423 17.3985)">
<stop stop-color="white"/>
<stop offset="0.99" stop-color="#C26B7F"/>
</radialGradient>
<radialGradient id="paint32_radial_24_844" cx="0" cy="0" r="1" gradientUnits="userSpaceOnUse" gradientTransform="translate(70.3945 119.59) scale(21.0257 21.0196)">
<stop stop-color="#BB6955"/>
<stop offset="0.39" stop-color="#B96754"/>
<stop offset="0.53" stop-color="#B26451"/>
<stop offset="0.63" stop-color="#A65D4B"/>
<stop offset="0.72" stop-color="#955444"/>
<stop offset="0.78" stop-color="#7F473A"/>
<stop offset="0.85" stop-color="#64382D"/>
<stop offset="0.9" stop-color="#43261F"/>
<stop offset="0.95" stop-color="#1F120E"/>
<stop offset="0.99" stop-color="#010101"/>
</radialGradient>
<clipPath id="clip0_24_844">
<rect width="200" height="200" fill="white"/>
</clipPath>
</defs>
</svg>
