<svg width="200" height="200" viewBox="0 0 200 200" fill="none" xmlns="http://www.w3.org/2000/svg">
<path d="M199.592 75.6432C194.585 59.5312 137.854 55.0019 137.854 55.0019C137.854 55.0019 116.202 -0.00244141 99.9987 -0.00244141C83.7951 -0.00244141 62.1438 55.0019 62.1438 55.0019C62.1438 55.0019 5.4145 59.5312 0.40537 75.6432C-4.60141 91.7552 38.7482 130.277 38.7482 130.277C38.7482 130.277 25.3379 188.081 38.4489 198.039C51.5575 207.996 100.001 176.801 100.001 176.801C100.001 176.801 148.445 207.996 161.553 198.039C174.662 188.081 161.254 130.277 161.254 130.277C161.254 130.277 204.604 91.7528 199.597 75.6432H199.592ZM99.9987 129.6C87.8637 129.6 78.0246 119.316 78.0246 106.629C78.0246 93.9431 87.8613 83.659 99.9987 83.659C112.136 83.659 121.973 93.9431 121.973 106.629C121.973 119.316 112.136 129.6 99.9987 129.6Z" fill="url(#paint0_radial_24_1150)"/>
<path style="mix-blend-mode:multiply" d="M199.863 76.7542C199.793 76.3741 199.71 76.0087 199.597 75.6408C194.585 59.5264 137.854 55.0044 137.854 55.0044C137.854 55.0044 116.207 0 99.9941 0C94.9543 0 89.3818 5.34305 84.0756 12.6888V12.7034C72.3979 28.9348 62.1368 55.0019 62.1368 55.0019C62.1368 55.0019 61.4791 55.0604 60.2887 55.1774C50.4873 56.113 4.85822 61.266 0.407751 75.6383C0.337034 75.8576 0.282818 76.0769 0.226244 76.2962V76.3108C-3.42748 92.7907 38.7435 130.275 38.7435 130.275C38.7435 130.275 25.345 188.074 38.4489 198.027C51.5528 207.994 99.9964 176.788 99.9964 176.788C99.9964 176.788 148.44 207.994 161.544 198.027C163.602 196.46 165.016 193.724 165.912 190.196V190.181C166.261 188.878 166.527 187.474 166.723 185.981C166.737 185.966 166.737 185.952 166.723 185.937C169.495 165.798 161.249 130.275 161.249 130.275C161.249 130.275 202.678 93.4485 199.863 76.7493V76.7542ZM99.9941 83.6639C112.134 83.6639 121.975 93.9382 121.975 106.629C121.975 119.321 112.134 129.61 99.9941 129.61C87.8543 129.61 78.0269 119.321 78.0269 106.629C78.0269 93.9382 87.8566 83.6639 99.9941 83.6639Z" fill="url(#paint1_radial_24_1150)"/>
<g style="mix-blend-mode:multiply" opacity="0.8">
<path d="M162.428 128.092C161.688 127.312 160.686 126.762 159.668 126.503C158.475 126.201 157.188 126.048 155.974 125.88C154.418 125.665 153.289 124.866 151.884 124.194C150.698 123.628 149.696 123.312 148.607 122.542C147.087 121.465 146.905 120.439 146.651 118.492C146.297 115.793 144.376 113.841 143.278 111.454C142.54 109.85 142.559 107.799 142.132 106.089C141.67 104.237 140.97 101.973 139.886 100.439C138.441 98.3944 137.097 96.5768 136.3 94.1355C135.803 92.6152 135.857 90.7587 135.185 89.3212C134.716 88.3223 134.193 87.7229 133.163 87.3989C131.258 86.7995 129.356 87.07 127.409 87.3136C124.684 87.6547 122.105 87.7059 119.378 87.7595C117.553 87.7936 115.764 88.3613 114.062 88.985C114.152 89.2847 114.727 89.4357 115.012 89.7281C115.483 90.2081 115.37 90.3908 115.507 91.0584C116.763 91.3848 117.864 90.3421 118.972 89.8158C120.825 88.9363 121.629 89.5161 123.557 89.9157C124.625 90.1374 125.686 90.2056 126.73 90.5735C127.812 90.9536 128.851 91.4628 129.893 91.9452C133.361 93.5557 136.616 95.6656 137.745 99.6808C138.771 103.323 139.728 107.592 141.701 110.83C142.752 112.557 143.975 113.983 144.758 115.905C145.293 117.216 145.571 118.85 145.802 120.249C146.052 121.75 145.692 122.98 145.446 124.364C145.234 125.57 144.551 126.681 144.11 127.799C143.433 129.522 142.752 130.538 141.328 131.644C138.955 133.488 136.548 135.367 134.026 136.951C131.748 138.381 129.412 139.604 127.107 140.956C126.091 141.553 125.085 142.06 124.113 142.737C123.22 143.363 122.451 143.928 121.49 144.357C119.649 145.176 117.756 145.096 115.797 145.096C114.772 145.096 113.725 145.039 112.7 145.086C111.936 145.12 111.276 145.342 110.524 145.463C107.888 145.895 105.008 146.562 102.34 146.119C101.599 145.997 100.487 145.836 99.8621 145.378C99.4755 145.095 99.2397 144.725 98.8178 144.445C98.41 144.175 98.1271 143.777 97.7712 143.47C97.2172 142.99 96.9344 143.098 96.3356 142.883C95.8712 142.718 95.4187 142.355 94.9378 142.145C94.4899 141.95 93.8605 141.677 93.5069 141.314C93.0119 140.805 92.8257 140.488 92.26 140.038C91.5457 139.47 90.8244 138.654 90.3152 137.864C89.205 136.137 88.5732 133.613 89.0046 131.493C89.0635 131.206 89.238 131.076 89.2875 130.679C89.3158 130.455 89.2804 130.148 89.2804 129.931C89.2757 129.376 89.2804 128.823 89.2804 128.267C89.2804 127.841 89.4218 127.054 89.2097 126.679C88.9103 126.152 88.5968 126.45 88.2126 126.243C87.166 125.682 86.8029 124.942 86.8077 126.788C86.8077 127.88 87.1636 128.496 87.6115 129.481C88.8679 132.243 87.562 135.698 89.5421 138.456C91.0554 140.561 92.8068 142.515 94.794 144.114C94.629 144.267 94.629 144.572 94.9449 145.091C95.355 145.763 96.0103 146.226 96.4464 146.93C97.4812 148.599 99.1643 149.7 100.249 151.369C100.925 152.41 101.771 154.057 101.689 155.336C101.63 156.274 101.3 157.063 101.309 158.035C101.321 159.156 100.994 160.174 100.937 161.288C100.88 162.406 100.935 163.559 100.946 164.679C100.958 165.715 101.239 166.646 101.319 167.666C101.43 169.089 101.913 170.585 101.583 172.011C101.545 172.179 101.345 172.378 101.298 172.624C101.253 172.871 101.338 173.126 101.281 173.382C101.184 173.811 100.833 174.315 100.6 174.671C99.7748 175.928 98.5302 176.969 97.4176 177.999C101.573 176.669 102.717 177.712 103.518 178.684C103.747 178.655 103.947 178.504 104.086 178.275C103.841 177.753 103.898 177.497 103.803 176.891C103.707 176.26 103.299 175.67 103.155 175.061C102.731 173.256 102.724 171.399 102.724 169.528C102.724 167.657 103.096 165.883 103.075 164.031C103.056 162.184 103.429 160.477 103.431 158.615C103.431 156.654 103.589 154.946 102.373 153.406C101.154 151.861 99.5745 150.504 98.5585 148.787C98.0022 147.849 97.9055 146.867 97.5944 146.002C98.8602 146.716 100.194 147.3 101.618 147.678C105.493 148.709 109.781 149.03 113.386 151.014C114.658 151.715 115.269 152.112 116.723 152.115C121.146 152.122 125.294 148.867 127.873 145.288C128.861 143.916 129.945 142.73 131.157 141.577C132.149 140.632 133.012 139.55 134.136 138.768C134.836 138.283 135.586 138.093 136.329 137.713C137.22 137.258 137.979 136.546 138.834 136.03C140.755 134.87 142.542 133.832 144.107 132.156C145.43 130.74 145.92 129.222 146.804 127.553C147.639 125.979 148.306 126.201 149.828 126.601C151.401 127.015 153.103 127.351 154.72 127.339C155.733 127.332 156.69 127.183 157.551 127.709C158.913 128.543 159.828 129.529 161.089 130.667C162.678 129.361 163.149 128.835 162.433 128.08L162.428 128.092Z" fill="url(#paint2_radial_24_1150)"/>
<path d="M79.0241 113.668C78.9062 113.235 78.6234 112.699 78.5927 112.236C77.8879 112.348 78.0128 113.103 77.8855 113.668C77.6899 114.538 77.3669 115.564 77.0935 116.404C76.8366 117.191 76.2331 118.446 75.6792 118.999C74.8801 119.796 73.6236 120.327 72.6808 120.89C70.7337 122.047 68.4236 122.461 66.2125 122.549C64.7817 122.605 63.4592 122.549 62.0661 122.254C60.4278 121.906 58.6717 122.166 56.998 121.884C53.276 121.255 48.6393 121.677 45.7752 124.308C44.7451 125.253 43.7339 125.906 42.5906 126.681C41.8528 127.183 40.8722 127.953 40.2805 128.642C40.1839 128.754 40.0141 128.925 39.8185 129.105C42.4209 127.634 45.0091 126.245 47.8732 125.329C49.7755 124.72 51.5481 123.772 53.4787 123.246C55.2348 122.766 57.0004 122.91 58.8013 122.912C60.8639 122.912 62.8134 123.287 64.8642 123.282C67.2803 123.275 69.6258 122.973 71.9689 122.274C72.9636 121.976 74.0291 121.638 74.972 121.216C75.9078 120.797 76.6786 120.076 77.6192 119.669C78.3593 119.347 80.4832 118.665 80.4667 117.552C80.4573 116.777 79.6275 115.885 79.3706 115.159C79.2009 114.679 79.1608 114.168 79.0264 113.671L79.0241 113.668Z" fill="url(#paint3_radial_24_1150)"/>
<path d="M39.8185 129.108C39.3281 129.385 38.8402 129.658 38.3475 129.941C38.8756 129.88 39.4201 129.473 39.8185 129.108Z" fill="url(#paint4_radial_24_1150)"/>
<path d="M89.0164 83.6346C89.4572 82.4773 89.792 81.9583 89.2852 80.9156C87.8826 78.026 85.9709 75.5555 84.3279 72.8194C82.7085 70.1271 82.1757 66.9038 80.7166 64.119C80 62.7521 79.1255 61.4072 78.5762 59.96C78.0458 58.5639 77.4589 57.5455 76.6291 56.3566C75.4977 54.7363 73.9843 53.7764 72.1433 53.3817C71.8557 53.3208 71.5351 53.467 71.2452 53.4158C70.9482 53.3622 70.802 53.177 70.538 53.1088C70.0194 52.9748 69.6328 52.9797 69.1308 52.7604C68.0346 52.278 66.8607 52.1001 65.7811 51.5446C65.4912 51.396 65.0009 51.1597 64.7722 50.9209C64.5459 50.6797 64.5884 50.1803 64.3149 50.0706C63.8317 49.8781 63.3107 51.4594 63.0231 51.8468C62.6224 52.3876 62.0826 52.8895 61.7644 53.4694C61.5711 53.8227 61.6395 54.2418 61.4391 54.6072C61.234 54.98 60.7508 54.9995 61.0525 55.5696C61.9129 55.2309 63.0137 54.8947 63.8977 54.5975C65.3875 54.0956 67.1224 53.6521 68.697 53.7496C71.1533 53.9031 73.3431 55.1067 74.7811 57.163C76.7989 60.0428 77.9563 63.5415 79.479 66.7186C80.2263 68.2755 80.7142 69.5375 81.874 70.7947C82.4327 71.399 82.9324 72.0446 83.2836 72.8121C84.0568 74.4956 84.5495 76.6884 84.705 78.5328C84.8017 79.6998 84.6296 80.7353 84.4127 81.8609C84.2171 82.8696 84.3656 83.8685 84.1605 84.8772C83.7174 87.0529 82.8853 88.9971 82.2111 91.1144C81.9659 91.8331 81.8316 92.832 81.4002 93.6555C81.1055 94.2159 80.8203 94.4766 80.7637 95.0589C81.3554 94.3475 81.6736 93.714 82.3784 93.122C83.1445 92.4763 83.7126 91.5797 84.4198 90.8391C84.9973 90.2348 85.3863 89.6598 85.8365 88.9996C86.3504 88.2467 87.0175 87.5109 87.4277 86.6874C87.9462 85.6519 88.6039 84.7237 89.0164 83.6395V83.6346Z" fill="url(#paint5_radial_24_1150)"/>
</g>
<g style="mix-blend-mode:multiply" opacity="0.5">
<path d="M127.571 144.452C126.951 145.276 126.365 146.146 125.704 146.933C125.172 147.568 124.493 148.082 123.922 148.689C123.357 149.289 122.748 149.873 122.03 150.251C121.398 150.582 120.933 151.013 120.342 151.398C119.644 151.852 118.303 152.249 117.489 151.898C116.167 151.328 116.65 149.5 117.273 148.626C117.881 147.771 118.406 147.018 119.288 146.44C120.127 145.89 120.823 145.251 121.601 144.618C122.911 143.546 124.252 142.545 125.61 141.531C126.192 141.097 127.828 140.352 128.488 141.112C128.75 141.414 128.651 142.009 128.644 142.423C128.625 143.431 128.196 144.499 127.571 144.45V144.452Z" fill="#A72752"/>
<path d="M134.202 89.8182C133.724 89.3919 133.184 89.1117 132.585 88.9801C132.43 89.443 132.069 89.7062 132.093 90.2251C132.119 90.8367 132.63 91.5286 132.937 92.0232C133.644 93.1659 134.099 94.4304 135.108 95.2636C135.381 95.4902 135.709 95.9897 136.05 95.4926C136.175 95.3123 136.119 94.2379 136.081 93.9942C135.999 93.4728 135.685 92.8199 135.48 92.3302C135.112 91.4604 134.66 90.6466 134.205 89.8207L134.202 89.8182Z" fill="#A72752"/>
<path d="M139.242 100.636C139.115 101.735 138.858 102.777 139.108 103.832C139.322 104.734 139.443 105.553 139.773 106.437C140.103 107.319 140.586 108.669 141.569 108.92C141.614 108.474 141.863 108.255 141.899 107.796C141.96 106.988 141.736 106.276 141.628 105.487C141.519 104.692 141.314 103.896 141.107 103.121C140.916 102.405 140.065 101.627 140.037 100.914L139.24 100.636H139.242Z" fill="#A72752"/>
<path d="M88.0453 85.3815C87.0717 87.5182 86.0228 89.6842 83.8565 90.6222C83.7127 90.2178 83.741 89.4527 83.7881 89.0142C83.913 87.8374 84.2313 86.6411 84.3916 85.4595C84.5495 84.2973 84.8017 83.2497 84.8559 82.0802C84.896 81.2226 85.1317 80.2358 85.391 79.4196C85.5655 78.8714 85.6833 77.931 86.4683 78.1551C86.8596 78.2672 87.0175 78.735 87.1778 79.0615C88.2504 81.2762 87.7483 84.1243 87.5173 86.4925L88.0476 85.3839L88.0453 85.3815Z" fill="#A72752"/>
<path d="M78.76 113.946C77.9397 114.986 77.4635 115.961 76.7163 116.996C76.2048 117.708 75.5542 118.263 75.236 119.089C75.0097 119.669 74.9484 119.689 75.5707 119.774C76.0398 119.84 76.4028 119.652 76.8247 119.499C77.77 119.155 78.7459 118.663 79.3941 117.832C79.6959 117.445 79.9127 117.118 79.8043 116.582C79.6935 116.032 79.0264 115.586 79.0264 115.057L78.76 113.948V113.946Z" fill="#A72752"/>
<path d="M92.5547 141.402C93.6767 142.566 94.6102 143.863 95.737 145.013C96.1754 145.458 96.3192 145.549 96.9297 145.563C97.2338 145.571 97.8443 145.726 97.8915 145.29C97.9457 144.769 96.6916 144.043 96.3993 143.768C95.9161 143.312 95.6615 143.025 95.0133 142.852C94.4452 142.7 93.6744 142.442 93.0851 142.51L92.5547 141.402Z" fill="#A72752"/>
<path d="M104.492 146.394C105.138 147.169 105.562 147.907 106.408 148.292C106.847 148.494 107.41 148.55 107.881 148.687C108.704 148.925 109.487 148.889 110.34 148.889C110.809 148.889 111.424 149.021 111.858 148.833C112.379 148.609 112.65 147.98 112.261 147.481C111.719 146.786 110.58 146.769 109.788 146.677C109.213 146.608 108.838 146.387 108.207 146.392C107.353 146.396 106.363 146.779 105.552 146.672L104.492 146.394Z" fill="#A72752"/>
<path d="M102.104 154.99C101.536 157.421 101.307 159.77 101.307 162.277C101.307 163.298 101.159 164.465 101.293 165.474C101.373 166.063 101.463 166.896 101.625 167.45C102.031 167.428 102.189 166.397 102.295 166.044C102.637 164.894 102.658 163.724 102.842 162.543C103.207 160.165 103.393 157.799 102.104 154.992V154.99Z" fill="#A72752"/>
<path d="M102.104 171.63C101.866 172.544 101.703 173.977 101.248 174.898C101.027 175.346 100.515 175.804 100.494 176.352C100.47 176.978 100.692 176.803 101.149 176.927C101.444 177.008 101.79 177.237 102.104 177.317C102.354 177.383 102.879 177.624 103.184 177.475C103.589 177.278 103.433 176.796 103.431 176.347C103.429 175.919 103.518 175.39 103.391 174.98C103.122 174.118 102.387 173.46 102.37 172.466L102.104 171.635V171.63Z" fill="#A72752"/>
<path d="M43.7433 126.703C45.6244 125.76 47.5597 124.885 49.528 124.13C50.0536 123.928 52.6631 122.949 52.4863 122.159C52.2223 120.977 50.0513 121.596 49.4431 121.867C47.2155 122.856 45.4287 124.944 43.7433 126.703Z" fill="#A72752"/>
<path d="M115.102 90.0959C116.742 89.8182 118.751 89.4649 120.297 88.7413C121.271 88.2857 120.74 88.0567 120.012 87.852C118.232 87.3501 115.823 87.6522 114.838 89.5429L115.104 90.0984L115.102 90.0959Z" fill="#A72752"/>
<path d="M151.976 176.345C151.273 177.497 150.288 178.694 150.632 180.185C150.826 181.023 151.462 181.218 152.245 181.047C152.867 180.911 153.256 180.158 153.447 179.544C153.815 178.362 152.676 178.014 152.773 176.9L151.976 176.345Z" fill="#A72752"/>
<path d="M142.691 164.143C142.031 162.487 141.333 161.115 142.691 159.69C143.219 159.136 143.7 158.903 144.28 159.485C145.833 161.042 144.049 163.291 142.955 164.421L142.691 164.143Z" fill="#A72752"/>
<path d="M142.427 139.46C142.283 140.011 142.917 137.133 143.021 136.987C143.103 136.873 143.348 136.658 143.488 136.658C144.018 136.658 143.99 137.389 144.077 137.733C144.138 137.974 144.376 137.969 144.303 138.354C144.256 138.602 144.084 138.641 143.952 138.827C143.624 139.277 143.344 139.879 142.693 139.735L142.427 139.458V139.46Z" fill="#A72752"/>
<path d="M118.286 138.629C117.4 138.49 115.663 138.354 115.538 136.953C115.481 136.324 116.452 136.103 117.013 136.183C117.756 136.29 118.706 136.78 119.354 137.167C120.226 137.691 119.715 138.088 119.613 138.907L118.286 138.629Z" fill="#A72752"/>
<path d="M92.5547 132.526C92.8187 133.22 93.0521 134.329 93.5424 134.845C93.7404 135.055 94.1623 135.26 94.4075 135.413C95.1806 135.898 95.6898 135.759 96.5219 135.915C97.42 136.081 98.271 136.261 99.188 136.071C99.8881 135.925 100.449 135.852 101.168 135.857C102.613 135.866 104.291 136.093 105.708 135.835C106.036 135.776 106.913 135.535 107.172 135.24C107.455 134.919 107.375 134.536 106.889 134.451C106.507 134.383 106.304 134.692 105.965 134.758C105.6 134.828 105.133 134.748 104.76 134.748C103.669 134.748 102.531 134.853 101.451 134.687C99.716 134.419 98.1461 134.507 96.5007 133.812C95.8124 133.523 95.3669 133.218 94.7375 132.794C94.2543 132.468 93.6838 132.151 92.557 132.531L92.5547 132.526Z" fill="#A72752"/>
<path d="M62.8417 117.274C66.7288 115.452 71.026 112.708 72.1999 108.13C72.4026 107.338 72.6714 106.632 72.9307 105.869C73.1428 105.246 73.223 104.558 73.5058 103.962C74.015 102.885 74.8047 101.952 74.4629 100.663C73.8076 100.75 73.553 102.31 73.3903 102.853C73.1051 103.798 72.8788 104.646 72.5936 105.626C72.3626 106.413 72.0915 107.234 71.6766 107.913C71.0189 108.993 69.8851 107.828 68.9446 107.826C67.5609 107.821 66.5166 109.305 66.0169 110.511C65.7529 111.151 65.5266 111.873 65.4912 112.565C65.4629 113.101 65.6774 113.337 65.7717 113.797C65.9532 114.672 65.5501 115.459 64.9656 116.027C64.5389 116.441 62.903 117.189 62.844 117.274H62.8417Z" fill="#A72752"/>
<path d="M96.5337 76.5081C97.2409 77.6922 97.5874 78.8252 98.9805 79.0249C99.3883 79.0834 100.671 79.2052 101.062 79.0249C101.67 78.7448 101.086 78.3939 100.803 78.1308C99.9187 77.3 98.9475 76.5837 98.1248 75.6773L96.5337 76.5081Z" fill="#A72752"/>
<path d="M79.2905 53.4889C78.5432 51.8857 78.1378 51.0915 78.9605 49.5029C79.2952 48.8549 79.6181 48.5966 80.2169 49.0327C80.9382 49.559 81.1173 50.441 81.1503 51.2693C81.1645 51.6397 81.1998 52.0417 81.1433 52.4047C81.0395 53.0601 80.5068 53.4256 80.3512 54.042L79.2905 53.4865V53.4889Z" fill="#A72752"/>
</g>
<g style="mix-blend-mode:multiply">
<path d="M101.307 155.082C100.645 155.445 99.2185 156.488 98.4052 156.856C98.0022 157.039 97.5166 157.036 97.0899 157.202C94.8387 158.077 92.4344 158.513 90.1408 159.244C87.5549 160.065 85.1411 161.838 82.8168 163.222C78.8802 165.566 75.3962 168.258 72.3082 171.747C69.3994 175.034 66.9667 178.362 65.4204 182.57C64.7816 184.31 64.5199 186.86 64.9489 188.732C65.6255 191.682 69.4748 192.35 71.8816 191.421C74.8305 190.284 77.4918 188.429 80.4006 187.253C81.6241 186.758 82.8333 186.025 83.9577 185.311C85.2754 184.475 86.8713 184.059 88.1513 183.206C88.8184 182.762 89.1602 182.343 89.8933 181.995C90.6523 181.632 91.2699 181.057 92.0218 180.682C93.2123 180.09 94.3296 179.449 95.4705 178.759C96.312 178.25 97.1606 177.673 97.9456 177.086C98.8508 176.408 99.3434 175.741 99.987 174.764C101.552 172.393 101.939 169.423 101.382 166.648C101.01 164.784 101.432 162.92 101.668 161.105C101.946 158.954 102.009 157.241 101.305 155.087L101.307 155.082Z" fill="#EABEB0"/>
<path d="M100.954 146.947C99.9753 146.847 99.0017 146.872 98.0376 147.023C97.42 147.995 98.1178 148.94 98.8131 149.617C99.3977 150.185 99.8315 150.872 100.409 151.389C100.956 151.876 101.658 152.142 102.163 152.68C102.882 153.447 103.07 154.692 103.469 155.628C103.855 156.532 103.898 156.573 104.845 156.561C105.472 156.554 105.845 156.517 106.408 156.303C107.377 155.933 108.266 155.45 109.246 155.095C109.918 154.851 110.569 154.473 111.271 154.361C111.813 154.276 112.353 154.342 112.9 154.261C113.864 154.118 116.731 153.486 116.125 151.761C115.979 151.345 115.083 150.57 114.849 150.275C114.493 149.822 114.187 149.44 113.694 149.14C112.704 148.536 111.573 147.968 110.505 147.534C109.47 147.113 108.233 147.047 107.129 146.903C105.017 146.628 103.299 146.263 100.951 146.947H100.954Z" fill="#EABEB0"/>
<path d="M89.2828 125.872C88.9953 126.952 88.8703 128.231 88.5804 129.254C88.4814 129.6 88.2763 129.809 88.2032 130.19C87.9793 131.359 88.4767 132.511 88.5757 133.639C88.8208 136.439 90.1149 139.397 92.5523 140.773C94.5395 141.894 96.7859 142.147 99.0088 142.143C101.606 142.138 104.452 142.498 106.974 141.872C109.121 141.341 112.271 140.768 113.173 138.259C113.428 137.552 113.619 136.617 113.687 135.869C113.798 134.67 114.227 133.574 114.758 132.507C115.151 131.715 115.415 130.857 115.465 129.931C115.505 129.149 115.26 128.228 115.644 127.541C116.87 125.351 119.875 124.525 121.806 123.312C124.052 121.901 127.062 119.445 127.145 116.443C127.234 113.239 126.574 110.172 126.431 107.014C126.39 106.14 126.072 105.341 126.053 104.459C126.039 103.84 126.145 103.218 126.037 102.607C125.891 101.779 125.655 100.785 125.016 100.261C123.691 99.174 122.221 99.8489 122.173 101.652C122.15 102.57 121.85 103.338 121.81 104.242C121.751 105.555 121.992 106.922 121.754 108.218C121.528 109.439 121.044 110.601 120.842 111.834C120.665 112.918 120.526 113.917 120.233 114.981C119.696 116.933 119.064 118.984 118.013 120.736C117.6 121.423 116.976 121.923 116.5 122.549C116.236 122.897 116.127 123.36 115.83 123.677C115.488 124.042 114.979 124.091 114.604 124.388C114.263 124.661 114.093 124.99 113.697 125.239C113.258 125.517 112.756 125.694 112.278 125.877C111.118 126.321 110.031 126.913 108.871 127.356C106.731 128.172 104.697 129.329 102.519 129.99C101.486 130.304 100.407 130.66 99.3365 130.687C98.0423 130.721 96.892 130.438 95.6403 130.129C95.1429 130.007 94.6573 129.775 94.1694 129.658C93.5424 129.505 92.9507 129.651 92.3237 129.588C91.1568 129.473 90.0867 128.701 89.2876 125.877L89.2828 125.872Z" fill="#EABEB0"/>
<path d="M82.9159 91.4823C84.9432 88.0787 87.5951 84.329 86.0086 80.1043C85.6645 79.1858 84.4364 77.5607 83.3473 77.8677C82.4162 78.1308 81.3979 80.1555 80.9429 80.9595C78.4584 85.345 76.8366 90.1813 73.4422 93.9894C72.4427 95.1101 71.5635 96.3746 70.4627 97.4004C69.0177 98.7453 67.377 99.9294 66.0075 101.357C64.6426 102.778 63.4994 104.473 62.6508 106.266C61.7362 108.196 60.7249 110.557 60.3312 112.679C59.6689 116.251 61.2836 120.61 64.876 121.484C66.196 121.806 67.634 121.989 69.0224 121.823C70.6229 121.633 71.9595 120.987 73.3644 120.232C75.13 119.282 77.0559 118.363 78.2368 116.536C79.538 114.519 77.6805 112.055 77.6004 109.972C77.5697 109.166 77.2963 108.54 77.2491 107.753C77.1949 106.871 77.2586 105.957 77.2562 105.073C77.2515 103.406 77.4542 101.564 77.9657 100.007C78.581 98.1289 79.4249 96.589 80.785 95.1711C81.0561 94.8909 81.4356 94.6984 81.6902 94.4401C82.0273 94.0966 82.2041 93.6629 82.5411 93.3096C82.7439 93.0977 83.0975 93.0636 83.2884 92.8784C83.7198 92.4569 83.8329 91.8795 82.9159 91.4823Z" fill="#EABEB0"/>
<path d="M137.033 55.2456C135.881 58.2692 134.516 61.0174 132.807 63.7511C131.093 66.4896 128.974 70.5925 125.973 71.9277C123.31 73.1118 120.907 73.2994 118.352 71.6402C115.863 70.0249 114.677 67.1596 113.593 64.4235C111.785 59.8528 110.507 55.0848 110.908 50.095C111.41 43.8578 113.951 38.1858 114.074 31.9048C114.119 30.5745 114.093 29.2491 113.998 27.9213C113.786 26.8249 113.501 25.7504 113.14 24.6979C112.858 23.5528 112.334 21.7425 112.676 20.5462C113.305 18.334 115.403 18.3413 117.051 19.2087C118.76 20.1101 120.412 21.3892 121.766 22.8072C122.937 24.0352 123.538 25.3582 124.292 26.8468C125.214 28.6668 125.577 30.7451 126.407 32.6065C127.114 34.195 128.269 35.6325 129.087 37.1699C129.926 38.7462 130.461 40.5029 131.376 42.0476C132.156 43.3632 132.866 44.6911 133.498 46.0944C134.139 47.5197 135.089 48.6697 135.628 50.1632C136.185 51.7055 136.828 53.9445 137.036 55.248L137.033 55.2456Z" fill="#EABEB0"/>
<path d="M103.431 26.7737C104.011 29.31 104.395 34.6043 106.88 36.0784C108.221 36.8751 109.996 36.1929 110.882 34.9357C112.219 33.0426 111.49 30.0897 110.521 28.2282C109.435 26.1451 108.294 25.3362 106.26 24.5566L103.431 26.7761V26.7737Z" fill="#EABEB0"/>
<path d="M63.8152 51.5495C64.0863 52.5144 64.5743 53.3111 65.2838 53.9348C65.7482 53.7082 66.2031 53.7788 66.6981 53.7764C67.5538 53.774 68.2846 53.5425 69.1214 53.4304C70.7243 53.2136 72.4687 53.3866 74.0857 53.4036C77.3623 53.4353 80.8604 51.6056 82.4798 48.5089C83.1139 47.2956 83.4958 45.8215 83.2931 44.423C83.1776 43.6215 82.9348 43.6263 82.5482 42.9636C82.1663 42.3082 81.8033 41.4457 81.4898 40.7538C80.7897 39.214 80.4668 37.26 81.1292 35.669C81.4992 34.7822 81.6949 33.8807 82.0108 32.9792C82.4775 31.6392 83.2106 30.4697 83.55 29.0712C83.9555 27.3901 84.2478 25.8284 83.286 24.2642C82.7038 23.3189 81.6336 22.3955 80.5257 22.3151C79.0501 22.2079 77.9799 23.37 77.235 24.5639C76.1106 26.3717 75.1842 28.1965 74.4252 30.1968C73.0273 33.888 71.2594 37.5061 69.4726 41.0121C68.7914 42.3472 68.1243 43.714 67.3582 44.9907C66.1607 46.9861 65.0198 48.7452 63.8129 51.552L63.8152 51.5495Z" fill="#EABEB0"/>
<path d="M15.711 64.1215C14.4805 64.923 13.6201 65.2373 12.887 66.3288C12.5876 66.7747 12.3236 67.2254 12.0101 67.664C11.1403 68.8773 10.4331 69.9956 10.0536 71.4356C9.70003 72.7756 9.61281 73.5089 10.254 74.8368C11.1262 76.6446 12.8658 78.1649 14.2849 79.5001C16.2649 81.3615 18.0753 83.2522 19.6028 85.5521C20.4373 86.8069 21.3636 88.1006 22.0637 89.4358C22.943 91.1096 23.2282 92.9929 23.6855 94.8275C24.3526 97.5125 24.1876 100.273 24.6308 102.972C24.7581 103.755 25.0669 104.188 24.7109 104.951C24.3526 105.721 23.86 106.203 23.0514 106.301C20.2086 106.642 17.8042 104.827 15.7039 103.038C14.794 102.263 14.0279 101.299 13.2453 100.387C12.5829 99.6175 12.0973 98.8452 11.3713 98.1313C10.7749 97.5441 10.1668 96.9496 9.70003 96.2285C8.75477 94.7666 7.98631 93.1488 7.04577 91.6651C6.65919 91.0535 6.2396 90.4907 5.80822 89.9133C5.25191 89.1653 4.99026 88.41 4.54003 87.6353C4.24066 87.1212 3.71971 86.8191 3.40148 86.3098C3.15633 85.9176 3.00782 85.4352 2.80038 85.0161C2.06964 83.5275 2.27001 82.051 2.27001 80.3918C2.27001 76.8882 2.5458 74.062 5.44992 71.8912C6.97741 70.7485 8.3234 69.4133 9.77546 68.1951C10.8433 67.2985 11.8239 66.1827 15.7086 64.1288L15.711 64.1215Z" fill="#EABEB0"/>
<path d="M143.754 109.972C144.244 111.841 144.595 114.704 145.868 116.278C146.865 117.508 147.813 118.646 149.388 118.855C150.562 119.011 151.622 118.536 152.775 118.458C153.765 118.392 154.779 118.478 155.773 118.478C158.649 118.478 161.45 118.534 164.288 118.025C166.72 117.586 169.181 115.949 170.556 113.792C171.435 112.413 172.218 110.779 173.448 109.68C174.563 108.681 175.838 107.811 177.019 106.897C178.273 105.928 179.414 105.236 180.902 105.816C182.052 106.264 182.226 107.131 181.875 108.413C181.493 109.807 180.336 111.003 179.445 112.165C178.483 113.417 176.979 114.424 175.848 115.527C174.869 116.48 173.75 117.174 172.76 118.098C171.642 119.138 170.421 120.081 169.198 120.982C168.434 121.545 168.05 122.208 167.456 122.931C166.918 123.584 166.176 124.081 165.669 124.761C165.252 125.319 164.981 126.009 164.622 126.61C164.057 127.563 163.173 128.684 162.157 128.837C160.566 129.074 159.404 128.418 158.277 127.349C157.324 126.445 155.738 125.134 154.472 124.837C153.527 124.615 152.539 124.971 151.608 124.781C150.896 124.637 150.213 124.471 149.494 124.31C146.583 123.658 146.583 119.754 145.963 117.347C145.611 115.976 145.053 114.497 144.371 113.31C144.039 112.733 143.638 112.384 143.304 111.821C143.03 111.361 142.307 110.535 142.358 109.989C142.898 110.072 143.228 110.567 143.756 109.972H143.754Z" fill="#EABEB0"/>
<path d="M138.801 75.5823C136.741 77.0807 135.685 78.3939 135.327 81.0545C135.133 82.4993 135.112 83.966 135.876 85.2208C136.609 86.4243 137.778 86.4877 139.065 86.7654C140.777 87.1333 141.984 87.6377 143.737 87.0724C145.505 86.5048 147.045 85.4547 147.832 83.6883C148.556 82.068 149.26 80.6915 148.9 78.9105C148.56 77.2318 147.667 75.9015 146.21 75.039C144.97 74.3056 141.788 73.9475 140.564 74.8417L138.797 75.5823H138.801Z" fill="#EABEB0"/>
<path d="M138.448 64.8597C138.068 64.0069 137.849 63.1225 137.79 62.2064C137.646 61.8531 137.741 61.5851 138.073 61.4048C138.221 61.0296 138.427 60.518 138.655 60.2061C139.072 59.636 139.919 59.4728 140.569 59.7383C141.126 59.9649 141.755 60.9224 141.92 61.512C142.271 62.7717 141.093 63.4855 140.569 64.4893L138.448 64.8597Z" fill="#EABEB0"/>
<path d="M38.7012 130.309C39.5616 129.456 40.1721 128.694 41.1786 128.162C41.7514 127.86 42.3808 127.682 42.9536 127.358C44.045 126.744 44.9243 125.755 46.0298 125.214C47.661 124.415 49.8533 122.364 51.7933 122.99C53.342 123.489 54.1435 125.392 53.9242 126.981C53.7569 128.199 53.3915 129.013 53.6343 130.302C53.9572 132.017 54.2707 133.498 54.9708 135.118C56.5573 138.788 58.1531 142.878 58.8061 146.867C59.65 152.017 57.0476 157.487 54.5984 161.743C53.7545 163.21 53.2784 164.024 51.732 164.696C49.7849 165.544 48.2669 166.134 46.1972 165.444C44.3138 164.816 41.2682 162.816 39.3871 164.034C37.5202 165.242 36.9167 167.335 36.9309 169.496C36.9403 170.846 37.0299 171.964 37.2845 173.285C37.5367 174.596 37.9563 175.853 37.9987 177.188C38.0671 179.415 37.2916 181.564 37.2774 183.825C37.268 185.508 37.8007 187.085 37.9917 188.751C38.1072 189.755 39.0595 191.641 38.6753 192.588C37.895 194.513 36.0375 191.706 35.5849 190.958C34.5171 189.195 34.3639 186.566 34.0126 184.573C33.5718 182.058 33.0297 179.576 33.4728 176.981C33.7368 175.431 33.6378 174.023 33.7298 172.461C33.7675 171.818 33.9961 171.245 34.0716 170.614C34.1894 169.63 34.0386 168.656 34.18 167.662C34.4723 165.591 34.1328 163.383 34.5336 161.359C34.8282 159.872 34.6019 158.391 34.8872 156.922C35.1747 155.44 35.1677 153.991 35.4293 152.512C35.691 151.038 35.7853 149.532 36.1271 148.075C36.5749 146.16 36.6905 144.08 37.2751 142.223C37.7889 140.593 37.9681 139.002 38.258 137.323C38.5621 135.559 38.5762 133.912 38.6823 132.146C38.753 130.947 39.5215 129.627 38.7012 130.306V130.309Z" fill="#EABEB0"/>
<path d="M60.277 158.04C59.1597 159.417 56.7859 161.546 57.0594 163.697C57.1937 164.76 58.1366 166.129 59.2257 166.212C60.6541 166.317 61.5593 165.074 62.3254 164.002C63.9661 161.709 63.1481 158.111 62.0426 155.825L60.2746 158.045L60.277 158.04Z" fill="#EABEB0"/>
<path d="M28.0912 104.795C27.226 103.172 26.7522 102.631 26.665 101.079C26.6226 100.312 26.5165 99.3007 26.691 98.5552C26.9243 97.5441 27.8012 96.4575 28.7983 96.9155C29.7766 97.3638 30.3518 98.2896 30.67 99.3178C31.0259 100.465 31.1791 104.237 29.5055 104.427L28.0912 104.797V104.795Z" fill="#EABEB0"/>
<path d="M27.3841 66.3386C25.9014 67.9978 24.4328 69.0747 25.5926 71.4307C26.4624 73.1971 28.591 73.2896 30.3071 72.9388C31.6978 72.6537 33.6237 71.6256 34.0574 70.0541C34.3191 69.1063 33.9443 68.0246 33.4304 67.2376C32.8764 66.3873 31.9383 66.3093 31.2735 65.6003L27.3817 66.341L27.3841 66.3386Z" fill="#EABEB0"/>
<path d="M150.828 109.602C150.14 108.179 149.51 107.58 150.067 106.257C150.38 105.511 150.821 104.758 151.528 104.373C152.692 103.735 154.041 103.92 154.988 104.844C156.351 106.171 156.445 107.962 155.804 109.721C155.241 111.264 154.449 111.902 153.303 112.93L150.828 109.602Z" fill="#EABEB0"/>
<path d="M113.334 177.639C112.931 178.642 112.693 179.683 112.62 180.755C113.416 181.344 114.022 182.107 114.715 182.816C115.877 184.003 117.242 184.539 118.656 185.308C120.945 186.553 123.239 187.796 125.448 189.192C126.673 189.967 127.868 190.688 129.167 191.319C130.386 191.909 131.371 192.761 132.519 193.463C133.573 194.109 134.768 194.523 135.89 195.015C136.96 195.485 137.913 196.131 139.056 196.411C142.613 197.281 146.165 197.907 149.744 198.631C150.696 198.823 151.641 198.592 152.591 198.796C153.503 198.994 154.402 199.24 155.349 199.101C156.679 198.906 158.31 198.282 159.397 197.447C160.281 196.767 160.618 195.919 161.155 194.952C161.86 193.682 162.345 192.771 162.499 191.302C162.605 190.284 162.984 189.397 162.784 188.361C162.576 187.289 162.275 186.173 161.794 185.201C161.162 183.925 160.12 182.261 158.708 181.763C157.982 181.508 156.874 181.649 156.144 181.79C154.873 182.036 153.829 182.151 152.528 182C148.702 181.554 145.102 179.805 141.722 177.936C139.563 176.742 137.528 175.319 135.277 174.306C133.113 173.331 130.912 172.108 128.602 171.589C126.886 171.204 125.118 170.751 123.357 171.053C122.159 171.258 121.032 171.669 119.889 172.079C118.395 172.612 116.947 173.102 115.771 174.272C114.543 175.49 113.888 177.12 113.329 177.641L113.334 177.639Z" fill="#EABEB0"/>
</g>
<g style="mix-blend-mode:soft-light" opacity="0.5">
<path d="M137.033 138.812C135.998 139.399 134.645 139.879 133.754 140.703C132.958 141.438 132.394 142.532 131.656 143.344C130.791 144.296 129.837 145.161 128.962 146.107C127.894 147.257 127.286 148.679 126.426 149.99C125.153 151.93 124.281 154.178 124.262 156.564C124.243 159.061 125.7 161.802 127.102 163.749C128.441 165.608 130.681 167.096 132.613 168.215C134.487 169.299 136.458 170.417 138.2 171.725C139.263 172.525 140.595 173.533 141.472 174.54C142.248 175.431 142.832 176.294 143.758 176.983C144.52 177.551 145.005 178.228 145.873 178.657C146.78 179.105 147.928 179.425 148.93 179.505C149.927 179.585 150.981 179.49 151.983 179.49C153.444 179.493 154.26 179.371 155.561 178.586C157.164 177.619 158.355 176.135 159.352 174.535C160.41 172.832 160.62 170.722 161.089 168.775C161.721 166.168 161.907 163.447 162.119 160.771C162.374 157.602 162.06 154.203 161.468 151.094C160.804 147.593 159.394 144.379 157.294 141.575C155.783 139.555 153.73 137.418 151.54 136.195C150.25 135.474 148.381 135.114 146.915 135.114C144.169 135.114 141.863 136.073 137.036 138.817L137.033 138.812Z" fill="#F7BCB1"/>
<path d="M143.047 125.132C142.606 127.117 142.681 127.897 141.571 129.154C140.833 129.99 140.242 130.908 139.438 131.695C137.726 133.371 135.459 134.573 133.479 135.866C131.105 137.413 127.765 141.265 125.011 138.461C124.304 137.74 124.318 137.119 123.868 136.288C123.529 135.662 122.935 134.965 122.454 134.451C121.466 133.396 120.141 133.386 119.59 131.88C117.876 127.205 123.156 124.554 126.068 122.473C127.642 121.348 129.394 120.054 130.24 118.21C131.154 116.217 129.983 114.579 129.684 112.562C129.526 111.497 129.412 110.542 129.153 109.504C129.002 108.903 128.908 108.374 128.889 107.745C128.837 106.174 128.863 105.604 130.374 105.168C132.276 104.619 133.665 105.209 135.265 106.359C137.161 107.721 138.007 108.971 138.879 111.164C139.27 112.15 139.662 113.02 139.942 114.048C140.216 115.05 140.883 115.695 141.298 116.609C141.724 117.547 141.986 118.651 142.358 119.623C142.931 121.119 142.707 122.822 143.049 125.132H143.047Z" fill="#F7BCB1"/>
<path d="M157.902 92.5933C157.414 94.6813 156.62 97.4222 156.825 99.6369C156.983 101.342 157.447 103.243 157.902 104.885C158.456 106.876 158.854 109.144 158.623 111.266C158.517 112.231 157.902 112.91 157.895 113.853C157.888 115.045 158.998 115.781 160.052 116.09C163.015 116.96 166.15 115.369 168.524 113.658C170.021 112.579 171.494 111.31 172.786 109.962C174.139 108.549 175.044 106.817 176.729 105.823C180.826 103.408 183.638 99.0522 186.177 95.037C187.881 92.3399 188.556 88.8851 189.18 85.7397C189.779 82.7185 190.149 79.3222 189.305 76.3083C188.751 74.3324 188.174 72.605 186.83 71.0481C185.107 69.0527 182.29 67.8052 179.827 67.1645C178.066 66.7089 176.34 66.224 174.525 66.0535C173.083 65.917 171.527 65.5589 170.098 65.6149C166.117 65.7757 162.925 67.8954 160.733 71.3039C158.913 74.1326 157.754 77.8311 157.273 81.2055C156.999 83.1254 157.195 85.1866 157.209 87.1211C157.223 89.1799 156.702 91.2922 157.909 92.5933H157.902Z" fill="#F7BCB1"/>
<path d="M157.902 65.9682C157.237 68.468 156.478 71.2503 155.25 73.5357C154.569 74.8026 153.659 75.6822 152.174 75.6164C150.585 75.5457 148.975 73.8597 147.716 72.9924C146.425 72.1007 145.133 70.4829 144.525 69.0088C142.915 65.1082 147.57 61.9408 150.809 61.2367C152.313 60.9102 153.918 61.3756 155.177 62.2527C157.103 63.5927 156.839 65.2592 156.841 67.4471L157.902 65.9682Z" fill="#F7BCB1"/>
<path d="M56.2107 124.208C55.256 125.448 54.7209 126.038 54.6054 127.527C54.53 128.499 54.6054 129.507 54.8647 130.443C55.7039 133.476 57.2597 136.263 58.6693 139.043C59.7701 141.217 60.5433 143.556 61.6795 145.714C62.1015 146.516 62.7403 147.191 63.0514 148.048C63.3696 148.923 63.5252 149.915 63.636 150.836C63.8859 152.904 64.6426 154.922 65.2271 156.907C65.8565 159.044 65.6939 162.487 67.674 163.887C68.4754 164.455 70.1679 164.789 71.0637 164.56C72.4662 164.199 73.8829 164.07 75.2949 163.807C80.0707 162.913 83.9059 159.19 88.4931 157.755C91.5174 156.807 96.47 156.096 97.2738 152.156C97.4718 151.186 97.2644 150.144 97.0758 149.191C96.8189 147.88 96.2013 147.127 95.5342 146.038C94.1481 143.777 92.2364 141.889 90.4213 140.001C89.7919 139.346 89.0966 138.717 88.5025 138.025C87.859 137.275 87.4748 136.244 87.107 135.328C86.4965 133.812 86.3244 132.141 85.6621 130.655C84.8795 128.901 83.0432 127.953 81.2894 127.524C78.555 126.857 75.9267 126.121 73.1239 125.804C70.4484 125.502 67.8013 125.297 65.1046 125.324C63.827 125.336 62.5918 125.095 61.3212 125.049C60.7578 125.029 60.2534 124.795 59.7018 124.766C58.8626 124.72 58.0989 125.149 56.2131 124.208H56.2107Z" fill="#F7BCB1"/>
<path d="M57.0074 112.004C57.0074 113.912 57.2691 115.249 55.982 116.733C55.2701 117.554 54.3673 117.861 53.4268 118.28C52.2246 118.816 51.0672 119.282 49.8438 119.754C48.0923 120.432 46.4045 121.842 44.4669 121.747C42.4538 121.65 40.9405 119.386 40.1178 117.664C39.2173 115.783 38.6587 113.688 38.4512 111.588C38.2249 109.307 38.6374 107.068 38.7152 104.807C38.8496 100.938 38.2131 96.0725 35.1959 93.4338C34.2011 92.564 33.3973 91.7186 33.1734 90.3225C32.8056 88.0445 33.758 85.4278 34.7103 83.4494C37.6804 77.2756 42.5882 72.0348 48.2597 68.4923C50.3411 67.1913 53.1628 66.4238 55.5789 66.8429C57.7971 67.2302 58.9333 68.8699 60.1826 70.6071C61.4838 72.4174 62.6648 74.3738 63.5841 76.4326C64.8829 79.3368 65.3945 82.6284 65.873 85.7762C66.1417 87.5523 66.3114 89.3748 66.5094 91.1631C66.6438 92.3837 66.4906 93.4046 66.0569 94.5473C65.6278 95.6778 64.7368 96.3575 63.8976 97.1688C63.1268 97.912 62.4526 98.6794 61.7714 99.5127C61.0383 100.409 60.8049 101.476 60.4584 102.57C60.0883 103.737 59.6852 104.917 59.4542 106.125C59.2374 107.256 58.8484 108.276 58.5985 109.385C58.3699 110.408 57.8372 111.514 57.0074 112.004Z" fill="#F7BCB1"/>
<path d="M68.9444 93.1463C68.4777 91.129 68.1571 89.1043 67.8177 87.0602C67.5371 85.379 67.0138 83.6468 67.0633 81.9388C67.1011 80.6816 67.4169 79.4415 67.8648 78.2769C68.1524 77.5314 68.5908 77.1708 69.2037 76.6981C70.4083 75.7698 71.6812 75.4945 73.1686 75.9233C76.7657 76.9637 76.4169 81.4272 75.4362 84.2924C74.9082 85.8347 74.7456 87.5255 74.0031 88.9996C73.1002 90.7903 71.2474 92.4544 68.9444 93.1463Z" fill="#F7BCB1"/>
<path d="M55.9443 59.3144C55.4894 59.7261 54.398 60.3742 54.2353 61.0564C54.2 61.2075 54.3508 61.685 54.3862 61.8434C54.629 62.9081 55.355 63.6902 56.0645 64.4479C57.0027 65.4468 58.0281 66.1948 59.0606 67.0646C60.0082 67.8637 60.7908 68.848 61.8374 69.5229C65.0668 71.6134 70.4814 71.9447 72.9424 68.468C75.4458 64.9279 72.4992 59.8236 69.0788 58.3349C68.1289 57.9207 67.1836 57.4944 66.1559 57.3847C65.5147 57.3165 64.8759 57.4188 64.2347 57.3896C63.7091 57.3652 63.207 57.1947 62.6884 57.1435C61.9081 57.068 61.102 57.3384 60.4066 57.6917C59.6287 58.0864 57.79 58.8709 55.942 59.3119L55.9443 59.3144Z" fill="#F7BCB1"/>
<path d="M88.8396 37.9592C87.9132 40.2982 87.5455 42.7858 86.671 45.1466C85.7116 47.739 84.6932 50.2071 84.0521 52.9285C83.4062 55.6744 83.0738 58.6663 84.2925 61.2805C85.5984 64.08 88.3116 65.7197 90.8386 67.1669C92.4886 68.1122 94.2966 68.7238 96.1329 69.0868C97.7995 69.4182 99.3647 69.92 101.078 69.8689C102.79 69.8202 104.947 68.9236 106.344 67.8662C106.924 67.4276 107.485 66.7966 107.884 66.1826C108.388 65.3981 109.067 64.4917 109.223 63.5415C109.93 59.2461 109.098 54.8606 109.588 50.5579C109.675 49.7831 109.751 48.9937 109.857 48.2214C110.024 47.0056 110.026 46.1358 109.869 44.8981C109.616 42.9149 109.095 40.8074 107.695 39.3407C106.286 37.8642 104.32 36.9432 103.219 35.1379C102.325 33.6736 101.482 31.9218 99.8008 31.2835C97.7854 30.5184 95.6662 30.5769 93.8558 31.8317C91.4137 33.525 89.4478 36.6021 88.8326 37.9568L88.8396 37.9592Z" fill="#F7BCB1"/>
<path d="M134.202 64.0288C133.736 65.1057 133.382 66.1412 132.644 67.028C131.697 68.1658 130.978 69.5034 130.223 70.7825C128.757 73.2677 127.633 75.7772 126.893 78.6034C126.489 80.1408 126.051 82.3384 127.546 83.4665C129.042 84.5945 131.661 82.4261 132.75 81.5125C134.511 80.0385 135.805 78.1454 137.38 76.4959C138.655 75.1583 140.612 74.308 141.185 72.4174C141.755 70.534 140.623 69.0161 139.56 67.6079C139.061 66.9428 138.5 66.2727 137.788 65.8439C137.09 65.4224 135.395 64.9888 134.205 64.0288H134.202Z" fill="#F7BCB1"/>
<path d="M154.364 86.7678C154.081 86.0028 153.789 85.2402 153.487 84.4801C153.258 84.4362 153.03 84.385 152.803 84.329C151.898 84.1487 151.2 84.3972 150.387 84.826C148.145 86.0052 146.611 87.9471 145.849 90.4419C144.871 93.6483 144.881 98.1142 147.723 100.307C148.508 100.911 149.92 101.379 150.894 101.491C152.664 101.696 154.081 100.129 154.904 98.7111C155.938 96.9277 156.33 95.0248 156.231 92.9539C156.179 91.8356 155.993 90.6028 155.7 89.5283C155.465 88.6658 155.219 87.45 154.361 86.7678H154.364Z" fill="#F7BCB1"/>
<path d="M189.116 73.18C189.116 75.6188 188.822 78.3184 189.545 80.6719C189.887 81.7878 190.625 82.9841 191.912 82.1849C193.07 81.4662 193.805 79.1784 193.593 77.909C193.249 75.8576 192.025 73.7696 190.18 72.9047L189.119 73.1824L189.116 73.18Z" fill="#F7BCB1"/>
<path d="M54.0892 169.966C52.1563 168.984 49.9381 168.429 47.7765 168.285C45.3839 168.127 44.0308 169.92 43.4675 172.154C42.7909 174.844 42.4491 177.855 42.7249 180.638C42.897 182.373 43.3449 184.098 43.9837 185.706C44.5989 187.25 45.2825 189.007 46.4447 190.203C48.908 192.739 52.6843 192.004 55.4399 190.522C56.6232 189.886 57.4341 189.114 58.3652 188.132C59.2987 187.145 59.921 186.103 60.7201 185.021C61.5711 183.866 61.9247 182.931 62.3254 181.532C62.7143 180.175 63.0396 179.298 62.5705 177.887C61.4556 174.535 58.344 172.281 54.0939 169.969L54.0892 169.966Z" fill="#F7BCB1"/>
</g>
<path style="mix-blend-mode:multiply" opacity="0.8" d="M124.889 95.5779C124.526 93.5581 123.279 91.8015 122.242 90.0887C121.205 88.3759 119.903 86.9555 118.35 85.7275C116.641 84.3802 114.948 82.7551 112.973 81.8195C111.21 80.9716 109.388 80.326 107.457 80.0336C104.041 79.5074 100.456 79.829 96.2697 80.3845C93.1746 80.4137 90.32 79.6682 87.3098 80.9253C86.1052 81.437 85.4051 81.9365 84.6485 83.0328C83.9908 83.983 83.7244 84.9649 83.2766 86.0053C82.3949 88.0689 81.3295 90.0448 80.3371 92.05C79.8185 93.0757 79.2598 94.0698 78.7554 95.1101C78.1802 96.2528 77.4942 97.1007 77.2302 98.4042C76.6551 101.228 75.0734 103.645 73.9112 106.264C72.511 109.412 71.7685 112.645 72.1339 116.144C72.4285 118.836 74.121 120.797 76.0823 122.408C77.077 123.212 78.1826 123.638 79.2457 124.267C80.4785 125.012 81.5558 126.038 82.8027 126.783C83.9224 127.456 85.1694 127.868 86.2042 128.701C87.0151 129.359 87.8284 130.18 88.5851 130.925C89.7047 132.068 91.1474 133.369 92.8139 133.369C93.4858 133.369 93.9761 133.091 94.6054 132.872C95.5295 132.536 96.4818 132.375 97.3917 131.98C98.4972 131.513 99.6028 130.911 100.765 130.648C102.264 130.297 103.789 130.019 105.286 129.683C107.834 129.113 110.201 127.838 112.735 127.327C114.569 126.947 116.235 126.096 117.565 124.693C119.104 123.068 120.238 121.384 121.4 119.452C123.444 116.012 123.43 111.724 124.116 107.845C124.521 105.621 124.663 103.353 124.983 101.113C125.25 99.2545 125.207 97.4539 124.884 95.5803L124.889 95.5779ZM99.9941 129.607C87.8543 129.607 78.027 119.318 78.027 106.627C78.027 93.9358 87.8567 83.6614 99.9941 83.6614C112.132 83.6614 121.975 93.9358 121.975 106.627C121.975 119.318 112.134 129.607 99.9941 129.607Z" fill="url(#paint6_radial_24_1150)"/>
<path style="mix-blend-mode:multiply" opacity="0.8" d="M164.274 192.442C164.917 191.741 165.492 191.022 165.912 190.203C165.016 193.731 163.602 196.467 161.544 198.034C148.44 208.001 99.9964 176.796 99.9964 176.796C99.9964 176.796 51.5528 208.001 38.4489 198.034C25.345 188.081 38.7435 130.282 38.7435 130.282C38.7435 130.282 -3.42748 92.798 0.226244 76.3181C0.492612 78.5718 0.674119 80.7524 1.27522 82.9622C1.8221 84.9528 2.88521 86.6217 4.03319 88.2322C4.97137 89.5503 5.96612 90.8659 6.79116 92.2425C7.70105 93.7799 8.79245 95.2003 9.53498 96.8522C10.3341 98.6673 11.0601 99.6029 12.8681 100.365C14.7586 101.169 16.8165 101.096 18.7353 101.83C21.8586 103.016 22.8086 106.556 23.4121 109.602C23.6926 111.066 24.0273 112.221 24.7557 113.525C25.2601 114.416 25.7646 114.682 26.4647 115.354C27.3463 116.217 27.8932 117.491 28.7323 118.429C29.6705 119.484 30.7761 120.42 31.6294 121.518C32.5251 122.661 33.435 123.714 34.4581 124.769C34.8777 125.207 35.2148 125.733 35.6202 126.174C35.9832 126.569 36.0964 126.481 36.5725 126.701C37.0911 126.935 37.4966 127.271 38.0717 127.373C38.4088 127.432 38.8143 127.3 39.149 127.329C39.5827 127.388 39.9198 127.622 40.3394 127.695C41.0254 127.797 42.7744 127.826 43.2506 128.543C43.7126 129.23 42.6636 130.899 42.4114 131.544C41.907 132.877 41.6972 134.09 41.4591 135.467C41.0819 137.56 41.122 139.682 40.3818 141.716C39.3446 144.628 38.0434 147.469 36.853 150.292C36.6432 150.789 36.3062 151.213 36.2095 151.742C36.1246 152.283 36.2944 152.885 36.2378 153.426C36.1812 154.127 35.8889 154.744 35.8606 155.46C35.8324 156.279 35.9856 157.144 35.8889 157.948C35.8182 158.635 35.5518 159.222 35.5118 159.909C35.4976 160.362 35.6249 160.905 35.5401 161.359C35.2595 162.954 34.7975 164.521 34.8117 166.173C34.8258 168.032 34.4628 169.789 34.4628 171.648V175.599C34.4628 179.551 34.0574 183.971 35.6815 187.63C36.4806 189.402 37.5437 190.837 38.9863 192.079C40.5256 193.412 42.1922 194.084 43.9295 195.037C45.1906 195.724 46.8548 195.987 48.255 196.136C50.4802 196.37 52.2034 196.618 54.471 196.034C56.1518 195.595 57.8725 195.23 59.5815 194.818C61.3188 194.408 63.082 194.642 64.8028 194.014C67.4901 193.034 69.3947 190.793 71.957 189.477C73.0484 188.907 73.9442 188.556 75.1346 188.291C76.2402 188.042 77.2208 187.487 78.298 187.177C81.0701 186.388 83.3944 184.69 85.9284 183.372C89.6104 181.454 94.497 179.99 96.932 176.345C97.4223 175.614 97.8843 174.895 98.3181 174.12C98.7094 173.419 98.8791 172.583 99.3552 171.94C99.9846 171.063 101.189 169.496 102.394 169.862C103.233 170.11 104.117 171.253 104.661 171.925C106.566 174.325 108.233 176.067 111.229 176.932C113.343 177.546 115.582 177.972 117.598 178.923C118.409 179.303 119.137 179.844 119.936 180.241C120.973 180.752 120.985 180.928 121.379 181.997C121.883 183.345 122.275 185.028 123.284 186.052C125.007 187.823 127.581 188.364 129.794 189.009C134.624 190.43 139.777 191.234 144.089 194.104C145.965 195.349 148.065 196.898 150.305 196.869C152.74 196.855 155.163 196.972 157.558 196.431C158.621 196.182 159.91 195.7 160.905 195.215C162.291 194.542 163.215 193.59 164.278 192.45L164.274 192.442Z" fill="url(#paint7_radial_24_1150)"/>
<path style="mix-blend-mode:multiply" opacity="0.8" d="M161.249 130.28C161.249 130.28 169.495 165.803 166.723 185.942C166.737 185.489 166.737 185.036 166.737 184.565C166.737 183.116 167.017 181.344 166.765 179.926C166.652 179.342 166.416 179.035 166.388 178.389C166.346 177.585 166.445 176.793 166.317 175.989C165.98 174.042 166.037 172.125 166.037 170.149C166.037 169.433 166.122 168.641 166.051 167.925C165.966 166.974 165.532 166.007 165.323 165.057C164.342 160.403 163.741 155.674 163.027 150.977C162.48 147.347 162.803 143.614 162.06 140.028C161.388 136.821 160.045 133.603 160.031 130.309C160.016 129.695 159.932 129.49 160.353 129.093C160.535 128.918 160.914 128.932 161.11 128.757C161.348 128.538 161.32 128.348 161.516 128.084C162.173 127.222 163.055 126.606 163.925 125.962C164.82 125.29 165.563 124.147 166.388 123.285C167.703 121.923 168.755 120.327 169.511 118.544C169.988 117.43 170.52 116.363 170.982 115.235C171.416 114.18 172.201 113.42 172.774 112.455C173.573 111.151 174.174 110.26 175.421 109.395C179.412 106.6 184.591 104.242 186.705 99.4713C188.329 95.7826 189.854 92.0061 191.886 88.6098C192.544 87.4963 193.216 86.5754 194.154 85.7129C194.701 85.2159 195.191 84.7335 195.764 84.2778C196.351 83.7954 196.646 83.179 197.15 82.6089C198.088 81.5832 198.689 80.5891 199.026 79.1979C199.18 78.5109 199.097 77.0027 199.866 76.7542C202.68 93.4534 161.252 130.28 161.252 130.28H161.249Z" fill="url(#paint8_radial_24_1150)"/>
<path style="mix-blend-mode:multiply" opacity="0.8" d="M84.0756 12.7034C83.9907 14.27 82.7885 15.9244 82.1992 17.1523C80.5609 20.5194 79.875 24.369 78.6563 27.8944C78.0128 29.7827 77.5932 31.744 77.341 33.7345C77.0887 35.6081 76.9214 37.3794 75.8559 38.9899C73.7697 42.1377 70.4366 44.1721 68.6734 47.5368C67.7918 49.2496 67.3439 51.0647 65.9437 52.3804C65.1446 53.1259 64.5576 53.8739 63.676 54.5317C62.5988 55.3357 61.5899 55.5574 60.2745 55.9814C60.2745 55.7182 60.2745 55.4405 60.2887 55.1774C61.4791 55.0604 62.1368 55.0019 62.1368 55.0019C62.1368 55.0019 72.4002 28.9348 84.0756 12.7034Z" fill="url(#paint9_radial_24_1150)"/>
<g style="mix-blend-mode:soft-light">
<path d="M117.225 143.619C115.25 143.897 113.426 144.316 111.476 144.637C110.514 144.796 109.447 145.069 108.48 145.12C107.731 145.159 107.004 145.02 106.262 145.181C105.456 145.354 102.74 145.939 102.674 144.369C102.637 143.483 104.6 142.345 105.227 142.128C107.855 141.212 110.658 140.829 113.338 140.103C115.408 139.543 116.481 140.8 117.225 143.619Z" fill="#F7BCB1"/>
<path d="M127.128 99.6175C126.933 100.451 125.143 108.328 127.465 108.432C128.149 108.464 129.356 107.073 129.863 106.661C130.978 105.757 132.144 104.724 133.144 103.686C134.275 102.514 134.834 101.654 134.492 99.8952C134.195 98.3652 133.309 97.6196 132.083 96.9301C129.009 95.2003 126.73 97.2079 126.07 100.726L127.131 99.6175H127.128Z" fill="#F7BCB1"/>
<path d="M127.482 85.5667C124.971 86.2855 122.553 87.3575 120.134 86.0248C119.208 85.5131 118.984 84.7798 118.206 84.0684C117.381 83.3131 116.384 82.2922 115.458 81.7026C113.166 80.2408 110.392 79.8582 107.924 78.9129C107.445 78.7302 105.913 78.4378 105.696 77.8165C105.458 77.1319 106.309 76.6105 106.854 76.2329C107.749 75.6116 108.805 75.3143 109.883 75.2047C111.167 75.0731 112.412 74.7101 113.69 75.0122C115.773 75.5019 117.77 76.245 119.71 77.1465C120.653 77.5851 121.471 78.2551 122.4 78.757C123.123 79.1492 123.691 79.829 124.297 80.3699C125.28 81.2494 126.617 83.4787 127.479 85.5667H127.482Z" fill="#F7BCB1"/>
<path d="M144.461 108.123C144.713 110.611 144.591 112.314 145.864 114.368C146.566 115.5 147.363 116.419 148.539 117.013C149.699 117.603 153.192 117.954 153.338 115.881C153.378 115.327 152.928 114.475 152.624 114.039C152.327 113.617 151.818 113.369 151.519 112.95C151.184 112.482 151.165 111.907 150.847 111.432C149.517 109.451 147.346 108.223 145.168 107.753L144.461 108.123Z" fill="#F7BCB1"/>
<path d="M86.0981 129.2C86.3951 130.272 86.9255 131.42 87.1636 132.482C87.2343 132.799 87.1212 133.315 87.133 133.613C87.173 134.677 87.668 136.017 88.1065 136.965C88.618 138.071 89.3888 139.265 90.0606 140.293C90.8574 141.514 91.6895 142.7 92.4745 143.928C93.5093 145.541 94.9684 147.188 95.2678 149.181C95.5082 150.777 94.8293 151.306 93.4739 150.602C92.4462 150.068 91.6023 149.116 90.6947 148.382C89.6528 147.542 88.6274 146.677 87.5903 145.829C85.6243 144.218 83.2954 142.216 82.8687 139.523C82.6683 138.266 82.4114 137.138 82.5882 135.844C82.7249 134.833 83.0926 133.791 83.3472 132.799C83.6749 131.525 85.4758 128.289 86.0981 129.2Z" fill="#F7BCB1"/>
<path d="M66.9974 176.16C65.6609 175.643 64.7957 175.653 64.6095 174.254C64.5058 173.468 64.461 172.739 64.5695 171.947C64.8547 169.847 66.4552 167.191 68.4518 166.375C69.3664 166.002 71.3277 165.859 72.0678 166.699C72.9377 167.688 73.0202 170.812 71.5964 171.355L66.9974 176.162V176.16Z" fill="#F7BCB1"/>
<path d="M69.1213 92.5933C67.8107 93.5216 66.5543 94.2184 65.6868 95.6023C64.9915 96.7109 64.2301 97.7268 63.5088 98.8013C63.2636 99.1643 62.7144 100.222 63.1646 100.687C63.4663 100.999 64.0651 100.507 64.3314 100.373C67.2827 98.889 70.6913 96.1602 71.2452 92.5933H69.1237H69.1213Z" fill="#F7BCB1"/>
<path d="M84.3302 63.0104C84.4646 67.1962 85.8553 71.5354 87.7293 75.2461C88.6887 77.144 91.0248 79.4075 93.1887 78.0967C95.0981 76.9394 94.6337 74.5566 94.1552 72.7171C93.7167 71.036 93.2288 69.8909 92.1704 68.5581C90.8055 66.838 89.5821 65.9658 84.3326 63.0104H84.3302Z" fill="#F7BCB1"/>
<path d="M97.4176 7.17768C95.8029 7.1655 94.7421 6.8975 93.3796 7.83795C91.8781 8.87586 90.7537 10.6325 89.6293 12.0676C88.1607 13.9387 86.0109 16.5798 85.7233 19.1161C85.5583 20.5706 85.8978 22.2542 87.5785 21.918C88.3328 21.7669 89.212 21.1627 89.9121 20.8557C90.9281 20.4123 91.8757 19.8251 92.8917 19.3768C94.1622 18.8164 95.4634 18.2463 96.7976 17.8784C97.7948 17.6055 98.8602 17.5592 99.829 17.1767C101.484 16.5238 103.709 15.5321 104.852 14.1166C105.864 12.8618 106.712 11.6339 105.963 9.95763C104.553 6.80248 100.213 6.20556 97.4176 7.17525V7.17768Z" fill="#F7BCB1"/>
<path d="M147.643 58.9441C147.28 60.3743 146.856 63.6001 144.734 63.4149C143.464 63.3028 142.217 61.5973 142.309 60.2695C142.495 57.5432 148.037 57.9915 147.643 60.7933V58.9441Z" fill="#F7BCB1"/>
<path d="M163.119 166.361C162.628 167.018 162.188 167.71 161.792 168.434C161.747 168.831 161.664 169.221 161.544 169.601C161.292 170.403 160.924 171.18 160.599 171.95C159.995 173.375 159.196 174.693 158.605 176.128C158.18 177.151 157.553 178.913 157.996 179.978C158.371 180.879 159.543 181.527 160.448 181.298C164.073 180.387 166.525 175.941 165.992 172.169C165.754 170.493 165.337 168.958 164.717 167.408C164.384 166.58 163.578 164.129 163.121 166.361H163.119Z" fill="#F7BCB1"/>
<path d="M58.0682 166.638C57.7334 167.013 56.6279 167.934 56.4629 168.617C56.3073 169.26 56.7057 169.986 56.9886 170.517C57.6392 171.743 58.7824 172.512 60.1378 172.471C61.1585 172.439 61.9081 171.845 62.0519 170.809C62.3112 168.936 60.5904 167.837 59.1289 167.191L58.0682 166.636V166.638Z" fill="#F7BCB1"/>
<path d="M56.2108 128.645C55.6851 129.788 55.1901 130.667 55.1406 131.929C55.1029 132.877 55.0651 133.883 55.1901 134.821C55.4117 136.495 56.0717 138.546 57.4837 139.487C59.7608 141.002 59.9823 137.548 60.4538 135.927C60.8545 134.553 61.1657 133.218 61.6253 131.861C61.9318 130.957 62.3349 129.78 62.0661 128.85C61.7597 127.787 61.0973 127.183 60.1968 126.703C58.865 125.994 57.9693 126.762 56.2108 128.65V128.645Z" fill="#F7BCB1"/>
<path d="M45.068 120.047C44.3585 120.23 43.6419 120.32 42.9182 120.322C42.5104 119.445 41.5062 119.024 40.9546 118.254C40.5704 117.718 40.2097 116.382 40.3229 115.673C40.6175 113.805 42.5127 112.801 44.144 113.13C45.5253 113.408 46.6049 114.243 47.3357 115.471C47.7222 116.117 47.7435 116.59 47.7246 117.352C47.7057 118.163 47.4582 118.368 46.9255 118.941L45.068 120.049V120.047Z" fill="#F7BCB1"/>
<path d="M14.827 69.0211C13.8865 69.8738 13.2854 70.1589 13.0662 71.2845C12.9129 72.0763 12.6489 72.6684 12.6796 73.5065C12.7361 74.9635 13.2359 76.3912 14.2165 77.4291C15.0604 78.3208 16.5737 78.8861 17.6109 78.0187C18.2191 77.5095 18.601 76.6616 19.0677 76.0306C19.7183 75.1511 20.1709 74.2788 20.6918 73.3165C21.4014 72.0105 24.3644 68.1293 22.3725 66.687C20.3595 65.23 15.2867 66.6456 14.8223 69.3037V69.0259L14.827 69.0211Z" fill="#F7BCB1"/>
<path d="M41.8858 174.681C42.1168 176.93 42.2488 179.188 42.4822 181.432C42.6307 182.857 43.0573 184.473 42.1639 185.735C41.3531 186.88 40.5021 186.12 39.8256 185.235C38.8261 183.929 38.4984 182.682 38.2415 181.064C37.9374 179.149 37.0134 174.515 39.7077 173.906C41.6972 173.458 42.2724 176.835 41.8882 174.681H41.8858Z" fill="#F7BCB1"/>
<path d="M185.932 94.8105C184.928 96.3381 184.009 97.9461 182.894 99.3836C181.786 100.814 180.437 102.154 179.593 103.789C179.426 104.113 178.783 105.341 179.039 105.755C179.327 106.218 180.541 105.838 180.937 105.66C182.985 104.739 184.676 102.644 185.812 100.694C186.281 99.888 186.484 99.0645 186.474 98.1313C186.462 97.1421 186.043 96.3186 185.932 94.8105Z" fill="#F7BCB1"/>
</g>
<path d="M119.701 160.26C119.168 159.378 118.873 158.43 118.817 157.421C119.427 157.102 119.3 156.364 120.045 156.167C120.721 155.989 121.12 156.303 121.476 156.841C121.775 157.295 121.964 157.511 121.791 158.194C121.662 158.71 121.169 159.568 120.761 159.889L119.701 160.26Z" fill="#F9C095"/>
<path d="M117.226 168.765C115.889 167.613 113.593 165.9 114.01 163.654C114.229 162.47 115.238 162.167 116.181 162.747C116.947 163.22 117.303 164.282 117.511 165.137C117.655 165.737 117.492 166.346 117.657 166.943C117.817 167.528 118.251 167.869 117.581 168.395L117.228 168.765H117.226Z" fill="#F9C095"/>
<path d="M157.548 140.293C157.346 138.795 156.799 137.591 157.683 136.402C157.933 136.064 158.114 135.637 158.513 135.545C159.137 136.181 159.531 136.544 159.682 137.509C159.899 138.888 159.477 139.375 158.609 140.296H157.548V140.293Z" fill="#F9C095"/>
<path d="M144.107 171.723C144.242 172.817 144.056 174.535 145.048 175.202C145.663 175.616 146.531 175.507 147.129 175.068C148.669 173.94 146.943 172.335 145.875 171.723H144.107Z" fill="#F9C095"/>
<path d="M56.7411 157.672C56.4016 157.231 54.8011 155.667 54.9119 154.685C54.9519 154.325 55.4446 153.591 55.5955 153.309C55.9726 152.592 56.4841 152.11 57.42 152.509C59.1643 153.253 59.162 155.786 57.8042 156.932L56.7434 157.672H56.7411Z" fill="#F9C095"/>
<path d="M62.4009 134.007C62.6201 135.045 62.8912 136.069 63.2141 137.075C64.3173 136.809 66.0805 136.778 65.9532 135.106C65.8684 134.007 64.8147 133.423 63.8152 133.267L62.4009 134.007Z" fill="#F9C095"/>
<path d="M68.5462 132.39C68.3765 131.759 68.1242 131.4 68.4401 130.899C68.6216 130.611 68.8338 130.499 69.1826 130.577C69.4184 130.631 69.5621 130.84 69.6659 131.076C69.9181 131.656 69.4325 132.112 69.0766 132.526L68.5462 132.387V132.39Z" fill="#F9C095"/>
<path d="M32.3342 107.429C32.2659 108.108 32.1386 109.066 32.966 109.356C33.4869 109.539 34.0904 109.163 34.1941 108.61C34.2954 108.065 34.2082 107.589 33.8829 107.163C33.5553 106.732 33.0225 106.498 32.6006 107.014L32.3342 107.431V107.429Z" fill="#F9C095"/>
<path d="M20.3972 96.1968C19.9634 95.7241 19.591 95.4512 19.7254 94.808C19.7914 94.484 20.0813 94.4547 20.3335 94.6082C20.7178 94.8421 21.2576 96.2455 20.7956 96.6134L20.3972 96.1968Z" fill="#F9C095"/>
<path d="M57.2714 106.042C56.8236 105.767 56.2955 105.623 56.3191 105.036C56.3333 104.702 56.371 104.422 56.4676 104.1C56.5996 103.664 56.8165 103.07 57.3021 102.977C57.7311 102.897 58.0093 103.248 58.0776 103.642C58.1743 104.213 57.9291 104.605 57.6698 105.07L57.2714 106.04V106.042Z" fill="#F9C095"/>
<path d="M80.3512 59.8675C80.3418 60.8518 80.3229 61.6461 81.0206 62.3819C81.2964 62.6742 81.511 62.7156 81.7373 62.2893C81.9824 61.8312 81.7773 61.0954 81.5204 60.6885C81.3177 60.3694 80.924 59.7652 80.4832 59.8675H80.3512Z" fill="#F9C095"/>
<path d="M120.144 55.0141C119.576 55.5964 118.965 56.1861 119.067 57.1094C119.118 57.5821 119.387 57.7575 119.774 57.5212C120.488 57.0826 121.141 55.4332 120.408 54.7364L120.141 55.0141H120.144Z" fill="#F9C095"/>
<path d="M120.144 63.1956C119.83 62.5256 119.505 62.1528 120.035 61.5534C120.269 61.2879 120.636 61.1368 120.945 61.3463C121.718 61.8702 120.655 62.718 120.276 63.0567L120.144 63.1956Z" fill="#F9C095"/>
<path d="M153.569 86.7679C153.327 87.0871 153.166 87.4428 153.093 87.8326C153.357 87.952 153.459 88.2224 153.767 88.2882C154.135 88.3662 154.458 88.2322 154.708 87.9471C154.927 87.6962 154.937 87.5914 154.772 87.2917C154.607 86.992 154.338 86.6168 153.968 86.629L153.569 86.7679Z" fill="#F9C095"/>
<path d="M133.54 102.853C133.479 102.587 133.193 101.903 133.429 101.62C133.472 101.569 133.787 101.364 133.832 101.35C134.216 101.208 134.768 101.462 135.004 101.769C135.275 102.125 135.369 102.578 135.173 102.999C134.959 103.457 134.379 103.496 133.938 103.547L133.54 102.853Z" fill="#F9C095"/>
<path d="M109.133 80.9448C108.845 81.2445 108.605 81.5807 108.419 81.9535C108.442 82.0388 108.459 82.1265 108.471 82.2142C108.487 82.5675 108.645 82.9013 108.862 83.1619C109.279 83.6638 109.671 83.8466 110.166 83.4421C110.498 83.1693 110.774 82.911 110.736 82.4335C110.682 81.7683 110.321 81.5296 109.798 81.2201L109.135 80.9424L109.133 80.9448Z" fill="#F9C095"/>
<path d="M171.077 80.6671C170.813 81.0106 169.973 81.8634 170.605 82.3823C170.742 82.4944 171.301 82.5529 171.48 82.4481C171.701 82.319 171.774 81.878 171.748 81.6441C171.69 81.1276 171.39 80.94 170.945 80.9449L171.077 80.6671Z" fill="#F9C095"/>
<path d="M166.966 93.1464C167.074 92.7468 167.074 91.9453 167.553 91.8892C167.873 91.8502 168.187 92.1524 168.366 92.396C168.635 92.7566 168.594 93.122 168.436 93.5435C168.288 93.9382 168.005 94.0333 167.628 94.1185L166.966 93.1489V93.1464Z" fill="#F9C095"/>
<defs>
<radialGradient id="paint0_radial_24_1150" cx="0" cy="0" r="1" gradientUnits="userSpaceOnUse" gradientTransform="translate(98.1647 87.4243) scale(99.9743 132.035)">
<stop stop-color="#F1842A"/>
<stop offset="0.28" stop-color="#EE802A"/>
<stop offset="0.5" stop-color="#E8762A"/>
<stop offset="0.71" stop-color="#DC652A"/>
<stop offset="0.87" stop-color="#D0532B"/>
<stop offset="0.94" stop-color="#B33A3A"/>
<stop offset="0.97" stop-color="#A83141"/>
</radialGradient>
<radialGradient id="paint1_radial_24_1150" cx="0" cy="0" r="1" gradientUnits="userSpaceOnUse" gradientTransform="translate(100.799 108.073) scale(99.9743 100.897)">
<stop offset="0.08" stop-color="#C26B7F"/>
<stop offset="0.13" stop-color="#CD8797"/>
<stop offset="0.21" stop-color="#DFB1BC"/>
<stop offset="0.29" stop-color="#EDD3D9"/>
<stop offset="0.37" stop-color="#F6EBEE"/>
<stop offset="0.44" stop-color="#FCF9FA"/>
<stop offset="0.5" stop-color="white"/>
</radialGradient>
<radialGradient id="paint2_radial_24_1150" cx="0" cy="0" r="1" gradientUnits="userSpaceOnUse" gradientTransform="translate(124.824 133.032) scale(41.0119 42.8888)">
<stop stop-color="#B68DC0"/>
<stop offset="0.99" stop-color="#C26B7F"/>
</radialGradient>
<radialGradient id="paint3_radial_24_1150" cx="0" cy="0" r="1" gradientUnits="userSpaceOnUse" gradientTransform="translate(60.1767 120.834) scale(15.4582 16.1657)">
<stop stop-color="#B68DC0"/>
<stop offset="0.99" stop-color="#C26B7F"/>
</radialGradient>
<radialGradient id="paint4_radial_24_1150" cx="0" cy="0" r="1" gradientUnits="userSpaceOnUse" gradientTransform="translate(39.1177 129.693) scale(0.588085 0.615006)">
<stop stop-color="#B68DC0"/>
<stop offset="0.99" stop-color="#C26B7F"/>
</radialGradient>
<radialGradient id="paint5_radial_24_1150" cx="0" cy="0" r="1" gradientUnits="userSpaceOnUse" gradientTransform="translate(75.2849 72.7032) scale(18.2726 19.1089)">
<stop stop-color="#B68DC0"/>
<stop offset="0.99" stop-color="#C26B7F"/>
</radialGradient>
<radialGradient id="paint6_radial_24_1150" cx="0" cy="0" r="1" gradientUnits="userSpaceOnUse" gradientTransform="translate(98.6402 106.719) scale(26.0997 27.2942)">
<stop stop-color="#F7C0D0"/>
<stop offset="0.99" stop-color="#C26B7F"/>
</radialGradient>
<radialGradient id="paint7_radial_24_1150" cx="0" cy="0" r="1" gradientUnits="userSpaceOnUse" gradientTransform="translate(83.6375 143.169) scale(74.3926 75.0789)">
<stop stop-color="#F7C0D0"/>
<stop offset="0.99" stop-color="#C26B7F"/>
</radialGradient>
<radialGradient id="paint8_radial_24_1150" cx="0" cy="0" r="1" gradientUnits="userSpaceOnUse" gradientTransform="translate(180.237 135.762) scale(39.1636 39.5249)">
<stop stop-color="#F7C0D0"/>
<stop offset="0.99" stop-color="#C26B7F"/>
</radialGradient>
<radialGradient id="paint9_radial_24_1150" cx="0" cy="0" r="1" gradientUnits="userSpaceOnUse" gradientTransform="translate(72.3261 36.093) scale(16.8864 17.0422)">
<stop stop-color="#F7C0D0"/>
<stop offset="0.99" stop-color="#C26B7F"/>
</radialGradient>
</defs>
</svg>
