<svg width="200" height="200" viewBox="0 0 200 200" fill="none" xmlns="http://www.w3.org/2000/svg">
<g clip-path="url(#clip0_24_1817)">
<path d="M199.958 62.3637V69.0725C199.702 70.7115 199.306 72.3927 198.201 73.5415C198.201 73.5547 198.188 73.5679 198.171 73.5837C197.458 74.3083 196.431 75.0462 195.701 75.8788C195.687 75.892 195.687 75.9052 195.671 75.921C195.505 76.1819 195.367 76.4823 195.245 76.8222C195.033 77.423 194.958 77.9974 194.972 78.5718C195.229 79.336 195.925 80.1292 196.245 80.9091C196.563 81.6469 196.79 82.3716 197.199 83.083C197.381 83.3834 197.638 84.1081 197.972 84.8064C198.442 85.7365 199.047 86.6377 199.804 86.5007C199.865 86.419 199.909 86.3505 199.956 86.2688V137.642C199.956 146.485 194.732 154.643 186.25 159.057L138.376 183.997L121.488 192.798L114.007 196.693C105.539 201.107 95.0907 201.107 86.6093 196.693L60.4994 183.096C60.4994 183.083 60.4856 183.083 60.4856 183.083C59.7424 182.277 59.2286 181.484 58.6236 180.432C58.5324 180.282 58.4412 180.132 58.3197 179.982C58.2147 179.913 58.1235 179.858 58.0158 179.805C58.1069 179.847 58.1981 179.887 58.2893 179.929C56.6538 177.347 54.0182 175.283 51.1561 173.86C50.4129 173.491 49.6256 173.26 48.8382 173.109C47.5646 172.878 46.2496 172.864 44.9318 172.849C44.7661 172.849 44.6141 172.849 44.4622 172.862C43.5698 172.917 42.8571 173.188 42.0089 173.462L14.3685 159.059C5.88715 154.646 0.662964 146.488 0.662964 137.644V121.312C2.69352 120.97 4.69092 118.756 5.53906 117.294C6.82646 115.067 7.11377 111.65 6.19105 109.299C5.38711 107.21 3.75162 105.924 2.25426 104.269C1.52768 103.462 1.01106 102.548 0.662964 101.563V62.3663C0.662964 57.9394 1.96418 53.6891 4.34283 49.9974C4.91746 49.0962 5.55563 48.2346 6.25182 47.4151C6.49494 47.1147 6.75187 46.8274 7.00879 46.5402C9.05316 44.34 11.523 42.4401 14.3685 40.9513L33.0579 31.2201L86.6121 3.30967C95.0934 -1.10404 105.545 -1.10404 114.009 3.30967L186.253 40.946C194.734 45.3729 199.958 53.5336 199.958 62.361V62.3637Z" fill="url(#paint0_radial_24_1817)"/>
<path style="mix-blend-mode:multiply" d="M198.574 109.839C197.212 110.854 197.157 113.241 195.831 114.456C195.135 115.094 194.367 115.365 193.383 115.373C192.01 115.383 191.643 114.524 190.524 113.942C188.474 112.872 187.112 111.318 184.742 110.793C183.8 110.585 182.863 110.751 181.902 110.701C180.675 110.64 179.73 110.158 178.459 110.174C173.125 110.237 167.785 109.858 162.919 112.129C160.359 113.323 157.842 114.561 155.358 115.881C153.902 116.656 152.344 117.107 150.885 117.839C150.438 118.063 150.037 118.069 149.603 118.316C149.261 118.514 148.985 118.883 148.628 119.107C147.222 119.984 146.04 121.267 144.595 122.082C143.026 122.967 140.727 122.598 138.857 122.601C137.754 122.601 136.636 122.688 135.555 122.485C134.24 122.237 132.754 122.174 131.536 121.61C129.301 120.574 127.591 118.25 126.215 116.422C123.715 113.096 121.69 109.697 118.899 106.538C117.402 104.843 111.493 99.2595 113.565 96.7088C115.38 94.4743 117.617 93.7576 116.957 90.6061C116.239 87.1779 114.487 83.942 113.051 80.7404C111.379 77.0198 110.034 73.2095 108.045 69.6548C108.409 69.8761 108.487 70.3057 109.012 70.3505C109.998 70.4348 110.946 69.1462 111.31 68.5349C111.821 67.6811 112.343 67.1436 112.465 66.166C112.592 65.1436 112.363 64.0738 112.437 63.0461C112.534 61.7655 113.186 60.5402 113.584 59.3096C114.159 57.531 115.106 56.6877 116.75 55.5837C120.217 53.2543 125.182 54.0606 129.069 52.7009C131.867 51.7207 134.901 51.2121 137.727 50.3136C138.882 49.9473 139.81 49.3149 140.862 48.7826C141.896 48.2609 143.006 48.0553 144.028 47.5336C145.791 46.6403 147.648 45.4203 149.349 44.4005C151.018 43.3992 152.173 42.2872 153.065 40.6429C154.294 38.3821 154.714 36.0184 155.231 33.5441C155.77 30.9644 154.532 28.2661 153.77 25.7549C152.303 26.6324 151.466 24.5823 150.758 23.7997C150.275 23.2674 149.609 22.8564 149.167 22.245C148.963 21.9657 148.446 21.191 148.164 21.1331C147.554 22.2767 148.742 24.0948 149.054 25.2121C149.501 26.8116 149.755 28.635 149.75 30.3004C149.744 33.2859 148.791 37.1383 147.04 39.7497C145.523 42.0079 142.658 44.1186 139.995 45.3043C136.796 46.7299 133.696 48.469 130.237 49.3386C126.905 50.1765 123.394 50.1396 119.908 50.0975C117.54 50.0685 115.335 51.7865 114.294 53.7207C112.946 56.2266 111.321 59.191 109.448 61.4888C108.443 62.722 107.644 63.4256 106.257 64.2055C105.708 64.5165 105.335 64.7721 104.782 64.9881C99.7402 59.0672 91.8197 54.6693 84.2169 52.1581C79.6308 50.6429 74.9509 51.0514 70.1908 51.531C65.6324 51.9894 62.4747 51.4598 59.0435 48.6219C57.0212 46.9512 55.5929 44.9512 54.4381 42.7273C53.369 40.6719 52.0098 38.5823 51.0926 36.4664C49.982 33.9078 50.3549 30.9644 49.1697 28.4111C48.7553 27.5204 48.1034 26.801 47.6613 25.9473C47.4237 25.4914 47.0259 24.0738 46.4485 23.8972C44.965 23.4466 41.3929 28.3847 40.3016 29.2859C40.9646 29.502 41.694 29.3281 42.3957 29.473C43.5422 29.7101 44.5119 30.4137 45.3158 31.1541C46.2883 32.0474 46.9209 33.1989 47.5591 34.3346C47.4652 34.5191 47.3823 34.693 47.3105 34.8116C46.8436 35.5942 46.327 36.4717 45.6943 37.1594C44.8655 38.058 43.5118 38.4927 42.614 39.3887C41.2243 40.7747 40.5917 42.5902 39.8402 44.2977C38.097 48.2477 37.5666 52.4664 36.6687 56.6298C35.8869 60.2556 36.2018 64.1923 35.0885 67.7418C34.2099 70.5402 32.3507 73.2516 31.0301 75.8972C30.3367 77.2885 29.9333 78.7958 29.2151 80.1686C28.8559 80.8564 28.6017 81.3834 28.447 82.1291C28.1929 83.3465 27.8779 84.5744 27.6044 85.7576C27.4773 86.3136 26.8972 86.9302 26.9082 87.5599C26.9193 88.2161 27.1928 88.1897 27.6845 88.6456C28.2813 89.2042 28.5907 89.9394 29.2399 90.4848C30.834 91.8234 32.2043 93.2991 33.7679 94.6403C36.5693 97.0408 39.1993 100.951 39.8762 104.406C40.4729 107.455 39.2629 109.747 37.3539 111.837C35.9035 112.261 34.442 112.646 32.9999 112.962C29.4582 113.739 25.9413 114.588 22.4023 115.378C19.0319 116.129 15.4239 116.469 12.1612 117.539C9.31009 118.474 6.79607 120.15 4.09971 121.175C2.83994 121.655 2.29846 122.095 2.24321 123.368C2.21834 123.953 1.77355 127.881 2.35095 128.229C3.40076 128.859 6.17447 125.784 6.87895 125.215C8.13596 124.2 9.3018 122.922 10.7771 122.174C13.2386 120.922 17.0151 120.227 19.7585 120.032C21.1812 119.931 22.6344 120.166 24.0406 120.05C25.6264 119.918 27.2121 119.196 28.7592 118.846C31.4777 118.232 34.1326 117.879 36.887 117.41C38.8264 117.08 40.937 116.522 42.9123 117.009C44.4373 117.386 45.6833 118.229 47.2911 118.43C49.0399 118.648 51.344 118.688 52.9408 117.976C54.6895 117.199 55.5156 116.382 57.5986 116.079C60.2453 115.692 62.1542 116.58 64.403 117.776C66.5717 118.928 67.6658 120.619 69.5112 122.097C71.7573 123.895 74.0889 125.489 76.0173 127.602C80.3685 132.369 83.1505 138.651 84.6534 144.614C85.4545 147.789 85.1672 151.038 85.9988 154.19C86.7171 156.912 87.8111 159.599 88.2586 162.372C88.7614 165.478 87.9409 167.486 86.0264 170.034C83.9958 172.74 81.8907 175.299 79.1225 177.426C77.0837 178.993 75.0282 180.287 72.6247 181.357C71.1467 182.016 70.1245 182.495 68.9504 183.578C68.2514 184.221 67.5691 185.004 66.6574 185.412C65.6656 185.855 65.9032 185.681 64.8396 185.315C64.8893 186.126 66.9115 186.896 67.6022 187.36C69.5057 188.632 71.213 189.594 72.8402 189.924C72.0418 188.445 70.7599 187.033 71.3705 185.499C71.5832 184.97 72.0308 184.203 72.3788 183.71C73.5917 181.997 76.114 181.257 77.8765 180.084C79.6447 178.906 81.2304 177.449 83.1422 176.495C84.7611 175.689 85.3495 174.53 86.6425 173.399C88.2061 172.032 90.3693 170.859 92.1346 169.707C94.5713 168.116 97.2759 166.827 99.801 165.333C103.011 163.436 105.589 160.395 109.084 158.925C112.584 157.452 117.283 156.485 121.137 156.271C125.378 156.037 129.469 155.325 131.953 152.037C134.428 148.754 134.677 144.364 136.1 140.709C137.017 138.356 137.94 136.14 138.539 133.684C139.191 131.012 140.105 128.279 141.755 125.958C143.76 123.13 146.576 122.179 149.755 120.785C151.236 120.134 152.687 119.544 154.212 118.985C156.035 118.316 157.621 117.212 159.364 116.385C161.378 115.428 162.953 114.316 165.204 113.758C167.102 113.286 169.149 113.049 171.105 112.875C172.558 112.746 174.078 112.814 175.528 112.632C176.39 112.524 177.318 112.171 178.191 112.187C179.664 112.211 181.501 112.593 182.929 112.875C184.609 113.204 186.805 114.111 188.225 114.949C189.949 115.966 190.886 117.494 191.98 118.93C192.3 119.349 193.358 120.43 193.917 120.696C195.022 121.22 194.685 120.743 195.497 120.385C196.989 119.729 198.442 120.48 198.536 118.456C198.668 115.589 198.375 112.704 198.555 109.837L198.574 109.839ZM123.228 153.167C120.604 154.435 117.689 154.951 114.775 155.267C109.302 155.86 103.683 157.265 98.6987 159.407C96.8146 160.216 94.5658 161.436 95.3366 158.385C96.1073 155.331 97.5494 152.841 96.1377 149.742C94.6238 146.416 92.0103 144.213 89.546 141.455C85.5374 136.964 81.6614 132.403 77.6003 127.945C71.0141 120.719 65.5993 110.901 55.3056 107.613C51.1451 106.285 48.1338 107.531 44.592 109.133C44.4318 108.941 44.2743 108.748 44.1583 108.54C43.44 107.246 42.5836 106.097 41.9564 104.743C41.2326 103.173 40.6166 101.544 39.7574 100.029C38.9672 98.6377 38.4064 97.17 37.4616 95.8419C36.5278 94.5296 36.1576 92.9934 35.3675 91.6232C33.9668 89.1963 32.2844 86.4927 31.8948 83.7418C31.6241 81.8392 31.8313 79.5283 32.7651 77.8103C34.2514 75.083 36.072 72.527 37.0831 69.6205C37.3124 68.9644 37.6246 68.4453 37.6688 67.7497C37.7075 67.1278 37.6108 66.4954 37.6467 65.8709C37.7158 64.6587 38.0086 63.5125 38.0279 62.2661C38.0418 61.4914 38.3346 60.859 38.4313 60.108C38.5086 59.5046 38.481 59.0804 38.6993 58.469C39.1413 57.22 39.4176 55.9947 39.9508 54.7668C41.0807 52.1713 41.2741 49.3333 42.194 46.6746C42.3985 46.0896 42.73 45.7734 43.0201 45.2358C43.2908 44.7352 43.3571 44.1686 43.6803 43.6864C44.1472 42.9908 44.6694 42.2266 45.2965 41.6416C46.3629 40.6456 47.3961 40.2292 48.7553 39.6469C49.3245 39.4018 50.04 39.3201 50.4047 38.8432C51.2887 40.2925 52.0954 41.7681 52.7502 43.3649C53.9574 46.3083 55.9687 50.0843 59.3391 51.3729C61.2288 52.0949 62.7455 52.1765 64.8092 52.166C66.8977 52.1555 68.7929 52.3425 70.8483 52.5744C73.3099 52.8537 75.6443 52.5981 78.0727 53.1963C79.7966 53.6205 81.2276 53.9183 82.7471 54.7457C83.8384 55.3412 84.9103 55.9051 86.0651 56.3241C87.9022 56.9881 89.9052 56.9486 91.8556 57.4176C94.0519 57.9473 96.5438 59.1937 98.2788 60.4506C100.354 61.9499 101.467 64.029 102.583 66.1818C103.299 67.5599 103.942 68.9644 104.699 70.3267C105.492 71.7497 106.517 72.2266 107.525 73.4308C109.559 75.8551 110.498 79.2385 110.73 82.2082C110.929 84.7536 112.147 87.5389 111.935 90.0922C111.796 91.7602 110.722 93.2016 110.117 94.7431C109.382 96.6087 109.349 98.8116 109.691 100.764C110.515 105.444 114.54 109.397 116.344 113.773C118.214 118.314 119.979 123.025 122.369 127.368C123.416 129.27 123.85 131.455 124.521 133.489C125.016 134.993 125.419 136.653 125.613 138.208C125.963 141.033 125.637 144.045 125.662 146.888C125.684 149.27 125.787 151.931 123.228 153.167Z" fill="url(#paint1_radial_24_1817)"/>
<g style="mix-blend-mode:multiply" opacity="0.5">
<path d="M141.727 126.229C139.876 128.466 138.116 130.756 136.359 133.065C134.826 135.08 132.494 135.916 130.152 134.469C128.411 133.394 127.687 131.665 127.008 129.955C126.317 128.224 125.48 126.477 124.593 124.822C123.983 123.681 120.902 119.573 123.726 118.988C125.834 118.551 128.099 120.435 129.685 121.394C131.113 122.258 132.632 123.228 134.265 123.773C137.122 124.727 141.89 125.779 141.727 126.229Z" fill="#A72752"/>
<path d="M116.092 89.9764C116.667 92.1661 116.86 93.2465 115.697 95.0857C115.211 95.8552 114.816 96.5271 113.797 96.8091C112.824 97.0778 112.562 96.6009 112.266 95.8789C111.766 94.6589 112.001 93.7893 112.233 92.564C112.454 91.3967 112.266 90.0528 112.266 88.8618C112.266 87.6707 111.849 85.9711 112.249 84.9355C112.609 84.0027 113.255 84.4744 113.797 85.0594C114.924 86.2715 115.388 87.6206 115.327 89.2834L116.092 89.9738V89.9764Z" fill="#A72752"/>
<path d="M110.352 60.6299C109.238 61.6391 107.934 62.5825 106.909 63.6417C106.346 64.2241 105.243 64.9303 105.011 65.6655C104.52 67.2254 105.498 68.8328 106.887 69.6128C108.009 70.2399 109.448 69.1095 110.062 68.2504C111.415 66.3585 110.515 64.0739 110.352 62.0106V60.6299Z" fill="#A72752"/>
<path d="M123.361 50.6167C121.952 50.4401 120.637 50.3585 119.231 50.5798C118.372 50.7142 117.747 50.7563 117.046 51.3123C116.587 51.676 116.355 52.0712 116.059 52.5403C115.606 53.2544 115.029 53.8973 114.548 54.593C114.208 55.0857 113.926 55.6101 113.598 56.1081C113.449 56.3321 113.266 56.5508 113.241 56.8117C113.7 56.8697 114.482 56.037 114.75 55.8394C115.137 55.56 115.498 55.2465 115.885 54.9698C116.413 54.593 117.037 54.4085 117.626 54.1318C119.261 53.3677 122.195 52.5403 123.361 50.6141V50.6167Z" fill="#A72752"/>
<path d="M79.7441 51.8261C80.7995 52.5797 81.7747 53.3307 82.8273 54.0659C83.2638 54.3716 83.6782 54.672 84.1506 54.9328C84.6534 55.2122 85.0098 55.6021 85.5844 55.7655C86.2585 55.9579 86.9519 56.1423 87.6343 56.2741C88.1813 56.3795 88.8222 56.2082 89.361 56.1054C90.0931 55.9658 89.9328 55.6944 89.4853 55.3808C88.9328 54.9908 88.3112 54.7168 87.7255 54.3742C87.2669 54.1054 86.8746 53.7602 86.4077 53.502C84.5843 52.4981 82.54 52.0237 79.7441 51.8235V51.8261Z" fill="#A72752"/>
<path d="M50.0897 37.1542C50.1588 37.8051 50.3853 38.2899 50.0262 38.7484C49.7858 39.0541 49.4322 39.3176 49.1366 39.5785C48.5924 40.0581 47.9459 40.5271 47.1641 40.6193C46.7524 40.6668 46.3132 40.6694 46.2358 40.2425C46.1806 39.9369 46.5342 39.3361 46.6005 39.062C46.6999 38.6457 46.7359 38.2478 46.9265 37.8499C47.1834 37.315 47.4928 36.8433 47.7166 36.2952C47.8603 35.9448 48.1089 35.1911 48.4073 34.8986C49.3189 34.0027 49.9074 35.8446 50.0897 36.2926V37.1569V37.1542Z" fill="#A72752"/>
<path d="M42.2465 27.8314C42.578 28.4665 42.7189 28.9935 43.3322 29.3782C43.7272 29.6259 44.1251 29.8631 44.5422 30.0765C45.255 30.4375 45.8932 30.8986 46.5894 31.2833C47.1529 31.5969 48.0536 32.2689 48.5702 31.6443C49.0813 31.0277 49.0233 29.9342 48.9045 29.2201C48.7415 28.2425 48.3436 27.3782 48.0342 26.4454C47.874 25.9606 47.6806 25.7814 47.4016 25.3729C47.1806 25.0462 47.2331 24.8591 46.8435 24.6747C46.2606 24.398 45.8959 24.6325 45.4567 25.0146C44.5008 25.8472 43.9041 26.9513 43.0117 27.8314H42.2465Z" fill="#A72752"/>
<path d="M42.6277 44.2319C42.2575 45.4309 41.7741 46.5508 41.5752 47.784C41.3956 48.8933 41.1608 50.0685 40.7878 51.1384C40.6469 51.5389 40.3707 52.3742 39.8015 51.8446C39.2711 51.3518 39.1744 50.4006 39.1772 49.7708C39.1882 47.531 39.959 45.3149 40.9177 43.2649C41.0365 43.0145 41.216 42.311 41.6719 42.3136C42.5062 42.3189 42.2493 43.8683 42.6277 44.2293V44.2319Z" fill="#A72752"/>
<path d="M36.8898 62.3558C36.9865 63.0251 37.1771 63.56 37.2821 64.174C37.3649 64.651 37.2738 65.1911 37.2738 65.6786C37.2738 66.7116 37.2683 67.7445 37.2738 68.7774C37.2765 69.784 37.1964 70.7168 36.713 71.6444C36.2986 72.4375 35.4256 72.9777 34.6852 73.4994C34.0498 73.9448 33.9669 73.6655 34.0359 73.0409C34.1686 71.8525 34.5415 70.6878 34.7902 69.5205C35.0333 68.3901 35.2819 67.2728 35.5554 66.1477C35.8096 65.1095 35.9477 63.9922 36.8898 62.3558Z" fill="#A72752"/>
<path d="M31.9141 79.7919C31.5716 80.7327 31.2373 81.6628 31.1572 82.6457C31.113 83.1938 31.3229 83.9132 31.4721 84.4533C31.9224 86.0792 32.4777 87.6944 33.0606 89.286C33.5745 90.6905 34.1906 92.0265 34.9033 93.3335C35.0083 93.5284 35.4752 94.0317 34.989 94.1398C34.7403 94.1951 34.2956 93.7998 34.1132 93.6813C32.6131 92.7089 30.9997 91.6365 29.8477 90.3163C28.8421 89.1622 27.6928 88.232 27.6956 86.6694C27.7011 84.9487 28.5133 83.1253 29.6156 81.7234C29.8836 81.3835 30.1681 80.9698 30.5715 80.7722C31.2511 80.4375 31.0964 80.9803 31.9114 79.7893L31.9141 79.7919Z" fill="#A72752"/>
<path d="M40.1414 104.132C40.3265 104.743 40.6056 105.412 40.7078 106.048C40.8128 106.693 40.6304 107.481 40.484 108.116C40.3624 108.646 40.0751 109.133 39.9757 109.668C39.9038 110.069 39.948 110.482 39.9453 110.883C39.937 112.005 40.0254 113.199 41.031 113.987C41.9814 114.73 43.103 115.199 44.2578 115.613C45.7441 116.145 47.4652 116.58 49.0842 116.398C50.1892 116.274 51.1147 115.405 51.8883 114.754C52.6839 114.084 53.8884 112.954 53.9354 111.903C53.9685 111.123 53.7696 110.055 53.1674 109.465C52.601 108.909 51.4518 108.498 50.6616 108.353C49.9406 108.219 49.1477 108.256 48.4073 108.271C47.8271 108.285 47.3658 108.485 46.8243 108.667C45.9402 108.967 45.023 109.109 44.15 108.59C43.6058 108.266 43.1665 107.544 42.8102 107.059C42.5643 106.722 41.8653 105.805 40.1359 104.134L40.1414 104.132Z" fill="#A72752"/>
<path d="M60.994 111.729C60.6486 112.466 60.1734 112.959 60.5961 113.66C60.9111 114.184 61.2785 114.688 61.7564 115.104C62.7427 115.966 63.8174 116.719 64.7788 117.605C66.0579 118.78 67.3619 120.14 69.1908 120.517C69.3648 119.866 68.9117 119.383 68.6051 118.827C67.9669 117.668 67.2348 116.638 66.3867 115.597C65.8811 114.972 65.3065 114.495 64.6738 113.974C64.381 113.731 64.1047 113.481 63.8174 113.233C63.4058 112.878 63.0079 112.809 60.9912 111.731L60.994 111.729Z" fill="#A72752"/>
<path d="M87.778 141.075C88.3029 141.652 88.7255 142.158 89.1068 142.809C89.6787 143.784 89.9687 144.854 90.3583 145.897C91.1788 148.092 91.7921 150.343 92.5629 152.551C92.7452 153.07 93.0491 155.204 94.1017 154.891C94.61 154.741 94.9802 153.966 95.146 153.568C95.4802 152.764 95.6377 152.119 95.6294 151.252C95.6184 149.916 94.7647 148.656 94.0906 147.502C93.4525 146.414 92.6513 145.563 91.6457 144.748C91.1208 144.324 90.7837 143.76 90.2616 143.333C89.8278 142.978 89.4411 142.53 87.778 141.075Z" fill="#A72752"/>
<path d="M88.3526 145.737C89.0156 148.3 89.6566 150.885 90.2699 153.46C90.4992 154.424 90.6594 155.407 90.6539 156.395C90.6484 157.231 90.7561 158.121 90.2699 158.878C89.4079 160.219 87.9934 158.377 87.5735 157.636C86.8083 156.287 86.3966 155.004 86.2475 153.499C86.1066 152.082 85.7806 150.675 85.5789 149.26C85.3965 147.971 85.2639 146.627 84.9601 145.365C84.7556 144.514 84.6064 143.65 84.5042 142.785C84.3882 141.821 84.1009 140.975 83.75 140.063C83.5318 139.491 83.2886 138.893 83.1339 138.308C83.0234 137.895 82.609 137.191 82.8439 136.772C83.3632 136.92 84.0346 137.794 84.297 138.174C84.8882 139.025 85.3275 140.003 85.7695 140.922C86.1673 141.747 86.3524 142.577 86.8635 143.357C87.4851 144.306 88.0625 145.304 88.3498 145.734L88.3526 145.737Z" fill="#A72752"/>
<path d="M94.8558 160.063C94.9746 159.918 94.0049 160.959 93.9276 161.152C93.8751 161.281 93.9386 161.412 93.9055 161.536C93.8337 161.802 93.6292 162.182 93.48 162.445C93.1596 163.004 92.4717 163.594 91.991 164.04C91.2008 164.767 90.4107 165.468 90.0488 166.466C89.9245 166.809 89.9217 167.146 89.8582 167.499C89.8112 167.766 89.6593 168.053 89.7228 168.327C89.814 168.73 90.2118 168.983 90.6428 169.038C91.1677 169.107 92.1263 168.719 92.6015 168.503C93.5187 168.087 94.2784 167.394 95.0603 166.809C95.5355 166.453 96.0438 166.174 96.577 165.897C97.0301 165.66 97.345 165.31 97.7732 165.065C98.2705 164.78 98.8479 164.564 99.3617 164.29C100.304 163.789 101.122 163.125 102.022 162.572C102.959 161.997 103.73 161.431 104.572 160.748C105.429 160.058 106.21 159.27 107.111 158.635C107.63 158.269 108.144 157.858 108.647 157.47C108.874 157.296 109.291 157.075 109.379 156.827C109.117 156.791 108.907 156.654 108.655 156.603C108.28 156.53 107.741 156.672 107.362 156.735C105.63 157.017 104.036 157.723 102.321 158.071C101.141 158.311 100.008 158.693 98.8949 159.123C97.5273 159.647 96.1709 159.992 94.8586 160.071L94.8558 160.063Z" fill="#A72752"/>
<path d="M114.178 155.057C113.904 155.157 110.617 156.229 110.76 156.743C110.829 156.996 111.324 156.975 111.517 156.964C112.313 156.914 113.214 156.822 113.993 156.659C114.769 156.495 115.576 156.414 116.344 156.227C116.742 156.129 117.385 155.982 117.637 155.681C118.465 154.696 115.175 155.215 114.943 155.228L114.178 155.054V155.057Z" fill="#A72752"/>
<path d="M130.823 146.772C129.87 147.391 129.143 147.842 128.538 148.743C127.991 149.557 127.4 150.525 127.107 151.442C126.836 152.295 126.952 153.494 128.254 153.067C129.536 152.646 130.373 151.918 131.063 150.872C131.411 150.345 131.718 149.937 131.784 149.32C131.82 148.983 131.895 148.709 131.84 148.385C131.765 147.937 131.619 147.592 130.82 146.772H130.823Z" fill="#A72752"/>
<path d="M154.927 116.216C154.347 116.485 153.789 116.775 153.154 116.922C152.723 117.02 152.43 117.086 152.018 117.283C151.211 117.671 150.463 118.04 149.744 118.551C149.405 118.791 147.946 119.929 148.987 120.195C150.029 120.461 151.17 119.826 152.004 119.376C153.369 118.638 154.574 117.734 155.502 116.561L154.927 116.216Z" fill="#A72752"/>
<path d="M167.552 111.9C169.613 111.149 171.63 110.495 173.887 110.514C174.791 110.522 176.387 110.361 177.015 111.138C177.487 111.723 175.951 112.008 175.595 112.076C173.431 112.49 171.282 112.59 167.55 111.9H167.552Z" fill="#A72752"/>
<path d="M152.631 32.838C152.344 33.4783 152.015 34.1028 151.819 34.7669C151.634 35.3914 151.43 35.9526 151.112 36.5403C150.383 37.8868 149.711 39.2543 148.996 40.6088C148.717 41.1384 148.206 42.1713 148.684 42.7326C149.184 43.3202 150.203 42.9803 150.772 42.6509C152.695 41.5468 153.339 39.2359 153.64 37.3518C153.8 36.3611 153.794 35.3729 153.778 34.3716C153.767 33.6944 153.433 33.2807 152.626 32.838H152.631Z" fill="#A72752"/>
<path d="M149.38 23.17C149.819 24.9803 149.993 26.7748 150.532 28.5798C150.659 29.004 150.855 30.9118 151.872 30.5693C152.756 30.2715 152.529 28.1002 152.421 27.5284C152.2 26.3426 151.167 24.8169 149.38 23.17Z" fill="#A72752"/>
<path d="M197.972 112.245C197.298 113.02 196.643 113.824 195.856 114.509C195.027 115.228 193.87 115.795 193.364 116.769C193.055 117.37 192.803 118.061 193.171 118.677C193.521 119.262 194.301 119.65 195.011 119.676C196.428 119.729 197.469 118.585 197.975 117.491C198.735 115.845 198.544 113.984 197.969 112.245H197.972Z" fill="#A72752"/>
<path d="M29.8118 116.735C28.389 117.787 26.4164 119.302 24.4632 119.333C24.0737 119.339 23.6372 119.376 23.2587 119.299C22.8388 119.217 22.5321 118.949 22.1205 118.841C21.079 118.567 19.9021 118.408 18.8219 118.445C17.9903 118.474 17.2306 118.656 16.4184 118.812C15.6283 118.964 14.8299 118.993 14.0425 119.154C13.1667 119.333 12.349 119.407 11.476 119.154C10.8931 118.986 11.0643 118.714 11.4539 118.39C12.3683 117.634 13.5756 117.017 14.689 116.556C15.8272 116.084 16.9129 115.813 18.1478 115.673C18.6036 115.621 19.0401 115.531 19.4987 115.515C20.0706 115.499 20.6287 115.56 21.2005 115.484C21.7199 115.412 22.1813 115.365 22.7117 115.357C23.383 115.349 24.0019 115.162 24.6539 115.041C25.7645 114.835 26.969 114.83 28.0437 114.493C29.0603 114.174 30.0908 113.921 31.1074 113.618C31.6351 113.46 32.6656 113.175 33.2154 113.307C34.058 113.51 33.4612 114.232 33.0551 114.611C32.3617 115.26 31.3423 115.623 30.519 116.119C29.751 116.582 29.0161 117.091 29.8062 116.727L29.8118 116.735Z" fill="#A72752"/>
<path d="M36.6991 113.8C35.6963 114.227 34.2376 114.762 33.674 115.742C33.3425 116.316 33.5248 116.701 34.3067 116.722C35.1299 116.746 36.2764 115.929 36.8483 115.397C37.3843 114.901 37.76 114.308 37.271 113.629L36.6964 113.802L36.6991 113.8Z" fill="#A72752"/>
<path d="M8.57522 121.223C7.58066 122.108 6.79607 123.065 5.70205 123.868C4.75998 124.561 3.7599 125.141 2.62997 125.544C2.23768 125.684 1.61055 125.829 1.32876 125.381C0.997242 124.854 1.9918 123.737 2.29569 123.328C2.62997 122.878 3.09963 122.601 3.55823 122.261C3.96986 121.955 4.30967 121.586 4.69921 121.26C5.26831 120.783 5.82637 120.461 6.52256 120.19C6.86789 120.055 7.31545 119.723 7.72156 119.85C8.22436 120.005 8.20226 120.677 8.57522 121.225V121.223Z" fill="#A72752"/>
<path d="M71.5168 186.648C71.4119 185.881 71.1494 185.27 71.503 184.59C71.713 184.187 71.9644 183.771 72.2683 183.418C73.0778 182.472 74.1939 181.763 75.1525 180.951C76.0559 180.184 77.1195 179.597 78.0754 178.891C78.5174 178.564 78.8876 178.174 79.3269 177.842C79.5451 177.676 79.9706 177.289 79.9209 177.001C79.465 176.833 78.918 177.457 78.6252 177.657C77.7024 178.287 76.7963 178.949 75.8073 179.486C74.868 179.997 73.9369 180.53 72.9976 181.044C72.1633 181.499 71.224 181.837 70.4477 182.382C69.5333 183.025 68.5636 183.947 68.6271 185.107C68.652 185.56 69.0387 186.158 69.4504 186.356C70.0582 186.648 70.5251 186.606 71.5196 186.651L71.5168 186.648Z" fill="#A72752"/>
</g>
<path style="mix-blend-mode:multiply" opacity="0.8" d="M7.2519 46.4822C7.17731 46.4954 7.08614 46.5244 7.00879 46.5376C9.05316 44.3373 11.523 42.4374 14.3685 40.9486L33.0579 31.2174C32.4667 31.8999 31.544 32.4611 30.7566 32.9381C29.6654 33.5679 28.5907 34.1265 27.4994 34.7273C25.8336 35.6575 24.8804 37.5152 23.8804 38.9644C22.0929 41.5758 19.1562 43.2701 15.8686 44.1028C14.7028 44.39 13.5673 44.8669 12.3849 45.0593C11.4926 45.2095 10.7632 45.3334 9.90129 45.6074C8.96199 45.921 8.13043 46.2503 7.2519 46.4822Z" fill="url(#paint2_radial_24_1817)"/>
<path style="mix-blend-mode:multiply" opacity="0.8" d="M39.2822 169.383C40.9039 170.559 42.6305 171.829 44.4622 172.854C43.5698 172.909 42.8571 173.181 42.0089 173.455L14.3685 159.051C5.88715 154.638 0.662964 146.48 0.662964 137.636V121.304C2.69352 120.962 4.69092 118.748 5.53906 117.286C6.82646 115.059 7.11378 111.642 6.19105 109.291C5.38711 107.202 3.75162 105.916 2.25426 104.261C1.52768 103.455 1.01106 102.54 0.662964 101.555V62.3584C0.662964 57.9315 1.96418 53.6812 4.34283 49.9895C4.31244 50.4006 4.26824 50.7958 4.17707 51.1226C3.85936 52.3663 3.70742 53.5969 3.32893 54.8274C2.1769 58.5587 1.20721 62.0844 1.87577 65.9921C2.35924 68.78 2.42002 71.5415 2.73772 74.3558C3.05543 77.0488 3.78201 80 3.61625 82.7062C3.54166 84.0606 3.05543 85.1384 2.4504 86.3268C1.91997 87.4072 2.07192 88.5534 2.07192 89.7155C2.07192 93.4045 2.84547 96.9855 2.84547 100.675C2.83165 101.673 2.48079 103.325 3.21014 104.132C3.6052 104.556 4.36217 104.925 4.9368 105.362C8.67744 108.177 10.7218 113.275 7.07234 116.925C5.8761 118.113 4.72407 119.015 3.80135 120.356C3.33169 121.025 2.52776 121.968 2.42278 122.775C2.27083 124.087 3.74057 125.494 4.37598 126.561C4.95061 127.531 5.5584 128.229 6.35957 129.036C6.43416 129.104 6.51152 129.173 6.58611 129.254C7.29887 129.937 7.97849 130.785 8.32658 131.673C8.50892 132.124 8.6139 132.617 8.66086 133.123C8.64705 133.136 8.66086 133.136 8.66086 133.136C8.78242 134.406 8.53931 135.773 8.28238 136.922C7.85693 138.767 8.34316 140.366 8.96476 142.087C10.6306 146.817 13.9016 150.382 17.7638 153.839C18.7943 154.769 19.8248 155.671 20.6563 156.764C21.0818 157.31 21.3221 157.953 21.7614 158.472C22.7753 159.66 23.7312 160.603 25.1236 161.436C27.016 162.556 29.0465 163.744 31.1213 164.538C34.1657 165.7 36.7102 167.518 39.285 169.376L39.2822 169.383Z" fill="url(#paint3_radial_24_1817)"/>
<path style="mix-blend-mode:multiply" opacity="0.8" d="M199.959 65.6285V69.0725C199.702 70.7115 199.307 72.3927 198.201 73.5415C198.201 73.5547 198.188 73.5679 198.171 73.5837C197.458 74.3083 196.431 75.0461 195.701 75.8788C196.353 74.8274 197.337 74.1423 198.232 73.1173C198.262 73.0751 198.293 73.0488 198.306 73.0066C198.306 73.0066 198.306 72.9934 198.32 72.9934C199.533 71.4915 199.334 69.6443 199.472 67.8814C199.517 67.3755 199.577 66.2688 199.956 65.6259L199.959 65.6285Z" fill="url(#paint4_radial_24_1817)"/>
<path style="mix-blend-mode:multiply" opacity="0.8" d="M199.809 86.498C199.87 86.4164 199.914 86.3478 199.961 86.2662V137.639C199.961 146.482 194.737 154.64 186.256 159.054L138.382 183.995L121.493 192.796L114.012 196.69C105.545 201.104 95.0963 201.104 86.6149 196.69L60.505 183.094C60.505 183.08 60.4912 183.08 60.4912 183.08C59.748 182.274 59.2342 181.481 58.6291 180.43C58.538 180.279 58.4468 180.129 58.3253 179.979C58.2203 179.91 58.1291 179.855 58.0214 179.802C58.1125 179.845 58.2037 179.884 58.2949 179.926C59.4607 180.39 60.6265 180.856 61.762 181.389C62.9886 181.963 64.3202 182.264 65.4281 183.015C65.8369 183.289 66.232 183.494 66.5801 183.779C66.7458 183.929 66.9144 184.092 67.0497 184.311C67.384 184.843 67.6409 185.431 67.989 185.966C68.5333 186.827 69.351 187.318 70.4589 187.347C72.1109 187.402 73.3679 187.578 74.9565 188.029C78.9844 189.204 83.2251 189.668 87.3608 190.585C93.6763 191.979 100.34 191.829 106.807 191.829C109.426 191.829 112.123 192.034 114.667 191.568C115.485 191.418 116.333 191.623 117.137 191.431C118.151 191.199 119.455 190.474 120.394 190.037C123.651 188.506 126.875 186.962 130.072 185.349C132.92 183.929 135.434 182.082 138.114 180.456C142.459 177.818 146.973 175.207 151.88 173.555C153.076 173.144 154.046 172.393 155.198 171.887C156.107 171.505 156.969 171.257 157.833 170.78C159.121 170.069 160.287 169.318 161.635 168.704C163.875 167.652 165.845 166.271 167.845 164.904C168.497 164.453 169.133 163.974 169.738 163.455L169.752 163.441C172.826 160.914 175.523 157.879 179.216 156.171C182.065 154.859 184.971 153.52 187.833 152.809C188.546 152.632 188.485 152.698 189.076 152.372C189.364 152.208 189.681 152.098 189.969 151.934C191.56 151.059 192.118 149.721 192.983 148.327C193.831 146.959 194.875 145.976 194.922 144.364C194.936 143.831 194.908 143.312 194.892 142.777C194.901 142.769 194.901 142.76 194.892 142.751V142.738C194.892 142.408 194.892 142.082 194.906 141.768C194.966 140.812 195.436 140.018 195.301 138.993C195.226 138.298 194.848 137.71 194.574 137.08C193.696 134.988 193.347 132.229 194.121 130.166C194.273 129.742 194.226 129.386 194.53 128.991C194.817 128.622 195.03 128.567 195.483 128.308C196.406 127.816 197.375 127.391 197.983 126.588C198.831 125.426 198.619 124.688 198.726 123.349C198.771 122.775 199.061 122.282 199.152 121.723C199.334 120.522 199.348 119.141 199.517 117.953C199.047 116.983 198.729 112.785 198.743 108.672C198.757 105.228 198.577 101.715 198.091 98.2846C198.03 97.8893 197.986 97.4651 197.925 97.054V96.9987C197.82 96.1107 197.712 95.2227 197.516 94.3874C197.334 93.4994 196.942 92.6667 196.743 91.7629C195.939 88.1002 195.652 84.4111 195.198 80.7062C195.093 79.9552 194.986 79.2701 194.986 78.5745C195.243 79.3386 195.939 80.1318 196.259 80.9117C196.577 81.6496 196.804 82.3742 197.212 83.0857C197.395 83.3861 197.652 84.1107 197.986 84.809C198.456 85.7392 199.061 86.6403 199.818 86.5033L199.809 86.498Z" fill="url(#paint5_radial_24_1817)"/>
<g style="mix-blend-mode:multiply">
<path d="M166.597 167.315C167.666 165.997 169.075 164.477 170.022 163.041C170.611 162.148 170.453 161.233 170.263 160.248C169.823 157.958 168.942 155.199 167.696 153.167C166.119 150.595 164.179 148.195 162.908 145.478C160.19 139.663 162.254 133.207 167.495 129.157C169.517 127.594 171.677 126.387 174.393 126.227C177.415 126.047 181.067 127.028 183.642 128.411C190.01 131.831 194.45 138.066 195.243 144.74C195.428 146.306 195.676 148.445 194.773 149.866C194.234 150.711 193.414 151.144 192.585 151.765C191.322 152.714 189.949 153.478 188.789 154.532C187.67 155.549 186.689 156.73 185.474 157.65C181.385 160.746 177.238 162.978 171.951 163.863L166.594 167.315H166.597Z" fill="#EABEB0"/>
<path d="M137.136 136.588C137.031 139.291 136.216 141.671 135.779 144.34C135.456 146.316 135.461 148.54 135.638 150.53C136.1 155.655 137.934 161.099 135.63 166.066C134.66 168.158 132.569 168.29 130.304 168.374C127.151 168.493 123.861 167.953 120.924 166.899C117.601 165.71 114.156 162.883 115.114 159.32C115.78 156.854 117.993 155.291 120.684 154.875C122.985 154.519 125.193 154.35 127.207 153.146C129.16 151.979 130.757 150.416 131.864 148.53C132.983 146.624 133.715 144.914 134.16 142.798C134.671 140.382 135.732 138.422 137.136 136.585V136.588Z" fill="#EABEB0"/>
<path d="M111.882 82.3821C111.89 84.9381 111.932 88.5033 109.777 90.5112C109.155 91.0909 108.503 91.8182 107.708 92.195C106.056 92.9776 103.572 93.0356 101.743 93.2701C99.8287 93.5151 97.8699 93.552 95.9416 93.7286C93.4635 93.9552 91.0655 94.3057 88.6095 94.7246C87.3773 94.9354 85.7833 94.996 84.6893 95.5731C83.7472 96.0685 83.4185 97.0856 83.0372 97.9473C82.1228 99.9974 82.4267 102.308 82.4294 104.474C82.4322 108.35 80.0895 112.063 81.247 115.947C82.2885 119.444 83.7362 122.224 82.7471 125.895C82.3244 127.462 81.2967 128.751 80.9707 130.379C80.7359 131.552 80.7746 132.822 81.352 133.9C81.8327 134.796 82.5123 135.536 83.1781 136.321C84.1091 137.418 84.8689 138.648 85.8551 139.697C88.3609 142.361 89.8306 145.536 91.6015 148.601C92.3253 149.855 93.3475 152.472 95.4277 151.726C95.972 151.531 96.9997 150.466 97.3588 150.053C97.8893 149.441 98.2567 148.622 98.5827 147.902C99.2236 146.49 99.5137 145.152 100.403 143.837C100.95 143.028 101.627 142.711 102.326 142.042C102.848 141.541 103.147 140.938 103.741 140.461C104.348 139.971 104.956 139.61 105.478 139.022C107.332 136.933 108.921 134.079 108.376 131.341C107.959 129.254 106.796 127.8 105.459 126.142C103.677 123.937 102.155 121.449 100.497 119.152C99.6325 117.95 98.6601 116.827 97.7815 115.639C96.8091 114.324 96.4941 113.009 96.1598 111.47C95.6046 108.917 95.4858 106.35 97.3063 104.179C98.5799 102.661 101.461 101.283 103.572 101.323C105.285 101.354 106.893 102.066 108.537 102.345C111.705 102.883 111.573 99.3676 111.962 97.5837C112.283 96.1107 112.076 94.6667 112.346 93.1963C112.777 90.8564 112.413 88.5007 111.879 82.3847L111.882 82.3821Z" fill="#EABEB0"/>
<path d="M61.7592 116.906C58.4413 116.076 55.4963 115.494 53.2557 118.266C51.6313 120.274 50.3467 122.487 48.6808 124.485C46.0645 127.623 43.0394 130.026 39.285 132.034C37.108 133.199 34.9697 134.25 32.4087 134.477C30.5356 134.643 28.6239 134.519 26.7453 134.506C22.2642 134.474 17.7583 135.51 13.2939 135.152C11.5009 135.007 10.1279 134.688 8.92058 133.428C8.1719 132.648 7.55307 131.773 7.00606 130.872C5.61368 128.569 6.44524 125.758 7.61661 123.452C8.35424 122 9.97316 120.788 11.6197 120.203C12.6143 119.85 13.7331 119.821 14.7719 119.605C16.0869 119.328 17.3633 118.92 18.6783 118.632C21.3111 118.058 23.9163 117.273 26.5657 116.767C29.1902 116.266 31.8203 115.834 34.4089 115.188C35.5609 114.901 36.6466 114.432 37.8235 114.216C39.0419 113.992 40.2768 113.884 41.4923 113.631C43.1886 113.278 45.1446 112.772 46.8795 112.743C48.5233 112.714 50.1616 113.518 51.7722 113.763C52.5761 113.884 53.311 114.034 54.0376 114.403C54.8222 114.801 55.0349 115.257 55.6344 115.876L61.7565 116.912L61.7592 116.906Z" fill="#EABEB0"/>
<path d="M34.594 73.4045C35.2708 71.942 35.572 71.2227 35.8234 69.9078C35.9836 69.0672 36.0665 68.2451 36.1991 67.3966C36.5748 65.0224 37.1025 62.6193 37.5694 60.2662C38.1633 57.2596 37.2572 54.2266 37.271 51.2358C37.2765 49.7681 37.4285 47.3834 35.9394 46.3505C35.1907 45.8314 33.6906 45.7997 32.754 45.755C29.9748 45.6232 27.2066 46.1423 24.4219 46.1318C22.3968 46.1239 20.0071 46.5613 19.1673 44.5007C18.3661 42.5297 19.9463 40.1713 21.3885 38.7009C22.5322 37.5336 23.5461 36.8327 25.1125 36.1897C26.8254 35.4862 28.6156 35.1858 30.1958 34.2187C33.4475 32.2293 36.7406 30.2582 40.8182 30.2477C43.9373 30.2398 46.7828 32.1423 47.5232 34.9776C48.084 37.1304 46.548 39.6337 45.3904 41.4229C44.4373 42.8959 43.1057 44.1924 42.2244 45.697C40.0696 49.3808 39.5668 53.7022 39.5668 57.7892C39.5668 59.8235 39.8541 62.0422 39.5474 64.0501C39.4618 64.6061 39.2076 65.0988 39.0474 65.639C38.7711 66.5771 38.7297 67.5468 38.3622 68.4717C37.5252 70.5771 36.5969 72.6799 34.5912 73.4045H34.594Z" fill="#EABEB0"/>
<path d="M67.116 40.606C66.7596 43.2016 66.1988 45.3807 67.8674 47.6311C69.1078 49.307 71.2655 50.0606 73.4038 50.3662C76.2742 50.7747 79.3684 50.7141 82.1587 51.386C84.1643 51.8682 85.88 52.5823 87.7254 51.1699C89.2394 50.0105 90.0378 47.9077 90.3831 46.166C90.9384 43.3807 89.0183 40.2898 87.0458 38.2424C84.3577 35.4572 80.385 34.4532 76.451 34.0948C74.9702 33.9604 73.7077 34.0553 72.2932 34.5481C69.3123 35.5889 68.1768 38.0948 67.116 40.606Z" fill="#EABEB0"/>
<path d="M94.2812 35.7708C93.1706 38.2135 91.4716 40.8143 94.5603 42.7062C96.0328 43.6074 97.729 43.6891 99.0358 42.4796C100.133 41.4677 101.025 40.0738 100.812 38.6245C100.536 36.751 98.8424 34.8327 96.5798 35.0804L94.284 35.7708H94.2812Z" fill="#EABEB0"/>
<path d="M155.118 33.3544C154.853 34.411 154.737 35.4756 154.767 36.548C155.734 36.8168 156.786 38.2819 157.397 38.9486C158.8 40.4743 160.367 41.7206 161.629 43.3623C163.154 45.3412 164.221 47.0566 164.61 49.4809C165.014 51.9868 165.207 54.2819 164.312 56.7114C163.693 58.3952 162.489 60.0368 161.121 61.3148C159.875 62.4795 158.107 63.5046 156.662 64.4532C155.623 65.133 154.596 65.7285 153.424 66.2108C150.244 67.5204 147.142 67.4097 144.006 66.1396C140.459 64.7062 138.567 62.187 136.398 59.4282C134.84 57.4466 131.331 55.2411 133.13 52.6166C134.914 50.0131 137.608 48.9591 140.175 47.1278C141.636 46.0843 142.769 44.7325 144.258 43.7022C145.7 42.7035 146.935 41.689 148.277 40.6007C149.305 39.7681 150.203 38.9776 151.115 38.0448C151.543 37.6073 152.543 36.0448 155.118 33.3544Z" fill="#EABEB0"/>
<path d="M198.4 58.332C198.4 58.6456 198.387 58.975 198.37 59.3017C197.917 58.2767 197.478 56.8827 197.204 54.7642C197.674 55.913 198.37 57.1014 198.4 58.332Z" fill="#EABEB0"/>
<path d="M199.959 64.1661C199.867 64.9724 199.671 65.7919 199.55 66.5033C199.293 68.0079 198.989 69.4836 198.732 70.9724C198.61 71.6549 198.458 72.3242 198.323 72.9961C198.309 72.9961 198.309 73.0093 198.309 73.0093C198.279 73.1858 198.235 73.365 198.204 73.5415C198.204 73.5547 198.19 73.5679 198.174 73.5837C197.461 74.3083 196.433 75.0462 195.704 75.8788C195.69 75.892 195.69 75.9052 195.674 75.921C195.508 76.1819 195.37 76.4823 195.248 76.8222C195.036 77.423 194.961 77.9974 194.975 78.5718C195.232 79.336 195.928 80.1292 196.248 80.9091C196.566 81.6469 196.793 82.3716 197.201 83.083C197.384 83.3834 197.641 84.1081 197.975 84.8064V86.7326C197.975 89.6575 197.961 92.5824 197.975 95.5073C197.975 96 197.961 96.506 197.914 96.9961V97.0514C197.809 98.7326 197.55 100.401 197.58 102.082C197.61 105.033 197.823 108.34 196.218 111.059C195.356 112.522 193.809 113.971 192.021 113.123C190.129 112.235 188.855 110.841 187.811 109.186C186.433 106.986 184.993 104.854 183.435 102.748C181.465 100.098 179.786 97.4045 178.542 94.3979C177.255 91.2965 176.028 88.3584 176.921 84.9961C177.843 81.5257 180.327 78.9566 183.419 76.8222C186.206 74.896 189.582 74.0343 192.43 72.2161C194.279 71.0541 195.536 69.8103 196.276 67.8709C196.837 66.3821 197.503 64.9197 197.76 63.3597C197.986 62.0738 198.273 60.6404 198.365 59.3018C198.956 60.6404 199.561 61.3097 199.818 62.1028C199.878 62.2952 199.923 62.5139 199.953 62.7168C200.014 63.1805 199.997 63.6733 199.953 64.1661H199.959Z" fill="#EABEB0"/>
<path d="M64.055 116.561C63.2925 115.958 62.4444 115.686 61.5106 115.752C61.3835 116.685 60.8641 117.505 60.6708 118.422C60.342 119.968 60.7122 121.871 61.1515 123.373C61.7095 125.283 62.751 127.086 63.5633 128.912C64.4086 130.817 65.5717 132.44 67.0166 134.026C68.7294 135.908 71.6606 137.852 74.473 137.997C76.2411 138.09 79.0176 137.618 79.5701 135.91C80.9597 131.636 77.3821 127.673 74.5973 124.659C73.4287 123.391 72.3817 122.034 71.1164 120.835C69.2157 119.033 66.2624 118.503 64.0578 116.561H64.055Z" fill="#EABEB0"/>
<path d="M32.2982 84.4532C32.8507 82.4295 33.3397 78.751 36.5113 78.9249C40.1359 79.1225 42.7024 82.6561 43.009 85.6416C43.1555 87.0751 43.0892 88.6219 43.0229 90.0632C42.9814 91.0119 42.7521 91.8524 41.9261 92.4928C40.7658 93.3913 39.4784 93.6364 38.0446 93.1621C35.2515 92.2345 34.1575 89.5863 33.4447 87.2148L32.2982 84.4532Z" fill="#EABEB0"/>
<path d="M90.7781 168.796C89.9162 170.079 88.7642 171.296 87.7945 172.514C86.7806 173.784 85.3716 174.646 84.0235 175.631C82.0399 177.067 79.6308 177.42 77.4649 178.543C75.951 179.307 74.4508 180.156 73.0723 181.099C71.1329 182.424 69.3758 184.419 66.7264 183.818C66.6822 183.805 66.6215 183.792 66.5745 183.776C64.2732 183.215 62.1073 182.137 60.0463 180.946C59.4717 180.619 58.8943 180.29 58.3197 179.976C58.2147 179.908 58.1235 179.852 58.0158 179.8C58.1069 179.842 58.1981 179.881 58.2893 179.924C56.6538 177.341 54.0182 175.278 51.1561 173.855C50.4129 173.486 49.6256 173.254 48.8382 173.104C48.7332 172.777 48.7028 172.448 48.7774 172.174C49.0509 171.217 50.4295 170.63 51.4268 170.437C52.3496 170.261 53.2281 170.643 54.137 170.738C55.1509 170.833 56.1372 170.833 57.1511 171.012C59.5297 171.462 62.0741 171.831 64.497 171.818C68.1161 171.776 71.586 171.776 75.1139 170.957C77.7495 170.343 79.5977 169.468 81.2635 167.499C83.7941 164.535 83.9295 161.376 84.4296 157.824C84.9296 154.353 84.4599 151.086 84.3384 147.642C86.7309 145.715 87.0955 146.329 87.7917 147.123C88.9272 148.408 89.7919 149.159 90.2919 150.759C90.8058 152.372 91.0047 154.108 91.3666 155.747C91.7617 157.523 92.002 159.233 91.9882 161.036C91.9744 163.631 92.3529 166.461 90.7754 168.798L90.7781 168.796Z" fill="#EABEB0"/>
<path d="M114.562 102.061C115.277 102.983 115.965 103.921 116.623 104.875C117.084 105.007 117.512 105.202 117.91 105.462C119.847 106.485 121.819 107.412 123.797 108.369C128.571 110.675 134.506 111.241 139.826 111.66C145.186 112.082 150.604 112.24 155.947 112.833C157.742 113.033 159.303 113.404 160.93 114.084C161.309 114.242 161.563 114.171 161.853 114.49C161.535 114.833 161.234 114.685 160.87 114.893C160.27 115.236 159.872 115.644 159.245 115.955C157.59 116.775 155.784 117.386 153.993 117.934C150.72 118.933 147.291 120.369 144.412 122.084C142.943 122.959 141.291 123.539 139.887 124.501C138.918 125.165 137.998 125.823 136.962 126.406C135.412 127.275 133.635 128.385 131.823 127.655C129.052 126.54 127.425 124.066 125.682 121.966C123.308 119.107 120.297 116.582 118.366 113.444C117.449 111.953 116.181 110.435 115.661 108.777C115.09 106.956 115.313 104.962 114.567 102.061H114.562Z" fill="#EABEB0"/>
<path d="M123.745 50.6166C122.643 50.3083 121.446 50.253 120.789 49.444C120.247 48.78 120.247 47.7365 120.267 46.975C120.311 45.0804 121.057 43.4124 121.471 41.581C121.955 39.4466 122.062 37.2833 122.598 35.1515C123.416 31.8946 124.441 28.0316 123.389 24.7352C122.347 21.4756 121.217 18.7721 118.032 16.7694C114.758 14.7115 110.603 13.3808 106.581 13.6285C103.528 13.8155 101.177 16.1449 101.122 18.917C101.052 22.3557 103.752 25.9447 106.111 28.4348C108.766 31.2411 111.998 33.4993 114.904 36.0632C116.079 37.0988 117.355 38.1159 117.645 39.6443C117.869 40.8142 117.49 41.9657 116.965 43.0119C116.667 43.6047 116.385 44.2451 116.037 44.809C115.36 45.9025 114.308 46.6324 113.415 47.581C110.921 50.2345 109.103 52.8854 108.045 56.2451C107.603 57.6522 107.28 58.8722 107.288 60.3346C107.293 61.0224 107.136 61.4387 107.669 61.942C108.686 62.9012 109.752 61.9842 110.644 61.3281C112.346 60.079 113.589 58.5323 115.034 57.0751C116.993 55.0988 119.966 54.888 123.748 50.6192L123.745 50.6166Z" fill="#EABEB0"/>
</g>
<g style="mix-blend-mode:soft-light" opacity="0.2">
<path d="M153.206 67.5362C150.115 68.3083 148.565 68.4427 145.54 67.365C143.479 66.6324 140.489 65.776 139.224 64.058C138.058 62.4743 137.147 60.6957 135.914 59.1753C135.088 58.1555 134.497 57.1858 133.243 56.5507C131.978 55.9104 130.453 55.3571 129.024 55.1621C125.894 54.7326 123.17 55.5916 120.297 56.4743C119.021 56.8669 118.736 57.3518 117.913 58.2293C117.032 59.17 116.208 59.6944 115.512 60.7932C114.606 62.2214 113.951 63.9315 113.222 65.4598C112.283 67.4282 111.725 69.1463 111.866 71.3096C112.026 73.8024 113.062 76.1555 113.973 78.477C115.148 81.4677 116.883 84.2451 118.582 87.0198C119.816 89.0356 121.076 91.1146 121.101 93.502C121.129 95.8366 119.781 97.9947 120.54 100.337C121.206 102.385 124.176 103.916 126.218 104.64C127.527 105.107 128.919 105.191 130.276 105.515C131.541 105.818 132.82 106.163 134.108 106.387C136.229 106.756 138.346 107.123 140.476 107.502C142.932 107.939 145.241 108.414 147.766 108.295C155.656 107.921 158.767 99.4229 159.441 93.4572C160.055 88.029 159.731 82.3926 157.9 77.1752C157.206 75.1963 156.411 73.2517 155.596 71.3096C154.938 69.7391 154.245 68.3241 153.206 67.5415V67.5362Z" fill="#F7BCB1"/>
<path d="M163.154 64.4269C161.823 64.6271 160.519 64.5376 159.751 65.4572C159.513 65.7418 159.317 66.2134 159.137 66.5428C158.458 67.7787 157.969 69.5916 158.229 70.9723C158.392 71.834 158.814 72.6245 159.148 73.4387C159.364 73.9631 159.455 74.7088 159.789 75.1752C160.486 76.1449 161.928 76.5481 163.141 76.5455C166.099 76.5402 168.984 75.0408 169.608 72.3162C170.337 69.1436 167.76 64.2635 163.536 64.7747L163.154 64.4295V64.4269Z" fill="#F7BCB1"/>
<path d="M174.633 82.7273C173.263 84.3478 171.871 85.7523 170.832 87.5626C169.729 89.4835 168.282 91.2174 167.249 93.1621C166.16 95.22 165.085 97.2701 163.978 99.3149C163.339 100.495 162.878 102.119 162.784 103.433C162.61 105.86 165.342 106.335 167.37 106.735C168.652 106.988 169.934 106.735 171.21 106.972C172.459 107.202 173.683 107.281 174.932 107.502C176.777 107.826 178.592 108.211 180.402 108.545C181.728 108.791 182.076 107.921 182.305 106.846C182.83 104.382 180.885 101.368 179.609 99.307C177.791 96.3742 176.473 93.0066 176.548 89.6364L174.633 82.7326V82.7273Z" fill="#F7BCB1"/>
<path d="M174.633 40.2609C173.136 40.2952 172.009 39.9948 171.163 40.9724C170.509 41.7313 169.959 42.8986 169.63 43.7866C168.848 45.892 168.345 48.4507 168.517 50.6746C168.674 52.7194 169.315 55.0752 170.031 57.0172C170.818 59.1569 171.221 61.3281 171.945 63.481C173.083 66.8696 174.039 70.174 177.609 72.0528C179.449 73.0198 182.139 73.423 184.195 72.9065C187.17 72.1582 189.203 69.9553 190.518 67.5363C191.872 65.0488 192.853 62.1292 193.016 59.3466C193.231 55.6918 191.911 52.643 189.925 49.5521C189.449 48.809 189.162 48.5086 188.413 47.9553C187.665 47.4019 187.176 46.7194 186.455 46.1424C183.954 44.145 180.797 43.2491 174.633 40.2662V40.2609Z" fill="#F7BCB1"/>
<path d="M142.874 41.2965C138.992 44.6061 134.972 47.6733 129.505 48.5112C128.093 48.7273 126.894 49.2201 125.66 48.2425C125.088 47.7892 124.789 47.0172 124.51 46.4137C123.963 45.2227 123.27 43.9684 123.038 42.6851C122.59 40.2108 122.878 37.2859 123.25 34.8222C123.612 32.4216 124.704 30.2662 125.198 27.8999C125.635 25.8182 124.784 23.9315 124.231 21.9447C123.69 20.0053 122.494 18.0237 121.452 16.2583C120.927 15.3676 119.399 14.145 121.043 13.3913C122.513 12.7168 124.914 12.8959 126.394 13.307C128.809 13.9789 130.743 14.7457 132.815 15.9921C134.052 16.7352 135.122 17.5916 136.467 18.1766C137.47 18.6114 138.417 19.0962 139.357 19.6338C141.222 20.7036 143.103 21.8498 144.91 22.9987C146.023 23.7075 146.717 24.6746 147.189 25.8314C147.797 27.3281 147.556 29.3228 147.391 30.8907C147.203 32.6799 147.029 34.5086 146.286 36.1897C145.197 38.6509 143.562 40.2872 142.876 41.2991L142.874 41.2965Z" fill="#F7BCB1"/>
<path d="M114.178 41.6417C114.029 42.8775 114.142 44.39 113.346 45.4625C112.805 46.1924 112.297 46.7063 111.871 47.5099C111.153 48.8617 110.213 50.037 109.382 51.315C108.15 53.2096 105.826 54.3057 104.89 56.4796C104.387 57.647 104.279 58.6536 104.235 59.8762C104.199 60.8433 103.611 60.7906 102.721 60.4032C99.2871 58.9092 97.4389 55.9052 94.8006 53.5916C93.8336 52.7431 93.2618 52.1634 93.1126 50.8775C92.98 49.7366 93.3806 48.5824 93.9718 47.589C94.6818 46.4006 96.1847 45.5679 97.2538 44.6562C98.2898 43.7734 99.1656 43.4151 100.428 42.8485C101.608 42.3189 102.923 42.0554 104.127 41.5547C105.208 41.1068 106.244 40.4875 107.373 40.1582C108.44 39.8472 110.001 39.7366 111.114 39.8841C113.565 40.2082 114.131 42.4691 114.172 41.6417H114.178Z" fill="#F7BCB1"/>
<path d="M103.848 74.0949C104.94 75.0593 106.006 75.7418 106.382 77.0725C106.705 78.224 107.266 79.2728 107.694 80.3874C108.526 82.5508 108.526 84.9987 108.448 87.2543C108.393 88.8854 106.777 90.1239 105.329 91.0382C104.174 91.7682 102.859 91.9895 101.553 92.39C99.8812 92.9039 98.3424 93.5178 96.5715 93.7102C95.2233 93.8577 93.9276 93.7919 92.596 93.5969C91.2644 93.4019 90.3251 93.4915 88.9825 93.6891C86.869 94 84.8109 94.4375 82.7278 94.8933C79.5673 95.5837 76.2328 96.0633 73.2408 94.535C68.8565 92.2952 66.243 88.0422 62.8919 84.78C61.2813 83.2122 59.9911 81.4757 58.4882 79.834C57.0185 78.2293 55.977 76.527 55.2974 74.5191C54.2116 71.3018 53.9685 67.3755 54.9603 64.1002C56.1427 60.1924 60.621 58.9724 64.4666 57.9421C65.8756 57.5653 67.4835 57.3018 68.9339 57.1568C70.4064 57.0093 71.796 57.3281 73.2215 57.5205C74.194 57.6522 75.1277 57.8841 76.0947 58.0501C77.1776 58.2372 78.1943 58.1054 79.2745 58.1898C81.0978 58.3347 82.9461 58.7484 84.7169 59.1568C86.6397 59.5995 88.6178 59.9236 90.56 60.2688C92.3584 60.5903 93.3447 61.2886 94.6459 62.3426C96.1433 63.5574 97.3754 64.9408 98.7153 66.3083C99.6104 67.2227 100.506 68.1292 101.392 69.0514C102.785 70.4981 103.677 72.0317 103.846 74.0896L103.848 74.0949Z" fill="#F7BCB1"/>
<path d="M109.586 107.586C108.141 107.737 106.788 107.655 105.743 108.598C104.929 109.333 103.848 109.797 103.274 110.719C102.155 112.522 102.279 114.345 103.047 116.216C103.917 118.337 105.829 120.119 107.097 122.076C108.266 123.881 109.415 125.713 110.376 127.618C111.012 128.877 110.901 130.738 110.702 132.095C110.401 134.174 109.487 135.982 108.36 137.794C106.981 140.011 105.224 142.211 103.257 144.024C101.677 145.478 100.459 147.036 100.097 149.086C99.801 150.764 99.6491 153.136 101.144 154.366C102.531 155.507 104.033 155.57 105.793 155.581C109.741 155.61 113.91 154.166 117.54 152.814C119.825 151.963 122.198 151.312 123.361 149.233C125.09 146.14 124.565 142.311 124.079 138.975C123.739 136.63 123.336 134.206 122.756 131.897C122.422 130.567 121.822 129.296 121.529 127.955C121.195 126.422 120.83 124.986 120.275 123.502C119.618 121.744 118.894 120.053 118.018 118.364C116.747 115.91 114.266 113.7 109.581 107.586H109.586Z" fill="#F7BCB1"/>
<path d="M157.798 118.287C155.598 118.54 155.165 118.509 153.557 119.378C152.198 120.113 151.098 120.74 149.907 121.726C147.186 123.976 144.799 126.343 142.849 129.183C142.042 130.358 141.263 131.565 140.553 132.793C139.929 133.871 139.829 135.057 139.572 136.232C139.271 137.615 139.122 138.906 138.956 140.298C138.752 142.011 138.813 143.7 138.633 145.404C138.376 147.876 138.163 150.308 138.263 152.806C138.379 155.771 138.92 158.574 138.475 161.565C138.166 163.642 138.205 165.125 139.873 166.727C141.865 168.638 145.617 167.989 148.137 167.592C151.04 167.133 153.96 166.103 156.3 164.469C157.949 163.318 160.085 161.41 160.897 159.652C161.817 157.66 162.002 155.402 162.013 153.283C162.03 150.092 161.646 146.746 161.146 143.584C160.823 141.531 160.66 139.336 160.883 137.254C161.146 134.801 162.513 133.296 164.298 131.594C165.025 130.901 165.605 130.111 166.569 129.66C167.613 129.173 168.787 128.846 169.89 128.477C173.042 127.418 176.252 126.453 179.244 125.072C181.123 124.206 184.04 122.751 183.86 120.443C183.697 118.356 180.783 117.231 178.888 116.754C177.622 116.437 176.277 116.569 174.967 116.567C173.296 116.567 171.614 116.498 169.948 116.548C165.699 116.677 160.848 117.273 157.798 118.292V118.287Z" fill="#F7BCB1"/>
<path d="M188.405 119.668C186.982 121.555 184.888 123.824 184.637 126.235C184.418 128.348 186.385 129.028 188.408 129.015C190.394 129.001 191.811 128.279 192.82 126.762C194.51 124.219 192.59 121.9 190.698 120.013L188.402 119.668H188.405Z" fill="#F7BCB1"/>
<path d="M134.84 168.005C131.464 169.246 128.03 170.756 124.347 171.057C122.449 171.212 120.333 171.325 118.455 171.083C116.565 170.838 115.043 170.153 113.352 169.376C111.562 168.553 110.075 167.391 108.081 167.036C105.257 166.53 102.415 168.113 100.146 169.386C97.276 170.996 94.7426 172.756 92.3529 174.914C90.7036 176.406 88.4244 178.229 87.8305 180.358C86.5845 184.814 91.8916 187.436 95.9085 187.963C96.9638 188.1 98.0081 187.971 99.0662 188.108C100.152 188.248 101.141 188.401 102.24 188.377C104.202 188.337 106.034 188.854 108.025 188.696C113.808 188.235 119.2 186.577 124.527 184.58C125.621 184.169 126.607 183.615 127.682 183.181C128.663 182.785 129.701 182.514 130.616 181.99C132.146 181.112 132.892 180.382 133.785 178.978C134.558 177.758 135.525 176.358 135.633 174.917C135.81 172.559 135.158 170.306 134.84 168.005Z" fill="#F7BCB1"/>
<path d="M139.047 176.98C138.641 175.526 137.998 174.543 138.647 173.336C138.829 172.996 139.174 172.601 139.459 172.321C140.213 171.581 141.28 170.733 142.52 171.088C145.357 171.9 142.089 175.505 140.197 175.602L139.05 176.983L139.047 176.98Z" fill="#F7BCB1"/>
<path d="M80.8906 138.659C77.6086 139.009 74.2713 139.668 70.9506 139.304C67.5635 138.933 63.4527 137.12 61.5133 134.522C59.0711 131.249 58.8253 124.996 53.4243 124.843C52.4159 124.814 51.5512 124.738 50.6533 125.239C49.5814 125.837 48.9184 126.706 48.0896 127.526C46.4927 129.099 44.7965 130.725 42.7687 131.824C40.9453 132.812 39.2187 133.937 37.3649 134.88C35.4559 135.85 33.348 136.522 31.5744 137.702C30.3091 138.546 29.0051 139.626 28.4194 140.975C27.9304 142.103 28.052 143.344 28.0713 144.53C28.0989 146.219 28.1293 147.876 28.8891 149.457C29.7952 151.339 31.3257 153.394 32.9253 154.843C36.2267 157.831 40.9757 159.478 45.3131 160.759C49.3466 161.947 53.3994 163.001 57.466 164.055C59.2396 164.517 61.2039 164.885 63.0245 165.167C64.4334 165.386 65.8562 165.774 67.2679 165.916C70.2737 166.221 73.6221 165.76 76.3267 164.501C79.2109 163.16 80.2441 160.777 81.1006 158.134C81.8962 155.681 81.7802 152.972 81.678 150.424C81.62 148.97 81.3244 147.555 81.2857 146.09C81.2442 144.522 80.9155 142.938 80.8934 138.656L80.8906 138.659Z" fill="#F7BCB1"/>
<path d="M50.2804 88.5956C49.3604 89.2886 47.863 90.1581 47.0978 91.1199C46.2718 92.1555 46.001 93.6153 45.675 94.8143C45.1225 96.838 44.5921 98.946 45.0065 101.041C45.2855 102.456 45.9016 103.391 47.4459 103.816C49.772 104.456 52.601 104.148 54.999 104.127C59.6955 104.084 65.6518 105.997 68.6769 109.373C70.1632 111.03 71.0473 113.078 72.4424 114.814C73.3431 115.934 74.0448 117.257 75.6803 117.581C76.6804 117.779 77.6279 117.402 78.1363 116.585C78.4595 116.066 78.5258 115.431 78.5976 114.856C78.7026 113.997 79.0037 113.136 79.0203 112.271C79.1143 107.592 76.1389 103.589 73.2298 99.9895C70.9202 97.1305 69.4919 93.5415 66.1629 91.4177C62.5411 89.1041 58.1208 88.224 50.2859 88.5956H50.2804Z" fill="#F7BCB1"/>
<path d="M33.8287 55.1068C34.232 57.8025 34.3674 60.5087 34.1823 63.2307C34.0055 65.8209 33.4806 68.925 32.3286 71.2939C31.4279 73.1437 30.3864 75.1411 29.1626 76.8407C27.9442 78.5297 26.7038 80.0344 26.1623 82.008C25.7838 83.3835 25.5131 85.0989 25.8529 86.5166C26.0767 87.4441 26.7038 88.3058 27.1348 89.1569C27.5768 90.0317 27.9663 90.8776 28.5493 91.6839C29.9112 93.5706 31.4998 95.2491 32.6988 97.228C33.7099 98.896 34.9393 101.175 34.9973 103.088C35.1189 107.173 31.8479 109.982 28.1266 111.876C27.2011 112.348 26.2783 112.88 25.1705 112.738C23.861 112.569 22.604 111.997 21.2779 111.805C18.2943 111.368 16.0178 110.661 13.9154 108.635C10.0698 104.93 8.24371 99.6101 7.76853 94.6641C7.51436 92.008 7.03919 89.3598 6.66346 86.7142C6.15237 83.1226 5.90097 79.6575 5.89821 76.0423C5.89544 72.0528 5.36225 67.6997 6.21868 63.7656C7.14417 59.5074 9.89301 54.7537 13.921 52.2083C16.7334 50.4296 20.8 49.5969 24.2008 50.398C25.8778 50.7933 27.7066 51.871 29.157 52.6773C30.892 53.6444 32.486 54.7695 33.8342 55.1095L33.8287 55.1068Z" fill="#F7BCB1"/>
<path d="M57.1677 20.5797C55.8444 23.0329 55.2145 24.4559 55.2559 27.1621C55.2891 29.5731 54.8553 31.9473 54.8553 34.3689C54.8553 37.249 55.2338 43.6943 59.0739 44.6904C60.9194 45.1673 61.9139 44.9328 63.5881 44C65.5966 42.8827 66.8619 41.0487 68.2763 39.3939C69.4173 38.0606 70.1798 36.585 71.5446 35.4229C73.0613 34.1318 74.5614 32.7958 76.1941 31.6206C77.6611 30.5639 79.4071 29.7576 80.7111 28.527C82.1449 27.1752 83.5842 25.8893 84.8302 24.3847C87.3138 21.386 88.9328 17.6891 86.264 14.332C85.2529 13.0593 84.0953 12.6456 82.4295 12.3663C80.8713 12.1028 78.7192 12.0922 77.1776 12.332C74.6277 12.7273 72.1938 14.1028 69.8152 14.975C68.0968 15.6074 66.3149 15.8709 64.7512 16.8379C62.5494 18.1976 60.947 19.9816 57.1705 20.5823L57.1677 20.5797Z" fill="#F7BCB1"/>
<path d="M89.6897 7.80506C88.278 9.78398 87.626 10.7036 88.488 12.9856C89.1372 14.7062 90.6705 16.3163 92.7425 16.4638C94.8228 16.6114 96.6129 15.4678 98.2015 14.3742C99.9337 13.1832 101.898 12.2504 103.489 10.9039C104.249 10.2609 105.481 9.23589 105.346 8.16079C105.133 6.49544 101.696 5.79189 100.395 5.72074C96.2096 5.49413 91.5158 4.21086 89.6897 7.8077V7.80506Z" fill="#F7BCB1"/>
</g>
<g style="mix-blend-mode:soft-light" opacity="0.5">
<path d="M82.8051 148.669C83.0206 150.245 83.377 151.802 83.109 153.386C82.888 154.693 82.4736 155.945 82.1255 157.223C81.515 159.47 81.2829 161.897 81.2663 164.203C81.2581 165.576 81.3824 167.758 83.1864 168.287C84.6837 168.725 85.5871 167.718 86.2668 166.63C87.1784 165.165 87.4077 163.275 87.3939 161.618C87.3801 159.963 87.568 158.24 87.416 156.593C87.2889 155.207 86.8441 153.536 86.3634 152.208C86.1176 151.526 85.7501 150.777 85.3993 150.137C85.0954 149.584 84.3578 148.959 82.8051 148.669Z" fill="#F7BCB1"/>
<path d="M32.2982 46.4744C31.3837 46.9961 30.4638 47.5099 29.5355 48.0106C29.6792 48.7379 29.53 49.3255 29.9554 49.9869C30.7704 51.2464 32.0468 52.2715 32.8866 53.5442C33.9613 55.1753 33.4281 57.8103 34.978 59.112C35.6161 58.3927 35.9256 58.1529 36.2294 57.1858C36.5831 56.0607 36.8566 54.701 36.9063 53.5442C36.9422 52.6615 37.108 51.4098 36.8345 50.5429C36.6466 49.9447 36.13 49.6891 35.7405 49.2464C34.9338 48.3321 34.7625 47.9315 33.4474 47.5099L32.3009 46.4744H32.2982Z" fill="#F7BCB1"/>
<path d="M52.576 38.8801C53.5015 39.4045 54.6121 40.1766 55.5735 40.6799C56.5349 41.1832 57.593 41.2754 58.6125 41.6337C60.5049 42.2978 62.4194 43.054 64.0742 44.1397C65.5108 45.0804 69.3261 49.2411 67.2927 50.7536C65.2125 52.3004 61.4028 49.9341 59.8474 48.5771C59.2921 48.0922 58.8114 47.3782 58.3169 46.8353C57.8306 46.2978 57.2698 45.7023 56.872 45.1094C56.499 44.5534 56.0377 43.8999 55.7144 43.3175C55.1343 42.2767 55.1205 40.6904 52.5788 38.8828L52.576 38.8801Z" fill="#F7BCB1"/>
<path d="M59.0822 57.5231C57.6207 58.0738 56.4936 58.6114 54.9548 58.5613C53.3773 58.5112 51.7363 58.6219 50.3301 57.8235C48.4073 56.7299 46.8933 54.8828 46.0756 53.033C45.3987 51.4994 44.7633 49.531 44.8876 47.863C44.9705 46.7352 45.6087 45.726 46.0921 44.7062C46.4016 44.0501 46.5535 43.2833 47.3934 43.033C48.8355 42.6035 50.9268 43.8709 51.8108 44.7616C53.1038 46.0685 54.5763 47.8182 55.4134 49.4124C56.2035 50.917 57.2036 51.6996 58.5158 52.8564C59.9911 54.1581 60.1403 55.6153 59.0822 57.5205V57.5231Z" fill="#F7BCB1"/>
<path d="M165.45 158.682C163.823 159.376 163.246 159.513 162.262 160.451C161.32 161.347 160.262 162.282 159.157 163.009C156.795 164.564 154.46 166.179 152.04 167.663C150.512 168.601 148.288 170.282 148.197 172.174C148.17 172.722 148.358 173.02 148.885 173.294C149.581 173.655 149.816 173.336 150.507 173.065C154.422 171.526 158.151 169.476 161.9 167.679C163.431 166.943 164.389 165.818 165.364 164.567C166.086 163.639 166.773 162.329 166.95 161.204C167.157 159.887 166.34 158.606 165.45 158.685V158.682Z" fill="#F7BCB1"/>
<path d="M184.198 117.942C183.269 117.945 181.725 118.097 180.689 117.881C180.007 117.739 179.36 117.465 178.664 117.333C176.487 116.93 174.385 116.032 172.166 115.881C170.511 115.771 168.815 115.86 167.157 115.871C165.917 115.879 165.113 115.657 163.953 115.455C163.98 114.93 164.925 114.419 165.406 114.15C166.818 113.362 168.434 112.854 170.058 112.577C172.774 112.113 175.398 112.04 178.161 112.063C180.214 112.082 182.015 112.912 183.91 113.539C184.836 113.845 185.601 114.184 186.322 114.822C187.029 115.449 186.863 116.071 184.2 117.942H184.198Z" fill="#F7BCB1"/>
<path d="M158.563 113.8C157.361 114.134 156.245 114.625 155.134 114.835C154.142 115.022 153.079 115.173 152.062 115.354C149.819 115.755 147.379 116.611 145.067 116.148C141.851 115.499 143.882 113.452 145.545 112.327C146.645 111.584 147.863 111.146 149.009 110.493C150.09 109.876 150.971 109.062 152.084 108.464C154.217 107.315 155.844 105.468 158.264 104.82C159.079 104.601 160.179 104.277 161.016 104.495C161.825 104.706 162.936 105.257 163.685 105.634C164.942 106.266 166.657 107.555 166.155 109.046C165.834 109.997 164.315 111.167 163.502 111.742C161.317 113.289 158.049 113.916 158.563 113.802V113.8Z" fill="#F7BCB1"/>
<path d="M156.648 31.9737C156.041 32.8696 155.657 33.8288 155.494 34.8485C155.762 35.1911 155.919 35.5758 155.969 36C156.342 37.1805 156.933 38.2556 157.704 39.2675C158.585 40.4243 160.334 41.6021 161.895 41.9157C163.881 42.3162 166.207 41.9869 168.149 41.5521C169.152 41.3281 169.917 40.9829 170.826 40.5956C171.514 40.3004 172.188 40.145 172.652 39.5784C175.153 36.5165 167 34.2477 165.069 33.365C164.052 32.8986 163.036 32.4322 162.008 31.9816C160.936 31.5126 160.088 30.7616 159.024 30.3083C158.397 30.0396 157.671 29.6601 157.024 29.4414C156.007 29.0962 155.933 29.7471 156.651 31.9737H156.648Z" fill="#F7BCB1"/>
<path d="M101.934 1.59158C103.379 3.98421 104.608 6.25825 105.752 8.77208C106.539 10.5033 107.948 12.2556 109.865 12.9987C111.761 13.7339 113.62 14.0369 115.626 14.2872C116.985 14.4585 118.946 14.6561 120.231 14.1212C123.828 12.6245 120.079 8.57182 118.383 7.07775C117.67 6.45061 116.811 5.91833 116.007 5.38869C114.993 4.71938 113.938 3.8709 112.86 3.29909C110.647 2.1265 108.293 1.55996 101.934 1.58895V1.59158Z" fill="#F7BCB1"/>
<path d="M89.3085 6.0791C88.4106 6.75368 87.2337 7.4098 86.485 8.23457C86.2502 8.49281 86.1452 8.88806 85.8911 9.12258C85.3744 9.59425 84.0622 10.1186 83.4047 10.3637C81.3686 11.1279 79.5425 10.8749 77.487 10.506C77.0312 9.23325 78.6363 8.77739 79.6226 8.25302C81.4321 7.28859 83.2776 6.36105 85.0678 5.38609C87.0928 4.28464 89.5378 2.32153 91.9855 3.31758L89.3085 6.0791Z" fill="#F7BCB1"/>
<path d="M12.7856 135.204C11.3379 135.686 10.1804 135.81 9.79913 137.225C9.50629 138.306 9.64442 139.657 9.74111 140.754C9.99251 143.594 11.2468 146.706 13.5619 148.717C14.9957 149.963 16.3301 150.877 18.1341 149.657C20.0873 148.337 21.5957 146.43 23.2864 144.87C25.2976 143.017 30.6848 140.121 27.3531 137.275C26.248 136.332 24.5876 135.866 23.1151 135.618C22.104 135.447 21.0984 135.628 20.0817 135.56C18.333 135.444 17.181 135.36 12.7856 135.204Z" fill="#F7BCB1"/>
<path d="M8.95923 103.096C9.23826 105.431 9.67476 107.887 9.74382 110.24C9.78526 111.607 9.4123 112.97 10.2798 114.177C10.7577 114.843 11.5009 115.468 12.4208 115.497C13.385 115.528 15.1973 114.1 15.8825 113.447C16.8273 112.545 16.8908 111.325 16.0841 110.295C15.1586 109.109 14.0066 107.958 12.7717 107.062C12.3462 106.754 12.0534 106.319 11.6501 106.013C11.1749 105.655 10.5533 105.597 10.1085 105.17L8.96199 103.099L8.95923 103.096Z" fill="#F7BCB1"/>
<path d="M52.9601 68.2267C54.3856 71.2992 55.1951 74.4586 55.8388 77.7287C56.2477 79.7998 57.1428 83.1331 56.0847 85.1437C55.0238 87.1569 51.8274 88.9645 49.3355 88.5824C46.3933 88.1292 46.548 85.5416 45.7081 83.5021C44.7274 81.1226 43.2936 79.062 41.8736 76.8934C40.2602 74.4243 39.2186 71.4467 40.5337 68.6957C41.5586 66.5561 43.4179 64.9671 46.07 64.8275C47.1281 64.7721 48.8769 65.6391 49.8107 66.1239C51.5152 67.0067 52.4407 68.6746 52.9546 68.2267H52.9601Z" fill="#F7BCB1"/>
<path d="M113.031 68.2267C112.537 68.6693 112.084 69.1884 111.567 69.5969C111.156 69.9236 110.81 70.1924 110.537 70.6324C109.829 71.7708 109.794 73.4072 110.244 74.6245C110.794 76.1107 111.741 77.3703 112.515 78.7537C112.904 79.4519 113.153 80.1687 113.41 80.9144C113.675 81.6917 114.056 82.3689 114.421 83.112C114.802 83.8894 115.195 84.6087 115.667 85.3413C115.811 85.56 116.233 86.3162 116.686 86.2029C116.91 86.1476 116.855 86.0079 116.905 85.8156C117.079 85.1542 117.09 84.6483 116.871 83.9711C116.095 81.5626 114.841 79.2965 114.181 76.8591C114.02 76.2635 113.833 75.697 113.65 75.112C113.413 74.3505 113.465 73.5363 113.368 72.7589C113.203 71.4019 113.084 70.0396 113.454 68.6983C113.694 67.834 114.217 67.0751 114.526 66.2451C114.949 65.1173 115.134 63.8367 115.377 62.6693C115.526 61.9552 115.78 61.2385 115.869 60.5165C115.894 60.3031 115.932 59.7523 115.673 59.6101C115.393 59.4572 114.951 59.8367 114.766 59.9631C114.211 60.3479 113.891 60.7089 113.739 61.3202C113.473 62.3769 113.333 63.4862 113.225 64.5639C113.07 66.087 112.899 67.8446 113.034 68.2267H113.031Z" fill="#F7BCB1"/>
<path d="M109.012 103.787C108.495 103.462 107.995 103.067 107.404 102.875C106.868 102.701 106.302 102.545 105.743 102.44C104.757 102.25 103.81 102.156 102.818 102.432C102.08 102.638 101.594 103.389 101.71 104.084C101.845 104.896 102.809 105.349 103.544 105.689C104.37 106.071 105.254 106.087 106.141 106.242C106.937 106.379 107.586 106.588 108.409 106.553C109.868 106.488 109.28 104.601 109.202 103.789H109.012V103.787Z" fill="#F7BCB1"/>
<path d="M115.708 118.978C116.15 120.867 116.932 122.709 117.197 124.63C117.474 126.64 118.043 128.482 118.72 130.414C119.164 131.686 119.734 133.436 121.217 134.061C121.991 134.385 122.485 133.7 122.587 133.062C123.038 130.271 121.535 127.747 120.156 125.376C119.46 124.179 118.847 122.941 118.184 121.734C117.896 121.212 117.722 120.798 117.291 120.353C116.935 119.987 116.534 119.76 115.708 118.98V118.978Z" fill="#F7BCB1"/>
<path d="M139.622 139.349C139.166 141.065 138.895 142.68 138.708 144.437C138.605 145.394 138.663 146.343 138.525 147.299C138.409 148.095 138.274 148.883 138.144 149.676C138.083 150.04 137.696 151.715 136.945 151.42C136.58 151.278 136.307 150.585 136.218 150.282C136.028 149.631 135.981 148.988 135.986 148.319C135.997 146.899 135.989 145.523 136.158 144.113C136.326 142.69 136.666 141.323 137.058 139.942C137.26 139.225 137.81 137.95 138.572 137.544C139.868 136.851 139.633 139.602 139.625 139.352L139.622 139.349Z" fill="#F7BCB1"/>
<path d="M33.638 96.5376C34.3121 98.78 34.8011 100.933 34.7928 103.278C34.7873 104.938 34.3204 106.588 34.3839 108.24C34.4198 109.188 34.7486 110.493 35.9725 110.572C36.8731 110.632 37.8124 110.024 38.4699 109.463C39.1716 108.864 39.5694 107.773 39.5694 106.917C39.5694 106.216 39.644 105.481 39.5363 104.785C39.412 103.982 39.0694 103.173 38.8042 102.398C38.3594 101.099 37.5002 100.211 36.6383 99.1279C36.199 98.5771 35.9393 98.0501 35.3536 97.5995C34.9779 97.3123 34.6243 97.112 33.6353 96.5376H33.638Z" fill="#F7BCB1"/>
<path d="M53.3414 36.2898C53.858 34.3768 53.8663 32.5876 53.905 30.6324C53.9492 28.39 54.3525 26.195 55.1095 24.0553C55.2504 23.6574 56.3803 21.7523 55.6592 21.2911C55.4852 21.1805 55.0211 21.2674 54.8304 21.2701C54.2641 21.2832 53.9409 21.3412 53.4353 21.6021C51.1064 22.8142 49.1836 24.9407 49.3493 27.4703C49.551 30.5428 51.0125 33.8445 53.3386 36.2925L53.3414 36.2898Z" fill="#F7BCB1"/>
<path d="M143.639 20.0632C143.752 20.9802 143.736 21.4993 144.236 22.2319C144.614 22.7879 145.026 23.2964 145.321 23.8972C146.078 25.4282 146.396 26.8564 146.645 28.4954C146.783 29.3913 146.998 30.6061 147.462 31.4335C147.797 32.0263 148.054 31.7945 148.28 31.2859C148.581 30.6113 148.83 29.8182 148.96 29.0935C149.059 28.527 148.932 28.0606 148.844 27.5046C148.755 26.9486 148.775 26.4032 148.664 25.8445C148.465 24.8458 148.277 23.7022 147.532 22.8959C147.194 22.5323 146.711 22.2767 146.321 21.9631C145.924 21.639 145.382 21.083 143.639 20.0632Z" fill="#F7BCB1"/>
</g>
<path d="M123.361 106.809C123.394 108.071 123.143 108.712 123.828 109.539C124.193 109.979 124.756 110.517 125.364 110.669C126.223 110.888 127.635 110.474 128.096 109.771C128.679 108.885 127.966 108.061 127.383 107.383C126.618 106.495 126.024 106.153 124.795 106.029L123.361 106.806V106.809Z" fill="#F29171"/>
<path d="M122.215 99.5574C121.828 98.7273 121.264 97.9869 121.394 97.1568C121.441 96.8617 121.587 96.448 121.698 96.1713C121.936 95.5732 122.499 94.9908 123.076 95.5099C124.383 96.6799 123.687 99.141 122.215 99.8156V99.5574Z" fill="#F29171"/>
<path d="M153.206 72.6272C153.137 73.2623 152.59 75.2254 153.772 75.4942C154.281 75.6101 154.913 75.2807 155.165 74.9013C155.712 74.0765 154.618 72.1477 153.493 72.369L153.206 72.6272Z" fill="#F29171"/>
<path d="M163.248 85.834C162.986 84.8591 162.223 83.2886 162.942 82.2609C163.312 81.7313 163.917 81.4704 164.519 81.8419C165.061 82.1766 165.066 82.917 164.992 83.4414C164.853 84.4006 164.353 85.0224 163.536 85.5758L163.248 85.834Z" fill="#F29171"/>
<path d="M171.86 128.042C171.514 126.957 170.92 126.05 171.832 125.189C172.307 124.738 173.125 124.459 173.735 124.817C175.357 125.763 173.821 127.239 172.722 127.784L171.86 128.042Z" fill="#F29171"/>
<path d="M82.8052 131.407C82.797 131.937 82.598 132.828 83.0263 133.291C83.1008 133.37 83.623 133.75 83.7611 133.802C84.2612 133.984 84.5927 133.539 84.8441 133.22C85.1397 132.849 85.1618 132.693 84.9656 132.277C84.8137 131.95 84.4214 131.412 83.9517 131.41H82.8052V131.407Z" fill="#F29171"/>
<path d="M72.4729 145.737C71.7932 144.975 71.3706 144.722 71.5032 143.842C71.5557 143.484 71.785 142.907 72.2712 142.82C72.7657 142.733 73.0447 143.141 73.1552 143.505C73.2298 143.755 73.2878 143.979 73.2105 144.232C73.1359 144.469 72.8734 144.609 72.8569 144.872L72.4756 145.737H72.4729Z" fill="#F29171"/>
<path d="M49.8992 134.514C49.6589 135.278 49.1782 135.947 50.0291 136.424C50.3772 136.619 51.1176 136.735 51.4518 136.432C52.1149 135.832 51.4822 134.772 50.6645 134.685L49.8992 134.511V134.514Z" fill="#F29171"/>
<path d="M26.1762 103.961C25.6678 103.394 25.2534 103.138 25.2009 102.538C25.1844 102.335 25.2009 102.092 25.2092 101.889C25.2286 101.52 25.3639 100.759 25.8888 100.68C26.2452 100.627 26.5022 101.028 26.6403 101.294C26.8834 101.768 26.8171 102.385 26.3695 102.751L26.1789 103.961H26.1762Z" fill="#F29171"/>
<path d="M17.7584 70.8143C18.0817 71.4362 18.2668 72.2609 19.1425 72.3452C19.7558 72.4032 20.2559 71.9605 20.2586 71.4335C20.2586 71.033 20.1039 70.6746 19.7614 70.39C19.3083 70.0159 18.7088 70.1318 18.1397 70.1239L17.7584 70.8143Z" fill="#F29171"/>
<path d="M14.3161 69.7788C13.6586 69.041 13.2387 68.7775 13.3464 67.929C13.3906 67.5785 13.6779 67.0436 14.1393 67.0384C14.5703 67.0331 15.1863 67.6497 15.3604 67.9606C15.6726 68.5166 15.7251 69.0384 15.4626 69.6075L14.3161 69.7814V69.7788Z" fill="#F29171"/>
<path d="M23.6898 157.476C24.0103 158.598 24.1015 159.283 25.4165 159.536C25.9331 159.634 26.7536 158.949 26.9249 158.506C27.3973 157.297 25.3226 157.473 24.6457 157.473H23.6898V157.476Z" fill="#F29171"/>
<path d="M137.517 169.212C137.208 168.543 136.633 167.887 137.133 167.228C137.434 166.835 138.011 166.453 138.578 166.627C139.545 166.925 139.349 168.232 138.666 168.696L137.52 169.215L137.517 169.212Z" fill="#F29171"/>
<path d="M143.832 166.451C143.396 165.642 142.918 165.318 143.633 164.722C144.009 164.409 144.183 164.308 144.598 164.585C145.244 165.015 145.153 166.192 144.216 166.279L143.835 166.453L143.832 166.451Z" fill="#F29171"/>
<path d="M117.814 41.8131C117.651 42.348 117.101 43.4837 117.598 44.0687C117.908 44.4323 118.623 44.5193 119.04 44.3084C119.358 44.1477 119.833 43.6787 119.894 43.3308C120.015 42.6247 119.145 42.2241 118.579 41.9843L117.814 41.8104V41.8131Z" fill="#F29171"/>
<path d="M105.379 39.3966C105.169 38.9408 105.039 38.4717 104.998 37.9842C105.401 37.8736 105.517 37.423 105.873 37.2412C106.257 37.0435 107.037 37.2069 107.387 37.423C108.252 37.9579 107.045 39.1753 106.335 39.2227L105.379 39.3966Z" fill="#F29171"/>
<path d="M76.8738 62.701C76.7992 63.4731 76.4815 64.2083 77.2413 64.6931C77.896 65.1094 78.4596 64.9171 78.8602 64.2715C79.5205 63.2122 78.8961 62.6404 77.6391 62.5271L76.8738 62.701Z" fill="#F29171"/>
<path d="M131.779 26.2767C131.63 26.5982 131.105 27.394 131.224 27.8367C131.276 28.0343 131.544 28.3347 131.682 28.4928C131.997 28.8512 132.475 28.9777 132.978 28.8406C133.481 28.701 133.691 28.3979 133.699 27.9658C133.715 27.2649 133.268 27.2227 132.735 26.7958L131.779 26.2767Z" fill="#F29171"/>
<path d="M80.316 18.3374C80.1723 17.4889 79.9016 16.8407 80.6945 16.2478C81.084 15.9579 81.5371 15.8868 81.9984 16.037C83.1947 16.4296 82.4349 17.4599 81.8465 17.9896L80.316 18.3348V18.3374Z" fill="#F29171"/>
<path d="M171.379 57.5232C171.326 58.0423 171.371 58.5482 171.514 59.0462C171.837 59.0699 172.172 59.3018 172.484 59.2333C172.818 59.1595 173.224 58.672 173.304 58.3875C173.542 57.5574 172.716 56.701 171.76 56.8354L171.379 57.5258V57.5232Z" fill="#F29171"/>
<path d="M162.196 78.2373C162.591 77.7893 162.922 77.0541 163.646 77.207C164.016 77.286 164.572 77.618 164.677 77.979C164.887 78.7063 163.345 79.1648 162.77 79.0989L162.196 78.2346V78.2373Z" fill="#F29171"/>
<path d="M182.092 131.236C181.802 130.856 181.609 130.445 181.515 130.003C181.993 129.884 182.305 129.091 182.811 129.758C182.985 129.987 183.062 130.285 183.015 130.543C182.929 131.012 182.559 131.083 182.283 131.412L182.092 131.239V131.236Z" fill="#F29171"/>
<path d="M107.481 183.023C107.371 183.676 107.155 184.106 107.465 184.625C107.614 184.878 107.78 185.299 108.097 185.426C108.459 185.571 109.158 185.436 109.404 185.173C110.001 184.532 109.39 183.426 108.631 183.194L107.484 183.02L107.481 183.023Z" fill="#F29171"/>
<path d="M69.7959 179.054C69.8484 179.552 70.0418 179.987 70.3788 180.356C71.0115 180.14 72.0309 179.668 72.0668 178.92C72.1082 178.037 70.8126 178.19 70.1799 178.19L69.7987 179.054H69.7959Z" fill="#F29171"/>
<path d="M162.961 28.8669C163.508 28.2582 164.036 27.6364 164.547 27.0013C165.171 27.1357 165.798 26.5428 166.461 26.5244C167.599 26.4901 168.937 27.0329 170 27.357C170.801 27.6021 171.426 28.2451 172.158 28.6192C172.556 28.8221 172.967 28.9908 173.36 29.1831C174.271 29.6311 175.039 30.2688 175.034 31.2859C175.031 31.8155 174.752 32.3004 174.711 32.83C174.672 33.3096 174.724 33.6864 174.586 34.1581C174.368 34.8959 174.009 34.9433 173.15 34.8327C172.487 34.7484 171.987 34.4875 171.44 34.1739C171.125 33.9947 170.732 33.9209 170.423 33.7365C169.917 33.4308 169.716 32.917 168.989 33.0092L162.964 28.8669H162.961Z" fill="url(#paint6_linear_24_1817)"/>
<path d="M122.215 16.6957C120.783 15.3518 120.015 14.4058 119.109 12.78C118.897 12.3953 118.695 12 118.504 11.6153C118.51 11.6285 118.245 11.0725 118.236 11.1963C118.308 10.1054 121.872 10.4453 122.626 10.6008C124.171 10.9197 125.51 11.776 125.952 13.1384C126.234 14.0106 126.245 14.3136 125.687 15.0672C125.171 15.7629 124.414 16.7326 123.367 16.6983H122.22L122.215 16.6957Z" fill="url(#paint7_linear_24_1817)"/>
<path d="M64.5329 16.4374C63.9527 14.9987 63.6019 14.5771 64.2152 13.3228C64.8506 12.0184 65.4114 10.9802 66.5303 9.93939C68.1962 8.38735 69.9892 7.36231 72.3512 7.04874C73.3016 6.92226 73.5337 6.87746 74.3763 7.37285C74.9951 7.73649 75.3128 8.05533 75.7244 8.60078C76.2908 9.34387 76.9511 10.0632 76.8792 11.0013C76.8019 12.0395 76.3433 13.083 76.2853 14.1686C76.2162 15.4414 76.5615 17.1647 75.6112 18.2714C75.2216 18.7246 74.2796 19.0935 73.6939 19.2306C72.2849 19.5573 70.8124 19.7022 69.3759 19.8893C68.1271 20.0501 66.8287 20.1924 65.6988 19.5151C64.9307 19.0566 64.8644 18.2846 64.5357 16.4427L64.5329 16.4374Z" fill="url(#paint8_linear_24_1817)"/>
<path d="M26.9414 37.4123C25.1208 36.5454 23.9936 35.9156 21.9299 35.8471C20.159 35.7865 18.6285 36.108 17.1063 36.9354C15.7112 37.6916 14.6835 39.1594 14.0011 40.469C13.4706 41.4861 13.0728 42.6271 13.8547 43.6363C15.5454 45.8181 19.6728 45.9631 22.2697 45.5204C25.4993 44.9696 28.7288 41.4993 26.9386 37.4123H26.9414Z" fill="url(#paint9_linear_24_1817)"/>
<path d="M5.70485 49.3228C4.1992 49.8708 3.3262 50.0711 2.33993 51.1225C1.73215 51.7681 0.930978 52.361 0.519342 53.1409C-0.381285 54.8484 -0.105019 57.3254 1.28184 58.7931C1.68795 59.2226 2.65212 59.9473 3.32344 59.9815C4.69925 60.0527 5.47555 58.411 5.85956 57.5125C6.3596 56.3425 7.11934 55.0461 7.15801 53.776C7.19117 52.6851 7.09447 51.6811 5.70209 49.3228H5.70485Z" fill="url(#paint10_linear_24_1817)"/>
<path d="M12.3077 121.049C11.2275 121.404 10.7053 121.407 10.2661 122.256C9.94836 122.87 9.96217 123.518 9.98704 124.19C10.023 125.183 10.2771 126.034 10.5258 126.991C10.6418 127.441 10.6639 127.939 10.9899 128.319C11.6474 129.083 12.9072 129.32 13.8879 129.352C16.0455 129.418 17.9352 129.199 19.8083 128.174C20.8415 127.61 22.1925 126.817 22.6842 125.784C23.1262 124.851 23.1069 123.333 22.6842 122.403C21.4576 119.705 17.7943 118.935 12.3132 121.051L12.3077 121.049Z" fill="url(#paint11_linear_24_1817)"/>
<path d="M73.1414 105.773C72.4314 106.406 70.4312 107.721 71.3871 108.906C72.0529 109.734 73.1856 109.378 73.9536 108.888C74.7078 108.406 75.1554 107.968 75.1636 107.141C75.1692 106.261 74.7658 105.581 74.0033 104.999L73.1414 105.776V105.773Z" fill="url(#paint12_linear_24_1817)"/>
<path d="M94.378 122.862C92.6679 122.646 91.9772 122.812 91.3694 121.431C91.0186 120.635 90.8666 120.05 91.0628 119.202C91.328 118.055 92.3336 116.429 93.8752 116.619C95.0907 116.767 95.7344 117.953 95.8366 118.972C95.8974 119.589 95.7538 120.211 95.5466 120.796C95.3559 121.331 94.6901 122.047 94.6653 122.603L94.378 122.862Z" fill="url(#paint13_linear_24_1817)"/>
<path d="M166.693 124.675C165.95 124.142 165.34 123.515 164.864 122.788C164.942 122.535 164.886 122.295 164.701 122.068C164.204 120.901 164.066 120.003 164.654 118.804C165.375 117.339 167.837 116.856 169.426 117.294C170.997 117.726 171.857 118.906 171.87 120.345C171.887 122.213 169.655 123.009 167.843 123.122L166.696 124.677L166.693 124.675Z" fill="url(#paint14_linear_24_1817)"/>
<path d="M118.77 167.66C118.073 167.937 116.902 168.187 116.349 168.706C116.126 168.917 116.004 169.286 115.855 169.539C115.098 170.833 114.164 172.261 114.195 173.776C114.247 176.285 117.071 176.762 119.341 176.424C121.687 176.074 123.574 174.872 124.676 172.967C126.057 170.58 122.999 168.891 121.35 167.402L118.767 167.66H118.77Z" fill="url(#paint15_linear_24_1817)"/>
<path d="M107.578 174.909C106.981 174.25 106.583 173.513 106.382 172.701C106.473 172.556 106.564 172.408 106.652 172.264C106.934 171.536 107.548 170.738 108.153 170.206C108.984 169.476 109.959 169.194 111.034 169.7C112.084 170.192 112.192 171.486 111.564 172.335C111.219 172.801 109.664 174.161 109.012 174.134L107.578 174.912V174.909Z" fill="url(#paint16_linear_24_1817)"/>
<path d="M107.578 94.1212C107.219 93.2675 106.896 92.0079 106.183 91.2728C105.603 90.6746 105.006 90.1002 104.445 89.4836C103.456 88.3953 102.602 87.2148 101.611 86.1397C100.514 84.9513 99.7568 83.8841 98.0495 83.4335C96.3449 82.9829 93.4718 82.9908 91.9357 83.8999C90.6539 84.6588 90.4743 85.9315 90.2781 87.1884C89.9991 88.9724 90.1455 90.5481 90.5378 92.3215C90.9329 94.1212 91.2727 96.2345 92.9248 97.4862C95.483 99.4229 98.3341 99.4282 101.517 99.0962C103.357 98.9038 105.429 99.249 106.733 97.7471C107.556 96.8011 107.851 95.0409 107.581 94.1186L107.578 94.1212Z" fill="url(#paint17_linear_24_1817)"/>
<path d="M113.031 76.253C112.225 75.3755 111.609 74.9539 111.435 73.8815C111.255 72.7827 111.197 71.618 111.368 70.5139C111.493 69.7207 111.611 68.4638 112.496 68.2029C112.921 68.0765 113.753 68.1977 114.23 68.2082C115.175 68.2319 116.023 68.5561 116.93 68.7537C117.844 68.9539 119.209 69.1384 119.587 70.0923C119.905 70.8854 119.651 72.1186 119.424 72.8933C119.096 74.008 119.184 75.1068 118.85 76.2003C118.645 76.8696 118.513 77.4098 117.722 77.56C116.311 77.8288 114.797 77.062 113.606 76.5139L113.031 76.2557V76.253Z" fill="url(#paint18_linear_24_1817)"/>
<path d="M137.136 102.406C136.406 101.974 135.788 101.444 135.279 100.817C135.379 100.485 135.439 100.145 135.459 99.7997C135.619 98.8511 135.934 97.9763 136.544 97.1857C137.832 95.5125 139.838 95.7523 141.473 96.9802C142.504 97.7523 143.142 99.1172 142.763 100.314C142.385 101.507 140.484 102.321 139.147 102.148L137.138 102.406H137.136Z" fill="url(#paint19_linear_24_1817)"/>
<g style="mix-blend-mode:multiply" opacity="0.5">
<path d="M114.943 171.283C114.835 171.939 114.595 172.646 115.048 173.183C115.355 173.544 115.888 173.742 116.33 173.916C117.396 174.335 118.468 174.488 119.623 174.219C120.294 174.063 120.966 174.095 121.629 173.961C122.093 173.866 122.557 173.779 123.024 173.697C123.369 173.636 123.773 173.539 124.124 173.526C124.328 173.518 124.461 173.523 124.654 173.491C124.809 173.468 124.803 173.246 125.057 173.389C125.008 173.484 124.963 173.607 124.892 173.705C124.784 173.855 124.648 173.921 124.508 174.066C124.231 174.358 124.124 174.793 123.897 175.123C123.607 175.544 123.237 175.916 122.936 176.329C122.223 177.304 121.06 178.266 119.952 178.867C119.151 179.302 117.957 179.481 117.059 179.32C115.427 179.033 114.062 177.789 113.799 176.29C113.545 174.82 114.062 173.289 114.938 171.283H114.943Z" fill="#A72752"/>
</g>
<g style="mix-blend-mode:multiply" opacity="0.5">
<path d="M106.716 172.148C106.948 172.601 107.282 172.972 107.716 173.26C108.197 173.049 108.802 173.194 109.324 173.012C109.835 172.833 110.349 172.548 110.907 172.701C110.86 172.862 110.686 173.025 110.6 173.202C110.343 173.734 110.073 174.224 109.769 174.746C109.399 175.381 109.1 176.132 108.338 176.472C107.456 176.864 106.677 176.677 106.141 175.997C105.382 175.033 105.442 174.082 105.954 173.012L106.719 172.148H106.716Z" fill="#A72752"/>
</g>
<g style="mix-blend-mode:multiply" opacity="0.5">
<path d="M164.301 119.152C164.591 119.665 164.925 120.156 165.301 120.619C165.406 120.669 165.516 120.712 165.63 120.741C165.925 120.943 166.182 121.109 166.541 121.233C167.199 121.46 168.207 121.795 168.892 121.734C169.462 121.684 170.064 121.507 170.614 121.355C170.962 121.257 171.384 120.928 171.744 121.088C171.719 121.257 171.616 121.207 171.522 121.344C171.384 121.544 171.301 121.76 171.196 121.982C170.81 122.806 170.376 123.61 169.923 124.406C169.586 125.001 169.014 125.897 168.337 126.248C167.66 126.598 166.403 126.899 165.632 126.727C164.215 126.411 163.585 124.814 163.533 123.642C163.502 122.959 163.207 122.258 163.381 121.578C163.483 121.175 163.632 120.727 163.776 120.34C163.862 120.108 164.094 119.913 164.304 119.152H164.301Z" fill="#A72752"/>
</g>
<g style="mix-blend-mode:multiply" opacity="0.5">
<path d="M90.8389 119.323C91.2699 120.2 91.4136 120.838 92.3556 121.044C92.9966 121.183 93.2811 121.249 93.9083 120.962C94.2204 120.817 94.5989 120.706 94.8586 120.493C95.0023 120.374 95.1072 120.279 95.2398 120.182C95.3752 120.084 95.5299 120.074 95.6321 119.903C95.5686 120.748 95.4802 121.594 95.3448 122.438C95.1487 123.644 94.7453 125.323 93.3778 125.889C92.3308 126.324 91.2616 125.742 90.8196 124.806C90.1317 123.344 90.4687 121.468 90.8389 119.323Z" fill="#A72752"/>
</g>
<g style="mix-blend-mode:multiply" opacity="0.5">
<path d="M9.72457 124.158C10.1169 124.806 10.4235 125.349 10.7164 126.005C10.8352 126.272 11.0203 126.553 11.2468 126.756C11.8049 127.257 12.5149 127.447 13.258 127.573C14.6587 127.808 16.156 127.455 17.5208 127.273C18.7447 127.109 19.8525 126.738 20.8194 126.055C21.2449 125.755 21.7449 125.544 22.1676 125.236C22.3637 125.094 22.6676 124.712 22.8886 124.701C23.0295 124.93 22.7643 125.041 22.6814 125.241C22.4936 125.705 22.4825 126.266 22.3499 126.748C21.9991 128.029 21.6233 129.275 20.8774 130.422C19.7834 132.095 17.565 133.552 15.3162 133.275C14.9322 133.228 14.3603 133.204 13.9735 133.112C13.4846 132.994 13.1226 132.648 12.7524 132.361C11.9347 131.729 11.4457 131.009 10.8683 130.203C10.5175 129.713 10.2329 129.341 10.0865 128.764C9.93453 128.166 9.83508 127.523 9.75496 126.914C9.69695 126.474 9.67208 125.971 9.708 125.526C9.73562 125.191 9.97321 124.841 9.71628 124.161L9.72457 124.158Z" fill="#A72752"/>
</g>
<g style="mix-blend-mode:multiply" opacity="0.5">
<path d="M0.110506 57.091C0.505566 57.4309 0.809459 57.7629 1.33436 57.8815C1.74324 57.9738 2.09686 58.008 2.51678 57.9975C3.31795 57.979 4.16609 57.6259 4.76006 57.1437C5.38719 56.6378 5.90104 55.9105 6.35688 55.2834C6.52264 55.0541 6.76852 54.8776 6.8956 54.6299C6.98124 54.4691 6.984 54.2715 7.147 54.1582C7.1691 54.3506 7.09727 54.4691 7.03649 54.6431C6.92599 54.9645 6.89007 55.286 6.82653 55.618C6.58342 56.867 6.19112 58.1345 5.85408 59.3651C5.71318 59.8763 5.50046 60.3506 5.30431 60.846C5.13026 61.2913 5.07224 61.7287 4.95621 62.1819C4.80703 62.7695 4.51971 63.5179 3.83457 63.7366C3.37873 63.8815 2.98643 63.5653 2.77371 63.1832C2.47258 62.6457 2.27367 62.037 2.08857 61.4573C1.96978 61.091 1.73771 60.7537 1.59682 60.3901C1.4504 60.008 1.19899 59.6944 1.03047 59.3229C0.837085 58.896 0.466889 58.1951 0.10498 57.0884L0.110506 57.091Z" fill="#A72752"/>
</g>
<g style="mix-blend-mode:multiply" opacity="0.5">
<path d="M13.4542 42.9803C13.8382 43.2543 14.2222 43.6074 14.6946 43.7603C15.0952 43.8894 15.5482 43.9184 15.9599 44.0185C16.8743 44.2372 17.8302 44.1318 18.7667 44.2477C19.6729 44.3611 20.5956 44.1081 21.4907 44.0132C22.0902 43.95 22.535 43.6865 23.0848 43.4968C23.6649 43.2939 24.2009 42.9724 24.759 42.7142C25.2065 42.506 25.7121 42.3611 26.1403 42.1265C26.458 41.9526 26.8475 41.5574 27.0906 41.2939C27.2315 41.1384 27.4581 40.6904 27.6376 40.6588C27.657 40.7853 27.5603 40.8986 27.5161 41.0172C27.3614 41.4388 27.2813 41.8841 27.0962 42.3057C26.5519 43.5442 25.911 44.9091 25.1347 46.0369C24.3888 47.1199 23.6981 48.1213 22.4991 48.8116C21.5736 49.3439 20.5431 49.6891 19.4353 49.726C18.5816 49.755 17.4517 49.7128 16.7058 49.3097C15.9682 48.9091 15.5427 48.282 15.1366 47.6206C14.6835 46.8802 14.3962 46.0633 13.9846 45.3044C13.7028 44.7853 13.3188 44.1055 13.4486 42.9829L13.4542 42.9803Z" fill="#A72752"/>
</g>
<g style="mix-blend-mode:multiply" opacity="0.5">
<path d="M64.102 15.6602C64.6849 16.3901 65.2237 17.0383 66.0718 17.51C66.4033 17.6944 66.71 17.9263 67.0442 18.1028C67.3454 18.2609 67.6852 18.2926 68.0112 18.3822C69.6025 18.8196 71.1054 18.116 72.5723 17.6391C73.0254 17.4915 73.3597 17.2175 73.8349 17.1121C74.1001 17.0541 74.299 16.9671 74.5449 16.8591C74.9012 16.7036 75.23 16.5034 75.5505 16.3057C75.7052 16.2109 76.0478 15.871 76.1721 16.1714C76.2273 16.3031 76.0809 16.4718 76.0505 16.5851C75.9428 16.9592 75.9262 17.3466 75.8074 17.726C75.2991 19.365 74.4537 20.9566 72.8652 21.9395C71.9866 22.4823 71.0114 22.9408 70.0086 23.2807C69.1798 23.56 68.4532 23.6312 67.6078 23.3677C66.3011 22.9619 65.29 21.9816 64.533 20.9698C64.0247 20.2899 63.8838 19.7155 63.6738 18.9302C63.4749 18.1872 63.2318 17.4414 64.1048 15.6602H64.102Z" fill="#A72752"/>
</g>
<g style="mix-blend-mode:multiply" opacity="0.5">
<path d="M118.051 10.7405C118.416 11.2965 118.792 11.834 119.192 12.3663C119.499 12.7747 119.758 13.2148 120.223 13.4941C121.209 14.0791 122.3 14.4691 123.342 14.9513C124.3 15.394 125.063 14.8986 125.919 14.6456C125.784 14.9486 125.585 15.2807 125.452 15.6074C125.212 16.1977 125.096 16.6957 124.651 17.2069C124.212 17.7075 124.06 17.9921 123.331 18.0975C122.828 18.1687 121.927 18.2504 121.488 17.979C120.908 17.618 120.485 17.0883 120.057 16.6008C119.645 16.1318 119.33 15.7154 119.164 15.1252C119.071 14.7879 118.941 14.4928 118.908 14.1476C118.874 13.7945 118.819 13.4414 118.728 13.0962C118.532 12.34 118.593 11.8103 118.051 10.7457V10.7405Z" fill="#A72752"/>
</g>
<g style="mix-blend-mode:multiply" opacity="0.5">
<path d="M162.676 28.9961C163.185 29.1226 163.71 29.2095 164.174 29.4361C164.682 29.6812 165.154 30.0053 165.63 30.3031C166.558 30.8828 167.481 31.473 168.414 32.0475C168.945 32.3742 169.348 32.672 169.959 32.8485C170.362 32.9671 170.73 33.0883 171.144 33.1726C171.843 33.3149 172.586 33.4072 173.183 33.755C173.42 33.8946 173.675 34 173.907 34.1423C173.962 34.1766 174.117 34.2635 174.158 34.3004C174.257 34.39 174.269 34.4585 174.365 34.5666C174.545 34.7668 174.666 34.8433 174.589 35.1516C174.52 35.4335 174.332 35.7576 174.155 36.0185C173.799 36.5481 173.495 37.1911 173.039 37.6575C172.464 38.2425 171.282 38.116 170.497 38.0422C167.707 37.7787 165.541 35.834 164.682 33.4968C164.351 32.5982 164.027 31.6891 163.676 30.7985C163.489 30.3215 163.201 29.7603 162.676 28.9987V28.9961Z" fill="#A72752"/>
</g>
<path d="M195.674 75.921C195.508 76.1819 195.37 76.4823 195.248 76.8222C195.035 77.423 194.961 77.9974 194.975 78.5719C194.64 77.5468 195.019 76.6852 195.671 75.921H195.674Z" fill="#A72752"/>
<path d="M58.3198 179.976C58.2148 179.908 58.1236 179.853 58.0159 179.8C58.107 179.842 58.1982 179.881 58.2894 179.924C58.3198 179.937 58.3336 179.966 58.3198 179.979V179.976Z" fill="#A72752"/>
<g style="mix-blend-mode:multiply" opacity="0.5">
<path d="M90.0737 88.9408C90.3665 91.1648 90.6649 93.394 92.3639 95.1622C93.969 96.8328 96.4168 96.8934 98.6821 97.2913C100.492 97.6101 102.271 97.8525 104.144 97.7524C104.799 97.7182 105.511 97.5363 106.147 97.3651C106.542 97.257 107.47 96.5824 107.829 96.7564C107.771 96.9962 107.512 97.2201 107.371 97.4678C107.094 97.9527 106.907 98.4849 106.655 98.9751C106.382 99.5047 106.058 99.9948 105.793 100.527C105.534 101.049 105.08 101.399 104.774 101.879C104.467 102.358 104.354 102.796 103.868 103.186C103.299 103.642 102.536 103.924 101.851 104.216C100.011 105.001 97.9942 105.66 95.9443 105.112C94.5022 104.727 93.0242 103.903 92.3556 102.664C92.0269 102.053 91.8611 101.523 91.7589 100.851C91.6456 100.119 91.3252 99.423 91.2451 98.6826C91.0572 96.9856 90.9937 95.3282 90.9439 93.618C90.9218 92.9092 90.6898 92.2452 90.6456 91.5363C90.6013 90.7853 90.2394 89.9395 90.0709 88.9355L90.0737 88.9408Z" fill="#A72752"/>
</g>
<g style="mix-blend-mode:multiply" opacity="0.5">
<path d="M111.308 70.8142C111.943 72.5665 112.612 73.9078 114.609 74.5771C115.413 74.8485 117.073 74.8906 117.924 74.7114C118.466 74.5981 119.739 73.6627 119.651 74.7009C119.634 74.8827 119.438 75.0619 119.377 75.2385C119.228 75.6838 119.203 76.245 119.126 76.7141C118.99 77.5362 118.968 78.4638 118.634 79.2411C118.087 80.5086 116.347 80.39 115.073 80.3979C113.543 80.4058 111.747 79.9236 111.23 78.4717C110.62 76.7589 110.86 75.22 110.749 73.4598C110.722 73.0171 109.926 69.2727 111.308 70.8116V70.8142Z" fill="#A72752"/>
</g>
</g>
<defs>
<radialGradient id="paint0_radial_24_1817" cx="0" cy="0" r="1" gradientUnits="userSpaceOnUse" gradientTransform="translate(105.445 73.2603) scale(126.656 114.412)">
<stop stop-color="#903D18"/>
<stop offset="0.4" stop-color="#8D3918"/>
<stop offset="0.73" stop-color="#862F1A"/>
<stop offset="0.83" stop-color="#832B1B"/>
<stop offset="0.94" stop-color="#661D1C"/>
<stop offset="0.97" stop-color="#5F1A1D"/>
</radialGradient>
<radialGradient id="paint1_radial_24_1817" cx="0" cy="0" r="1" gradientUnits="userSpaceOnUse" gradientTransform="translate(100.176 105.74) scale(95.8928 86.6231)">
<stop stop-color="#B68DC0"/>
<stop offset="0.99" stop-color="#C26B7F"/>
</radialGradient>
<radialGradient id="paint2_radial_24_1817" cx="0" cy="0" r="1" gradientUnits="userSpaceOnUse" gradientTransform="translate(19.9074 39.0295) scale(10.9912 9.9287)">
<stop stop-color="#F7C0D0"/>
<stop offset="0.99" stop-color="#C26B7F"/>
</radialGradient>
<radialGradient id="paint3_radial_24_1817" cx="0" cy="0" r="1" gradientUnits="userSpaceOnUse" gradientTransform="translate(22.4357 111.936) scale(50.7775 45.8689)">
<stop stop-color="#F7C0D0"/>
<stop offset="0.99" stop-color="#C26B7F"/>
</radialGradient>
<radialGradient id="paint4_radial_24_1817" cx="0" cy="0" r="1" gradientUnits="userSpaceOnUse" gradientTransform="translate(197.644 70.9354) scale(4.28444 3.87028)">
<stop stop-color="#F7C0D0"/>
<stop offset="0.99" stop-color="#C26B7F"/>
</radialGradient>
<radialGradient id="paint5_radial_24_1817" cx="0" cy="0" r="1" gradientUnits="userSpaceOnUse" gradientTransform="translate(128.82 139.52) scale(69.1264 62.4441)">
<stop stop-color="#F7C0D0"/>
<stop offset="0.99" stop-color="#C26B7F"/>
</radialGradient>
<linearGradient id="paint6_linear_24_1817" x1="169" y1="34.8775" x2="169" y2="26.5217" gradientUnits="userSpaceOnUse">
<stop stop-color="#F5A261"/>
<stop offset="1" stop-color="#F49B6C"/>
</linearGradient>
<linearGradient id="paint7_linear_24_1817" x1="122.187" y1="16.6983" x2="122.187" y2="10.4243" gradientUnits="userSpaceOnUse">
<stop stop-color="#F5A261"/>
<stop offset="1" stop-color="#F49B6C"/>
</linearGradient>
<linearGradient id="paint8_linear_24_1817" x1="70.3897" y1="20.0184" x2="70.3897" y2="6.96442" gradientUnits="userSpaceOnUse">
<stop stop-color="#F5A261"/>
<stop offset="1" stop-color="#F49B6C"/>
</linearGradient>
<linearGradient id="paint9_linear_24_1817" x1="20.4353" y1="45.7206" x2="20.4353" y2="35.8392" gradientUnits="userSpaceOnUse">
<stop stop-color="#F5A261"/>
<stop offset="1" stop-color="#F49B6C"/>
</linearGradient>
<linearGradient id="paint10_linear_24_1817" x1="3.58313" y1="59.9842" x2="3.58313" y2="49.3228" gradientUnits="userSpaceOnUse">
<stop stop-color="#F5A261"/>
<stop offset="1" stop-color="#F49B6C"/>
</linearGradient>
<linearGradient id="paint11_linear_24_1817" x1="16.4876" y1="129.36" x2="16.4876" y2="119.834" gradientUnits="userSpaceOnUse">
<stop stop-color="#F5A261"/>
<stop offset="1" stop-color="#F49B6C"/>
</linearGradient>
<linearGradient id="paint12_linear_24_1817" x1="73.1497" y1="109.399" x2="73.1497" y2="104.996" gradientUnits="userSpaceOnUse">
<stop stop-color="#F5A261"/>
<stop offset="1" stop-color="#F49B6C"/>
</linearGradient>
<linearGradient id="paint13_linear_24_1817" x1="93.4138" y1="122.862" x2="93.4138" y2="116.606" gradientUnits="userSpaceOnUse">
<stop stop-color="#F5A261"/>
<stop offset="1" stop-color="#F49B6C"/>
</linearGradient>
<linearGradient id="paint14_linear_24_1817" x1="168.066" y1="124.675" x2="168.066" y2="117.138" gradientUnits="userSpaceOnUse">
<stop stop-color="#F5A261"/>
<stop offset="1" stop-color="#F49B6C"/>
</linearGradient>
<linearGradient id="paint15_linear_24_1817" x1="119.612" y1="176.519" x2="119.612" y2="167.399" gradientUnits="userSpaceOnUse">
<stop stop-color="#F5A261"/>
<stop offset="1" stop-color="#F49B6C"/>
</linearGradient>
<linearGradient id="paint16_linear_24_1817" x1="109.166" y1="174.909" x2="109.166" y2="169.444" gradientUnits="userSpaceOnUse">
<stop stop-color="#F5A261"/>
<stop offset="1" stop-color="#F49B6C"/>
</linearGradient>
<linearGradient id="paint17_linear_24_1817" x1="98.9059" y1="99.2622" x2="98.9059" y2="83.141" gradientUnits="userSpaceOnUse">
<stop stop-color="#F5A261"/>
<stop offset="1" stop-color="#F49B6C"/>
</linearGradient>
<linearGradient id="paint18_linear_24_1817" x1="115.499" y1="77.6153" x2="115.499" y2="68.145" gradientUnits="userSpaceOnUse">
<stop stop-color="#F5A261"/>
<stop offset="1" stop-color="#F49B6C"/>
</linearGradient>
<linearGradient id="paint19_linear_24_1817" x1="139.075" y1="102.406" x2="139.075" y2="95.9947" gradientUnits="userSpaceOnUse">
<stop stop-color="#F5A261"/>
<stop offset="1" stop-color="#F49B6C"/>
</linearGradient>
<clipPath id="clip0_24_1817">
<rect width="200" height="200" fill="white"/>
</clipPath>
</defs>
</svg>
