<svg width="200" height="200" viewBox="0 0 200 200" fill="none" xmlns="http://www.w3.org/2000/svg">
<path d="M199.961 62.3636V69.0724C199.704 70.7114 199.309 72.3926 198.203 73.5415C198.203 73.5547 198.19 73.5678 198.173 73.5836C197.46 74.3083 196.432 75.0461 195.702 75.8788C195.688 75.8919 195.688 75.9051 195.671 75.9209C195.506 76.1818 195.367 76.4822 195.246 76.8221C195.033 77.4229 194.958 77.9973 194.972 78.5718C195.229 79.336 195.926 80.1291 196.246 80.9091C196.564 81.6469 196.791 82.3715 197.2 83.083C197.382 83.3834 197.639 84.108 197.974 84.8063C198.444 85.7365 199.049 86.6377 199.807 86.5006C199.867 86.419 199.912 86.3504 199.959 86.2688V137.642C199.959 146.485 194.732 154.643 186.245 159.057L138.345 183.997L121.447 192.798L113.962 196.693C105.49 201.107 95.0356 201.107 86.5495 196.693L60.4252 183.096C60.4252 183.083 60.4114 183.083 60.4114 183.083C59.6678 182.277 59.1537 181.484 58.5483 180.432C58.4571 180.282 58.3659 180.132 58.2443 179.982C58.1392 179.913 58.048 179.858 57.9402 179.805C58.0314 179.847 58.1226 179.887 58.2139 179.929C56.5775 177.346 53.9404 175.283 51.0767 173.86C50.3332 173.491 49.5454 173.26 48.7576 173.109C47.4833 172.877 46.1675 172.864 44.849 172.848C44.6832 172.848 44.5311 172.848 44.3791 172.862C43.4863 172.917 42.7731 173.188 41.9245 173.462L14.2688 159.059C5.78274 154.646 0.555664 146.487 0.555664 137.644V121.312C2.58734 120.97 4.58585 118.756 5.43445 117.294C6.72257 115.067 7.01004 111.65 6.0868 109.299C5.28242 107.209 3.64603 105.924 2.14784 104.269C1.42085 103.462 0.903952 102.548 0.555664 101.563V62.3663C0.555664 57.9394 1.8576 53.689 4.23756 49.9974C4.81251 49.0962 5.45104 48.2345 6.14761 47.415C6.39086 47.1146 6.64793 46.8274 6.905 46.5402C8.9505 44.3399 11.4217 42.44 14.2688 40.9512L32.9685 31.22L86.5495 3.30961C95.0356 -1.1041 105.493 -1.1041 113.962 3.30961L186.245 40.946C194.732 45.3728 199.959 53.5336 199.959 62.361L199.961 62.3636Z" fill="url(#paint0_radial_24_1964)"/>
<path style="mix-blend-mode:multiply" d="M198.574 109.839C197.211 110.854 197.156 113.241 195.829 114.456C195.132 115.094 194.364 115.365 193.38 115.373C192.006 115.383 191.638 114.524 190.519 113.942C188.468 112.872 187.105 111.318 184.733 110.793C183.791 110.585 182.854 110.751 181.892 110.701C180.665 110.64 179.719 110.158 178.448 110.174C173.11 110.237 167.767 109.858 162.899 112.129C160.337 113.323 157.818 114.561 155.333 115.881C153.877 116.656 152.318 117.107 150.858 117.839C150.41 118.063 150.01 118.069 149.576 118.316C149.233 118.514 148.957 118.883 148.6 119.107C147.193 119.984 146.01 121.267 144.564 122.082C142.994 122.967 140.694 122.598 138.823 122.601C137.72 122.601 136.601 122.688 135.52 122.485C134.204 122.237 132.717 122.174 131.498 121.61C129.262 120.574 127.551 118.25 126.174 116.422C123.672 113.096 121.646 109.697 118.855 106.538C117.356 104.843 111.444 99.2595 113.517 96.7088C115.333 94.4743 117.572 93.7576 116.911 90.6061C116.193 87.1779 114.44 83.942 113.003 80.7404C111.33 77.0198 109.984 73.2095 107.994 69.6548C108.359 69.8761 108.436 70.3057 108.961 70.3505C109.948 70.4348 110.896 69.1462 111.261 68.5349C111.773 67.6811 112.295 67.1436 112.417 66.166C112.544 65.1436 112.314 64.0738 112.389 63.0461C112.486 61.7655 113.138 60.5402 113.536 59.3096C114.111 57.531 115.059 56.6877 116.704 55.5837C120.173 53.2543 125.14 54.0606 129.029 52.7009C131.83 51.7207 134.865 51.2121 137.692 50.3136C138.848 49.9473 139.777 49.3149 140.83 48.7826C141.864 48.2609 142.975 48.0553 143.998 47.5336C145.761 46.6403 147.619 45.4203 149.321 44.4005C150.991 43.3992 152.146 42.2872 153.039 40.6429C154.269 38.3821 154.689 36.0184 155.206 33.5441C155.745 30.9644 154.507 28.2661 153.744 25.7549C152.276 26.6324 151.439 24.5823 150.731 23.7997C150.247 23.2674 149.581 22.8564 149.139 22.245C148.934 21.9657 148.417 21.191 148.136 21.1331C147.525 22.2767 148.713 24.0948 149.026 25.2121C149.473 26.8116 149.728 28.635 149.722 30.3004C149.717 33.2859 148.763 37.1383 147.011 39.7497C145.493 42.0079 142.627 44.1186 139.962 45.3043C136.761 46.7299 133.659 48.469 130.199 49.3386C126.865 50.1765 123.352 50.1396 119.863 50.0975C117.495 50.0685 115.289 51.7865 114.247 53.7207C112.898 56.2266 111.272 59.191 109.398 61.4888C108.392 62.722 107.593 63.4256 106.206 64.2055C105.656 64.5165 105.282 64.7721 104.73 64.9881C99.6849 59.0672 91.7599 54.6693 84.1529 52.1581C79.5643 50.6429 74.8818 51.0514 70.1191 51.531C65.5582 51.9894 62.3987 51.4598 58.9656 48.6219C56.9422 46.9512 55.5131 44.9512 54.3577 42.7273C53.288 40.6719 51.928 38.5823 51.0103 36.4664C49.8991 33.9078 50.2723 30.9644 49.0864 28.4111C48.6718 27.5204 48.0194 26.801 47.5772 25.9473C47.3395 25.4914 46.9414 24.0738 46.3637 23.8972C44.8793 23.4466 41.3052 28.3847 40.2134 29.2859C40.8768 29.502 41.6065 29.3281 42.3086 29.473C43.4558 29.7101 44.426 30.4137 45.2304 31.1541C46.2034 32.0474 46.8364 33.1989 47.4749 34.3346C47.3809 34.5191 47.298 34.693 47.2261 34.8116C46.759 35.5942 46.2421 36.4717 45.6091 37.1594C44.7798 38.058 43.4254 38.4927 42.527 39.3887C41.1366 40.7747 40.5036 42.5902 39.7518 44.2977C38.0076 48.2477 37.4768 52.4664 36.5785 56.6298C35.7962 60.2556 36.1113 64.1923 34.9974 67.7418C34.1183 70.5402 32.258 73.2516 30.9368 75.8972C30.243 77.2885 29.8394 78.7958 29.1207 80.1686C28.7613 80.8564 28.507 81.3834 28.3522 82.1291C28.0979 83.3465 27.7828 84.5744 27.5092 85.7576C27.382 86.3136 26.8015 86.9302 26.8126 87.5599C26.8237 88.2161 27.0973 88.1897 27.5893 88.6456C28.1864 89.2042 28.496 89.9394 29.1456 90.4848C30.7405 91.8234 32.1115 93.2991 33.6761 94.6403C36.479 97.0408 39.1105 100.951 39.7877 104.406C40.3848 107.455 39.174 109.747 37.264 111.837C35.8128 112.261 34.3505 112.646 32.9076 112.962C29.3639 113.739 25.8451 114.588 22.3042 115.378C18.9319 116.129 15.3219 116.469 12.0574 117.539C9.20473 118.474 6.68931 120.15 3.99147 121.175C2.731 121.655 2.18922 122.095 2.13393 123.368C2.10906 123.953 1.66402 127.881 2.24174 128.229C3.29213 128.859 6.06737 125.784 6.77224 125.215C8.02995 124.2 9.19643 122.922 10.6725 122.174C13.1354 120.922 16.914 120.227 19.6589 120.032C21.0824 119.931 22.5364 120.166 23.9434 120.05C25.53 119.918 27.1167 119.196 28.6646 118.846C31.3846 118.232 34.0409 117.879 36.7968 117.41C38.7373 117.08 40.8491 116.522 42.8255 117.009C44.3514 117.386 45.598 118.229 47.2068 118.43C48.9565 118.648 51.2618 118.688 52.8595 117.976C54.6093 117.199 55.4358 116.382 57.52 116.079C60.168 115.692 62.0781 116.58 64.3281 117.776C66.498 118.928 67.5927 120.619 69.4391 122.097C71.6864 123.895 74.0194 125.489 75.9488 127.602C80.3024 132.369 83.0859 138.651 84.5896 144.614C85.3913 147.789 85.1038 151.038 85.9358 154.19C86.6545 156.912 87.7491 159.599 88.1969 162.372C88.7 165.478 87.879 167.486 85.9634 170.034C83.9318 172.74 81.8254 175.299 79.0557 177.426C77.0158 178.993 74.9592 180.287 72.5544 181.357C71.0755 182.016 70.0528 182.495 68.878 183.578C68.1787 184.221 67.4959 185.004 66.5837 185.412C65.5914 185.855 65.8291 185.681 64.7649 185.315C64.8146 186.126 66.838 186.896 67.5291 187.36C69.4336 188.632 71.1419 189.594 72.77 189.924C71.9711 188.445 70.6885 187.033 71.2994 185.499C71.5123 184.97 71.9601 184.203 72.3083 183.71C73.5218 181.997 76.0455 181.257 77.8091 180.084C79.5782 178.906 81.1648 177.449 83.0776 176.495C84.6974 175.689 85.2862 174.53 86.5798 173.399C88.1444 172.032 90.3087 170.859 92.0751 169.707C94.5131 168.116 97.2192 166.827 99.7457 165.333C102.958 163.436 105.537 160.395 109.033 158.925C112.536 157.452 117.237 156.485 121.093 156.271C125.337 156.037 129.43 155.325 131.915 152.037C134.392 148.754 134.641 144.364 136.064 140.709C136.982 138.356 137.905 136.14 138.505 133.684C139.157 131.012 140.072 128.279 141.723 125.958C143.729 123.13 146.546 122.179 149.728 120.785C151.209 120.134 152.661 119.544 154.186 118.985C156.011 118.316 157.597 117.212 159.342 116.385C161.357 115.428 162.932 114.316 165.185 113.758C167.084 113.286 169.132 113.049 171.089 112.875C172.543 112.746 174.064 112.814 175.515 112.632C176.377 112.524 177.306 112.171 178.179 112.187C179.653 112.211 181.491 112.593 182.92 112.875C184.601 113.204 186.798 114.111 188.219 114.949C189.944 115.966 190.881 117.494 191.976 118.93C192.296 119.349 193.355 120.43 193.913 120.696C195.019 121.22 194.682 120.743 195.494 120.385C196.987 119.729 198.441 120.48 198.535 118.456C198.668 115.589 198.375 112.704 198.554 109.837L198.574 109.839ZM123.186 153.167C120.56 154.435 117.644 154.951 114.728 155.267C109.252 155.86 103.629 157.265 98.6428 159.407C96.7576 160.216 94.5075 161.436 95.2787 158.385C96.05 155.331 97.4929 152.841 96.0804 149.742C94.5656 146.416 91.9507 144.213 89.485 141.455C85.4742 136.964 81.596 132.403 77.5327 127.945C70.9428 120.719 65.525 110.901 55.2257 107.613C51.0628 106.285 48.0498 107.531 44.5062 109.133C44.3458 108.941 44.1883 108.748 44.0722 108.54C43.3535 107.246 42.4966 106.097 41.8691 104.743C41.1449 103.173 40.5285 101.544 39.6688 100.029C38.8783 98.6377 38.3171 97.17 37.3718 95.8419C36.4375 94.5296 36.0671 92.9934 35.2765 91.6232C33.8751 89.1963 32.1917 86.4927 31.802 83.7418C31.5311 81.8392 31.7384 79.5283 32.6727 77.8103C34.1598 75.083 35.9814 72.527 36.9931 69.6205C37.2225 68.9644 37.5349 68.4453 37.5791 67.7497C37.6178 67.1278 37.5211 66.4954 37.557 65.8709C37.6261 64.6587 37.9191 63.5125 37.9384 62.2661C37.9523 61.4914 38.2453 60.859 38.342 60.108C38.4194 59.5046 38.3918 59.0804 38.6101 58.469C39.0524 57.22 39.3288 55.9947 39.8623 54.7668C40.9929 52.1713 41.1864 49.3333 42.1068 46.6746C42.3114 46.0896 42.6431 45.7734 42.9333 45.2358C43.2042 44.7352 43.2706 44.1686 43.594 43.6864C44.0611 42.9908 44.5836 42.2266 45.211 41.6416C46.278 40.6456 47.3118 40.2292 48.6718 39.6469C49.2412 39.4018 49.9571 39.3201 50.322 38.8432C51.2066 40.2925 52.0137 41.7681 52.6688 43.3649C53.8768 46.3083 55.8891 50.0843 59.2614 51.3729C61.1521 52.0949 62.6696 52.1765 64.7345 52.166C66.8242 52.1555 68.7204 52.3425 70.777 52.5744C73.2399 52.8537 75.5756 52.5981 78.0053 53.1963C79.7302 53.6205 81.162 53.9183 82.6823 54.7457C83.7742 55.3412 84.8467 55.9051 86.0021 56.3241C87.8403 56.9881 89.8444 56.9486 91.7959 57.4176C93.9934 57.9473 96.4867 59.1937 98.2226 60.4506C100.299 61.9499 101.412 64.029 102.529 66.1818C103.245 67.5599 103.889 68.9644 104.647 70.3267C105.44 71.7497 106.465 72.2266 107.474 73.4308C109.509 75.8551 110.449 79.2385 110.681 82.2082C110.88 84.7536 112.099 87.5389 111.886 90.0922C111.748 91.7602 110.673 93.2016 110.067 94.7431C109.332 96.6087 109.299 98.8116 109.641 100.764C110.465 105.444 114.493 109.397 116.298 113.773C118.169 118.314 119.935 123.025 122.326 127.368C123.374 129.27 123.808 131.455 124.48 133.489C124.974 134.993 125.378 136.653 125.571 138.208C125.923 141.033 125.596 144.045 125.621 146.888C125.643 149.27 125.746 151.931 123.186 153.167Z" fill="url(#paint1_radial_24_1964)"/>
<g style="mix-blend-mode:multiply" opacity="0.5">
<path d="M141.695 126.229C139.843 128.466 138.082 130.756 136.324 133.065C134.79 135.08 132.457 135.916 130.113 134.469C128.372 133.394 127.647 131.665 126.967 129.955C126.276 128.224 125.439 126.477 124.552 124.822C123.941 123.681 120.859 119.573 123.684 118.988C125.793 118.551 128.059 120.435 129.646 121.394C131.075 122.258 132.595 123.228 134.229 123.773C137.087 124.727 141.858 125.779 141.695 126.229Z" fill="#A72752"/>
<path d="M116.046 89.9763C116.621 92.166 116.815 93.2464 115.651 95.0856C115.164 95.8551 114.769 96.527 113.749 96.8089C112.776 97.0777 112.514 96.6008 112.218 95.8788C111.717 94.6587 111.952 93.7892 112.185 92.5639C112.406 91.3965 112.218 90.0527 112.218 88.8616C112.218 87.6706 111.8 85.971 112.201 84.9354C112.561 84.0026 113.207 84.4743 113.749 85.0593C114.877 86.2714 115.341 87.6205 115.28 89.2832L116.046 89.9736V89.9763Z" fill="#A72752"/>
<path d="M110.302 60.6298C109.188 61.639 107.884 62.5823 106.858 63.6416C106.294 64.224 105.191 64.9302 104.959 65.6653C104.467 67.2253 105.446 68.8327 106.836 69.6126C107.958 70.2398 109.398 69.1093 110.012 68.2503C111.366 66.3584 110.465 64.0738 110.302 62.0105V60.6298Z" fill="#A72752"/>
<path d="M123.319 50.6166C121.909 50.44 120.593 50.3583 119.186 50.5797C118.327 50.7141 117.702 50.7562 117 51.3122C116.541 51.6759 116.309 52.0711 116.013 52.5401C115.56 53.2542 114.982 53.8972 114.501 54.5928C114.161 55.0856 113.879 55.61 113.55 56.108C113.401 56.332 113.218 56.5507 113.193 56.8116C113.652 56.8695 114.435 56.0369 114.703 55.8392C115.09 55.5599 115.452 55.2463 115.839 54.9697C116.367 54.5929 116.991 54.4084 117.58 54.1317C119.217 53.3676 122.152 52.5402 123.319 50.6139V50.6166Z" fill="#A72752"/>
<path d="M79.6777 51.8261C80.7337 52.5797 81.7094 53.3307 82.7626 54.0658C83.1993 54.3715 83.6139 54.6719 84.0866 54.9328C84.5897 55.2121 84.9463 55.6021 85.5212 55.7655C86.1957 55.9578 86.8895 56.1423 87.5723 56.274C88.1196 56.3794 88.7609 56.2081 89.2999 56.1054C90.0324 55.9657 89.8721 55.6943 89.4243 55.3807C88.8714 54.9908 88.2495 54.7167 87.6635 54.3742C87.2046 54.1054 86.8121 53.7602 86.345 53.5019C84.5206 52.498 82.4751 52.0237 79.6777 51.8234V51.8261Z" fill="#A72752"/>
<path d="M50.007 37.1541C50.0761 37.805 50.3028 38.2898 49.9434 38.7483C49.703 39.054 49.3491 39.3175 49.0534 39.5784C48.5088 40.0579 47.862 40.527 47.0797 40.6192C46.6679 40.6666 46.2284 40.6693 46.151 40.2424C46.0957 39.9367 46.4495 39.3359 46.5159 39.0619C46.6154 38.6456 46.6513 38.2477 46.842 37.8498C47.0991 37.3149 47.4087 36.8432 47.6326 36.2951C47.7763 35.9446 48.0251 35.191 48.3236 34.8985C49.2358 34.0026 49.8246 35.8445 50.007 36.2925V37.1568V37.1541Z" fill="#A72752"/>
<path d="M42.1594 27.8313C42.4911 28.4664 42.6321 28.9934 43.2457 29.3781C43.641 29.6258 44.0391 29.8629 44.4565 30.0764C45.1696 30.4374 45.8082 30.8985 46.5047 31.2832C47.0686 31.5968 47.9697 32.2687 48.4866 31.6442C48.998 31.0276 48.94 29.9341 48.8211 29.22C48.658 28.2424 48.26 27.3781 47.9504 26.4453C47.7901 25.9604 47.5966 25.7813 47.3174 25.3728C47.0963 25.0461 47.1488 24.859 46.759 24.6745C46.1758 24.3979 45.8109 24.6324 45.3714 25.0145C44.415 25.8471 43.8179 26.9512 42.9251 27.8313H42.1594Z" fill="#A72752"/>
<path d="M42.5409 44.2319C42.1705 45.4308 41.6868 46.5507 41.4877 47.7839C41.3081 48.8933 41.0731 50.0685 40.7 51.1383C40.559 51.5388 40.2826 52.3741 39.7131 51.8445C39.1824 51.3518 39.0857 50.4005 39.0884 49.7707C39.0995 47.5309 39.8707 45.3149 40.8299 43.2648C40.9487 43.0145 41.1284 42.3109 41.5845 42.3135C42.4193 42.3188 42.1622 43.8682 42.5409 44.2292V44.2319Z" fill="#A72752"/>
<path d="M36.7997 62.3557C36.8964 63.025 37.0872 63.5599 37.1922 64.1739C37.2751 64.6508 37.1839 65.191 37.1839 65.6785C37.1839 66.7114 37.1784 67.7444 37.1839 68.7773C37.1867 69.7839 37.1065 70.7167 36.6228 71.6443C36.2082 72.4374 35.3347 72.9776 34.5939 73.4993C33.9581 73.9446 33.8752 73.6653 33.9443 73.0408C34.077 71.8524 34.4501 70.6877 34.6989 69.5204C34.9422 68.39 35.1909 67.2727 35.4646 66.1475C35.7189 65.1093 35.8571 63.9921 36.7997 62.3557Z" fill="#A72752"/>
<path d="M31.8242 79.7918C31.4814 80.7325 31.147 81.6627 31.0668 82.6456C31.0226 83.1937 31.2327 83.913 31.3819 84.4532C31.8325 86.079 32.3881 87.6943 32.9713 89.2859C33.4855 90.6904 34.1019 92.0263 34.815 93.3333C34.9201 93.5283 35.3872 94.0316 34.9007 94.1397C34.652 94.195 34.2069 93.7997 34.0245 93.6811C32.5235 92.7088 30.9092 91.6364 29.7566 90.3162C28.7504 89.162 27.6005 88.2319 27.6033 86.6693C27.6088 84.9486 28.4215 83.1252 29.5244 81.7233C29.7925 81.3834 30.0772 80.9697 30.4808 80.7721C31.1608 80.4374 31.006 80.9802 31.8214 79.7892L31.8242 79.7918Z" fill="#A72752"/>
<path d="M40.0532 104.132C40.2384 104.743 40.5175 105.412 40.6198 106.047C40.7249 106.693 40.5424 107.481 40.3959 108.116C40.2743 108.646 39.9868 109.133 39.8873 109.668C39.8154 110.068 39.8597 110.482 39.8569 110.883C39.8486 112.005 39.9371 113.199 40.9432 113.987C41.8941 114.73 43.0164 115.199 44.1718 115.613C45.6589 116.145 47.381 116.58 49.0008 116.398C50.1065 116.274 51.0325 115.404 51.8065 114.754C52.6026 114.084 53.8078 112.954 53.8547 111.902C53.8879 111.122 53.6889 110.055 53.0863 109.465C52.5196 108.909 51.3697 108.498 50.5792 108.353C49.8577 108.219 49.0644 108.256 48.3236 108.271C47.7431 108.285 47.2815 108.485 46.7397 108.667C45.8552 108.967 44.9375 109.109 44.064 108.59C43.5194 108.266 43.0799 107.544 42.7234 107.059C42.4773 106.722 41.778 105.805 40.0476 104.134L40.0532 104.132Z" fill="#A72752"/>
<path d="M60.9172 111.729C60.5717 112.466 60.0963 112.959 60.5192 113.66C60.8343 114.184 61.2019 114.688 61.6802 115.104C62.667 115.966 63.7422 116.719 64.7042 117.605C65.984 118.78 67.2887 120.14 69.1186 120.516C69.2927 119.866 68.8394 119.383 68.5326 118.827C67.894 117.668 67.1615 116.638 66.3129 115.597C65.8071 114.972 65.2321 114.495 64.5991 113.974C64.3061 113.731 64.0297 113.481 63.7422 113.233C63.3304 112.877 62.9323 112.809 60.9145 111.731L60.9172 111.729Z" fill="#A72752"/>
<path d="M87.7161 141.075C88.2413 141.652 88.6642 142.158 89.0456 142.809C89.6178 143.784 89.9081 144.854 90.2978 145.897C91.1188 148.092 91.7324 150.343 92.5036 152.551C92.6861 153.07 92.9901 155.204 94.0433 154.891C94.5519 154.74 94.9223 153.966 95.0882 153.568C95.4226 152.764 95.5802 152.119 95.5719 151.252C95.5608 149.916 94.7067 148.656 94.0322 147.502C93.3937 146.414 92.5921 145.563 91.5859 144.748C91.0607 144.324 90.7235 143.76 90.2011 143.333C89.7671 142.978 89.3801 142.53 87.7161 141.075Z" fill="#A72752"/>
<path d="M88.291 145.736C88.9544 148.3 89.5957 150.885 90.2093 153.46C90.4388 154.424 90.5991 155.407 90.5935 156.395C90.588 157.231 90.6958 158.121 90.2093 158.877C89.3469 160.219 87.9316 158.377 87.5115 157.636C86.7458 156.287 86.3339 155.004 86.1847 153.499C86.0437 152.082 85.7175 150.675 85.5157 149.26C85.3333 147.971 85.2006 146.627 84.8966 145.365C84.692 144.514 84.5427 143.65 84.4405 142.785C84.3244 141.821 84.0369 140.975 83.6858 140.063C83.4675 139.491 83.2242 138.893 83.0694 138.308C82.9589 137.895 82.5442 137.191 82.7792 136.772C83.2989 136.92 83.9706 137.794 84.2332 138.174C84.8247 139.025 85.2642 140.003 85.7065 140.922C86.1045 141.747 86.2897 142.577 86.8011 143.357C87.423 144.306 88.0007 145.304 88.2882 145.734L88.291 145.736Z" fill="#A72752"/>
<path d="M94.7979 160.063C94.9168 159.918 93.9465 160.959 93.8691 161.151C93.8166 161.281 93.8802 161.412 93.847 161.536C93.7752 161.802 93.5706 162.182 93.4213 162.445C93.1007 163.004 92.4124 163.594 91.9314 164.04C91.1409 164.767 90.3503 165.468 89.9882 166.466C89.8638 166.809 89.8611 167.146 89.7975 167.499C89.7505 167.765 89.5985 168.053 89.662 168.327C89.7533 168.73 90.1513 168.983 90.5825 169.038C91.1077 169.107 92.0669 168.719 92.5423 168.503C93.46 168.087 94.2202 167.394 95.0024 166.809C95.4779 166.453 95.9865 166.174 96.52 165.897C96.9733 165.66 97.2884 165.31 97.7169 165.065C98.2144 164.78 98.7922 164.564 99.3063 164.29C100.249 163.789 101.067 163.125 101.968 162.572C102.905 161.997 103.676 161.431 104.52 160.748C105.376 160.058 106.159 159.27 107.06 158.635C107.579 158.269 108.094 157.858 108.597 157.47C108.823 157.296 109.241 157.075 109.329 156.827C109.067 156.79 108.857 156.653 108.605 156.603C108.229 156.53 107.69 156.672 107.311 156.735C105.578 157.017 103.983 157.723 102.267 158.071C101.086 158.311 99.9531 158.693 98.8391 159.123C97.4709 159.647 96.1136 159.992 94.8007 160.071L94.7979 160.063Z" fill="#A72752"/>
<path d="M114.131 155.057C113.857 155.157 110.568 156.229 110.711 156.743C110.78 156.996 111.275 156.975 111.469 156.964C112.265 156.914 113.166 156.822 113.945 156.659C114.722 156.495 115.529 156.414 116.298 156.227C116.696 156.129 117.34 155.981 117.591 155.681C118.421 154.696 115.128 155.215 114.896 155.228L114.131 155.054V155.057Z" fill="#A72752"/>
<path d="M130.785 146.772C129.831 147.391 129.104 147.842 128.499 148.743C127.951 149.557 127.36 150.524 127.067 151.441C126.796 152.295 126.912 153.494 128.214 153.067C129.497 152.646 130.334 151.918 131.025 150.872C131.374 150.345 131.68 149.937 131.747 149.32C131.783 148.983 131.857 148.709 131.802 148.385C131.727 147.937 131.581 147.592 130.782 146.772H130.785Z" fill="#A72752"/>
<path d="M154.902 116.216C154.322 116.485 153.763 116.775 153.128 116.922C152.697 117.02 152.404 117.086 151.992 117.283C151.185 117.671 150.435 118.04 149.717 118.551C149.377 118.791 147.917 119.929 148.959 120.195C150.001 120.461 151.143 119.826 151.978 119.375C153.343 118.638 154.549 117.734 155.477 116.561L154.902 116.216Z" fill="#A72752"/>
<path d="M167.535 111.9C169.597 111.149 171.615 110.495 173.873 110.514C174.777 110.522 176.375 110.361 177.002 111.138C177.475 111.723 175.938 112.008 175.581 112.076C173.417 112.49 171.266 112.59 167.532 111.9H167.535Z" fill="#A72752"/>
<path d="M152.605 32.8379C152.318 33.4782 151.989 34.1027 151.793 34.7667C151.607 35.3913 151.403 35.9525 151.085 36.5401C150.355 37.8866 149.683 39.2542 148.968 40.6086C148.688 41.1383 148.177 42.1712 148.655 42.7325C149.156 43.3201 150.176 42.9802 150.745 42.6508C152.669 41.5467 153.313 39.2358 153.614 37.3517C153.774 36.3609 153.769 35.3728 153.752 34.3715C153.741 33.6943 153.407 33.2806 152.6 32.8379H152.605Z" fill="#A72752"/>
<path d="M149.352 23.1699C149.791 24.9802 149.965 26.7747 150.504 28.5797C150.632 29.0039 150.828 30.9117 151.845 30.5691C152.73 30.2714 152.503 28.1001 152.395 27.5283C152.174 26.3425 151.14 24.8168 149.352 23.1699Z" fill="#A72752"/>
<path d="M197.971 112.245C197.297 113.02 196.641 113.823 195.854 114.508C195.024 115.228 193.866 115.794 193.36 116.769C193.051 117.37 192.799 118.061 193.167 118.677C193.518 119.262 194.297 119.649 195.008 119.676C196.426 119.729 197.468 118.585 197.974 117.491C198.734 115.844 198.543 113.984 197.968 112.245H197.971Z" fill="#A72752"/>
<path d="M29.7179 116.735C28.2943 117.786 26.3207 119.302 24.3664 119.333C23.9766 119.339 23.5399 119.375 23.1612 119.299C22.741 119.217 22.4342 118.949 22.0224 118.841C20.9803 118.566 19.8027 118.408 18.7219 118.445C17.8899 118.474 17.1297 118.656 16.3171 118.812C15.5265 118.964 14.7277 118.993 13.9399 119.154C13.0636 119.333 12.2454 119.407 11.3719 119.154C10.7887 118.985 10.9601 118.714 11.3498 118.39C12.2648 117.634 13.4727 117.017 14.5867 116.556C15.7255 116.084 16.8119 115.813 18.0475 115.673C18.5035 115.62 18.9403 115.531 19.3991 115.515C19.9713 115.499 20.5297 115.56 21.1019 115.483C21.6215 115.412 22.0832 115.365 22.6139 115.357C23.2856 115.349 23.9048 115.162 24.5571 115.041C25.6683 114.835 26.8735 114.83 27.9488 114.493C28.966 114.174 29.997 113.921 31.0143 113.618C31.5422 113.46 32.5733 113.175 33.1233 113.307C33.9664 113.51 33.3693 114.232 32.963 114.611C32.2692 115.259 31.2492 115.623 30.4255 116.119C29.657 116.582 28.9218 117.091 29.7123 116.727L29.7179 116.735Z" fill="#A72752"/>
<path d="M36.609 113.8C35.6056 114.227 34.1461 114.761 33.5822 115.742C33.2505 116.316 33.4329 116.701 34.2152 116.722C35.0389 116.746 36.186 115.929 36.7582 115.397C37.2945 114.901 37.6704 114.308 37.1811 113.628L36.6062 113.802L36.609 113.8Z" fill="#A72752"/>
<path d="M8.46952 121.223C7.47441 122.108 6.68938 123.065 5.59477 123.868C4.65218 124.561 3.65154 125.141 2.52099 125.544C2.12847 125.684 1.501 125.829 1.21906 125.381C0.887355 124.854 1.88246 123.736 2.18652 123.328C2.52099 122.877 2.9909 122.601 3.44976 122.261C3.86162 121.955 4.20162 121.586 4.59137 121.259C5.16079 120.783 5.71915 120.461 6.41573 120.19C6.76125 120.055 7.20905 119.723 7.61539 119.85C8.11847 120.005 8.09635 120.677 8.46952 121.225V121.223Z" fill="#A72752"/>
<path d="M71.4459 186.648C71.3409 185.881 71.0783 185.27 71.4321 184.59C71.6422 184.187 71.8937 183.771 72.1978 183.418C73.0077 182.472 74.1244 181.763 75.0836 180.951C75.9875 180.184 77.0517 179.597 78.0081 178.891C78.4504 178.564 78.8208 178.174 79.2603 177.842C79.4787 177.676 79.9044 177.289 79.8546 177.001C79.3985 176.833 78.8512 177.457 78.5582 177.657C77.635 178.287 76.7283 178.949 75.7387 179.486C74.7989 179.997 73.8674 180.53 72.9275 181.043C72.0928 181.499 71.1529 181.837 70.3762 182.382C69.4613 183.025 68.491 183.947 68.5546 185.107C68.5795 185.56 68.9665 186.158 69.3783 186.356C69.9865 186.648 70.4536 186.606 71.4487 186.651L71.4459 186.648Z" fill="#A72752"/>
</g>
<path style="mix-blend-mode:multiply" opacity="0.8" d="M7.14547 46.4822C7.07084 46.4954 6.97962 46.5244 6.90222 46.5376C8.94772 44.3373 11.4189 42.4374 14.266 40.9486L32.9657 31.2174C32.3742 31.8999 31.451 32.4611 30.6632 32.9381C29.5713 33.5679 28.4961 34.1265 27.4042 34.7273C25.7374 35.6575 24.7837 37.5152 23.7831 38.9644C21.9947 41.5758 19.0564 43.2701 15.767 44.1028C14.6005 44.39 13.4644 44.8669 12.2813 45.0593C11.3885 45.2095 10.6588 45.3334 9.79633 45.6074C8.8565 45.921 8.02448 46.2503 7.14547 46.4822Z" fill="url(#paint2_radial_24_1964)"/>
<path style="mix-blend-mode:multiply" opacity="0.8" d="M39.1934 169.383C40.816 170.559 42.5436 171.829 44.3763 172.854C43.4834 172.909 42.7703 173.18 41.9217 173.455L14.266 159.051C5.77993 154.638 0.552856 146.48 0.552856 137.636V121.304C2.58453 120.962 4.58304 118.748 5.43165 117.286C6.71976 115.059 7.00723 111.642 6.08399 109.291C5.27962 107.202 3.64322 105.916 2.14503 104.261C1.41805 103.455 0.901144 102.54 0.552856 101.555V62.3583C0.552856 57.9315 1.85479 53.6811 4.23475 49.9894C4.20435 50.4005 4.16012 50.7958 4.0689 51.1225C3.75102 52.3662 3.59899 53.5968 3.2203 54.8274C2.06763 58.5586 1.0974 62.0843 1.76633 65.9921C2.25007 68.78 2.31088 71.5415 2.62876 74.3557C2.94664 77.0487 3.67362 80 3.50777 82.7062C3.43314 84.0606 2.94664 85.1383 2.34129 86.3267C1.81056 87.4071 1.96259 88.5533 1.96259 89.7154C1.96259 93.4045 2.73656 96.9855 2.73656 100.675C2.72274 101.673 2.37169 103.325 3.10144 104.132C3.49672 104.556 4.2541 104.925 4.82905 105.362C8.57176 108.177 10.6173 113.275 6.96577 116.925C5.76888 118.113 4.61621 119.014 3.69297 120.356C3.22306 121.025 2.41868 121.968 2.31364 122.775C2.16161 124.087 3.63216 125.494 4.26792 126.561C4.84288 127.531 5.451 128.229 6.25261 129.036C6.32724 129.104 6.40464 129.173 6.47927 129.254C7.19243 129.937 7.87242 130.785 8.22071 131.673C8.40315 132.124 8.50819 132.617 8.55518 133.123C8.54136 133.136 8.55518 133.136 8.55518 133.136C8.6768 134.406 8.43355 135.773 8.17648 136.922C7.7508 138.767 8.2373 140.366 8.85924 142.087C10.526 146.817 13.7988 150.382 17.6632 153.839C18.6942 154.769 19.7253 155.671 20.5573 156.764C20.983 157.31 21.2234 157.953 21.663 158.472C22.6774 159.66 23.6338 160.603 25.027 161.436C26.9204 162.556 28.9521 163.744 31.028 164.538C34.0742 165.7 36.62 167.518 39.1962 169.375L39.1934 169.383Z" fill="url(#paint3_radial_24_1964)"/>
<path style="mix-blend-mode:multiply" opacity="0.8" d="M199.961 65.6284V69.0724C199.704 70.7114 199.309 72.3926 198.203 73.5415C198.203 73.5546 198.19 73.5678 198.173 73.5836C197.46 74.3083 196.432 75.0461 195.702 75.8788C196.354 74.8274 197.338 74.1423 198.234 73.1172C198.264 73.0751 198.295 73.0487 198.308 73.0066C198.308 73.0066 198.308 72.9934 198.322 72.9934C199.536 71.4914 199.337 69.6442 199.475 67.8814C199.519 67.3755 199.58 66.2687 199.959 65.6258L199.961 65.6284Z" fill="url(#paint4_radial_24_1964)"/>
<path style="mix-blend-mode:multiply" opacity="0.8" d="M199.809 86.498C199.87 86.4164 199.914 86.3478 199.961 86.2662V137.639C199.961 146.482 194.734 154.64 186.248 159.054L138.348 183.995L121.45 192.796L113.965 196.69C105.492 201.104 95.0383 201.104 86.5522 196.69L60.4279 183.094C60.4279 183.08 60.4141 183.08 60.4141 183.08C59.6705 182.274 59.1564 181.481 58.551 180.43C58.4598 180.279 58.3686 180.129 58.2469 179.979C58.1419 179.91 58.0507 179.855 57.9429 179.802C58.0341 179.845 58.1253 179.884 58.2165 179.926C59.383 180.39 60.5495 180.856 61.6856 181.389C62.9129 181.963 64.2452 182.264 65.3537 183.015C65.7628 183.289 66.158 183.494 66.5063 183.779C66.6722 183.929 66.8408 184.092 66.9762 184.311C67.3107 184.843 67.5678 185.431 67.9161 185.966C68.4606 186.827 69.2788 187.318 70.3872 187.347C72.0402 187.402 73.2979 187.578 74.8873 188.029C78.9175 189.204 83.1606 189.668 87.2985 190.585C93.6175 191.979 100.285 191.829 106.756 191.829C109.376 191.829 112.074 192.034 114.62 191.568C115.438 191.418 116.287 191.623 117.091 191.431C118.105 191.199 119.41 190.474 120.35 190.037C123.609 188.506 126.835 186.962 130.033 185.349C132.883 183.929 135.398 182.082 138.079 180.456C142.427 177.818 146.944 175.207 151.853 173.555C153.05 173.144 154.02 172.393 155.173 171.887C156.083 171.505 156.945 171.257 157.81 170.78C159.098 170.069 160.265 169.318 161.614 168.704C163.855 167.652 165.826 166.271 167.828 164.904C168.48 164.453 169.116 163.974 169.721 163.455L169.735 163.441C172.811 160.914 175.509 157.879 179.205 156.171C182.055 154.859 184.963 153.52 187.826 152.809C188.54 152.632 188.479 152.698 189.07 152.372C189.358 152.208 189.676 152.098 189.963 151.934C191.555 151.059 192.114 149.721 192.979 148.327C193.828 146.959 194.872 145.976 194.919 144.364C194.933 143.831 194.906 143.312 194.889 142.777C194.898 142.769 194.898 142.76 194.889 142.751V142.738C194.889 142.408 194.889 142.082 194.903 141.768C194.964 140.812 195.434 140.018 195.298 138.993C195.223 138.298 194.845 137.71 194.571 137.08C193.692 134.988 193.344 132.229 194.118 130.166C194.27 129.742 194.223 129.386 194.527 128.991C194.814 128.622 195.027 128.567 195.481 128.308C196.404 127.816 197.374 127.391 197.982 126.588C198.831 125.426 198.618 124.688 198.726 123.349C198.77 122.775 199.06 122.282 199.151 121.723C199.334 120.522 199.348 119.141 199.516 117.953C199.046 116.983 198.728 112.785 198.742 108.672C198.756 105.228 198.576 101.715 198.09 98.2846C198.029 97.8893 197.985 97.4651 197.924 97.054V96.9987C197.819 96.1107 197.711 95.2227 197.515 94.3874C197.333 93.4994 196.94 92.6667 196.741 91.7629C195.937 88.1002 195.649 84.4111 195.196 80.7062C195.091 79.9552 194.983 79.2701 194.983 78.5745C195.24 79.3386 195.937 80.1318 196.257 80.9117C196.575 81.6496 196.802 82.3742 197.211 83.0857C197.393 83.3861 197.65 84.1107 197.985 84.809C198.455 85.7392 199.06 86.6403 199.818 86.5033L199.809 86.498Z" fill="url(#paint5_radial_24_1964)"/>
<g style="mix-blend-mode:multiply">
<path d="M166.578 167.315C167.648 165.997 169.058 164.477 170.006 163.041C170.595 162.148 170.437 161.233 170.246 160.248C169.807 157.958 168.925 155.199 167.678 153.167C166.1 150.595 164.16 148.195 162.888 145.478C160.168 139.663 162.233 133.207 167.477 129.157C169.5 127.594 171.662 126.387 174.379 126.227C177.403 126.047 181.057 127.028 183.633 128.411C190.005 131.831 194.447 138.066 195.24 144.74C195.425 146.306 195.674 148.445 194.77 149.866C194.231 150.711 193.41 151.144 192.581 151.765C191.318 152.714 189.944 153.478 188.783 154.532C187.663 155.549 186.682 156.73 185.466 157.65C181.375 160.746 177.226 162.978 171.935 163.863L166.575 167.315H166.578Z" fill="#EABEB0"/>
<path d="M137.101 136.588C136.996 139.291 136.18 141.671 135.744 144.34C135.42 146.316 135.426 148.54 135.603 150.53C136.064 155.655 137.9 161.099 135.594 166.066C134.624 168.158 132.532 168.29 130.265 168.374C127.111 168.493 123.819 167.953 120.881 166.899C117.555 165.71 114.108 162.883 115.068 159.32C115.734 156.854 117.948 155.291 120.64 154.875C122.943 154.519 125.151 154.35 127.166 153.146C129.121 151.979 130.718 150.416 131.827 148.53C132.946 146.624 133.679 144.914 134.124 142.798C134.635 140.382 135.697 138.422 137.101 136.585V136.588Z" fill="#EABEB0"/>
<path d="M111.834 82.3821C111.842 84.9381 111.883 88.5033 109.727 90.5112C109.105 91.0909 108.453 91.8182 107.657 92.195C106.004 92.9776 103.519 93.0356 101.689 93.2701C99.7734 93.5151 97.8136 93.552 95.8842 93.7286C93.4047 93.9552 91.0054 94.3057 88.548 94.7246C87.3152 94.9354 85.7202 94.996 84.6256 95.5731C83.683 96.0685 83.3541 97.0856 82.9726 97.9473C82.0577 99.9974 82.3617 102.308 82.3645 104.474C82.3673 108.35 80.0232 112.063 81.1814 115.947C82.2235 119.444 83.672 122.224 82.6824 125.895C82.2595 127.462 81.2312 128.751 80.905 130.379C80.6701 131.552 80.7088 132.822 81.2865 133.9C81.7674 134.796 82.4474 135.536 83.1136 136.321C84.0451 137.418 84.8053 138.648 85.7921 139.697C88.2992 142.361 89.7698 145.536 91.5416 148.601C92.2658 149.855 93.2886 152.472 95.37 151.726C95.9146 151.531 96.9428 150.466 97.3022 150.053C97.8329 149.441 98.2005 148.622 98.5267 147.902C99.168 146.49 99.4582 145.152 100.348 143.837C100.896 143.028 101.573 142.711 102.272 142.042C102.795 141.541 103.093 140.938 103.687 140.461C104.296 139.971 104.904 139.61 105.426 139.022C107.281 136.933 108.87 134.079 108.326 131.341C107.908 129.254 106.745 127.8 105.407 126.142C103.624 123.937 102.101 121.449 100.442 119.152C99.5771 117.95 98.6041 116.827 97.7251 115.639C96.7521 114.324 96.437 113.009 96.1025 111.47C95.5469 108.917 95.4281 106.35 97.2497 104.179C98.524 102.661 101.407 101.283 103.519 101.323C105.233 101.354 106.841 102.066 108.486 102.345C111.657 102.883 111.524 99.3676 111.914 97.5837C112.234 96.1107 112.027 94.6667 112.298 93.1963C112.729 90.8564 112.364 88.5007 111.831 82.3847L111.834 82.3821Z" fill="#EABEB0"/>
<path d="M61.6828 116.906C58.363 116.076 55.4164 115.494 53.1747 118.266C51.5493 120.274 50.264 122.487 48.5972 124.485C45.9795 127.623 42.9527 130.026 39.1962 132.034C37.018 133.199 34.8785 134.25 32.3161 134.477C30.442 134.643 28.5292 134.519 26.6495 134.506C22.166 134.474 17.6576 135.51 13.1907 135.152C11.3967 135.007 10.0229 134.688 8.81499 133.428C8.06589 132.648 7.44672 131.773 6.89941 130.872C5.50626 128.569 6.33828 125.758 7.51029 123.452C8.24833 122 9.86814 120.788 11.5156 120.203C12.5107 119.85 13.6302 119.821 14.6695 119.605C15.9853 119.328 17.2623 118.92 18.5781 118.632C21.2124 118.058 23.819 117.273 26.4699 116.767C29.0958 116.266 31.7273 115.834 34.3174 115.188C35.47 114.901 36.5564 114.432 37.7339 114.216C38.9529 113.992 40.1885 113.884 41.4048 113.631C43.102 113.278 45.059 112.772 46.7949 112.743C48.4396 112.714 50.0788 113.518 51.6903 113.763C52.4947 113.884 53.2299 114.034 53.9569 114.403C54.742 114.801 54.9548 115.257 55.5546 115.876L61.6801 116.912L61.6828 116.906Z" fill="#EABEB0"/>
<path d="M34.5025 73.4045C35.1797 71.942 35.481 71.2227 35.7326 69.9078C35.8929 69.0672 35.9758 68.2451 36.1085 67.3966C36.4844 65.0224 37.0124 62.6193 37.4796 60.2662C38.0739 57.2596 37.1672 54.2266 37.181 51.2358C37.1865 49.7681 37.3386 47.3834 35.8487 46.3505C35.0996 45.8314 33.5986 45.7997 32.6616 45.755C29.8808 45.6232 27.1111 46.1423 24.3248 46.1318C22.2986 46.1239 19.9076 46.5613 19.0673 44.5007C18.2657 42.5297 19.8468 40.1713 21.2897 38.7009C22.4341 37.5336 23.4485 36.8327 25.0158 36.1897C26.7296 35.4862 28.5208 35.1858 30.1019 34.2187C33.3554 32.2293 36.6503 30.2582 40.7302 30.2477C43.851 30.2398 46.6981 32.1423 47.4389 34.9776C48 37.1304 46.4632 39.6337 45.305 41.4229C44.3513 42.8959 43.019 44.1924 42.1372 45.697C39.9811 49.3808 39.4781 53.7022 39.4781 57.7892C39.4781 59.8235 39.7655 62.0422 39.4587 64.0501C39.373 64.6061 39.1187 65.0988 38.9584 65.639C38.682 66.5771 38.6405 67.5468 38.2729 68.4717C37.4353 70.5771 36.5066 72.6799 34.4998 73.4045H34.5025Z" fill="#EABEB0"/>
<path d="M67.0426 40.606C66.686 43.2016 66.1249 45.3807 67.7944 47.6311C69.0356 49.307 71.1944 50.0606 73.3339 50.3662C76.2059 50.7747 79.3017 50.7141 82.0936 51.386C84.1004 51.8682 85.8169 52.5823 87.6634 51.1699C89.1782 50.0105 89.977 47.9077 90.3226 46.166C90.8782 43.3807 88.9571 40.2898 86.9834 38.2424C84.2939 35.4572 80.319 34.4532 76.3828 34.0948C74.9012 33.9604 73.6379 34.0553 72.2227 34.5481C69.2401 35.5889 68.104 38.0948 67.0426 40.606Z" fill="#EABEB0"/>
<path d="M94.2229 35.7708C93.1116 38.2135 91.4117 40.8143 94.502 42.7062C95.9753 43.6074 97.6726 43.6891 98.98 42.4796C100.077 41.4677 100.97 40.0738 100.757 38.6245C100.481 36.751 98.7865 34.8327 96.5227 35.0804L94.2256 35.7708H94.2229Z" fill="#EABEB0"/>
<path d="M155.093 33.3544C154.828 34.4111 154.712 35.4756 154.742 36.5481C155.709 36.8169 156.763 38.282 157.373 38.9486C158.778 40.4743 160.345 41.7207 161.608 43.3623C163.134 45.3413 164.201 47.0567 164.591 49.4809C164.994 51.9868 165.188 54.282 164.292 56.7115C163.673 58.3953 162.468 60.0369 161.1 61.3149C159.853 62.4796 158.084 63.5046 156.638 64.4532C155.599 65.1331 154.571 65.7286 153.399 66.2108C150.217 67.5204 147.113 67.4098 143.975 66.1397C140.426 64.7062 138.533 62.1871 136.363 59.4282C134.804 57.4467 131.293 55.2411 133.093 52.6166C134.879 50.0132 137.574 48.9592 140.142 47.1278C141.604 46.0843 142.737 44.7326 144.227 43.7023C145.67 42.7036 146.905 41.6891 148.249 40.6008C149.277 39.7681 150.176 38.9776 151.088 38.0448C151.516 37.6074 152.517 36.0448 155.093 33.3544Z" fill="#EABEB0"/>
<path d="M198.4 58.332C198.4 58.6456 198.386 58.975 198.369 59.3017C197.916 58.2767 197.476 56.8827 197.203 54.7642C197.673 55.913 198.369 57.1014 198.4 58.332Z" fill="#EABEB0"/>
<path d="M199.961 64.166C199.87 64.9723 199.674 65.7918 199.552 66.5033C199.295 68.0079 198.991 69.4835 198.734 70.9723C198.612 71.6548 198.46 72.3241 198.325 72.996C198.311 72.996 198.311 73.0092 198.311 73.0092C198.281 73.1858 198.236 73.3649 198.206 73.5415C198.206 73.5547 198.192 73.5678 198.176 73.5836C197.463 74.3083 196.434 75.0461 195.705 75.8788C195.691 75.8919 195.691 75.9051 195.674 75.9209C195.508 76.1818 195.37 76.4822 195.248 76.8221C195.036 77.4229 194.961 77.9973 194.975 78.5718C195.232 79.3359 195.928 80.1291 196.249 80.9091C196.567 81.6469 196.794 82.3715 197.203 83.083C197.385 83.3834 197.642 84.108 197.977 84.8063V86.7325C197.977 89.6574 197.963 92.5823 197.977 95.5072C197.977 96 197.963 96.5059 197.916 96.996V97.0514C197.811 98.7325 197.551 100.401 197.581 102.082C197.612 105.033 197.825 108.34 196.219 111.059C195.356 112.522 193.808 113.971 192.02 113.123C190.126 112.234 188.852 110.841 187.807 109.186C186.428 106.985 184.988 104.854 183.429 102.748C181.458 100.097 179.777 97.4045 178.533 94.3979C177.245 91.2964 176.018 88.3583 176.911 84.996C177.834 81.5257 180.319 78.9565 183.412 76.8221C186.201 74.8959 189.579 74.0342 192.429 72.2161C194.278 71.054 195.536 69.8103 196.277 67.8709C196.838 66.3821 197.504 64.9196 197.761 63.3597C197.988 62.0738 198.275 60.6403 198.366 59.3017C198.958 60.6403 199.563 61.3096 199.82 62.1027C199.881 62.2951 199.925 62.5138 199.956 62.7167C200.017 63.1805 200 63.6732 199.956 64.166H199.961Z" fill="#EABEB0"/>
<path d="M63.9798 116.561C63.2169 115.958 62.3683 115.686 61.434 115.752C61.3068 116.685 60.7872 117.505 60.5937 118.422C60.2647 119.968 60.6351 121.871 61.0746 123.373C61.633 125.283 62.6751 127.086 63.4878 128.912C64.3336 130.817 65.4973 132.44 66.943 134.026C68.6568 135.908 71.5896 137.852 74.4036 137.997C76.1726 138.09 78.9506 137.618 79.5035 135.91C80.8939 131.636 77.3142 127.673 74.5279 124.659C73.3587 123.391 72.3111 122.034 71.0451 120.835C69.1433 119.033 66.1884 118.503 63.9826 116.561H63.9798Z" fill="#EABEB0"/>
<path d="M32.2056 84.4532C32.7584 82.4295 33.2477 78.751 36.4209 78.9249C40.0476 79.1225 42.6155 82.6561 42.9223 85.6416C43.0688 87.0751 43.0025 88.6219 42.9361 90.0632C42.8947 91.0119 42.6652 91.8524 41.8388 92.4928C40.6778 93.3913 39.3897 93.6364 37.9551 93.1621C35.1605 92.2345 34.0659 89.5863 33.3527 87.2148L32.2056 84.4532Z" fill="#EABEB0"/>
<path d="M90.7179 168.796C89.8555 170.079 88.7028 171.296 87.7326 172.514C86.7181 173.784 85.3084 174.646 83.9595 175.631C81.9748 177.067 79.5644 177.42 77.3973 178.543C75.8825 179.307 74.3816 180.155 73.0022 181.099C71.0618 182.424 69.3037 184.419 66.6529 183.818C66.6087 183.805 66.5478 183.792 66.5009 183.776C64.1983 183.215 62.0312 182.137 59.9691 180.946C59.3941 180.619 58.8164 180.29 58.2415 179.976C58.1364 179.908 58.0452 179.852 57.9374 179.8C58.0286 179.842 58.1198 179.881 58.2111 179.924C56.5747 177.341 53.9376 175.278 51.0739 173.855C50.3304 173.486 49.5426 173.254 48.7548 173.104C48.6497 172.777 48.6193 172.448 48.694 172.174C48.9676 171.217 50.3469 170.63 51.3448 170.437C52.2681 170.261 53.1471 170.643 54.0565 170.738C55.0709 170.833 56.0578 170.833 57.0722 171.012C59.4522 171.462 61.998 171.831 64.4222 171.818C68.0433 171.776 71.5151 171.776 75.045 170.957C77.682 170.343 79.5312 169.468 81.198 167.499C83.73 164.535 83.8655 161.375 84.3658 157.823C84.8661 154.353 84.3962 151.086 84.2746 147.642C86.6684 145.715 87.0332 146.329 87.7298 147.123C88.8659 148.408 89.7311 149.159 90.2314 150.759C90.7455 152.372 90.9446 154.108 91.3067 155.747C91.702 157.523 91.9424 159.233 91.9286 161.036C91.9148 163.631 92.2935 166.461 90.7151 168.798L90.7179 168.796Z" fill="#EABEB0"/>
<path d="M114.515 102.061C115.231 102.983 115.919 103.921 116.577 104.875C117.038 105.007 117.467 105.202 117.865 105.462C119.803 106.485 121.776 107.412 123.755 108.369C128.532 110.675 134.469 111.241 139.793 111.66C145.156 112.082 150.576 112.24 155.922 112.833C157.719 113.033 159.281 113.404 160.909 114.084C161.288 114.242 161.542 114.171 161.832 114.49C161.514 114.833 161.213 114.685 160.848 114.893C160.248 115.236 159.85 115.644 159.223 115.955C157.567 116.775 155.759 117.386 153.968 117.934C150.692 118.933 147.262 120.369 144.382 122.084C142.911 122.959 141.258 123.539 139.854 124.501C138.884 125.165 137.963 125.823 136.927 126.406C135.376 127.275 133.599 128.385 131.785 127.655C129.013 126.54 127.385 124.066 125.641 121.966C123.266 119.107 120.253 116.582 118.321 113.444C117.403 111.953 116.135 110.435 115.615 108.777C115.043 106.957 115.267 104.962 114.52 102.061H114.515Z" fill="#EABEB0"/>
<path d="M123.703 50.6166C122.6 50.3083 121.403 50.253 120.745 49.444C120.203 48.78 120.203 47.7365 120.223 46.975C120.267 45.0804 121.013 43.4124 121.428 41.581C121.912 39.4466 122.02 37.2833 122.556 35.1515C123.374 31.8946 124.399 28.0316 123.346 24.7352C122.304 21.4756 121.174 18.7721 117.987 16.7694C114.711 14.7115 110.554 13.3808 106.529 13.6285C103.475 13.8155 101.122 16.1449 101.067 18.917C100.998 22.3557 103.698 25.9447 106.059 28.4348C108.715 31.2411 111.95 33.4993 114.857 36.0632C116.032 37.0988 117.309 38.1159 117.6 39.6443C117.823 40.8142 117.445 41.9657 116.92 43.0119C116.621 43.6047 116.339 44.2451 115.991 44.809C115.314 45.9025 114.26 46.6324 113.368 47.581C110.872 50.2345 109.053 52.8854 107.994 56.2451C107.552 57.6522 107.228 58.8722 107.237 60.3346C107.242 61.0224 107.085 61.4387 107.618 61.942C108.635 62.9012 109.702 61.9842 110.595 61.3281C112.298 60.079 113.542 58.5323 114.987 57.0751C116.947 55.0988 119.921 54.888 123.706 50.6192L123.703 50.6166Z" fill="#EABEB0"/>
</g>
<g style="mix-blend-mode:soft-light" opacity="0.2">
<path d="M153.18 67.5362C150.087 68.3083 148.536 68.4427 145.51 67.365C143.448 66.6324 140.457 65.776 139.191 64.058C138.024 62.4743 137.112 60.6957 135.879 59.1753C135.053 58.1555 134.461 57.1858 133.206 56.5507C131.94 55.9104 130.414 55.3571 128.985 55.1621C125.853 54.7326 123.128 55.5916 120.253 56.4743C118.976 56.8669 118.691 57.3518 117.868 58.2293C116.986 59.17 116.162 59.6944 115.466 60.7932C114.559 62.2214 113.904 63.9315 113.174 65.4598C112.234 67.4282 111.676 69.1463 111.817 71.3096C111.977 73.8024 113.014 76.1555 113.926 78.477C115.101 81.4677 116.837 84.2451 118.537 87.0198C119.772 89.0356 121.033 91.1146 121.058 93.502C121.085 95.8366 119.736 97.9947 120.496 100.337C121.163 102.385 124.134 103.916 126.177 104.64C127.487 105.107 128.88 105.191 130.237 105.515C131.503 105.818 132.783 106.163 134.071 106.387C136.194 106.756 138.312 107.123 140.443 107.502C142.9 107.939 145.211 108.414 147.738 108.295C155.632 107.921 158.745 99.4229 159.419 93.4572C160.033 88.029 159.709 82.3926 157.877 77.1752C157.183 75.1963 156.387 73.2517 155.571 71.3096C154.913 69.7391 154.22 68.3241 153.18 67.5415V67.5362Z" fill="#F7BCB1"/>
<path d="M163.134 64.4269C161.802 64.6271 160.497 64.5376 159.729 65.4572C159.491 65.7418 159.295 66.2134 159.115 66.5428C158.435 67.7787 157.946 69.5916 158.206 70.9723C158.369 71.834 158.792 72.6245 159.126 73.4387C159.342 73.9631 159.433 74.7088 159.767 75.1752C160.464 76.1449 161.907 76.5481 163.12 76.5455C166.081 76.5402 168.967 75.0408 169.591 72.3162C170.321 69.1436 167.742 64.2635 163.516 64.7747L163.134 64.4295V64.4269Z" fill="#F7BCB1"/>
<path d="M174.619 82.7273C173.248 84.3478 171.855 85.7523 170.816 87.5626C169.713 89.4835 168.264 91.2174 167.231 93.1621C166.141 95.22 165.066 97.2701 163.958 99.3149C163.319 100.495 162.858 102.119 162.764 103.433C162.59 105.86 165.323 106.335 167.352 106.735C168.635 106.988 169.917 106.735 171.194 106.972C172.444 107.202 173.668 107.281 174.918 107.502C176.764 107.826 178.58 108.211 180.391 108.545C181.718 108.791 182.066 107.921 182.295 106.846C182.821 104.382 180.875 101.368 179.598 99.307C177.779 96.3742 176.46 93.0066 176.535 89.6364L174.619 82.7326V82.7273Z" fill="#F7BCB1"/>
<path d="M174.619 40.2609C173.121 40.2951 171.993 39.9947 171.147 40.9723C170.492 41.7312 169.942 42.8986 169.613 43.7866C168.831 45.892 168.328 48.4506 168.499 50.6746C168.657 52.7194 169.298 55.0751 170.014 57.0171C170.802 59.1568 171.205 61.3281 171.93 63.4809C173.069 66.8696 174.025 70.1739 177.596 72.0527C179.437 73.0198 182.13 73.4229 184.186 72.9065C187.163 72.1581 189.198 69.9552 190.513 67.5362C191.868 65.0488 192.849 62.1291 193.012 59.3465C193.228 55.6917 191.906 52.643 189.919 49.552C189.444 48.809 189.156 48.5086 188.407 47.9552C187.658 47.4019 187.169 46.7194 186.447 46.1423C183.946 44.1449 180.786 43.249 174.619 40.2661V40.2609Z" fill="#F7BCB1"/>
<path d="M142.842 41.2965C138.959 44.6061 134.937 47.6733 129.466 48.5112C128.054 48.7273 126.854 49.2201 125.619 48.2425C125.046 47.7892 124.748 47.0172 124.469 46.4137C123.921 45.2227 123.228 43.9684 122.995 42.6851C122.548 40.2108 122.835 37.2859 123.208 34.8222C123.57 32.4216 124.662 30.2662 125.157 27.8999C125.594 25.8182 124.742 23.9315 124.189 21.9447C123.648 20.0053 122.451 18.0237 121.409 16.2583C120.883 15.3676 119.355 14.145 121 13.3913C122.47 12.7168 124.872 12.8959 126.354 13.307C128.77 13.9789 130.705 14.7457 132.778 15.9921C134.016 16.7352 135.086 17.5916 136.432 18.1766C137.435 18.6114 138.384 19.0962 139.323 19.6338C141.189 20.7036 143.072 21.8498 144.879 22.9987C145.993 23.7075 146.687 24.6746 147.16 25.8314C147.768 27.3281 147.527 29.3228 147.362 30.8907C147.174 32.6799 147 34.5086 146.256 36.1897C145.167 38.6509 143.53 40.2872 142.845 41.2991L142.842 41.2965Z" fill="#F7BCB1"/>
<path d="M114.131 41.6416C113.981 42.8775 114.095 44.39 113.299 45.4625C112.757 46.1924 112.248 46.7062 111.822 47.5099C111.104 48.8617 110.164 50.0369 109.332 51.3149C108.099 53.2095 105.774 54.3057 104.837 56.4796C104.334 57.6469 104.226 58.6535 104.182 59.8762C104.146 60.8432 103.558 60.7905 102.667 60.4032C99.2316 58.9091 97.3824 55.9051 94.7426 53.5916C93.7751 52.7431 93.2029 52.1634 93.0536 50.8775C92.921 49.7365 93.3218 48.5823 93.9133 47.5889C94.6237 46.4005 96.1274 45.5679 97.1972 44.6561C98.2337 43.7734 99.11 43.415 100.373 42.8485C101.554 42.3188 102.869 42.0553 104.074 41.5547C105.155 41.1067 106.192 40.4875 107.322 40.1581C108.389 39.8472 109.951 39.7365 111.065 39.8841C113.517 40.2082 114.084 42.469 114.125 41.6416H114.131Z" fill="#F7BCB1"/>
<path d="M103.795 74.0948C104.887 75.0593 105.954 75.7417 106.33 77.0724C106.653 78.224 107.215 79.2727 107.643 80.3873C108.475 82.5507 108.475 84.9987 108.398 87.2543C108.342 88.8854 106.725 90.1238 105.277 91.0382C104.121 91.7681 102.806 91.9894 101.498 92.39C99.8259 92.9038 98.2863 93.5178 96.5144 93.7101C95.1655 93.8577 93.8691 93.7918 92.5368 93.5968C91.2044 93.4018 90.2646 93.4914 88.9212 93.689C86.8066 94 84.7473 94.4374 82.6631 94.8933C79.5008 95.5836 76.1645 96.0632 73.1709 94.5349C68.7841 92.2951 66.1692 88.0421 62.8162 84.7799C61.2047 83.2121 59.9138 81.4756 58.4101 79.834C56.9395 78.2292 55.8974 76.527 55.2175 74.5191C54.1311 71.3017 53.8879 67.3755 54.8802 64.1001C56.0633 60.1923 60.544 58.9723 64.3918 57.942C65.8015 57.5652 67.4103 57.3017 68.8615 57.1568C70.3348 57.0092 71.7252 57.328 73.1515 57.5204C74.1245 57.6522 75.0588 57.884 76.0263 58.05C77.1098 58.2371 78.127 58.1054 79.2078 58.1897C81.0322 58.3346 82.8814 58.7483 84.6533 59.1568C86.5772 59.5995 88.5563 59.9236 90.4995 60.2688C92.299 60.5902 93.2859 61.2885 94.5878 62.3425C96.086 63.5573 97.3188 64.9407 98.6594 66.3083C99.555 67.2226 100.451 68.1291 101.338 69.0514C102.731 70.498 103.624 72.0316 103.793 74.0896L103.795 74.0948Z" fill="#F7BCB1"/>
<path d="M109.537 107.586C108.091 107.737 106.736 107.655 105.692 108.598C104.876 109.333 103.795 109.797 103.22 110.719C102.101 112.522 102.225 114.345 102.994 116.216C103.864 118.337 105.777 120.119 107.046 122.076C108.215 123.881 109.365 125.713 110.327 127.618C110.963 128.877 110.852 130.738 110.653 132.095C110.352 134.174 109.437 135.982 108.309 137.794C106.93 140.011 105.172 142.211 103.204 144.024C101.623 145.478 100.404 147.036 100.042 149.086C99.7458 150.764 99.5937 153.136 101.089 154.366C102.477 155.507 103.981 155.57 105.741 155.581C109.691 155.61 113.862 154.166 117.495 152.814C119.781 151.963 122.155 151.312 123.319 149.233C125.049 146.14 124.524 142.311 124.037 138.975C123.697 136.63 123.294 134.206 122.713 131.897C122.379 130.567 121.779 129.296 121.486 127.955C121.152 126.422 120.787 124.986 120.231 123.502C119.573 121.744 118.849 120.053 117.973 118.364C116.701 115.91 114.219 113.7 109.531 107.586H109.537Z" fill="#F7BCB1"/>
<path d="M157.774 118.287C155.574 118.54 155.14 118.509 153.531 119.378C152.171 120.113 151.071 120.74 149.88 121.726C147.157 123.976 144.769 126.343 142.817 129.183C142.01 130.358 141.231 131.565 140.52 132.793C139.896 133.871 139.796 135.057 139.539 136.232C139.238 137.615 139.088 138.906 138.923 140.298C138.718 142.011 138.779 143.7 138.599 145.404C138.342 147.876 138.129 150.308 138.229 152.806C138.345 155.771 138.887 158.574 138.442 161.565C138.132 163.642 138.171 165.125 139.84 166.727C141.833 168.638 145.587 167.989 148.108 167.592C151.013 167.133 153.935 166.103 156.276 164.469C157.926 163.318 160.063 161.41 160.876 159.652C161.796 157.66 161.981 155.402 161.992 153.283C162.009 150.092 161.625 146.746 161.124 143.584C160.801 141.531 160.638 139.336 160.862 137.254C161.124 134.801 162.493 133.296 164.278 131.594C165.005 130.901 165.586 130.111 166.551 129.66C167.595 129.173 168.77 128.846 169.873 128.477C173.027 127.418 176.239 126.453 179.233 125.072C181.112 124.206 184.031 122.751 183.852 120.443C183.689 118.356 180.772 117.231 178.876 116.754C177.61 116.437 176.264 116.569 174.954 116.567C173.281 116.567 171.598 116.498 169.931 116.548C165.68 116.677 160.826 117.273 157.774 118.292V118.287Z" fill="#F7BCB1"/>
<path d="M188.401 119.668C186.978 121.555 184.883 123.823 184.631 126.234C184.413 128.348 186.381 129.028 188.404 129.014C190.392 129.001 191.81 128.279 192.819 126.762C194.51 124.219 192.589 121.9 190.696 120.013L188.399 119.668H188.401Z" fill="#F7BCB1"/>
<path d="M134.804 168.005C131.426 169.246 127.99 170.756 124.306 171.057C122.407 171.212 120.289 171.325 118.41 171.083C116.519 170.838 114.996 170.153 113.304 169.375C111.513 168.553 110.026 167.391 108.03 167.036C105.205 166.53 102.361 168.113 100.091 169.386C97.2193 170.996 94.6845 172.756 92.2935 174.914C90.6433 176.406 88.3628 178.229 87.7685 180.358C86.5219 184.814 91.8319 187.436 95.851 187.963C96.9069 188.1 97.9518 187.971 99.0105 188.108C100.097 188.248 101.086 188.401 102.187 188.377C104.149 188.337 105.982 188.854 107.975 188.696C113.76 188.234 119.156 186.577 124.485 184.58C125.58 184.169 126.567 183.615 127.642 183.18C128.623 182.785 129.663 182.514 130.578 181.989C132.109 181.112 132.855 180.382 133.748 178.978C134.522 177.758 135.489 176.358 135.597 174.917C135.774 172.559 135.122 170.306 134.804 168.005Z" fill="#F7BCB1"/>
<path d="M139.014 176.98C138.607 175.526 137.963 174.543 138.613 173.336C138.795 172.996 139.141 172.601 139.426 172.321C140.18 171.581 141.247 170.733 142.488 171.088C145.327 171.9 142.057 175.505 140.164 175.602L139.017 176.983L139.014 176.98Z" fill="#F7BCB1"/>
<path d="M80.8249 138.659C77.541 139.009 74.2019 139.668 70.8793 139.304C67.4904 138.933 63.3773 137.12 61.4369 134.522C58.9933 131.249 58.7473 124.996 53.3433 124.843C52.3344 124.814 51.4692 124.738 50.5708 125.238C49.4983 125.837 48.8349 126.706 48.0057 127.526C46.408 129.099 44.7108 130.725 42.6818 131.823C40.8575 132.812 39.1299 133.937 37.2751 134.88C35.365 135.85 33.256 136.522 31.4814 137.702C30.2154 138.545 28.9107 139.626 28.3247 140.975C27.8354 142.103 27.957 143.344 27.9764 144.53C28.004 146.219 28.0344 147.876 28.7946 149.457C29.7012 151.339 31.2326 153.394 32.833 154.843C36.1362 157.831 40.8879 159.478 45.2277 160.759C49.2634 161.947 53.3184 163.001 57.3873 164.055C59.1619 164.516 61.1273 164.885 62.9489 165.167C64.3586 165.386 65.7822 165.773 67.1947 165.916C70.2021 166.221 73.5523 165.76 76.2584 164.501C79.1442 163.159 80.178 160.777 81.0349 158.134C81.831 155.681 81.7149 152.972 81.6127 150.424C81.5546 148.97 81.2588 147.555 81.2201 146.09C81.1787 144.522 80.8497 142.938 80.8276 138.656L80.8249 138.659Z" fill="#F7BCB1"/>
<path d="M50.1977 88.5955C49.2772 89.2885 47.779 90.1581 47.0133 91.1199C46.1868 92.1554 45.916 93.6153 45.5898 94.8142C45.0369 96.8379 44.5062 98.946 44.9208 101.041C45.2 102.456 45.8164 103.391 47.3616 103.816C49.6891 104.456 52.5196 104.148 54.9189 104.126C59.618 104.084 65.5776 105.997 68.6044 109.373C70.0915 111.03 70.9761 113.078 72.372 114.814C73.2731 115.934 73.9752 117.257 75.6116 117.581C76.6123 117.779 77.5604 117.402 78.069 116.585C78.3924 116.066 78.4587 115.431 78.5306 114.856C78.6356 113.997 78.9369 113.136 78.9535 112.271C79.0475 107.592 76.0705 103.589 73.1598 99.9894C70.8489 97.1304 69.4198 93.5415 66.089 91.4176C62.4651 89.1041 58.0424 88.224 50.2032 88.5955H50.1977Z" fill="#F7BCB1"/>
<path d="M33.7369 55.1067C34.1405 57.8024 34.2759 60.5086 34.0907 63.2306C33.9138 65.8208 33.3886 68.9249 32.236 71.2938C31.3349 73.1436 30.2928 75.141 29.0682 76.8406C27.8492 78.5296 26.6081 80.0342 26.0663 82.0079C25.6876 83.3834 25.4167 85.0988 25.7567 86.5164C25.9806 87.444 26.6081 88.3056 27.0393 89.1568C27.4816 90.0316 27.8713 90.8775 28.4546 91.6838C29.8173 93.5705 31.4067 95.249 32.6064 97.2279C33.6181 98.8959 34.8481 101.175 34.9062 103.088C35.0278 107.173 31.755 109.982 28.0316 111.876C27.1056 112.348 26.1824 112.88 25.074 112.738C23.7637 112.569 22.506 111.997 21.1792 111.805C18.1939 111.368 15.9162 110.661 13.8127 108.635C9.96492 104.93 8.13779 99.61 7.66235 94.664C7.40805 92.0079 6.93261 89.3597 6.55668 86.7141C6.0453 83.1225 5.79376 79.6574 5.791 76.0421C5.78824 72.0527 5.25475 67.6996 6.11165 63.7655C7.03765 59.5072 9.78801 54.7536 13.8182 52.2082C16.6321 50.4295 20.701 49.5968 24.1037 50.3979C25.7816 50.7931 27.6115 51.8709 29.0627 52.6772C30.7986 53.6443 32.3935 54.7694 33.7425 55.1093L33.7369 55.1067Z" fill="#F7BCB1"/>
<path d="M57.0888 20.5797C55.7647 23.0329 55.1345 24.4559 55.176 27.1621C55.2091 29.5731 54.7751 31.9473 54.7751 34.3689C54.7751 37.249 55.1538 43.6943 58.9961 44.6904C60.8425 45.1673 61.8376 44.9328 63.5127 44C65.5223 42.8827 66.7883 41.0487 68.2036 39.3939C69.3452 38.0606 70.1081 36.585 71.4736 35.4229C72.9911 34.1318 74.4921 32.7958 76.1257 31.6206C77.5935 30.5639 79.3405 29.7576 80.6452 28.527C82.0798 27.1752 83.5199 25.8893 84.7666 24.3847C87.2516 21.386 88.8714 17.6891 86.2012 14.332C85.1895 13.0593 84.0313 12.6456 82.3645 12.3663C80.8055 12.1028 78.6522 12.0922 77.1098 12.332C74.5584 12.7273 72.1232 14.1028 69.7432 14.975C68.0239 15.6074 66.241 15.8709 64.6765 16.8379C62.4734 18.1976 60.8702 19.9816 57.0915 20.5823L57.0888 20.5797Z" fill="#F7BCB1"/>
<path d="M89.6288 7.805C88.2163 9.78392 87.564 10.7036 88.4264 12.9855C89.076 14.7062 90.6101 16.3162 92.6833 16.4638C94.7647 16.6113 96.5559 15.4677 98.1453 14.3742C99.8784 13.1831 101.844 12.2503 103.436 10.9038C104.196 10.2609 105.429 9.23583 105.293 8.16073C105.081 6.49538 101.642 5.79183 100.34 5.72068C96.1523 5.49407 91.456 4.2108 89.6288 7.80764V7.805Z" fill="#F7BCB1"/>
</g>
<g style="mix-blend-mode:soft-light" opacity="0.5">
<path d="M82.7404 148.669C82.956 150.245 83.3126 151.802 83.0445 153.386C82.8234 154.693 82.4087 155.945 82.0604 157.223C81.4496 159.47 81.2174 161.897 81.2008 164.203C81.1925 165.576 81.3169 167.758 83.1219 168.287C84.6201 168.725 85.524 167.718 86.204 166.63C87.1161 165.165 87.3456 163.275 87.3318 161.618C87.3179 159.963 87.5059 158.24 87.3539 156.593C87.2267 155.207 86.7817 153.536 86.3007 152.208C86.0547 151.526 85.6871 150.777 85.336 150.137C85.032 149.584 84.2939 148.959 82.7404 148.669Z" fill="#F7BCB1"/>
<path d="M32.2056 46.4743C31.2906 46.996 30.3702 47.5099 29.4414 48.0105C29.5851 48.7378 29.4359 49.3254 29.8616 49.9868C30.677 51.2464 31.9541 52.2714 32.7944 53.5441C33.8696 55.1752 33.3361 57.8103 34.8869 59.112C35.5254 58.3926 35.835 58.1528 36.139 57.1858C36.4928 56.0606 36.7665 54.7009 36.8163 53.5441C36.8522 52.6614 37.018 51.4097 36.7444 50.5428C36.5564 49.9447 36.0395 49.6891 35.6498 49.2464C34.8426 48.332 34.6712 47.9315 33.3555 47.5099L32.2084 46.4743H32.2056Z" fill="#F7BCB1"/>
<path d="M52.4948 38.8801C53.4208 39.4045 54.532 40.1766 55.4939 40.6799C56.4558 41.1832 57.5145 41.2754 58.5345 41.6337C60.428 42.2978 62.3435 43.054 63.9993 44.1397C65.4367 45.0804 69.254 49.2411 67.2196 50.7536C65.1381 52.3004 61.3263 49.9341 59.7701 48.5771C59.2145 48.0922 58.7335 47.3782 58.2387 46.8353C57.7522 46.2978 57.1911 45.7023 56.7931 45.1094C56.4199 44.5534 55.9583 43.8999 55.6349 43.3175C55.0544 42.2767 55.0406 40.6904 52.4975 38.8828L52.4948 38.8801Z" fill="#F7BCB1"/>
<path d="M59.0045 57.5231C57.5422 58.0738 56.4144 58.6114 54.8748 58.5613C53.2964 58.5112 51.6545 58.6219 50.2475 57.8235C48.3236 56.7299 46.8089 54.8828 45.9907 53.033C45.3134 51.4994 44.6777 49.531 44.8021 47.863C44.885 46.7352 45.5235 45.726 46.0072 44.7062C46.3168 44.0501 46.4689 43.2833 47.3092 43.033C48.7521 42.6035 50.8446 43.8709 51.7291 44.7616C53.0228 46.0685 54.4961 47.8182 55.3336 49.4124C56.1242 50.917 57.1248 51.6996 58.4378 52.8564C59.9139 54.1581 60.0631 55.6153 59.0045 57.5205V57.5231Z" fill="#F7BCB1"/>
<path d="M165.431 158.682C163.803 159.376 163.225 159.513 162.241 160.451C161.299 161.347 160.24 162.282 159.134 163.009C156.771 164.564 154.435 166.179 152.014 167.663C150.485 168.601 148.26 170.282 148.169 172.174C148.141 172.722 148.329 173.02 148.857 173.294C149.554 173.655 149.789 173.336 150.48 173.065C154.396 171.526 158.128 169.476 161.879 167.679C163.41 166.943 164.37 165.818 165.345 164.567C166.067 163.639 166.755 162.329 166.932 161.204C167.139 159.887 166.321 158.606 165.431 158.685V158.682Z" fill="#F7BCB1"/>
<path d="M184.189 117.942C183.26 117.945 181.715 118.097 180.678 117.881C179.996 117.739 179.349 117.465 178.652 117.333C176.474 116.93 174.371 116.032 172.151 115.881C170.495 115.771 168.798 115.86 167.139 115.871C165.898 115.879 165.094 115.657 163.933 115.455C163.961 114.93 164.906 114.419 165.387 114.15C166.799 113.362 168.416 112.854 170.042 112.577C172.759 112.113 175.385 112.04 178.149 112.063C180.203 112.082 182.005 112.912 183.901 113.539C184.827 113.845 185.593 114.184 186.315 114.822C187.022 115.449 186.856 116.071 184.192 117.942H184.189Z" fill="#F7BCB1"/>
<path d="M158.54 113.8C157.338 114.134 156.221 114.625 155.11 114.835C154.117 115.022 153.053 115.173 152.036 115.354C149.791 115.755 147.351 116.611 145.037 116.148C141.819 115.499 143.851 113.452 145.515 112.327C146.615 111.584 147.834 111.146 148.981 110.493C150.062 109.876 150.944 109.062 152.058 108.464C154.192 107.315 155.82 105.468 158.241 104.82C159.057 104.601 160.157 104.277 160.995 104.495C161.805 104.706 162.916 105.257 163.665 105.634C164.923 106.266 166.639 107.555 166.136 109.046C165.815 109.997 164.295 111.167 163.482 111.742C161.296 113.289 158.026 113.916 158.54 113.802V113.8Z" fill="#F7BCB1"/>
<path d="M156.624 31.9737C156.016 32.8696 155.632 33.8288 155.469 34.8485C155.737 35.1911 155.895 35.5758 155.944 36C156.318 37.1805 156.909 38.2556 157.68 39.2675C158.562 40.4243 160.312 41.6021 161.874 41.9157C163.861 42.3162 166.189 41.9869 168.132 41.5521C169.135 41.3281 169.901 40.9829 170.81 40.5956C171.499 40.3004 172.173 40.145 172.637 39.5784C175.139 36.5165 166.982 34.2477 165.05 33.365C164.032 32.8986 163.015 32.4322 161.987 31.9816C160.914 31.5126 160.066 30.7616 159.002 30.3083C158.374 30.0396 157.647 29.6601 157 29.4414C155.983 29.0962 155.909 29.7471 156.627 31.9737H156.624Z" fill="#F7BCB1"/>
<path d="M101.88 1.59158C103.325 3.98421 104.555 6.25825 105.7 8.77208C106.488 10.5033 107.897 12.2556 109.816 12.9987C111.712 13.7339 113.572 14.0369 115.579 14.2872C116.939 14.4585 118.902 14.6561 120.187 14.1212C123.786 12.6245 120.035 8.57182 118.338 7.07775C117.625 6.45061 116.765 5.91833 115.961 5.38869C114.946 4.71938 113.89 3.8709 112.812 3.29909C110.598 2.1265 108.243 1.55996 101.88 1.58895V1.59158Z" fill="#F7BCB1"/>
<path d="M89.2474 6.07904C88.3491 6.75361 87.1715 7.40974 86.4224 8.23451C86.1875 8.49274 86.0824 8.888 85.8281 9.12252C85.3112 9.59419 83.9982 10.1186 83.3404 10.3636C81.3032 11.1278 79.476 10.8748 77.4195 10.5059C76.9634 9.23319 78.5694 8.77733 79.5562 8.25296C81.3667 7.28853 83.2132 6.36099 85.0044 5.38603C87.0305 4.28458 89.4769 2.32147 91.9259 3.31751L89.2474 6.07904Z" fill="#F7BCB1"/>
<path d="M12.6822 135.204C11.2338 135.686 10.0756 135.81 9.69412 137.225C9.40112 138.306 9.53933 139.657 9.63608 140.754C9.88762 143.594 11.1426 146.706 13.4589 148.717C14.8936 149.963 16.2287 150.877 18.0337 149.657C19.988 148.337 21.4972 146.43 23.1889 144.87C25.2012 143.017 30.5914 140.121 27.2578 137.275C26.1521 136.332 24.4908 135.866 23.0175 135.618C22.0058 135.447 20.9996 135.628 19.9824 135.56C18.2327 135.444 17.08 135.36 12.6822 135.204Z" fill="#F7BCB1"/>
<path d="M8.85376 103.096C9.13294 105.431 9.56968 107.887 9.63879 110.24C9.68025 111.607 9.30709 112.97 10.175 114.177C10.6532 114.843 11.3968 115.468 12.3173 115.497C13.282 115.528 15.0953 114.1 15.7808 113.447C16.7262 112.545 16.7897 111.325 15.9826 110.295C15.0566 109.109 13.9039 107.958 12.6683 107.062C12.2427 106.754 11.9496 106.319 11.5461 106.013C11.0706 105.655 10.4487 105.597 10.0037 105.17L8.85652 103.099L8.85376 103.096Z" fill="#F7BCB1"/>
<path d="M52.8789 68.2266C54.3053 71.2991 55.1152 74.4585 55.7592 77.7286C56.1683 79.7998 57.0639 83.1331 56.0052 85.1436C54.9438 87.1568 51.7456 88.9644 49.2523 88.5824C46.3085 88.1291 46.4633 85.5415 45.6229 83.502C44.6417 81.1225 43.207 79.0619 41.7862 76.8933C40.172 74.4243 39.1299 71.4467 40.4456 68.6957C41.4711 66.556 43.3314 64.9671 45.985 64.8274C47.0437 64.7721 48.7935 65.639 49.7278 66.1239C51.4333 67.0066 52.3593 68.6746 52.8734 68.2266H52.8789Z" fill="#F7BCB1"/>
<path d="M112.983 68.2267C112.489 68.6693 112.035 69.1884 111.518 69.5969C111.107 69.9236 110.761 70.1924 110.487 70.6324C109.78 71.7708 109.744 73.4072 110.194 74.6245C110.744 76.1107 111.693 77.3703 112.467 78.7537C112.856 79.4519 113.105 80.1687 113.362 80.9144C113.627 81.6917 114.009 82.3689 114.374 83.112C114.755 83.8894 115.148 84.6087 115.62 85.3413C115.764 85.56 116.187 86.3162 116.64 86.2029C116.864 86.1476 116.809 86.0079 116.859 85.8156C117.033 85.1542 117.044 84.6483 116.826 83.9711C116.049 81.5626 114.794 79.2965 114.133 76.8591C113.973 76.2635 113.785 75.697 113.603 75.112C113.365 74.3505 113.417 73.5363 113.321 72.7589C113.155 71.4019 113.036 70.0396 113.406 68.6983C113.647 67.834 114.169 67.0751 114.479 66.2451C114.902 65.1173 115.087 63.8367 115.33 62.6693C115.479 61.9552 115.734 61.2385 115.822 60.5165C115.847 60.3031 115.886 59.7523 115.626 59.6101C115.347 59.4572 114.905 59.8367 114.719 59.9631C114.164 60.3479 113.843 60.7089 113.691 61.3202C113.426 62.3769 113.285 63.4862 113.177 64.5639C113.022 66.087 112.851 67.8446 112.986 68.2267H112.983Z" fill="#F7BCB1"/>
<path d="M108.962 103.787C108.445 103.462 107.944 103.067 107.353 102.875C106.817 102.701 106.25 102.545 105.691 102.44C104.705 102.25 103.757 102.156 102.764 102.432C102.026 102.638 101.54 103.389 101.656 104.084C101.791 104.896 102.756 105.349 103.491 105.689C104.318 106.071 105.202 106.087 106.09 106.242C106.886 106.379 107.535 106.588 108.359 106.553C109.818 106.488 109.23 104.601 109.152 103.789H108.962V103.787Z" fill="#F7BCB1"/>
<path d="M115.662 118.978C116.104 120.867 116.887 122.709 117.152 124.63C117.428 126.64 117.998 128.482 118.675 130.414C119.12 131.686 119.689 133.436 121.174 134.061C121.948 134.385 122.443 133.7 122.545 133.062C122.995 130.271 121.492 127.747 120.112 125.375C119.416 124.179 118.802 122.941 118.139 121.734C117.851 121.212 117.677 120.798 117.246 120.353C116.889 119.987 116.488 119.76 115.662 118.98V118.978Z" fill="#F7BCB1"/>
<path d="M139.589 139.349C139.133 141.065 138.862 142.68 138.674 144.437C138.572 145.394 138.63 146.343 138.491 147.299C138.375 148.095 138.24 148.883 138.11 149.676C138.049 150.04 137.662 151.715 136.91 151.42C136.545 151.278 136.272 150.585 136.183 150.282C135.993 149.631 135.946 148.988 135.951 148.319C135.962 146.899 135.954 145.523 136.122 144.113C136.291 142.69 136.631 141.323 137.024 139.942C137.225 139.225 137.775 137.95 138.538 137.544C139.835 136.851 139.6 139.602 139.592 139.352L139.589 139.349Z" fill="#F7BCB1"/>
<path d="M33.5462 96.5376C34.2207 98.78 34.7099 100.933 34.7017 103.278C34.6961 104.938 34.229 106.588 34.2926 108.24C34.3285 109.188 34.6574 110.493 35.882 110.572C36.7831 110.632 37.7229 110.024 38.3808 109.463C39.0829 108.864 39.4809 107.773 39.4809 106.917C39.4809 106.216 39.5556 105.481 39.4478 104.785C39.3234 103.982 38.9806 103.173 38.7153 102.398C38.2702 101.099 37.4106 100.211 36.5481 99.1279C36.1086 98.5771 35.8488 98.0501 35.2628 97.5995C34.8869 97.3123 34.533 97.112 33.5435 96.5376H33.5462Z" fill="#F7BCB1"/>
<path d="M53.2605 36.2899C53.7774 34.3768 53.7857 32.5876 53.8244 30.6324C53.8686 28.39 54.2722 26.195 55.0295 24.0554C55.1705 23.6575 56.3011 21.7523 55.5796 21.2912C55.4055 21.1805 54.9411 21.2675 54.7504 21.2701C54.1837 21.2833 53.8603 21.3413 53.3544 21.6021C51.0242 22.8143 49.1004 24.9407 49.2662 27.4704C49.468 30.5429 50.9302 33.8446 53.2577 36.2925L53.2605 36.2899Z" fill="#F7BCB1"/>
<path d="M143.608 20.0632C143.721 20.9802 143.705 21.4993 144.205 22.2319C144.584 22.7879 144.996 23.2964 145.291 23.8972C146.049 25.4282 146.367 26.8564 146.615 28.4954C146.754 29.3913 146.969 30.6061 147.434 31.4335C147.768 32.0263 148.025 31.7945 148.252 31.2859C148.553 30.6113 148.802 29.8182 148.932 29.0935C149.031 28.527 148.904 28.0606 148.816 27.5046C148.727 26.9486 148.747 26.4032 148.636 25.8445C148.437 24.8458 148.249 23.7022 147.503 22.8959C147.165 22.5323 146.682 22.2767 146.292 21.9631C145.894 21.639 145.352 21.083 143.608 20.0632Z" fill="#F7BCB1"/>
</g>
<g style="mix-blend-mode:multiply" opacity="0.5">
<path d="M114.896 171.283C114.788 171.939 114.548 172.646 115.001 173.183C115.308 173.544 115.842 173.742 116.284 173.916C117.351 174.335 118.423 174.487 119.579 174.219C120.25 174.063 120.922 174.095 121.586 173.96C122.05 173.866 122.514 173.779 122.982 173.697C123.327 173.636 123.731 173.539 124.082 173.526C124.286 173.518 124.419 173.523 124.612 173.491C124.767 173.468 124.762 173.246 125.016 173.389C124.966 173.484 124.922 173.607 124.85 173.705C124.742 173.855 124.607 173.921 124.466 174.066C124.189 174.358 124.082 174.793 123.855 175.123C123.565 175.544 123.194 175.916 122.893 176.329C122.18 177.304 121.016 178.266 119.908 178.867C119.106 179.302 117.912 179.481 117.014 179.32C115.38 179.033 114.014 177.789 113.752 176.29C113.498 174.819 114.014 173.289 114.891 171.283H114.896Z" fill="#A72752"/>
</g>
<g style="mix-blend-mode:multiply" opacity="0.5">
<path d="M106.667 172.148C106.899 172.601 107.234 172.972 107.668 173.26C108.149 173.049 108.754 173.194 109.277 173.012C109.788 172.833 110.302 172.548 110.86 172.701C110.813 172.862 110.639 173.025 110.554 173.202C110.297 173.734 110.026 174.224 109.722 174.746C109.351 175.381 109.053 176.132 108.29 176.472C107.408 176.864 106.629 176.677 106.092 175.997C105.332 175.033 105.393 174.082 105.904 173.012L106.67 172.148H106.667Z" fill="#A72752"/>
</g>
<g style="mix-blend-mode:multiply" opacity="0.5">
<path d="M164.281 119.151C164.571 119.665 164.906 120.155 165.282 120.619C165.387 120.669 165.497 120.711 165.611 120.74C165.907 120.943 166.164 121.109 166.523 121.233C167.181 121.46 168.19 121.794 168.875 121.734C169.445 121.684 170.047 121.507 170.597 121.354C170.946 121.257 171.369 120.928 171.728 121.088C171.703 121.257 171.601 121.207 171.507 121.344C171.369 121.544 171.286 121.76 171.181 121.982C170.794 122.806 170.36 123.61 169.906 124.406C169.569 125.001 168.997 125.897 168.32 126.248C167.642 126.598 166.385 126.899 165.614 126.727C164.195 126.411 163.565 124.814 163.513 123.642C163.482 122.959 163.187 122.258 163.361 121.578C163.463 121.175 163.612 120.727 163.756 120.34C163.842 120.108 164.074 119.913 164.284 119.151H164.281Z" fill="#A72752"/>
</g>
<g style="mix-blend-mode:multiply" opacity="0.5">
<path d="M90.7787 119.323C91.21 120.2 91.3537 120.838 92.2963 121.043C92.9376 121.183 93.2223 121.249 93.8497 120.962C94.1621 120.817 94.5408 120.706 94.8006 120.493C94.9444 120.374 95.0494 120.279 95.1821 120.182C95.3175 120.084 95.4723 120.074 95.5746 119.902C95.511 120.748 95.4226 121.594 95.2871 122.437C95.0909 123.644 94.6873 125.323 93.319 125.889C92.2714 126.324 91.2017 125.742 90.7594 124.806C90.0711 123.344 90.4083 121.468 90.7787 119.323Z" fill="#A72752"/>
</g>
<g style="mix-blend-mode:multiply" opacity="0.5">
<path d="M9.61937 124.158C10.0119 124.806 10.3187 125.349 10.6117 126.005C10.7306 126.271 10.9158 126.553 11.1424 126.756C11.7008 127.257 12.4112 127.447 13.1548 127.573C14.5562 127.808 16.0544 127.455 17.4199 127.273C18.6444 127.109 19.7529 126.738 20.7203 126.055C21.146 125.755 21.6463 125.544 22.0693 125.236C22.2655 125.094 22.5696 124.711 22.7907 124.701C22.9317 124.93 22.6663 125.041 22.5834 125.241C22.3954 125.705 22.3844 126.266 22.2517 126.748C21.9006 128.029 21.5247 129.275 20.7784 130.422C19.6838 132.095 17.4641 133.552 15.2141 133.275C14.8299 133.228 14.2577 133.204 13.8707 133.112C13.3814 132.993 13.0193 132.648 12.6489 132.361C11.8307 131.729 11.3415 131.009 10.7637 130.203C10.4127 129.713 10.128 129.341 9.98147 128.764C9.82944 128.166 9.72993 127.523 9.64977 126.914C9.59172 126.474 9.56685 125.971 9.60278 125.526C9.63042 125.191 9.86814 124.841 9.61107 124.161L9.61937 124.158Z" fill="#A72752"/>
</g>
<g style="mix-blend-mode:multiply" opacity="0.5">
<path d="M3.52105e-05 57.0909C0.395314 57.4308 0.699375 57.7628 1.22457 57.8814C1.63367 57.9736 1.98749 58.0079 2.40764 57.9973C3.20926 57.9789 4.05786 57.6258 4.65216 57.1436C5.27963 56.6377 5.79377 55.9104 6.24986 55.2832C6.41571 55.054 6.66173 54.8775 6.78888 54.6298C6.87457 54.469 6.87733 54.2714 7.04042 54.1581C7.06253 54.3504 6.99067 54.469 6.92985 54.6429C6.81929 54.9644 6.78335 55.2859 6.71977 55.6179C6.47653 56.8669 6.08401 58.1344 5.74678 59.3649C5.60581 59.8761 5.39296 60.3504 5.19671 60.8458C5.02256 61.2912 4.96452 61.7286 4.84842 62.1818C4.69915 62.7694 4.41168 63.5178 3.72616 63.7365C3.27007 63.8814 2.87755 63.5652 2.66471 63.1831C2.36342 62.6456 2.16439 62.0369 1.97919 61.4572C1.86033 61.0909 1.62814 60.7536 1.48717 60.39C1.34067 60.0079 1.08913 59.6943 0.92051 59.3228C0.727017 58.8959 0.356615 58.195 -0.00549316 57.0883L3.52105e-05 57.0909Z" fill="#A72752"/>
</g>
<g style="mix-blend-mode:multiply" opacity="0.5">
<path d="M13.351 42.9802C13.7352 43.2543 14.1195 43.6074 14.5921 43.7602C14.9929 43.8893 15.4463 43.9183 15.8581 44.0184C16.7731 44.2371 17.7295 44.1317 18.6666 44.2477C19.5732 44.361 20.4964 44.108 21.392 44.0132C21.9919 43.9499 22.4369 43.6864 22.987 43.4967C23.5675 43.2938 24.1037 42.9723 24.6621 42.7141C25.1099 42.5059 25.6157 42.361 26.0442 42.1265C26.362 41.9526 26.7518 41.5573 26.995 41.2938C27.136 41.1383 27.3627 40.6904 27.5424 40.6588C27.5617 40.7852 27.465 40.8985 27.4207 41.0171C27.2659 41.4387 27.1858 41.884 27.0006 42.3057C26.456 43.5441 25.8147 44.9091 25.038 46.0369C24.2917 47.1199 23.6006 48.1212 22.401 48.8116C21.475 49.3439 20.4439 49.6891 19.3355 49.7259C18.4813 49.7549 17.3508 49.7128 16.6045 49.3096C15.8664 48.9091 15.4407 48.2819 15.0344 47.6205C14.5811 46.8801 14.2936 46.0632 13.8817 45.3043C13.5998 44.7852 13.2156 44.1054 13.3455 42.9829L13.351 42.9802Z" fill="#A72752"/>
</g>
<g style="mix-blend-mode:multiply" opacity="0.5">
<path d="M64.0297 15.6601C64.613 16.39 65.152 17.0382 66.0006 17.5099C66.3323 17.6944 66.6391 17.9262 66.9736 18.1028C67.2749 18.2609 67.6149 18.2925 67.941 18.3821C69.5332 18.8195 71.0369 18.116 72.5047 17.639C72.958 17.4915 73.2925 17.2174 73.768 17.112C74.0333 17.054 74.2323 16.9671 74.4784 16.859C74.8349 16.7036 75.1639 16.5033 75.4845 16.3057C75.6393 16.2108 75.9821 15.8709 76.1065 16.1713C76.1617 16.303 76.0152 16.4717 75.9848 16.585C75.877 16.9592 75.8605 17.3465 75.7416 17.726C75.233 19.365 74.3871 20.9565 72.7977 21.9394C71.9187 22.4822 70.943 22.9407 69.9396 23.2806C69.1103 23.56 68.3833 23.6311 67.5375 23.3676C66.23 22.9618 65.2183 21.9816 64.4609 20.9697C63.9523 20.2899 63.8114 19.7154 63.6013 18.9302C63.4023 18.1871 63.159 17.4414 64.0325 15.6601H64.0297Z" fill="#A72752"/>
</g>
<g style="mix-blend-mode:multiply" opacity="0.5">
<path d="M118.006 10.7404C118.371 11.2964 118.747 11.834 119.148 12.3662C119.454 12.7747 119.714 13.2147 120.179 13.494C121.165 14.079 122.257 14.469 123.299 14.9512C124.259 15.3939 125.021 14.8985 125.878 14.6456C125.743 14.9486 125.544 15.2806 125.411 15.6073C125.171 16.1976 125.055 16.6956 124.61 17.2068C124.17 17.7075 124.018 17.9921 123.288 18.0975C122.785 18.1686 121.884 18.2503 121.445 17.9789C120.864 17.6179 120.441 17.0882 120.013 16.6008C119.601 16.1317 119.286 15.7154 119.12 15.1251C119.026 14.7878 118.896 14.4927 118.863 14.1475C118.83 13.7944 118.774 13.4413 118.683 13.0961C118.487 12.3399 118.548 11.8102 118.006 10.7457V10.7404Z" fill="#A72752"/>
</g>
<g style="mix-blend-mode:multiply" opacity="0.5">
<path d="M162.656 28.996C163.164 29.1225 163.69 29.2095 164.154 29.4361C164.663 29.6811 165.135 30.0053 165.611 30.303C166.54 30.8827 167.463 31.473 168.397 32.0474C168.928 32.3742 169.331 32.6719 169.942 32.8485C170.346 32.967 170.713 33.0883 171.128 33.1726C171.827 33.3149 172.571 33.4071 173.168 33.7549C173.406 33.8946 173.66 34 173.892 34.1423C173.948 34.1765 174.102 34.2635 174.144 34.3004C174.243 34.39 174.254 34.4585 174.351 34.5665C174.531 34.7668 174.652 34.8432 174.575 35.1515C174.506 35.4334 174.318 35.7576 174.141 36.0184C173.784 36.5481 173.48 37.191 173.024 37.6574C172.449 38.2424 171.266 38.1159 170.481 38.0421C167.689 37.7786 165.522 35.834 164.663 33.4967C164.331 32.5981 164.008 31.689 163.657 30.7984C163.469 30.3215 163.181 29.7602 162.656 28.9987V28.996Z" fill="#A72752"/>
</g>
<path d="M195.671 75.921C195.505 76.1818 195.367 76.4822 195.246 76.8221C195.033 77.4229 194.958 77.9974 194.972 78.5718C194.637 77.5468 195.016 76.6851 195.669 75.921H195.671Z" fill="#A72752"/>
<path d="M58.2414 179.976C58.1364 179.908 58.0452 179.852 57.9374 179.8C58.0286 179.842 58.1198 179.881 58.211 179.924C58.2414 179.937 58.2553 179.966 58.2414 179.979V179.976Z" fill="#A72752"/>
<g style="mix-blend-mode:multiply" opacity="0.5">
<path d="M90.013 88.9407C90.306 91.1647 90.6046 93.3939 92.3045 95.162C93.9105 96.8327 96.3596 96.8933 98.6262 97.2912C100.437 97.61 102.217 97.8524 104.091 97.7523C104.746 97.718 105.459 97.5362 106.095 97.3649C106.49 97.2569 107.419 96.5823 107.778 96.7562C107.72 96.996 107.461 97.22 107.32 97.4677C107.043 97.9526 106.855 98.4848 106.604 98.9749C106.33 99.5046 106.007 99.9947 105.741 100.527C105.481 101.049 105.028 101.399 104.721 101.879C104.414 102.358 104.301 102.796 103.815 103.186C103.245 103.642 102.482 103.924 101.797 104.216C99.9558 105.001 97.9379 105.66 95.8869 105.112C94.444 104.727 92.9652 103.902 92.2962 102.664C91.9673 102.053 91.8014 101.523 91.6992 100.851C91.5858 100.119 91.2652 99.4229 91.185 98.6825C90.9971 96.9855 90.9335 95.328 90.8837 93.6179C90.8616 92.9091 90.6294 92.245 90.5852 91.5362C90.541 90.7852 90.1789 89.9394 90.0103 88.9354L90.013 88.9407Z" fill="#A72752"/>
</g>
<g style="mix-blend-mode:multiply" opacity="0.5">
<path d="M111.259 70.8142C111.894 72.5665 112.563 73.9078 114.562 74.5771C115.366 74.8485 117.027 74.8906 117.879 74.7114C118.421 74.5981 119.695 73.6627 119.606 74.7009C119.59 74.8827 119.394 75.0619 119.333 75.2385C119.183 75.6838 119.159 76.245 119.081 76.7141C118.946 77.5362 118.924 78.4638 118.589 79.2411C118.042 80.5086 116.3 80.39 115.026 80.3979C113.495 80.4058 111.698 79.9236 111.181 78.4717C110.57 76.7589 110.811 75.22 110.7 73.4598C110.673 73.0171 109.876 69.2727 111.259 70.8116V70.8142Z" fill="#A72752"/>
</g>
<defs>
<radialGradient id="paint0_radial_24_1964" cx="0" cy="0" r="1" gradientUnits="userSpaceOnUse" gradientTransform="translate(105.392 73.2602) scale(126.726 114.412)">
<stop stop-color="#903D18"/>
<stop offset="0.4" stop-color="#8D3918"/>
<stop offset="0.73" stop-color="#862F1A"/>
<stop offset="0.83" stop-color="#832B1B"/>
<stop offset="0.94" stop-color="#661D1C"/>
<stop offset="0.97" stop-color="#5F1A1D"/>
</radialGradient>
<radialGradient id="paint1_radial_24_1964" cx="0" cy="0" r="1" gradientUnits="userSpaceOnUse" gradientTransform="translate(100.121 105.74) scale(95.9458 86.6231)">
<stop stop-color="#B68DC0"/>
<stop offset="0.99" stop-color="#C26B7F"/>
</radialGradient>
<radialGradient id="paint2_radial_24_1964" cx="0" cy="0" r="1" gradientUnits="userSpaceOnUse" gradientTransform="translate(19.8074 39.0295) scale(10.9973 9.9287)">
<stop stop-color="#F7C0D0"/>
<stop offset="0.99" stop-color="#C26B7F"/>
</radialGradient>
<radialGradient id="paint3_radial_24_1964" cx="0" cy="0" r="1" gradientUnits="userSpaceOnUse" gradientTransform="translate(22.3371 111.936) scale(50.8055 45.8689)">
<stop stop-color="#F7C0D0"/>
<stop offset="0.99" stop-color="#C26B7F"/>
</radialGradient>
<radialGradient id="paint4_radial_24_1964" cx="0" cy="0" r="1" gradientUnits="userSpaceOnUse" gradientTransform="translate(197.642 70.9353) scale(4.28682 3.87028)">
<stop stop-color="#F7C0D0"/>
<stop offset="0.99" stop-color="#C26B7F"/>
</radialGradient>
<radialGradient id="paint5_radial_24_1964" cx="0" cy="0" r="1" gradientUnits="userSpaceOnUse" gradientTransform="translate(128.78 139.52) scale(69.1646 62.4441)">
<stop stop-color="#F7C0D0"/>
<stop offset="0.99" stop-color="#C26B7F"/>
</radialGradient>
</defs>
</svg>
