<svg width="200" height="200" viewBox="0 0 200 200" fill="none" xmlns="http://www.w3.org/2000/svg">
<path d="M196.851 113.426C206.836 138.618 189.779 166.066 161.292 170.635L148.424 172.692L145.586 173.144L142.308 176.795L135.389 184.521C116.89 205.161 82.7726 205.161 64.2738 184.521L54.0765 173.144L39.0909 171.797C10.5898 167.231 -7.19062 138.618 2.81164 113.426L6.86249 103.191L8.30396 99.5678L8.31823 99.5259L5.35918 85.9057C-4.6407 60.7132 9.86674 32.9835 38.3678 28.417L54.0741 25.9078L54.3025 25.6538L55.6369 24.1744L64.2714 14.5312C82.7702 -6.10883 114.609 -4.14012 133.107 16.4976L142.306 22.2569L145.583 25.9078L146.404 26.0336L160.096 26.4925C188.58 31.059 206.834 60.4313 196.848 85.6238L191.415 99.3255L191.339 99.5236L192.479 102.413L196.848 113.423L196.851 113.426Z" fill="url(#paint0_radial_24_1716)"/>
<path style="mix-blend-mode:multiply" d="M192.874 103.598C191.993 103.992 190.975 103.584 190.095 103.428C188.366 103.118 186.68 102.948 184.919 103.272C183.311 103.568 181.777 103.992 180.276 104.612C176.028 106.359 173.311 110.476 169.334 112.773C164.251 115.693 159.456 119.117 154.311 121.937C150.122 124.234 145.888 126.081 141.366 127.759C139.62 128.406 136.859 128.619 135.645 129.888C134.19 131.396 134.689 135.063 134.948 136.838C135.298 139.278 136.209 141.885 137.422 144.028C138.711 146.297 139.289 149.259 139.882 151.782C140.488 154.375 140.974 157.138 141.157 159.761C141.309 162.045 141.977 163.892 143.447 165.64C144.934 167.415 145.89 169.419 147.241 171.264C147.529 171.672 147.969 172.165 148.426 172.687L145.588 173.139L142.31 176.79V170.178C142.31 169.036 142.477 167.823 142.175 166.709C141.901 165.679 141.932 164.51 141.613 163.508C141.112 161.928 139.458 160.731 138.7 159.265C137.092 156.178 136.378 152.751 134.815 149.622C133.312 146.577 132.432 142.756 131.887 139.471C131.433 136.694 130.567 134.073 127.851 132.507C126.606 131.787 124.725 131.463 123.343 130.913C121.735 130.28 119.975 129.898 118.336 129.306C114.39 127.896 110.172 127.402 106.347 125.599C104.435 124.697 103.374 123.542 102.249 121.864C101.171 120.243 100.853 118.791 100.063 117.072C98.1649 112.969 93.7501 110.87 89.409 109.558C87.1469 108.882 84.842 108.232 82.6108 107.415C80.7293 106.725 78.8026 106.471 76.8901 105.849C73.9311 104.891 70.7128 103.27 67.542 103.142C65.8722 103.072 64.5068 103.549 62.975 104.071C61.7761 104.495 60.5773 104.875 59.3785 105.297C56.8904 106.171 53.4913 106.101 50.8795 105.735C47.8586 105.327 44.626 104.607 41.7883 103.563C39.1622 102.606 36.6432 101.492 33.8198 101.096C30.6014 100.644 27.8255 101.096 24.8808 102.21C23.3323 102.788 22.043 103.014 20.4184 103.125C18.9151 103.237 17.3071 103.985 15.7753 103.703C13.9841 103.379 12.4071 102.562 10.616 102.618C9.35526 102.659 8.12788 103.025 6.86719 103.181L8.30865 99.5585C8.8391 99.9243 9.47658 100.01 10.6611 99.9662C13.3633 99.8683 16.0488 98.9085 18.6891 98.4588C20.5254 98.1489 21.71 98.7547 23.4845 98.8525C24.5168 98.9224 25.4421 99.3325 26.4745 99.4303C28.1276 99.5864 29.6761 99.0646 31.2841 98.8805C34.8807 98.4728 38.3107 96.8512 41.9691 96.7091C43.941 96.6392 45.9604 96.4831 47.4162 97.9066C48.1892 98.6545 48.4937 99.1181 49.4642 99.7262C50.5417 100.388 51.5574 100.982 52.8181 101.306C55.6701 102.04 58.3866 101.122 61.2267 100.996C64.2928 100.854 67.297 99.8823 70.3465 99.9382C73.1247 99.9942 75.9149 99.2486 78.648 98.8525C79.4972 98.7407 80.803 98.8106 81.5928 98.3027C82.1541 97.9229 82.882 97.005 83.3839 96.4831C84.1736 95.6513 84.5233 94.5097 85.068 93.5079C86.2977 91.3085 87.1326 88.8971 87.9676 86.53C89.2425 82.8652 91.0931 79.0303 90.4866 75.0975C90.0774 72.3483 88.5432 69.7273 87.1017 67.3299C84.8396 63.5649 83.5195 58.8702 82.1993 54.7837C80.9553 50.9069 79.8016 47.242 77.511 43.7729C75.4463 40.6439 72.3969 38.5844 69.376 36.3011C67.5396 34.9195 65.4155 34.0878 63.534 32.7481C62.1995 31.8046 60.7414 31.3526 59.2548 30.7608C57.5398 30.0851 56.2505 28.9552 55.035 27.6877C54.3523 26.9538 54.3072 26.6999 54.3072 25.7144V25.6445L55.6416 24.165C56.7334 26.4483 60.544 27.986 62.3946 29.2813C63.9574 30.381 65.6724 31.5226 67.1305 32.7505C67.6919 33.2164 68.1176 33.8362 68.6933 34.2718C69.4378 34.8357 70.2727 34.9615 71.0315 35.4135C72.0948 36.0472 72.9891 37.1329 73.8835 37.9646C75.0229 39.0503 76.1147 39.7703 77.4658 40.63C80.4248 42.5055 82.7179 45.0706 84.2354 48.0878C85.4486 50.5131 86.2383 53.0643 86.9067 55.6294C86.9685 55.6294 87.0423 55.6155 87.1184 55.6155C88.7121 55.4174 90.7006 54.7138 92.1421 53.8821C93.9927 52.7964 95.1463 50.9791 96.8614 49.7373C98.8808 48.2998 100.108 47.1162 102.627 46.3823C104.873 45.7486 107.256 45.3945 109.532 44.8027C110.822 44.4649 112.082 44.0548 113.448 43.8288C113.919 43.7589 114.161 43.8148 114.587 43.731C114.723 43.463 114.937 43.3233 115.256 43.279C115.65 43.3069 116.06 43.3209 116.469 43.3349C116.985 43.2371 117.03 42.8689 117.546 42.7571C118.093 42.6313 118.759 42.855 119.321 42.7851C120.246 42.6872 120.672 42.3331 121.597 42.2352C123.645 41.9952 125.405 41.1495 127.363 40.2339C130.581 38.7405 132.598 36.2452 134.83 33.6777C136.271 32.0422 137.439 30.6326 138.412 28.7571C139.292 27.0517 140.795 25.6841 141.613 23.9507C141.87 23.4008 142.099 22.823 142.31 22.2452L145.588 25.8961L146.409 26.0219C144.482 27.1356 142.75 28.5311 141.157 30.3647C138.804 33.086 136.223 35.5533 133.659 38.1044C132.384 39.3882 131.504 40.2059 129.834 41.1635C127.163 42.7012 124.416 43.8009 121.533 44.9425C119.804 45.6181 118.241 45.7882 116.433 46.1121C115.203 46.3381 114.264 46.5361 113.003 46.5198C110.862 46.4918 109.299 47.0417 107.22 47.4494C104.292 48.0551 102.287 49.015 99.7681 50.5364C98.1292 51.5243 97.0065 53.0736 95.6863 54.4272C93.6525 56.5148 92.104 58.784 90.9813 61.3492C90.4961 62.4628 89.7515 63.0267 88.8262 63.0966C89.3281 64.7461 89.9038 66.3816 90.6768 67.9752C92.0588 70.8503 93.0603 73.7835 93.8643 76.8286C94.2139 78.1124 94.516 79.3658 94.8799 80.6495C95.3652 82.313 94.6682 83.5246 93.7572 84.9644C93.1958 85.8521 92.3752 86.4299 91.7092 87.2057C90.8434 88.2215 90.282 89.3491 89.3876 90.3486C88.0365 91.8281 86.4143 93.4776 85.3368 95.1132C83.4552 97.9602 84.4709 100.076 87.1874 102.063C89.1759 103.529 90.527 104.502 92.1207 106.364C92.6678 106.984 93.3814 107.492 93.9118 108.111C94.3661 108.633 94.4589 109.337 94.9275 109.803C96.5521 111.34 99.5706 111.72 101.469 113.004C103.048 114.062 103.943 115.401 104.913 116.909C105.734 118.206 106.885 119.08 108.16 119.982C109.466 120.897 110.679 121.829 112.38 121.871C114.913 121.927 117.434 122.393 119.937 122.787C122.047 123.125 124.337 122.929 126.492 122.913C129.451 122.885 132.032 124.45 135.051 124.534C145.538 124.844 154.568 118.388 163.202 113.791C167.907 111.296 171.958 108.435 175.921 104.966C178.288 102.909 180.778 101.103 183.766 99.8916C185.162 99.3138 186.209 99.5538 187.605 99.2859C187.802 99.2439 187.985 98.9061 188.273 98.8339C188.775 98.736 189.382 98.8339 189.912 98.75C190.428 98.6662 190.293 98.0604 191.066 98.3982C191.156 98.4402 191.308 98.9061 191.415 99.3138C191.506 99.5957 191.568 99.8637 191.599 99.9196C191.963 100.737 192.222 101.569 192.479 102.401C192.614 102.795 192.736 103.191 192.874 103.584V103.598Z" fill="url(#paint1_radial_24_1716)"/>
<path style="mix-blend-mode:multiply" d="M69.2689 141.442C70.0253 144.361 70.7984 147.208 71.6761 150.095C72.4849 152.758 74.4615 155.139 76.7498 156.907C77.7084 157.648 78.7407 158.487 79.8135 159.088C80.9006 159.699 81.8853 159.99 82.8463 160.817C84.547 162.282 86.5642 163.298 88.0651 164.957C88.7787 165.744 89.3424 166.497 90.2534 167.091C91.2572 167.746 92.2872 168.214 93.0603 169.123C93.8357 170.036 94.7444 171.075 95.3509 172.086C95.9004 173.002 96.7448 173.568 97.6225 174.213C98.7857 175.068 100.572 175.318 102.011 175.639C103.46 175.965 104.951 175.963 106.39 176.322C107.394 176.571 108.343 176.974 109.354 177.203C111.445 177.673 113.64 178.207 115.61 178.773C115.577 178.507 115.103 178.351 114.825 178.228C114.078 177.901 113.574 177.415 112.889 177.035C111.685 176.366 110.163 175.937 108.833 175.532C107.618 175.162 106.433 174.64 105.22 174.283C104.071 173.948 102.944 173.801 101.857 173.233C100.836 172.699 99.9893 172.256 99.4684 171.299C98.3456 169.232 97.5631 167.014 96.4879 164.927C95.8814 163.75 95.3462 162.457 94.5683 161.376C93.9975 160.579 93.2815 160.388 92.3039 160.146C89.1164 159.351 85.715 158.802 82.6846 157.562C80.0252 156.476 76.8331 155.025 74.9991 152.835C73.8217 151.428 73.3317 149.78 72.7275 148.212C72.4397 147.465 72.2613 146.784 71.9497 146.095C71.6904 145.524 71.5881 145.007 71.2123 144.473C70.689 143.737 69.9445 143.115 69.2689 141.437V141.442Z" fill="url(#paint2_radial_24_1716)"/>
<path style="mix-blend-mode:multiply" d="M51.6335 86.5953C55.0041 86.9448 59.8661 87.7113 63.1177 86.1922C66.2837 84.7128 68.2984 81.6747 71.3669 79.9925C72.4611 79.3914 73.7741 79.1701 74.923 78.6878C76.3193 78.0984 77.5633 76.9498 78.4886 75.8221C79.7802 74.2472 80.5937 72.2668 82.1398 70.8806C81.7902 71.3232 81.6927 71.8498 81.45 72.3414C81.0766 73.0939 80.558 73.7369 80.1584 74.4732C79.2165 76.2066 78.3625 78.1683 76.7783 79.4986C75.4629 80.603 73.8811 80.9734 72.3374 81.698C70.8483 82.3969 70.3013 82.9701 69.9611 84.4425C69.7399 85.4001 69.3284 86.3623 69.0929 87.3338C68.8574 88.3031 68.4935 90.1623 67.7561 90.9101C66.2528 92.4362 62.6562 92.1636 60.8175 91.6767C58.936 91.1781 57.2067 90.5211 55.4679 89.7126C54.5974 89.3072 53.8814 88.9904 53.1678 88.3753C52.7039 87.9769 51.7715 87.5692 51.6335 86.5953Z" fill="url(#paint3_radial_24_1716)"/>
<path style="mix-blend-mode:multiply" d="M125.244 113.307C126.507 114.118 127.67 115.043 129.142 115.471C130.263 115.797 131.499 115.935 132.663 116.084C133.555 116.198 134.401 116.103 135.289 116.138C136.388 116.18 137.432 116.538 138.536 116.55C140.491 116.569 142.577 116.063 144.496 115.721C146.68 115.331 148.031 114.136 149.787 112.946C151.216 111.976 152.689 110.844 154.273 110.087C155.488 109.507 156.877 109.16 158.114 108.601C158.733 108.321 159.235 107.999 159.763 107.601C159.929 107.475 160.752 106.998 160.845 106.811C161.302 105.891 159.796 106.126 159.346 106.35C158.866 106.59 158.547 107.058 157.986 107.219C157.075 107.48 156.061 107.711 155.11 107.969C152.251 108.747 149.237 109.036 146.273 109.034C145.136 109.034 143.978 108.948 142.846 109.064C141.942 109.157 141.09 109.376 140.177 109.404C138.59 109.451 137.277 109.334 135.733 109.745C132.655 110.56 130.239 111.142 125.236 113.309L125.244 113.307Z" fill="url(#paint4_radial_24_1716)"/>
<path style="mix-blend-mode:multiply" d="M11.8958 114.036C11.6151 116.431 11.3915 118.414 11.6864 120.783C11.8173 121.822 11.9124 122.929 12.2311 123.938C12.6308 125.196 13.5394 126.091 14.1032 127.274C15.1379 129.45 16.389 131.524 17.3691 133.721C18.242 135.685 19.429 137.418 20.4375 139.312C21.0322 140.433 21.5079 141.673 22.2287 142.733C22.7781 143.541 23.5179 144.221 24.134 144.983C25.4684 146.637 26.71 148.101 28.299 149.571C31.1177 152.18 33.8865 154.773 36.9859 157.098C39.0315 158.634 40.4183 160.731 42.5424 162.194C45.1209 163.969 47.961 163.941 50.9938 164.43C52.5518 164.682 54.0456 164.496 55.6131 164.591C56.9214 164.67 58.1083 164.971 59.4475 164.964C60.4608 164.959 61.5955 164.833 62.6016 164.948C63.5745 165.057 64.4451 165.281 65.437 165.341C65.0707 164.922 64.0145 164.568 63.496 164.423C61.8381 163.957 60.0136 164.09 58.3557 163.641C56.2268 163.063 54.2787 162.156 52.0689 162.126C49.8282 162.096 48.6318 161.078 47.1903 159.552C46.6456 158.974 45.9986 158.482 45.618 157.79C45.059 156.772 44.6951 155.565 44.2812 154.489C43.7175 153.019 43.3607 151.43 42.6185 150.02C41.7122 148.301 39.4668 147.157 37.7375 146.267C35.768 145.251 33.6533 143.97 31.5197 143.306C30.3874 142.954 29.298 142.6 28.1943 142.215C27.8161 142.083 27.3927 142.036 27.0288 141.866C26.5697 141.654 26.5126 141.496 26.1035 141.193C25.1615 140.494 24.3028 139.709 23.368 138.97C22.2548 138.092 20.9109 137.416 20.3162 136.125C19.8429 135.095 20.1235 134.187 19.9214 133.134C19.7073 132.022 19.1055 130.538 18.5798 129.529C17.3572 127.183 14.6717 125.49 13.8082 122.964C13.0328 120.697 12.3215 118.172 11.9005 114.043L11.8958 114.036Z" fill="url(#paint5_radial_24_1716)"/>
<path style="mix-blend-mode:multiply" d="M149.782 164.593C154.054 165.146 157.884 165.353 161.984 163.939C165.055 162.881 168.321 162.191 171.347 161.061C173.866 160.12 177.032 158.725 178.564 156.462C178.944 155.901 179.035 155.223 179.453 154.692C179.836 154.207 180.364 153.893 180.723 153.378C181.116 152.819 181.775 151.896 181.929 151.32C179.919 150.987 177.289 154.729 175.954 155.777C173.592 157.637 170.291 159.009 167.481 160.199C164.706 161.376 161.425 161.956 158.407 161.923C157.248 161.91 155.99 162.117 154.927 162.443C153.455 162.893 153.233 164.314 149.782 164.593Z" fill="url(#paint6_radial_24_1716)"/>
<g style="mix-blend-mode:multiply" opacity="0.5">
<path d="M140.581 109.034C138.293 109.321 136.119 109.584 133.902 110.078C132.575 110.374 129.316 110.788 128.552 112.237C127.189 114.828 132.401 114.919 133.693 114.921C135.213 114.924 136.376 114.537 137.846 114.362C139.173 114.204 140.243 114.248 141.483 113.575C143.198 112.643 143.426 111.876 143.455 110.103L140.579 109.034H140.581Z" fill="#A72752"/>
<path d="M135.979 125.862C133.405 125.194 130.769 125.103 128.117 124.721C127.108 124.574 124.808 124.061 123.938 124.774C123.143 125.424 123.707 126.654 124.24 127.265C125.151 128.306 126.19 129.336 127.244 130.247C128.507 131.34 130.881 133.318 132.744 132.3C133.821 131.71 134.861 130.438 135.346 129.394C135.612 128.821 136.074 128.118 136.224 127.519C136.357 126.988 136.259 126.405 135.979 125.865V125.862Z" fill="#A72752"/>
<path d="M146.906 122.656C144.737 123.472 142.625 124.334 140.555 125.34C140.203 125.513 137.648 126.748 138.835 127.216C139.984 127.668 141.956 126.494 142.95 126.135C144.601 125.541 146.38 124.485 147.77 123.458L146.906 122.656Z" fill="#A72752"/>
<path d="M163.871 114.376C165.545 113.419 167.439 112.356 168.975 111.198C170.602 109.971 172.058 108.5 173.652 107.226C174.686 106.399 175.704 105.632 176.777 104.88C177.303 104.512 177.605 103.969 178.102 103.573C178.433 103.31 178.816 103.114 179.18 102.893C180.826 101.898 182.543 100.395 184.508 100.008C185.222 99.8684 187.71 99.7705 187.139 101.136C186.689 102.215 184.032 102.424 183.071 102.69C182.046 102.976 181.204 103.112 180.324 103.694C179.651 104.137 179.17 104.707 178.533 105.171C177.807 105.7 177.4 106.224 176.822 106.893C175.978 107.871 174.95 108.526 173.989 109.376C171.818 111.294 169.032 112.554 163.868 114.379L163.871 114.376Z" fill="#A72752"/>
<path d="M135.978 141.887C135.819 141.519 135.025 138.665 133.743 139.25C132.732 139.711 133.084 141.763 133.088 142.563C133.096 143.651 133.44 144.576 133.685 145.626C133.916 146.619 134.078 147.595 134.361 148.578C134.913 150.498 135.838 152.25 136.568 154.121C136.775 154.65 137.237 157.222 138.293 156.87C139.13 156.59 139.075 154.293 139.211 153.627C139.563 151.91 139.501 150.165 139.154 148.436C138.918 147.271 138.536 146.111 138.148 144.981C137.701 143.674 136.806 142.621 135.978 141.887Z" fill="#A72752"/>
<path d="M100.037 113.307C100.513 114.4 101.076 115.241 101.467 116.263C101.833 117.226 102.137 118.281 102.618 119.199C103.553 120.988 104.568 122.999 106.35 124.206C107.416 124.928 108.767 125.66 110.068 125.844C111.112 125.993 112.197 126.284 113.205 125.932C113.681 125.767 114.368 125.59 114.442 125.059C114.509 124.583 114.138 124.429 113.84 124.127C113.039 123.316 112.087 122.412 111.036 121.839C109.647 121.082 108.184 120.443 106.928 119.481C106.238 118.95 105.591 118.388 104.911 117.845C104.307 117.365 104.104 116.825 103.712 116.228C103.353 115.683 102.784 115.073 102.354 114.567C101.904 114.041 100.755 112.89 100.039 113.305L100.037 113.307Z" fill="#A72752"/>
<path d="M84.5091 99.9523C83.1152 99.5329 82.3921 99.4211 81.0267 99.4187C80.199 99.4187 79.3688 99.3954 78.5434 99.4117C76.8593 99.4444 75.1467 100.344 73.867 101.294C73.3365 101.688 73.1391 101.655 73.5649 102.149C74.1167 102.788 75.0801 103.221 75.8603 103.559C76.4787 103.824 77.1186 103.985 77.7489 104.214C78.6029 104.523 79.345 105.003 80.2037 105.309C81.4882 105.768 82.7608 106.327 84.0572 106.744C85.0086 107.051 85.9839 107.352 86.9377 107.638C87.4515 107.792 88.0081 107.792 88.5195 107.958C88.9215 108.088 89.2736 108.312 89.6779 108.44C90.2298 108.612 91.5737 109.169 92.1541 109.055C92.6893 108.948 92.6703 108.463 92.5751 107.965C92.4705 107.408 92.0709 106.744 91.7212 106.294C91.0433 105.427 90.187 104.474 89.3259 103.752C88.5433 103.095 87.5752 102.583 86.8878 101.842C86.2503 101.154 85.7793 100.681 85.0229 100.09C84.4068 99.6098 83.8597 98.8316 84.5115 99.9523H84.5091Z" fill="#A72752"/>
<path d="M85.658 95.1435C86.0076 93.8015 86.2169 92.4315 86.7236 91.1338C86.9781 90.4768 87.4277 89.9526 87.6156 89.2653C87.7702 88.7015 87.8558 88.1796 88.0913 87.6274C88.9453 85.6168 89.8468 83.5945 90.3392 81.4673C90.5485 80.5564 90.7483 79.5732 90.8506 78.6482C90.941 77.8281 90.7245 76.9987 90.9005 76.1786C90.9885 75.7709 91.1098 75.4051 91.1336 74.9834C91.1432 74.811 91.0171 74.4965 91.1669 74.3497C91.626 73.9047 92.1041 74.599 92.2659 74.8599C93.096 76.1879 93.3196 77.6371 93.6764 79.1142C94.057 80.6845 94.1498 82.108 93.6384 83.655C93.1817 85.0436 92.5466 86.2202 91.6403 87.3874C90.1298 89.3398 87.8749 91.0523 85.658 95.1388V95.1435Z" fill="#A72752"/>
<path d="M82.7846 53.4744C83.0724 55.9976 82.9559 59.5506 85.0205 61.4308C85.5153 61.8804 85.796 62.3184 86.5239 62.2998C87.2184 62.2812 87.7441 61.913 88.2627 61.4867C88.9572 60.9135 89.5281 60.1563 90.0895 59.4784C90.7507 58.6792 91.4905 58.0292 92.216 57.2813C92.775 56.7059 94.5804 54.8466 93.8668 53.9963C93.3744 53.4091 91.5642 53.7283 90.9125 53.931C89.8302 54.2665 88.4292 55.725 87.2303 55.6318C86.2265 55.5526 86.11 53.9287 85.8816 53.2624C85.5153 52.1976 84.2094 51.8202 83.3579 52.6729L82.7822 53.4744H82.7846Z" fill="#A72752"/>
<path d="M73.8693 39.8518C75.3631 40.849 75.9578 41.4547 77.0329 42.7198C78.0153 43.8754 78.648 45.1755 79.4045 46.4639C80.0515 47.5636 80.7389 48.6376 81.3906 49.7256C81.6238 50.1124 82.2279 51.2214 82.7964 50.9628C83.7146 50.5457 82.7465 47.8338 82.5157 47.3306C82.0043 46.2146 81.0838 45.278 80.2061 44.4066C79.747 43.95 79.3688 43.4537 78.8526 43.046C78.051 42.4146 77.052 41.9789 73.8669 39.8518H73.8693Z" fill="#A72752"/>
<path d="M95.4366 50.802C97.2397 49.2154 99.2948 47.8594 101.497 46.7761C102.08 46.4895 105.237 45.0683 105.672 45.9816C106.029 46.7318 104.031 47.6637 103.491 47.9853C102.259 48.7168 100.974 49.1735 99.5969 49.6022C98.5693 49.9213 96.7711 50.2918 95.439 50.802H95.4366Z" fill="#A72752"/>
<path d="M67.5445 88.4661C67.6848 87.4293 68.3889 85.4397 66.9046 85.0529C65.8747 84.785 65.1896 85.195 64.2691 85.5282C63.691 85.7356 63.1654 86.0571 62.5921 86.2691C61.8785 86.5324 61.1078 86.5696 60.3681 86.7234C59.4665 86.9098 58.684 87.1311 57.7492 87.1311C57.1164 87.1311 56.6835 87.3734 56.0746 87.4433C56.0746 88.2727 57.6921 89.0765 58.3533 89.4749C59.4642 90.1413 60.6892 90.5467 61.9499 90.9031C62.849 91.1571 63.7814 91.2573 64.6711 91.0056C66.2695 90.556 66.995 88.8762 67.5469 88.4661H67.5445Z" fill="#A72752"/>
<path d="M60.3562 101.287C58.7078 103.046 57.0998 104.759 54.5428 105.292C53.3701 105.537 52.6612 105.523 51.4695 105.325C50.4443 105.155 49.5 104.843 48.5105 104.558C47.245 104.195 45.9201 103.813 44.6047 103.692C43.2632 103.568 41.7836 103.431 40.6371 102.757C39.581 102.138 39.0601 101.721 39.0672 100.551C39.0767 99.2346 39.7451 98.5939 40.8131 97.8018C42.238 96.744 44.0386 96.6788 45.4063 97.8134C45.7631 98.1093 46.246 98.298 46.5719 98.6009C46.8264 98.8386 46.8597 99.1904 47.1166 99.4303C47.5852 99.866 48.5367 100.469 49.1456 100.691C49.7521 100.912 50.5038 101.194 51.1437 101.299C52.0713 101.45 53.0418 101.411 53.9695 101.537C54.3596 101.59 54.6546 101.776 55.0399 101.828C55.3539 101.872 55.7273 101.818 56.0485 101.818C56.8144 101.818 57.5803 101.818 60.361 101.285L60.3562 101.287Z" fill="#A72752"/>
<path d="M64.6687 101.019C63.4555 101.324 62.2353 101.499 61.1435 102.079C60.663 102.336 60.2039 102.622 59.6949 102.83C59.2001 103.03 57.8847 103.706 59.0455 103.971C59.4546 104.064 60.0065 103.843 60.3823 103.768C61.1839 103.608 61.9308 103.503 62.6825 103.163C63.7552 102.676 64.6972 102.077 65.5297 101.287L64.6663 101.019H64.6687Z" fill="#A72752"/>
<path d="M81.0577 157.38C81.8331 159.002 82.1186 159.477 83.4863 160.421C83.9834 160.763 84.5614 160.943 85.0586 161.276C85.5319 161.593 85.8792 162.021 86.3668 162.329C86.9853 162.718 87.6394 162.96 88.1913 163.45C88.6218 163.832 88.9834 164.253 89.4615 164.591C90.3915 165.25 91.1646 166.036 92.0566 166.73C92.9438 167.42 93.7668 168.261 94.4947 169.125C95.2511 170.024 96.1265 170.593 97.097 171.275C97.7249 171.718 98.1769 172.184 98.3172 171.275C98.4338 170.528 98.1079 169.871 97.8819 169.169C97.587 168.247 97.1802 167.336 96.764 166.46C96.3596 165.609 95.9576 164.638 95.4438 163.843C94.7231 162.734 94.0475 161.541 92.8463 160.854C91.6308 160.157 90.4177 159.778 89.0452 159.452C88.3173 159.279 87.6228 159.198 86.8925 159.048C86.2907 158.925 85.6818 158.89 85.0847 158.727C84.3902 158.536 83.7979 158.247 81.0553 157.38H81.0577Z" fill="#A72752"/>
<path d="M37.4331 149.997C38.0753 150.167 38.72 150.323 39.3741 150.468C39.8855 150.582 40.435 150.941 40.8869 150.514C41.1819 150.237 41.2413 149.501 41.032 149.154C40.9393 148.998 40.6871 148.93 40.5777 148.781C40.4492 148.608 40.4992 148.371 40.3565 148.191C40.0544 147.807 39.1838 147.406 38.7319 147.171C36.7933 146.164 35.0354 144.955 33.0373 144.026C31.2034 143.173 29.4575 142.134 27.5736 141.414C25.792 140.731 24.1364 139.702 21.2463 138.418C21.5746 139.173 21.929 140.356 22.4499 141.102C22.8543 141.677 23.3657 142.16 23.7558 142.751C24.5455 143.949 25.5232 144.906 26.7101 145.775C29.5621 147.87 33.211 148.392 36.3675 149.927C37.3332 150.395 38.199 151.004 39.0839 151.591C40.3684 152.443 42.0049 153.189 42.9516 154.396C44.022 155.761 44.5524 157.72 44.5405 159.389C44.5382 159.864 44.65 160.831 43.9911 161.096C43.4202 161.327 42.15 160.218 41.7456 159.876C41.2223 159.431 40.7513 159.055 40.1686 158.68C39.2694 158.1 38.6914 157.341 38.0278 156.553C36.5007 154.738 36.1439 153.552 35.6229 151.241L37.4307 149.999L37.4331 149.997Z" fill="#A72752"/>
<path d="M24.9879 100.754C24.417 99.6028 24.36 98.9388 23.223 98.6289C22.5355 98.4425 21.9052 98.1699 21.1797 98.0744C20.5898 97.9975 19.9119 97.8228 19.3243 97.7878C18.7939 97.7552 18.2468 98.0278 17.7425 98.156C16.9362 98.361 16.0989 98.3773 15.283 98.5427C14.4933 98.7035 13.6679 98.8712 12.8901 99.0762C12.1479 99.2719 10.716 99.7006 10.4519 100.488C9.90009 102.133 13.794 102.359 14.8905 102.354C17.9518 102.343 21.0203 102.34 24.9903 100.751L24.9879 100.754Z" fill="#A72752"/>
<path d="M67.8323 83.6574C68.641 82.56 69.0787 81.8681 70.0563 81.0596C70.7913 80.4515 71.3693 80.144 72.2685 79.7852C73.0796 79.4613 74.6186 78.2102 75.5677 78.6366C75.463 79.2586 73.6195 79.9739 73.1438 80.2139C72.1162 80.7311 71.1005 81.1295 70.1467 81.7655C69.6995 82.0638 68.3722 82.5251 68.4079 83.1238L67.8323 83.6574Z" fill="#A72752"/>
<path d="M113.262 44.9262C114.292 44.5324 115.334 44.1037 116.421 43.8917C117.584 43.6657 118.757 43.6238 119.913 43.3163C121.126 42.9924 122.917 42.4729 124.159 42.8433C124.066 43.1881 123.607 43.4211 123.3 43.6355C122.32 44.3158 121.269 44.8982 120.139 45.3386C119.197 45.7043 118.103 45.9676 117.08 46.0096C116.347 46.0398 114.635 46.3124 114.126 45.73L113.262 44.9285V44.9262Z" fill="#A72752"/>
<path d="M142.306 24.3584C141 25.302 140.229 25.8775 139.316 27.047C138.619 27.944 137.862 29.1253 137.41 30.1527C136.935 31.2314 136.416 32.3032 135.967 33.3912C135.738 33.941 135.631 34.8939 135.234 35.3319C135.921 35.3879 136.778 34.3068 137.199 33.9107C137.786 33.3586 138.376 32.8646 139.014 32.3684C139.615 31.9001 139.975 31.3572 140.503 30.826C141.283 30.0432 142.318 29.4002 142.827 28.4263C143.343 27.4408 143.471 26.5042 142.308 24.3538L142.306 24.3584Z" fill="#A72752"/>
<path d="M98.8857 172.072C99.0094 172.958 98.8263 174.076 99.7207 174.549C100.13 174.766 101.143 174.91 101.595 174.724C102.799 174.227 101.079 173.214 100.613 172.874L98.8881 172.072H98.8857Z" fill="#A72752"/>
<path d="M164.734 162.723C161.963 162.021 159.254 161.472 156.416 162.343C155.386 162.66 154.278 163.165 153.409 163.771C153.067 164.011 152.846 164.382 152.47 164.591C153.861 165.325 155.995 164.712 157.417 164.461C158.726 164.23 159.982 163.937 161.287 163.731C162.096 163.606 163.285 163.296 164.734 162.723Z" fill="#A72752"/>
</g>
<g style="mix-blend-mode:multiply">
<path d="M15.7848 37.981C15.8443 39.5839 15.5017 41.5875 16.6054 42.8526C17.2001 43.5353 18.4584 44.2226 19.2862 44.6792C21.3485 45.8185 24.053 45.8441 26.0344 47.0347C30.121 49.4927 32.3688 53.6118 33.9435 57.738C35.0662 60.6805 37.138 63.5323 38.6723 66.3071C40.1494 68.9817 40.5918 71.894 40.5395 74.8692C40.4777 78.5434 39.3311 81.458 38.325 84.9131C38.0657 85.8078 37.9063 86.777 37.5638 87.6484C36.9453 89.2187 35.1709 90.3906 33.727 91.3249C31.7718 92.5876 29.8855 92.9418 27.5568 93.2749C25.3613 93.5871 23.337 94.0438 21.1201 94.0624C19.0055 94.081 17.3119 94.9338 15.2092 94.363C14.3433 94.1276 13.4632 93.8434 12.6117 93.5662C10.8205 92.9814 10.0736 91.6883 8.85577 90.3836C7.39765 88.8226 5.61128 87.024 4.98807 84.9947C4.35772 82.9444 3.29684 81.0712 2.53567 79.0676C0.956241 74.9088 1.41532 70.6522 1.96717 66.4166C2.61892 61.4238 5.42336 57.1998 7.38813 52.6682C8.2944 50.5784 8.88193 48.1297 9.99277 46.1284C11.4556 43.4933 14.1174 41.3825 15.7824 37.9833L15.7848 37.981Z" fill="#EABEB0"/>
<path d="M131.378 38.5145C129.083 40.6602 127.839 41.8787 125.079 42.9365C122.722 43.8405 120.087 43.8544 117.575 43.8568C116.635 43.8568 115.617 43.9616 114.687 43.8684C113.6 43.7589 113.265 43.3815 112.282 42.9178C108.462 41.1099 105.215 38.3817 101.141 36.8882C98.1054 35.7769 95.3699 34.4699 92.1421 33.8431C88.8215 33.2001 86.5832 33.0207 83.353 33.9736C76.8045 35.905 80.4819 43.5958 82.1446 47.8058C83.0818 50.1753 83.7669 52.6705 84.5233 55.0982C84.999 56.6243 85.2107 58.7957 87.0684 59.3921C89.2568 60.0934 91.3548 57.9686 92.8462 56.9481C95.1868 55.3475 97.1254 53.3508 99.171 51.4474C100.234 50.4595 101.157 50.1939 102.477 49.6184C103.548 49.1525 104.44 48.4349 105.51 47.9759C106.771 47.4331 109.309 47.27 110.703 47.5705C111.733 47.7942 112.974 48.33 113.981 48.8007C115.405 49.467 116.944 50.2988 118.148 51.3379C119.861 52.8173 121.709 53.5093 124.016 53.889C127.532 54.4692 130.008 53.3369 132.893 51.671C135.369 50.2382 137.903 48.5281 138.305 45.6228C138.54 43.9243 138.124 42.7058 137.139 41.3219C136.361 40.2269 134.837 38.8313 131.378 38.5168V38.5145Z" fill="#EABEB0"/>
<path d="M125.629 127.197C123.134 127.197 120.346 126.799 118.153 128.215C116.019 129.592 114.896 132.076 112.91 133.635C110.731 135.345 108.871 136.312 106.017 136.302C100.967 136.286 97.0326 134.783 92.4133 132.94C84.0142 129.588 75.1085 126.748 71.5168 118.213C70.7128 116.303 70.7794 114.178 71.4026 112.216C72.1304 109.924 74.6114 108.423 76.8759 107.41C86.1669 103.254 95.1511 110.916 102.22 115.46C103.959 116.578 105.467 118.029 107.08 119.215C108.143 119.996 109.463 120.553 110.674 121.177C112.101 121.911 113.336 123.02 114.83 123.612C117.296 124.588 119.245 125.303 125.626 127.202L125.629 127.197Z" fill="#EABEB0"/>
<path d="M57.1925 172.606C60.5678 174.763 64.3095 176.925 68.1224 178.402C70.6224 179.372 73.9406 179.607 76.6166 179.991C81.4429 180.683 86.0575 178.153 90.5746 176.998C93.6193 176.219 92.0708 174.118 93.253 172.061C94.1569 170.488 96.7805 169.61 98.6002 170.059C101.59 170.798 104.671 171.56 107.641 172.473C111.143 173.549 115.125 173.393 118.655 172.501C123.467 171.285 128.338 169.642 131.854 166.208C133.06 165.032 133.502 163.394 134.254 161.935C134.822 160.831 135.262 159.873 135.576 158.68C135.683 158.277 135.824 157.101 136.112 156.677C137.339 154.864 139.311 157.872 139.863 158.941C140.569 160.309 140.636 161.83 141.152 163.259C141.82 165.106 142.641 166.886 143.312 168.731C143.799 170.076 143.835 171.15 144.159 172.487C144.416 173.552 144.844 174.363 144.558 175.499C144.099 177.319 141.53 177.906 140.008 178.887C137.51 180.497 135.346 182.137 133.236 184.187C132.013 185.373 131.59 186.993 130.263 188.111C129.537 188.721 128.643 189.106 127.903 189.702C127.101 190.35 126.48 191.198 125.674 191.839C124.268 192.955 122.446 193.628 120.874 194.523C119.226 195.459 117.565 195.734 115.805 196.426C113.667 197.265 111.735 197.945 109.444 198.397C107.777 198.726 106.107 198.656 104.437 198.917C103.227 199.105 102.152 199.436 100.891 199.357C98.8428 199.229 96.7924 198.313 94.8562 197.717C93.0508 197.16 91.1669 196.629 89.3972 195.995C85.4224 194.571 81.4596 193.453 77.8821 191.277C74.0429 188.94 69.8089 186.825 66.5216 183.724C65.4536 182.715 64.7447 181.58 63.4936 180.714C62.5159 180.038 61.9903 179.472 61.2101 178.605C60.23 177.517 57.6896 175.725 57.1949 172.61L57.1925 172.606Z" fill="#EABEB0"/>
<path d="M130.802 130.937C131.164 133.092 131.295 134.553 132.08 136.405C132.589 137.609 133.179 138.798 133.552 140.046C134.056 141.738 134.637 143.331 135.672 144.811C137.415 147.301 139.984 150.812 143.738 149.964C146.04 149.445 147.817 147.544 149.782 146.43C150.993 145.743 152.07 144.997 153.179 144.172C154.786 142.975 156.409 142.302 158.281 141.488C161.026 140.298 163.359 138.576 165.712 136.836C169.403 134.105 172.591 131.3 174.463 127.155C176.183 123.348 177.186 116.391 172.227 114.22C170.869 113.626 169.368 112.985 167.974 113.61C166.306 114.358 164.732 115.18 163.067 115.967C160.6 117.135 158.219 118.258 156.007 119.821C154.163 121.123 152.015 122.57 149.908 123.495C144.606 125.823 136.854 125.077 130.802 130.934V130.937Z" fill="#EABEB0"/>
<path d="M175.086 105.294C176.877 103.321 178.502 101.539 180.088 99.4816C181.694 97.3987 182.231 95.176 183.135 92.7926C185.638 86.2062 184.734 78.9021 186.563 72.134C187.384 69.0935 190.014 62.1227 194.622 63.2014C197.869 63.9609 198.706 66.4841 199.548 69.2287C200.243 71.4933 199.962 74.6106 199.836 76.9824C199.686 79.8038 198.454 82.7394 197.821 85.5119C197.384 87.427 196.522 89.2885 195.78 91.1128C195.217 92.499 194.596 94.1346 193.813 95.4207C192.764 97.1424 190.964 98.5147 189.118 99.4373C188.109 99.9405 186.967 100.486 185.902 100.889C184.841 101.29 182.303 101.485 175.084 105.294H175.086Z" fill="#EABEB0"/>
<path d="M144.03 25.6934C141.273 26.4063 138.709 26.821 135.976 27.4314C133.854 27.9067 132.161 28.6989 129.991 28.9785C128.581 29.1602 127.249 29.5376 125.812 29.2697C123.816 28.8992 121.557 27.8159 119.82 26.7954C116.687 24.9572 114.085 22.0519 111.942 19.2817C109.302 15.8685 107.342 11.5769 108.793 7.36924C109.283 5.94338 109.673 4.37074 111.366 3.88381C112.606 3.52734 115.139 3.58326 116.362 3.80925C117.991 4.1098 119.78 5.36092 121.024 6.3278C122.311 7.3273 123.581 8.08217 124.813 9.19117C125.983 10.2443 127.249 11.3253 128.474 12.3341C129.732 13.3709 131.39 13.8252 132.529 14.9668C133.664 16.1061 134.418 17.3736 135.693 18.4127C136.77 19.291 137.417 20.3837 138.407 21.297C139.965 22.7345 142.075 23.6874 144.033 25.6911L144.03 25.6934Z" fill="#EABEB0"/>
<path d="M9.84293 113.307C10.0951 115.187 10.0356 117.165 10.4328 119.01C10.8229 120.814 11.4295 122.622 12.1264 124.341C13.8391 128.567 16.0037 132.656 17.928 136.806C18.9342 138.972 20.1497 141.102 21.3723 143.171C22.143 144.475 22.9208 145.796 22.9422 147.327C22.9898 150.873 19.3599 152.054 16.2653 151.013C12.7497 149.832 9.29822 147.63 6.95286 144.934C5.72072 143.52 4.56231 141.784 3.78925 140.116C3.07565 138.576 2.11467 136.78 1.8435 135.121C1.22981 131.396 1.43437 127.295 2.54521 123.656C3.07565 121.923 3.50143 120.198 4.47192 118.626C5.59465 116.813 6.2131 115.32 9.84531 113.309L9.84293 113.307Z" fill="#EABEB0"/>
<path d="M10.9918 103.692C10.566 104.628 9.75254 105.83 9.80249 106.835C9.83341 107.478 10.4424 108.787 10.6017 109.295C11.0965 110.868 11.4557 112.622 12.9257 113.668C15.9133 115.79 20.1877 114.46 22.9018 112.515C24.6001 111.296 26.4579 109.334 25.9227 107.191C25.523 105.6 23.4845 104.179 22.0431 103.398C21.3699 103.035 20.5754 102.781 19.8262 102.597C18.9151 102.373 17.5664 102.422 16.7458 101.909L10.9942 103.689L10.9918 103.692Z" fill="#EABEB0"/>
<path d="M37.8302 94.074C37.4805 92.9557 37.4496 91.8491 37.7374 90.7494C38.2488 90.316 38.6746 89.8151 39.0124 89.2466C40.2493 87.674 41.6455 85.9662 43.3106 84.757C45.9438 82.8419 48.0465 83.3824 50.9699 84.4518C53.672 85.4397 55.4751 87.1731 56.9142 89.5122C57.6016 90.6282 58.1463 91.7023 58.9455 92.7624C59.426 93.4007 59.6877 93.9855 59.8922 94.7404C61.0554 99.0646 56.3575 101.304 52.3804 101.567C50.506 101.69 48.6887 100.791 47.233 99.7169C46.077 98.8642 45.1136 97.902 43.8957 97.1005C42.4305 96.1336 40.8511 95.3648 37.8302 94.0717V94.074Z" fill="#EABEB0"/>
<path d="M88.8215 88.3753C87.3848 90.4628 86.4476 92.7903 84.8801 94.8033C83.4624 96.6275 82.3635 98.6335 80.2821 99.8916C78.9858 100.677 77.3849 101.707 75.8626 100.863C73.8479 99.7472 74.7327 98.0511 75.5248 96.4435C78.0914 91.2386 81.5452 86.2808 85.3511 81.7795C86.274 80.6868 87.7916 79.5778 89.2164 80.6985C91.7449 82.6881 90.4009 85.9779 88.8191 88.3729L88.8215 88.3753Z" fill="#EABEB0"/>
<path d="M143.264 169.223C143.081 168.2 143.195 167.222 143.604 166.294C144.596 166.273 145.755 165.584 146.682 165.306C148.471 164.771 150.203 164.351 152.072 164.141C155.001 163.813 157.919 163.431 160.816 162.909C163.347 162.455 165.74 161.43 168.183 160.677C170.452 159.978 172.819 159.459 174.808 158.191C176.573 157.066 177.829 155.691 179.282 154.27C181.266 152.329 182.643 150.011 184.315 147.821C185.145 146.735 186.342 144.871 188.1 145.414C189.379 145.81 190.4 147.143 190.738 148.299C191.12 149.61 190.749 151.695 189.969 152.839C189.275 153.855 188.566 155.022 187.767 155.964C186.863 157.028 185.7 157.923 184.679 158.89C182.955 160.528 180.916 161.996 179.004 163.452C177.027 164.957 175.281 166.443 172.888 167.366C167.805 169.33 162.465 170.777 157.058 171.623C155.136 171.923 153.209 172.242 151.245 172.093C149.791 171.984 148.493 171.338 147.068 171.077C145.912 170.865 144.887 170.763 143.262 169.218L143.264 169.223Z" fill="#EABEB0"/>
<path d="M190.421 132.183C189.743 134.441 189.042 136.507 190.785 138.546C191.867 139.811 193.616 139.499 194.463 138.257C196.256 135.634 195.393 131.382 191.57 130.757L190.419 132.183H190.421Z" fill="#EABEB0"/>
<path d="M166.268 102.266C165.367 102.506 164.453 102.618 163.526 102.601C163.419 101.811 162.681 101.094 162.398 100.348C161.794 98.7663 162.198 97.3614 162.783 95.8307C163.44 94.116 165.509 91.7745 167.81 92.3383C169.803 92.8276 170.21 94.554 170.126 96.1849C170.057 97.5315 169.551 98.6941 168.702 99.7775C168.081 100.57 167.034 102.142 165.885 102.266H166.268Z" fill="#EABEB0"/>
<path d="M146.33 31.3922C144.002 31.7486 143.507 31.6881 142.161 33.2001C141.04 34.4582 140.046 35.6138 139.387 37.1422C139.061 37.8971 138.745 38.2698 139.454 38.8779C140.419 39.7074 142.032 39.6561 143.236 39.6165C145.633 39.5373 148.911 38.8057 150.574 37.0187C152.11 35.3669 151.471 32.0375 149.782 30.6816L146.33 31.3945V31.3922Z" fill="#EABEB0"/>
<path d="M70.4178 11.0923C69.9207 13.0191 69.4711 14.8713 68.7908 16.7422C68.151 18.5059 67.5468 20.5305 67.7751 22.4177C68.1272 25.2997 69.9611 27.8136 71.1052 30.4463C71.669 31.744 71.8236 32.4103 70.1348 32.7435C68.239 33.1186 66.1862 32.648 64.7423 31.4877C61.7024 29.0461 59.2191 25.952 60.4322 22.0612C60.8175 20.8287 61.0126 19.2444 61.6596 18.1098C62.2757 17.0264 63.3508 15.8266 64.2856 14.9762C65.8056 13.5899 67.8822 12.4437 70.4202 11.0923H70.4178Z" fill="#EABEB0"/>
<path d="M51.2482 128.621C50.0185 128.884 48.9481 129.401 48.037 130.173C47.754 130.988 47.4233 131.787 47.0404 132.568C46.0723 134.762 45.3325 136.885 45.5228 139.294C45.8582 143.506 48.3486 147.94 52.8943 149.314C55.9984 150.253 58.3343 150.218 61.1482 148.49C63.3556 147.134 65.6129 144.687 66.7571 142.495C67.2875 141.479 67.8608 140.566 68.4364 139.583C68.993 138.63 69.2071 137.33 69.5663 136.288C70.3607 133.975 70.2156 130.816 68.8289 128.712C67.3065 126.405 65.4726 124.294 62.466 123.691C59.3737 123.069 56.6787 124.441 51.2506 128.621H51.2482Z" fill="#EABEB0"/>
</g>
<g style="mix-blend-mode:soft-light" opacity="0.2">
<path d="M101.857 52.0485C98.9903 53.966 96.4998 55.2357 95.1273 58.2668C94.1497 60.4243 93.398 62.5561 93.4266 64.8859C93.4623 67.952 93.1673 70.9225 94.1901 73.7999C95.1226 76.4186 95.9028 78.9581 95.741 81.9636C95.6387 83.888 94.5184 86.2202 93.7215 88.0049C92.0993 91.6324 91.4737 95.2972 92.0517 99.251C92.5679 102.778 93.8666 106.294 96.6235 108.92C98.6763 110.875 102.896 111.818 105.722 111.904C108.736 111.997 110.498 111.753 113.191 110.611C115.465 109.647 117.886 108.677 120.253 107.953C127.43 105.761 134.585 103.799 140.828 99.6261C144.083 97.45 146.623 93.4613 147.515 89.899C147.979 88.0421 148.557 86.1526 148.545 84.2398C148.526 81.479 147.36 78.604 146.347 76.0155C143.764 69.4174 138.957 62.845 132.377 59.1871C128.505 57.0344 125.12 54.4995 120.862 53.0387C119.111 52.4376 117.48 51.6292 115.696 51.1096C112.708 50.2382 110.172 51.275 101.859 52.0462L101.857 52.0485Z" fill="#F7BCB1"/>
<path d="M142.498 42.0768C139.254 45.4574 133.015 50.4596 134.097 55.6109C134.677 58.3787 136.923 59.4644 139.399 60.5944C142.648 62.0761 145.857 63.6674 149.568 63.5113C155.315 63.2667 160.312 59.0287 159.211 53.4954C158.678 50.823 157.251 47.4425 154.858 45.7463C152.008 43.7287 148.229 43.4305 144.801 43.5027L142.501 42.0792L142.498 42.0768Z" fill="#F7BCB1"/>
<path d="M155.533 91.9376C153.878 88.783 151.851 85.5981 151.766 82.0055C151.678 78.2848 154.615 74.3497 156.492 71.2044C158.295 68.1826 163.131 64.2871 167.072 66.9432C170.474 69.2334 171.252 74.2682 170.469 77.721C168.728 85.4141 162.998 90.0784 155.533 93.3635V91.9399V91.9376Z" fill="#F7BCB1"/>
<path d="M177.769 114.02C176.506 118.246 176.428 122.242 174.717 126.293C172.931 130.524 170.35 134.837 169.132 139.161C168.407 141.738 166.963 144.21 167.921 146.994C169.056 150.286 173.281 150.726 176.163 149.559C185.214 145.89 191.178 140.035 191.608 130.545C191.701 128.509 191.665 126.585 191.13 124.625C190.604 122.701 190.219 120.119 189.144 118.402C187.426 115.662 184.824 113.92 177.774 114.02H177.769Z" fill="#F7BCB1"/>
<path d="M118.726 141.086C113.077 139.124 112.318 138.711 108.008 141.931C104.701 144.401 102.475 147.232 101.248 151.041C100.075 154.68 99.9846 158.692 101.188 162.35C101.802 164.214 103.441 165.358 104.742 166.793C106.314 168.531 107.342 168.613 109.547 169.321C112.32 170.211 115.061 170.989 117.96 169.85C121.228 168.566 124.256 165.248 125.979 162.459C130.688 154.834 125.569 146.577 118.726 141.086Z" fill="#F7BCB1"/>
<path d="M76.5524 133.963C75.3417 135.806 74.5686 137.777 74.2356 139.874C74.8279 140.643 75.1419 141.51 75.1823 142.479C75.6913 144.357 76.6666 146.246 78.0676 147.721C79.8207 149.566 82.2017 150.281 84.6042 148.96C87.116 147.579 88.2625 144.92 88.6622 142.346C88.9809 140.303 88.529 138.551 87.1707 136.813C86.1765 135.54 84.1879 132.474 82.687 131.824L76.5524 133.961V133.963Z" fill="#F7BCB1"/>
<path d="M48.1821 122.566C44.7711 127.913 38.658 139.534 29.757 135.473C26.8551 134.15 23.8508 131.99 22.0811 129.509C19.7476 126.235 20.24 122.421 22.2262 118.968C25.9654 112.47 31.2508 108.997 39.0195 107.734C40.7084 107.459 41.8906 107.962 43.5318 108.228C45.6655 108.575 47.3115 108.57 49.2145 109.717C54.0574 112.638 53.6792 117.922 52.0165 122.566H48.1821Z" fill="#F7BCB1"/>
<path d="M32.0786 41.3639C32.4592 44.5395 32.4235 46.2402 33.5724 48.7821C34.3621 50.5318 34.9092 52.3118 35.53 54.1197C36.6195 57.2883 38.1585 60.2565 39.1504 63.4414C39.8973 65.8411 41.5861 67.6747 42.8135 69.8345C44.1004 72.0991 45.2635 73.5529 47.2069 75.3585C50.7321 78.6319 54.9589 81.3858 60.28 80.5936C62.29 80.2954 63.3532 78.7391 65.0302 77.8514C66.9069 76.8589 68.7504 75.701 70.708 74.8506C82.9415 69.5432 80.8839 55.1006 73.9716 46.6759C72.0639 44.3507 69.7042 42.9319 67.5634 40.8513C65.5273 38.8733 63.2224 37.4148 60.4893 36.3478C57.4113 35.1479 53.8433 34.9335 50.5584 34.9242C44.8449 34.9102 40.8535 35.8678 32.081 41.3662L32.0786 41.3639Z" fill="#F7BCB1"/>
<path d="M84.9871 3.6136C82.9367 5.23516 81.6689 6.10885 80.3654 8.03795C79.4734 9.35897 78.8692 10.8314 78.0676 12.199C76.9353 14.1305 75.4748 16.409 74.9777 18.5548C73.981 22.8534 73.7051 27.746 78.0486 30.7142C80.5414 32.4197 83.5218 31.8046 86.3525 32.2636C89.7563 32.8157 93.1435 32.9485 96.5284 33.7104C101.595 34.852 108.027 37.8062 113.203 35.8771C116.911 34.4956 117.249 30.7771 115.674 27.8695C113.59 24.0229 110.777 20.3931 109.297 16.2599C108.614 14.3541 108.243 11.8705 107.951 9.8692C107.663 7.89816 108.079 6.48861 107.325 4.59679C106.412 2.30889 105.603 1.57033 102.656 1.43753C97.3704 1.19989 91.9661 1.48413 84.9871 3.61592V3.6136Z" fill="#F7BCB1"/>
<path d="M157.834 29.7008C156.035 29.4841 154.444 28.9669 152.665 28.692C151.497 28.5126 149.848 28.0559 148.664 28.4054C148.286 29.2861 149.427 30.197 150.036 30.6979C151.585 31.977 153.143 33.0301 154.18 34.7612C155.181 36.4317 155.924 38.2117 157.146 39.7703C159.03 42.1724 161.57 43.7194 164.161 45.3945C167.329 47.4425 170.555 49.4298 173.673 51.5453C175.279 52.6357 176.811 53.8588 178.528 54.8001C180.038 55.6295 181.784 55.9906 183.485 56.3075C184.808 56.5545 187.013 57.1439 188.059 55.8974C188.835 54.9702 188.668 53.295 188.445 52.2629C188.057 50.4736 187.379 48.7285 186.316 47.2025C185.131 45.4994 183.685 44.0572 182.436 42.4193C181.485 41.1706 180.635 40.0336 179.544 38.8966C178.994 38.3235 178.547 37.7014 177.94 37.1772C177.343 36.66 176.68 36.2197 176.08 35.7024C175.136 34.8847 173.98 34.3698 172.9 33.7104C171.865 33.079 170.75 32.4989 169.651 31.9677C168.5 31.4085 167.277 30.7376 166.05 30.3601C163.673 29.6286 161.166 29.6915 157.831 29.7054L157.834 29.7008Z" fill="#F7BCB1"/>
<path d="M76.7451 9.66652C75.3227 11.8636 74.0763 14.6011 71.8855 16.2833C70.4203 17.4086 70.0706 16.3764 69.8756 14.9203C69.5806 12.6953 71.4931 9.56634 73.0939 8.07292C73.6172 7.58365 75.425 6.00169 76.1719 6.99653L76.7475 9.66652H76.7451Z" fill="#F7BCB1"/>
<path d="M31.0248 39.5839C29.4502 40.1757 27.9516 40.9911 26.3722 41.541C25.3779 41.8881 23.2633 42.6267 22.1501 42.2213C18.9436 41.0517 23.9555 37.098 25.0092 36.3874C27.747 34.5445 31.5648 32.9928 35.0115 33.1443C35.8059 33.1792 37.1142 33.8619 37.5352 34.5655C38.0347 35.4019 37.4615 36.6856 37.0619 37.4475L31.0224 39.5839H31.0248Z" fill="#F7BCB1"/>
<path d="M5.72071 84.1909C6.30348 86.0385 6.70072 86.8632 8.06607 88.2332C9.44331 89.6148 10.7064 91.1734 11.8006 92.7624C12.5665 93.8737 13.5774 95.8168 12.1693 96.8675C10.6921 97.9696 8.54894 94.8592 7.93762 94.0578C6.09892 91.658 5.60892 88.6875 5.72071 84.1909Z" fill="#F7BCB1"/>
<path d="M135.978 177.147C135.9 176.392 135.791 175.642 135.653 174.896C135.391 174.71 135.11 174.549 134.811 174.416C133.838 173.897 133.257 173.673 132.115 173.65C130.786 173.624 129.382 173.561 128.079 173.829C126.538 174.146 125.101 174.945 123.652 175.513C121.868 176.215 120.27 177.165 118.605 178.072C115.936 179.525 113.084 180.721 110.458 182.242C108.25 183.521 106.29 185.042 104.354 186.65C102.82 187.922 101.01 189.204 100.28 191.058C99.2163 193.763 101.424 195.354 103.952 195.886C106.374 196.396 108.396 195.818 110.736 195.203C112.825 194.655 114.816 194.024 116.78 193.143C120.917 191.289 124.523 188.861 127.52 185.62C129.323 183.673 131.331 181.473 135.976 177.144L135.978 177.147Z" fill="#F7BCB1"/>
<path d="M172.786 160.852C168.518 163.391 163.74 164.645 159.118 166.474C158.124 166.867 155.514 167.641 155.093 168.717C154.744 169.61 156.199 169.966 157.027 169.985C159.137 170.034 161.425 169.542 163.483 169.151C165.41 168.783 167.203 167.941 168.875 167.003C170.697 165.98 174.27 164.503 172.783 160.852H172.786Z" fill="#F7BCB1"/>
</g>
<g style="mix-blend-mode:soft-light" opacity="0.5">
<path d="M115.277 41.7204C113.859 42.2306 112.475 42.2586 111.124 41.7996C111.148 40.7698 111.143 40.0452 111.835 39.274C113.455 37.4707 116.514 36.3967 118.631 35.1619C121.402 33.545 124.601 30.2855 128.238 31.0777C130.983 31.6741 131.216 34.0436 129.685 35.8445C126.949 39.0597 122.784 40.5182 118.731 41.7204H115.279H115.277Z" fill="#F7BCB1"/>
<path d="M78.4696 38.5145C76.8664 38.5518 75.3964 38.2093 74.0548 37.487C73.9002 36.9092 73.6552 36.3664 73.3198 35.8561C72.8465 35.043 71.9735 34.1973 71.6571 33.3096C71.3931 32.5664 71.3764 31.4155 71.8308 30.7259C72.3279 29.9733 72.4468 30.1737 73.2675 29.8405C75.3773 28.9878 76.4668 29.9873 77.894 31.5296C79.9063 33.7104 79.6161 35.7979 79.6209 38.5145H78.4696Z" fill="#F7BCB1"/>
<path d="M84.7968 68.9654C84.0023 71.7403 83.2126 74.0095 81.5951 76.4419C79.8777 79.0233 77.5895 81.1039 76.1314 83.8437C75.6414 84.764 74.0572 86.7118 75.5533 87.5831C76.9639 88.4032 78.931 86.9937 79.8873 86.2877C82.7845 84.1466 86.7473 81.8028 88.4148 78.5946C89.0689 77.3365 89.0213 75.5682 88.8619 74.1889C88.6074 71.9849 85.9624 70.5497 85.9457 68.4319L84.7944 68.9654H84.7968Z" fill="#F7BCB1"/>
<path d="M76.1695 109.034C74.7756 109.376 72.7347 109.516 71.4811 110.25C71.0102 110.527 70.4107 111.324 69.9421 111.695C68.6125 112.741 67.6539 113.524 66.681 114.863C65.9626 115.853 64.6163 116.906 63.5293 117.617C62.1068 118.547 60.2634 118.018 58.6982 117.559C56.9214 117.037 54.8067 115.9 53.2511 114.91C52.2996 114.304 51.3624 113.332 50.8201 112.384C49.4785 110.036 49.8948 108.139 52.5755 107.019C54.6474 106.152 57.076 106.126 59.2239 106.627C61.0935 107.063 62.8561 106.627 64.6663 105.973C66.9284 105.152 68.5126 104.54 71.0054 104.747C74.2523 105.017 73.8408 107.671 76.1671 109.032L76.1695 109.034Z" fill="#F7BCB1"/>
<path d="M171.059 103.156C169.192 103.692 167.465 104.039 165.838 104.989C164.684 105.663 163.604 106.418 162.458 107.093C158.756 109.279 154.962 111.499 151.466 113.982C149.977 115.04 148.438 116.04 146.951 117.081C146.152 117.64 145.864 118.295 145.17 118.945C144.201 119.851 143.129 120.881 145.426 120.814C148.633 120.72 152.27 118.775 154.998 117.431C158.055 115.926 160.602 114.134 163.457 112.354C169.094 108.836 174.986 104.349 178.537 98.8805L171.061 103.153L171.059 103.156Z" fill="#F7BCB1"/>
<path d="M186.587 104.759C183.273 104.847 182.289 105.162 179.582 106.338C178.145 106.963 176.86 107.699 175.621 108.633C174.713 109.318 173.694 110.124 173.031 111.035C172.631 111.585 171.594 113.116 171.677 113.773C174.013 114.313 176.37 113.337 178.678 113.295C181.508 113.244 184.348 113.309 187.181 113.307C188.04 113.307 189.241 113.547 190.05 113.225C191.002 112.848 191.53 111.45 191.915 110.646C192.667 109.078 192.198 108.608 191.197 107.31C190.393 106.271 189.455 103.978 187.736 104.223L186.584 104.756L186.587 104.759Z" fill="#F7BCB1"/>
<path d="M129.654 137.882C130.094 139.576 134.689 153.636 129.794 152.744C128.469 152.502 126.916 150.086 126.074 149.245C123.935 147.108 122.306 144.687 119.896 142.756C118.567 141.691 117.199 140.575 115.812 139.578C114.708 138.784 113.869 138.478 113.372 137.23C112.611 135.326 113.871 133.607 115.857 132.905C120.553 131.247 126.809 134.858 129.08 138.418L129.656 137.884L129.654 137.882Z" fill="#F7BCB1"/>
<path d="M88.8215 168.866C89.4757 170.479 89.8444 172.135 89.9276 173.836C89.1593 173.887 89.3853 174.8 88.8929 175.306C88.3482 175.863 87.1208 176.003 86.4048 176.21C85.4034 176.499 84.1998 177.056 83.1128 176.853C81.1884 176.492 78.7051 174.787 77.1637 173.703C74.345 171.723 71.4193 169.603 68.9407 167.256C67.6491 166.031 65.0825 163.941 65.1753 161.926C65.3799 157.443 74.885 158.596 77.6371 159.361C80.2393 160.085 82.7607 161.763 84.7945 163.37C86.4524 164.68 89.371 167.261 88.8215 168.869V168.866Z" fill="#F7BCB1"/>
</g>
<g opacity="0.5">
<path d="M122.974 101.716C123.008 103.018 122.756 103.678 123.443 104.533C123.807 104.987 124.373 105.539 124.982 105.7C125.843 105.926 127.258 105.497 127.72 104.775C128.305 103.862 127.589 103.009 127.006 102.312C126.24 101.394 125.643 101.043 124.413 100.914L122.977 101.716H122.974Z" fill="#F29171"/>
<path d="M121.823 94.2372C121.435 93.3821 120.872 92.6179 121.002 91.7629C121.05 91.46 121.195 91.0336 121.307 90.7447C121.545 90.1297 122.109 89.5286 122.689 90.0621C123.997 91.269 123.303 93.8085 121.823 94.5028V94.2348V94.2372Z" fill="#F29171"/>
<path d="M152.879 66.4562C152.81 67.1109 152.263 69.1355 153.447 69.4128C153.956 69.5316 154.589 69.1914 154.841 68.8C155.388 67.9496 154.294 65.96 153.167 66.1883L152.879 66.4562Z" fill="#F29171"/>
<path d="M162.943 80.0811C162.679 79.0769 161.918 77.4554 162.634 76.3953C163.005 75.8478 163.611 75.5798 164.213 75.9619C164.756 76.3068 164.763 77.0709 164.687 77.6115C164.549 78.6016 164.047 79.2423 163.228 79.8132L162.941 80.0811H162.943Z" fill="#F29171"/>
<path d="M171.568 123.619C171.223 122.498 170.628 121.564 171.539 120.676C172.015 120.212 172.836 119.924 173.447 120.292C175.072 121.268 173.535 122.789 172.431 123.353L171.568 123.621V123.619Z" fill="#F29171"/>
<path d="M82.3349 127.092C82.3254 127.64 82.1256 128.556 82.5561 129.036C82.6299 129.117 83.1532 129.509 83.2935 129.562C83.7954 129.748 84.126 129.29 84.3782 128.963C84.6731 128.581 84.6969 128.42 84.4995 127.989C84.3472 127.654 83.9548 127.097 83.4838 127.095H82.3325L82.3349 127.092Z" fill="#F29171"/>
<path d="M71.983 141.873C71.3027 141.088 70.8793 140.827 71.0101 139.918C71.0648 139.548 71.2932 138.951 71.7808 138.865C72.2779 138.777 72.5563 139.196 72.6657 139.571C72.7418 139.827 72.7989 140.06 72.7204 140.324C72.6466 140.566 72.3826 140.713 72.366 140.983L71.983 141.873Z" fill="#F29171"/>
<path d="M49.362 130.298C49.1194 131.086 48.6389 131.778 49.4929 132.269C49.8401 132.47 50.5847 132.589 50.9177 132.279C51.5837 131.659 50.9486 130.566 50.128 130.478L49.362 130.301V130.298Z" fill="#F29171"/>
<path d="M25.592 98.778C25.083 98.1932 24.6667 97.9299 24.6144 97.3079C24.5977 97.0982 24.612 96.8489 24.6239 96.6392C24.6453 96.2571 24.7785 95.4743 25.3042 95.3928C25.6634 95.3368 25.9203 95.7515 26.0559 96.0265C26.2985 96.5157 26.2343 97.1518 25.7823 97.5315L25.5896 98.778H25.592Z" fill="#F29171"/>
<path d="M17.1573 64.5877C17.4808 65.2307 17.6664 66.0811 18.5441 66.1673C19.1602 66.2279 19.6621 65.7712 19.6621 65.226C19.6621 64.8137 19.5075 64.4409 19.1649 64.1497C18.713 63.7652 18.1088 63.8817 17.5403 63.8747L17.1573 64.5877Z" fill="#F29171"/>
<path d="M13.7059 63.5183C13.047 62.7564 12.626 62.4838 12.733 61.6078C12.7782 61.2467 13.066 60.6969 13.5275 60.6899C13.9604 60.6829 14.5765 61.3213 14.7501 61.6405C15.0641 62.2136 15.1141 62.7541 14.8548 63.3389L13.7035 63.516L13.7059 63.5183Z" fill="#F29171"/>
<path d="M23.0992 153.981C23.4204 155.139 23.5108 155.847 24.8285 156.108C25.3447 156.211 26.1677 155.5 26.3414 155.046C26.8147 153.797 24.7358 153.981 24.0578 153.981H23.0992Z" fill="#F29171"/>
<path d="M137.158 166.089C136.849 165.397 136.271 164.722 136.775 164.041C137.075 163.636 137.655 163.242 138.222 163.422C139.19 163.729 138.992 165.076 138.31 165.553L137.158 166.087V166.089Z" fill="#F29171"/>
<path d="M143.485 163.24C143.048 162.404 142.57 162.07 143.286 161.455C143.662 161.131 143.835 161.029 144.251 161.313C144.898 161.756 144.808 162.972 143.871 163.061L143.488 163.238L143.485 163.24Z" fill="#F29171"/>
<path d="M117.415 34.6703C117.251 35.2201 116.702 36.392 117.199 36.9978C117.508 37.3729 118.227 37.4614 118.643 37.2448C118.962 37.0793 119.437 36.5947 119.497 36.2383C119.62 35.5114 118.747 35.0966 118.179 34.8497L117.413 34.6726L117.415 34.6703Z" fill="#F29171"/>
<path d="M104.954 32.1774C104.742 31.7091 104.613 31.2221 104.571 30.7212C104.975 30.6047 105.092 30.1434 105.448 29.9547C105.831 29.752 106.614 29.9197 106.966 30.1434C107.832 30.6956 106.623 31.9514 105.912 32.0003L104.954 32.1774Z" fill="#F29171"/>
<path d="M76.3907 56.2189C76.3146 57.0157 75.9982 57.7753 76.7594 58.2739C77.4159 58.7049 77.9796 58.5045 78.3816 57.8405C79.0429 56.7478 78.4173 56.1584 77.159 56.0419L76.3931 56.2189H76.3907Z" fill="#F29171"/>
<path d="M131.409 18.6433C131.259 18.9765 130.734 19.7966 130.852 20.2532C130.905 20.4559 131.174 20.7681 131.314 20.9289C131.63 21.297 132.108 21.4298 132.613 21.2877C133.117 21.1432 133.326 20.8334 133.336 20.386C133.35 19.6638 132.905 19.6195 132.37 19.1792L131.411 18.6456L131.409 18.6433Z" fill="#F29171"/>
<path d="M79.8422 10.4516C79.6995 9.57563 79.4259 8.90696 80.2228 8.29655C80.6129 7.99833 81.0672 7.92377 81.5286 8.07987C82.7275 8.48526 81.9687 9.54767 81.3764 10.0952L79.8422 10.4516Z" fill="#F29171"/>
<path d="M171.09 50.8766C171.037 51.4124 171.08 51.9343 171.225 52.4469C171.549 52.4702 171.884 52.7102 172.198 52.6379C172.534 52.561 172.94 52.0578 173.021 51.7642C173.259 50.9069 172.431 50.0239 171.473 50.1613L171.09 50.8742V50.8766Z" fill="#F29171"/>
<path d="M161.889 72.2435C162.286 71.7799 162.617 71.025 163.343 71.1811C163.714 71.2627 164.27 71.6051 164.375 71.9779C164.584 72.7281 163.043 73.2034 162.465 73.1335L161.889 72.2435Z" fill="#F29171"/>
<path d="M181.825 126.913C181.532 126.522 181.34 126.098 181.244 125.639C181.725 125.518 182.036 124.697 182.541 125.385C182.714 125.622 182.793 125.928 182.748 126.193C182.662 126.678 182.291 126.75 182.015 127.09L181.822 126.913H181.825Z" fill="#F29171"/>
<path d="M107.063 180.336C106.954 181.012 106.738 181.454 107.047 181.99C107.197 182.251 107.363 182.685 107.682 182.817C108.044 182.967 108.745 182.829 108.99 182.557C109.587 181.895 108.976 180.756 108.215 180.516L107.063 180.338V180.336Z" fill="#F29171"/>
<path d="M69.2975 176.24C69.3498 176.753 69.5449 177.2 69.8826 177.585C70.5177 177.361 71.5382 176.876 71.5739 176.103C71.6143 175.192 70.3156 175.35 69.6828 175.35L69.2999 176.24H69.2975Z" fill="#F29171"/>
</g>
<defs>
<radialGradient id="paint0_radial_24_1716" cx="0" cy="0" r="1" gradientUnits="userSpaceOnUse" gradientTransform="translate(99.8507 87.9317) scale(113.409 105.336)">
<stop stop-color="#903D18"/>
<stop offset="0.4" stop-color="#8D3918"/>
<stop offset="0.73" stop-color="#862F1A"/>
<stop offset="0.83" stop-color="#832B1B"/>
<stop offset="0.94" stop-color="#661D1C"/>
<stop offset="0.97" stop-color="#5F1A1D"/>
</radialGradient>
<radialGradient id="paint1_radial_24_1716" cx="0" cy="0" r="1" gradientUnits="userSpaceOnUse" gradientTransform="translate(99.8658 99.4759) scale(88.2323 81.9512)">
<stop stop-color="#B68DC0"/>
<stop offset="0.99" stop-color="#C26B7F"/>
</radialGradient>
<radialGradient id="paint2_radial_24_1716" cx="0" cy="0" r="1" gradientUnits="userSpaceOnUse" gradientTransform="translate(92.4296 160.044) scale(21.6863 20.1425)">
<stop stop-color="#B68DC0"/>
<stop offset="0.99" stop-color="#C26B7F"/>
</radialGradient>
<radialGradient id="paint3_radial_24_1716" cx="0" cy="0" r="1" gradientUnits="userSpaceOnUse" gradientTransform="translate(66.8887 81.4196) scale(13.461 12.5027)">
<stop stop-color="#B68DC0"/>
<stop offset="0.99" stop-color="#C26B7F"/>
</radialGradient>
<radialGradient id="paint4_radial_24_1716" cx="0" cy="0" r="1" gradientUnits="userSpaceOnUse" gradientTransform="translate(143.087 111.288) scale(13.2182 12.2772)">
<stop stop-color="#B68DC0"/>
<stop offset="0.99" stop-color="#C26B7F"/>
</radialGradient>
<radialGradient id="paint5_radial_24_1716" cx="0" cy="0" r="1" gradientUnits="userSpaceOnUse" gradientTransform="translate(38.4796 139.634) scale(27.2862 25.3437)">
<stop stop-color="#B68DC0"/>
<stop offset="0.99" stop-color="#C26B7F"/>
</radialGradient>
<radialGradient id="paint6_radial_24_1716" cx="0" cy="0" r="1" gradientUnits="userSpaceOnUse" gradientTransform="translate(165.85 158.099) scale(12.5049 11.6147)">
<stop stop-color="#B68DC0"/>
<stop offset="0.99" stop-color="#C26B7F"/>
</radialGradient>
</defs>
</svg>
