<svg width="200" height="200" viewBox="0 0 200 200" fill="none" xmlns="http://www.w3.org/2000/svg">
<path d="M170.623 196.515C123.103 201.161 76.575 201.161 29.0582 196.515C16.5782 195.093 4.90099 183.396 3.4809 170.897C-1.15859 123.303 -1.15859 76.6997 3.4809 29.1029C4.89837 16.6037 16.5755 4.90714 29.0556 3.48494C76.575 -1.16075 123.103 -1.16075 170.62 3.48494C183.1 4.90714 194.777 16.6037 196.197 29.1029C200.837 76.6971 200.837 123.3 196.197 170.897C194.777 183.396 183.1 195.093 170.62 196.515H170.623Z" fill="url(#paint0_radial_24_964)"/>
<g style="mix-blend-mode:soft-light" opacity="0.2">
<path d="M160.81 125.094C153.38 132.153 164.019 109.316 163.556 102.83C163.093 96.3438 173.379 113.154 160.81 125.094Z" fill="#F7BCB1"/>
</g>
<g style="mix-blend-mode:soft-light" opacity="0.2">
<path d="M59.0684 53.798C60.6794 49.4242 67.9839 42.3446 75.1157 41.5969C82.2475 40.8492 73.3321 50.0647 67.0921 52.2033C60.852 54.3418 59.0684 53.7954 59.0684 53.7954V53.798Z" fill="#F7BCB1"/>
</g>
<g style="mix-blend-mode:multiply">
<path d="M3.19848 170.233C3.54892 172.225 3.77907 173.925 5.173 175.394C6.26357 176.541 7.42213 177.145 8.93637 177.59C10.8037 178.139 12.8462 177.344 14.7004 176.978C16.586 176.604 19.0496 176.152 20.9588 176.664C24.186 177.532 24.56 181.822 25.0804 184.502C25.3969 186.126 25.7499 187.896 26.6757 189.294C27.1753 190.047 27.8474 191.383 28.7941 191.642C30.8915 192.212 31.684 188.256 31.7363 186.905C31.7912 185.49 31.7258 184.058 31.7258 182.641C31.7258 181.104 31.8749 179.624 31.3283 178.165C30.6013 176.22 30.1357 174.275 28.951 172.62C27.8395 171.062 25.6898 171.111 23.8905 170.725C23.2837 170.594 22.7319 170.722 22.1252 170.657C21.4007 170.581 20.6606 170.298 19.9467 170.142C18.4899 169.82 16.9652 169.433 15.4667 169.446C13.9185 169.462 12.4461 169.54 10.9554 169.096C8.85007 168.468 7.87196 168.594 3.19586 170.238L3.19848 170.233Z" fill="#EABEB0"/>
<path d="M39.6527 194.444C39.7913 191.098 40.6622 187.467 44.0228 186.003C45.1735 185.501 46.0183 185.164 47.271 185.407C47.7339 185.496 48.3563 185.629 48.7852 185.801C49.1069 185.932 49.371 186.319 49.6456 186.429C49.9333 186.544 50.357 186.583 50.6604 186.601C50.7336 186.839 50.8879 186.923 51.1233 186.855C51.3272 186.69 51.5312 186.526 51.7326 186.361C52.7212 185.833 53.1841 185.577 53.6287 184.523C53.9974 183.647 54.5048 182.534 54.2877 181.582C54.1596 181.022 53.6601 179.668 53.2442 179.247C52.2295 178.217 50.4041 178.183 49.1017 177.867C47.5822 177.498 45.8796 177.794 44.3889 178.087C43.2905 178.304 41.8731 177.838 40.8217 178.157C38.8733 178.745 38.4549 182.452 38.4654 184.032C38.4732 185.378 38.4732 186.722 38.4549 188.068C38.4366 189.514 38.468 192.69 39.6527 194.447V194.444Z" fill="#EABEB0"/>
<path d="M61.0508 193.65C61.2208 193.333 62.2747 190.834 63.0149 190.322C63.3705 190.076 64.0087 190.018 64.4193 189.882C65.4235 189.545 66.1166 189.326 67.1757 189.297C69.4327 189.239 72.0428 188.387 73.7479 186.905C75.8872 185.043 77.6264 180.91 73.8473 180.06C71.6479 179.566 69.6393 180.162 67.4007 180.157C65.7949 180.154 63.2921 179.689 61.8432 180.337C60.0361 181.145 60.2584 183.396 60.2584 185.02C60.2584 187.736 60.3081 190.766 61.0508 193.65Z" fill="#EABEB0"/>
<path d="M88.7858 181.744C90.1195 181.99 91.8744 181.998 92.6694 183.302C93.0643 183.948 93.386 185.174 93.5089 185.896C93.8594 187.945 93.5534 190.382 93.5351 192.463C93.5246 193.658 93.7521 194.651 93.9352 195.801C94.0294 196.39 94.1941 197.179 94.6204 197.647C95.5358 198.651 96.6211 197.386 96.9166 196.41C97.56 194.293 97.7509 191.833 97.3037 189.665C96.9192 187.809 97.3455 185.618 97.8973 183.807C98.2766 182.562 98.4413 181.658 97.4214 180.63C96.3099 179.511 93.7783 179.307 88.7831 181.744H88.7858Z" fill="#EABEB0"/>
<path d="M104.438 196.031C104.919 194.319 105.542 192.669 106.023 190.96C106.441 189.48 107.114 187.809 107.956 186.52C109.174 184.656 111.892 184.727 113.764 184.128C114.504 183.89 115.519 183.394 116.309 183.527C117.002 183.645 117.551 184.293 117.915 184.858C118.754 186.157 118.644 188.003 119.544 189.26C119.994 189.179 120.096 188.165 120.091 187.807C120.083 187.127 120.007 186.374 120.106 185.702C120.195 185.093 120.292 184.547 120.287 183.924C120.279 182.934 120.281 181.94 120.287 180.947C120.287 180.688 120.381 180.311 120.179 180.16C120.072 180.079 119.34 180.126 119.199 180.144C118.757 180.202 118.38 180.361 117.909 180.353C117.326 180.345 116.719 180.4 116.136 180.358C114.567 180.246 113.058 179.948 111.468 179.951C109.967 179.953 108.657 180.003 107.2 180.395C106.415 180.607 105.665 181.049 104.867 181.174C104.836 181.375 104.723 181.537 104.679 181.723C104.595 182.073 104.66 182.408 104.645 182.764C104.624 183.284 104.451 183.775 104.425 184.296C104.388 185.035 104.436 185.791 104.436 186.533C104.436 187.548 104.43 188.56 104.436 189.574C104.441 190.552 104.213 191.482 104.234 192.452L104.433 196.024L104.438 196.031Z" fill="#EABEB0"/>
<path d="M126.032 190.871C127.079 188.296 128.603 185.211 131.59 184.552C132.659 184.317 134.291 184.607 135.215 185.153C136.454 185.885 137.035 187.15 137.406 188.489C137.778 189.82 138.05 191.195 138.395 192.533C138.546 193.116 138.586 193.728 138.803 194.296C138.994 194.8 139.315 195.258 139.585 195.726C139.88 196.238 140.27 196.471 140.814 196.026C141.562 195.412 141.656 194.186 141.831 193.313C142.394 190.494 142.671 187.582 142.673 184.711C142.673 183.72 142.673 182.73 142.673 181.739C142.673 181.059 142.762 180.385 142.524 179.755C142.349 179.294 142.184 179.054 141.643 178.955C141.264 178.887 140.866 178.991 140.497 179.062C139.912 179.174 139.315 179.245 138.727 179.355C137.385 179.605 136.13 179.969 134.754 179.958C133.543 179.951 132.283 179.849 131.08 179.974C130.083 180.076 128.948 180.212 128.002 180.549C127.445 180.748 127.102 181.028 127.016 181.634C126.859 182.727 126.822 183.796 126.822 184.913C126.822 185.705 126.846 186.497 126.83 187.286C126.817 187.95 126.535 188.62 126.03 190.868L126.032 190.871Z" fill="#EABEB0"/>
<path d="M148.62 197.817C149.201 197.736 149.844 197.731 150.409 197.629C150.799 197.558 151.163 197.367 151.55 197.271C152.201 197.106 153.171 196.871 153.535 196.238C153.888 195.621 153.856 194.688 153.744 194.016C153.493 192.518 152.781 191.179 152.282 189.77C151.96 188.86 151.51 187.956 151.403 186.986C151.272 185.794 151.937 184.617 152.993 184.107C153.796 183.718 154.581 183.276 155.36 182.845C155.75 182.63 156.037 182.361 156.364 182.063C156.683 181.773 156.717 181.551 156.937 181.195C157.397 180.447 158.224 179.425 157.465 178.646C157.089 178.259 156.526 178.092 155.969 178.011C155.509 177.943 155.015 178.141 154.568 178.228C153.935 178.353 153.331 178.327 152.698 178.39C152.256 178.434 151.84 178.568 151.39 178.578C151.027 178.586 150.655 178.523 150.294 178.588C149.918 178.656 149.306 178.696 149.06 179.009C148.618 179.577 148.639 180.785 148.62 181.449C148.602 182.06 148.49 182.643 148.437 183.252C148.372 184.026 148.469 184.798 148.377 185.571C148.218 186.905 148.003 188.306 148.022 189.65C148.027 190.144 147.975 190.662 148.042 191.148C148.116 191.671 148.233 192.133 148.228 192.672C148.218 193.595 148.228 194.518 148.22 195.441C148.212 196.377 148.409 197.276 148.618 197.822L148.62 197.817Z" fill="#EABEB0"/>
<path d="M170.215 190.871C170.691 188.907 170.858 186.905 171.405 184.957C171.632 184.147 171.865 183.339 172.098 182.531C172.385 181.532 172.608 180.421 173.173 179.535C174.03 178.189 175.246 177.328 176.784 176.975C177.603 176.787 178.445 176.657 179.282 176.596C180.404 176.515 181.358 176.732 182.454 176.931C183.924 177.198 185.6 177.681 187.104 177.341C187.617 177.226 188.158 177.017 188.66 176.866C189.447 176.628 189.942 176.118 190.663 175.783C192.798 174.798 194.508 172.827 195.235 170.57C195.34 170.244 195.578 169.281 195.269 169.049C195.154 168.963 194.639 169.041 194.492 169.041C194.066 169.041 193.642 169.044 193.216 169.041C191.741 169.033 190.29 169.274 188.822 169.412C187.946 169.496 187.036 169.634 186.155 169.64C185.281 169.645 184.447 169.815 183.579 169.844C180.956 169.93 178.387 170.23 175.759 170.23C174.927 170.23 174.096 170.236 173.264 170.23C172.647 170.228 171.954 170.27 171.549 170.811C170.866 171.731 170.837 173.159 170.662 174.233C170.398 175.841 170.413 177.454 170.413 179.077C170.413 179.961 170.461 180.858 170.424 181.739C170.387 182.649 170.209 183.501 170.215 184.421C170.223 185.974 170.215 187.53 170.215 190.868V190.871Z" fill="#EABEB0"/>
<path d="M175.96 163.687C178.223 162.165 180.414 159.799 181.165 157.125C181.779 154.931 182.444 152.657 185.158 152.56C186.61 152.508 188.004 152.662 189.434 152.871C190.611 153.044 191.908 153.538 193.104 153.326C193.948 153.177 194.618 152.808 195.282 152.259C195.902 151.747 196.618 150.992 196.969 150.267C197.262 149.661 197.413 149.127 197.578 148.503C197.706 148.022 197.903 147.742 197.56 147.311C197.238 146.903 196.856 147.018 196.373 147.012C195.034 146.999 193.705 147.235 192.382 147.394C191.804 147.465 191.223 147.378 190.643 147.454C189.936 147.548 189.275 147.619 188.558 147.614C186.777 147.601 184.988 147.564 183.21 147.601C182.614 147.614 182.051 147.789 181.458 147.812C180.995 147.831 180.608 147.826 180.161 147.951C179.475 148.144 179.002 148.322 178.615 148.897C178.147 149.593 177.977 150.422 177.94 151.271C177.88 152.625 177.747 153.935 177.747 155.305C177.747 156.602 177.825 157.917 177.65 159.203C177.553 159.906 177.459 160.612 177.375 161.318C177.331 161.697 177.396 162.544 175.963 163.687H175.96Z" fill="#EABEB0"/>
<path d="M179.329 138.286C179.949 136.79 180.276 135.217 181.018 133.779C181.751 132.364 182.849 130.997 184.295 130.257C185.407 129.687 187.013 129.695 188.239 129.745C189.508 129.797 190.69 130.051 191.812 130.639C192.855 131.183 193.376 132.066 194.147 132.9C194.568 133.355 195.031 133.967 195.729 133.692C196.362 133.444 196.974 132.432 197.225 131.86C197.393 131.475 197.476 131.065 197.646 130.675C197.874 130.158 198.185 129.679 198.355 129.138C198.603 128.351 198.721 127.525 198.894 126.725C198.983 126.309 199.315 125.525 199.132 125.109C198.917 124.626 198.379 124.581 197.918 124.592C196.781 124.618 195.708 125.091 194.599 125.34C193.242 125.643 191.809 125.97 190.415 125.991C189.105 126.011 187.852 125.902 186.555 125.805C186.019 125.763 185.498 125.794 184.965 125.695C184.567 125.619 184.18 125.465 183.783 125.405C183.116 125.303 182.258 125.329 181.604 125.489C181.154 125.598 180.43 125.465 180.153 125.975C180.1 126.072 180.147 126.2 180.116 126.286C180.082 126.38 179.993 126.547 179.97 126.644C179.844 127.13 179.797 127.708 179.74 128.207C179.583 129.617 179.713 131.12 179.726 132.539C179.734 133.35 179.538 134.119 179.512 134.924C179.491 135.63 179.611 136.234 179.324 138.288L179.329 138.286Z" fill="#EABEB0"/>
<path d="M187.054 139.277C187.065 138.623 187.154 137.985 187.324 137.358C187.562 137.117 187.813 136.895 188.082 136.688C188.514 136.351 188.883 136.137 189.437 136.084C190.29 136.006 191.213 136.139 191.728 136.89C192.277 137.69 191.995 138.456 191.336 139.099C190.161 140.241 188.388 139.507 187.054 139.081V139.279V139.277Z" fill="#EABEB0"/>
<path d="M2.00854 146.422C2.04254 146.973 2.12362 147.517 2.25176 148.053C2.59436 148.097 2.7382 148.403 3.02588 148.563C3.58555 148.874 4.44074 148.793 5.04749 148.845C7.20247 149.033 9.34437 149.295 11.4497 149.794C12.9691 150.155 14.3605 150.806 15.2496 152.16C15.8067 153.01 15.8799 154.218 16.1179 155.195C16.4788 156.683 18.4978 159.425 20.1925 158.131C20.9483 157.556 21.2098 156.67 21.3877 155.755C21.5132 155.096 21.3746 154.422 21.4714 153.757C21.5603 153.14 21.678 152.605 21.61 151.977C21.4975 150.944 21.3537 149.844 21.0843 148.84C20.93 148.265 20.6371 147.554 20.148 147.203C19.6093 146.819 18.4978 146.968 17.8649 147.005C16.9286 147.06 16.0081 147.376 15.0744 147.42C13.7799 147.48 12.4461 147.465 11.1751 147.258C10.0688 147.078 8.89455 147.012 7.7726 147.018C6.85987 147.018 5.94452 147.015 5.03179 147.018C4.24721 147.02 3.08865 147.075 2.01116 146.422H2.00854Z" fill="#EABEB0"/>
<path d="M1.01995 131.737C1.57177 130.827 1.83591 130.359 2.63095 129.787C3.7869 128.953 5.23053 128.367 6.59047 127.98C8.4107 127.46 10.5474 127.891 11.9073 129.266C13.126 130.498 13.7354 132.359 14.3761 133.93C14.805 134.981 15.3307 136.518 14.3343 137.449C13.1809 138.526 11.3843 138.498 9.91971 138.487C9.19005 138.482 8.35578 138.728 9.03313 139.504C10.1342 140.767 12.3624 140.814 13.8949 141.117C14.6376 141.263 15.3908 141.162 16.1231 141.311C16.6279 141.413 16.7089 141.452 17.2163 141.316C17.5589 141.224 17.7629 141.175 18.0532 140.973C18.4402 140.701 18.8247 140.461 18.9947 140.032C19.4079 138.989 19.3504 137.603 19.1987 136.508C18.9424 134.681 18.9973 132.819 18.7044 130.989C18.5239 129.865 18.4062 128.73 18.2127 127.624C18.0297 126.568 17.4804 125.413 16.4736 124.979C15.9008 124.733 15.3412 124.796 14.7292 124.798C13.9211 124.801 13.1103 124.793 12.3022 124.798C11.5464 124.804 10.8403 124.741 10.0897 124.641C8.99913 124.498 7.94256 124.814 6.852 124.804C6.10926 124.796 5.41098 124.785 4.67871 124.898C4.12166 124.984 3.5986 124.929 3.0494 124.987C0.677349 125.235 1.29717 128.43 1.01733 131.742L1.01995 131.737Z" fill="#EABEB0"/>
<path d="M1.21613 119.036C1.33904 118.485 1.48811 117.944 1.66857 117.408C1.90394 117.408 2.04255 117.188 2.21254 117.06C2.53422 116.814 2.79575 116.61 3.19327 116.493C3.9177 116.278 4.62382 116.252 5.3744 116.257C7.38031 116.268 9.38622 116.351 11.3738 116.025C13.453 115.682 14.7344 114.085 15.3909 112.171C15.9793 110.456 15.5059 108.239 13.487 107.805C12.4801 107.588 11.6563 107.902 10.6808 108.074C9.70529 108.244 8.70102 108.501 7.71507 108.529C6.28451 108.571 4.31783 108.684 3.30311 107.429C2.77221 106.772 2.92913 105.821 3.26911 105.146C3.47049 104.746 3.55941 104.501 3.98046 104.299C4.51659 104.043 5.09718 103.842 5.67254 103.732C6.85203 103.507 8.13612 103.162 9.34438 103.405C10.3957 103.62 11.5281 103.614 12.6082 103.567C13.1313 103.544 13.6203 103.371 14.1486 103.358C14.7031 103.342 15.1006 103.306 15.6393 103.209C16.4082 103.071 17.1536 103.042 17.6191 103.761C18.1761 104.618 18.0558 105.915 18.0558 106.885C18.0558 108.595 17.8571 110.247 17.8571 111.954C17.8571 113.28 18.0532 114.55 18.0558 115.873C18.0558 116.618 18.2128 117.635 17.6191 118.195C17.3209 118.477 16.7979 118.566 16.4213 118.691C15.7962 118.895 15.234 119.136 14.588 119.264C13.8008 119.421 13.0554 119.358 12.2656 119.481C11.3346 119.622 10.4376 119.7 9.49345 119.591C7.86414 119.402 6.2479 119.342 4.61859 119.243C4.15046 119.214 3.71894 119.076 3.24819 119.039C2.78006 119.005 2.27792 118.772 1.21613 119.039V119.036Z" fill="#EABEB0"/>
<path d="M2.20727 81.7296C3.73458 81.7296 5.34036 81.5911 6.8546 81.7375C8.14654 81.863 9.54309 82.5166 10.5761 83.2982C12.5323 84.7806 13.9577 86.8145 14.9515 89.0393C15.5844 90.4563 16.1022 91.889 16.6697 93.3295C16.8266 93.7295 17.0411 94.1582 17.2581 94.5295C17.4124 94.7909 17.81 95.6746 18.1316 95.6144C18.3932 95.5647 18.5736 95.0497 18.6495 94.8458C18.877 94.2445 18.9319 93.4916 19.0287 92.8589C19.1934 91.7792 19.0444 90.5661 19.0444 89.4707C19.0444 88.9583 19.0444 88.4459 19.0496 87.9335C19.0574 87.293 18.8822 86.7204 18.8378 86.093C18.7802 85.3087 18.9633 84.493 18.8038 83.7165C18.6547 82.9871 18.6364 82.2813 18.6495 81.5362C18.6599 80.9662 18.6233 80.9296 18.0532 80.9401C17.3444 80.9532 16.6331 80.9453 15.9243 80.9401C14.7475 80.9323 13.6098 81.1388 12.4199 81.1388C11.8236 81.1388 11.2195 81.1754 10.6258 81.1492C9.9903 81.1205 9.39141 80.9401 8.75328 80.9349C6.70291 80.9244 4.65254 80.9401 2.20465 81.7322L2.20727 81.7296Z" fill="#EABEB0"/>
<path d="M0.821192 61.4894C2.72249 60.6999 4.85132 60.3155 6.92261 60.5169C8.23286 60.645 9.53526 61.0031 10.8377 61.1992C11.9361 61.3639 12.773 61.607 13.772 62.0855C15.6524 62.9874 16.4108 64.9769 16.9679 66.8645C17.47 68.5664 17.6557 70.3311 18.0584 72.0618C18.1944 72.65 18.3827 73.2356 18.6024 73.7977C18.7645 74.2108 18.9685 74.3729 19.2562 74.7154C19.2222 74.0853 19.4576 73.586 19.4445 72.9481C19.4131 71.2566 19.8054 69.6148 19.8499 67.9311C19.9074 65.7665 19.6433 63.6332 19.6433 61.4659C19.6433 60.9247 19.965 58.9038 19.4053 58.5535C19.0915 58.3574 18.2781 58.5404 17.9695 58.6136C17.5171 58.7208 17.1326 58.6764 16.6723 58.7025C16.2643 58.726 15.893 58.8986 15.485 58.9169C14.6507 58.9561 13.8583 59.1129 13.0136 59.1077C11.957 59.1025 10.9004 59.1077 9.84387 59.1077C8.87622 59.1077 7.88765 59.16 6.92 59.1182C6.06219 59.0816 5.24884 58.909 4.37273 58.909C3.72675 58.909 3.22201 58.977 2.59957 59.0894C2.14713 59.1705 1.86468 59.2437 1.40963 59.3012C1.10103 59.3404 1.14548 59.2332 1.00949 59.4894C1.00426 59.4999 0.873497 60.0672 0.865651 60.0986C0.75581 60.5325 0.821192 61.0397 0.821192 61.4868V61.4894Z" fill="#EABEB0"/>
<path d="M2.00854 42.4386C2.83496 41.6465 3.27433 41.3066 4.28905 40.8622C5.19655 40.4648 6.12497 40.1433 7.08739 39.8975C9.38098 39.3093 11.9962 38.7655 14.3395 39.3067C15.2 39.5054 16.0238 39.7223 16.6253 40.3942C17.2948 41.1445 17.6792 42.0596 17.9146 43.0321C18.1369 43.9445 18.3435 44.8569 18.4377 45.7929C18.5266 46.6791 18.4377 47.5157 18.6103 48.3941C18.6887 48.7994 18.6338 49.1837 18.7463 49.581C18.8404 49.9157 18.979 50.2451 19.0993 50.5719C19.2876 51.0817 19.6041 51.6072 19.6877 52.1405C19.8891 52.117 19.9257 51.9235 20.0827 51.8085C20.2605 51.6777 20.4279 51.7222 20.5874 51.5261C21.0032 51.0189 20.8306 49.9836 20.8306 49.398C20.8306 46.5981 20.5403 43.5916 21.4687 40.8962C21.7433 40.1014 22.031 39.2674 22.4155 38.5093C22.6613 38.023 23.1974 37.2596 23.0196 36.674C22.8731 36.1877 22.303 36.2426 21.8846 36.2766C20.6632 36.3734 19.5073 36.891 18.2624 36.8858C15.4719 36.8753 12.7154 37.5472 9.93542 37.6675C8.72455 37.7198 7.57383 38.0753 6.35773 38.0701C5.60715 38.0675 4.91933 38.0073 4.18967 37.8792C3.58554 37.772 3.03372 37.5812 2.40083 37.6701C1.99023 37.7276 2.06607 37.6596 2.00592 38.0675C1.98762 38.1877 1.97454 38.5459 2.00069 38.6661C2.06346 38.959 2.19422 39.1498 2.21253 39.4557C2.23345 39.8008 2.2073 40.1563 2.2073 40.5014C2.2073 41.2125 2.2073 41.9236 2.00854 42.436V42.4386Z" fill="#EABEB0"/>
<path d="M38.4628 22.3971C38.4628 20.588 38.4523 18.8181 38.8498 17.0403C39.2526 15.226 39.6082 13.4116 40.1888 11.6469C40.7407 9.97112 41.2559 8.19075 42.2235 6.70319C43.0264 5.46922 43.9417 4.54636 45.1631 3.72545C45.5867 3.4431 46.3269 3.29409 46.4969 2.7503C46.6329 2.31632 46.4132 2.20129 45.9947 2.15162C45.3958 2.08364 44.7891 2.19345 44.2111 2.31109C43.4553 2.46272 42.6132 2.35554 41.8469 2.35554C40.8427 2.35554 39.5272 2.1673 38.9021 3.13984C38.502 3.76467 38.2849 4.5908 38.2588 5.32805C38.2091 6.66398 38.0652 7.96331 38.0652 9.30969C38.0652 11.409 38.0862 13.5083 38.06 15.605C38.0469 16.6978 38.3791 17.7671 38.4601 18.8547C38.5098 19.5161 38.6014 20.1671 38.6589 20.8259C38.7007 21.3278 38.923 21.8925 38.4601 22.3945L38.4628 22.3971Z" fill="#EABEB0"/>
<path d="M33.1145 3.14768C32.1285 3.41696 30.7215 3.53199 30.1331 4.52022C29.3014 5.91366 29.5473 7.54763 29.5473 9.10578C29.5473 10.8156 29.5996 12.5332 29.5577 14.2403C29.5107 16.209 29.3433 18.4625 28.6685 20.3265C28.1298 21.8141 27.0131 23.2206 25.9722 24.3997C25.6636 24.75 25.389 25.1265 25.0229 25.4193C24.3952 25.9212 23.6472 26.2114 22.9568 26.6114C21.8087 27.2755 20.6344 27.8611 19.4785 28.5016C19.0836 28.7212 17.47 29.3565 17.4778 29.9003C17.8596 30.0101 18.3618 29.9343 18.7645 29.9343H20.828C22.1278 29.9343 23.4537 30.0101 24.7509 29.9395C25.8127 29.8794 26.7045 29.6022 27.5597 28.9513C28.0749 28.5591 28.4436 28.0075 28.9955 27.7016C29.529 27.4062 29.9945 26.9618 30.4443 26.5565C31.289 25.7958 31.5401 24.6637 31.527 23.5422C31.5166 22.5592 31.8382 21.5657 31.6866 20.601C31.5035 19.4403 31.5323 18.3344 31.527 17.1553C31.5192 15.9057 31.7363 14.7083 31.7258 13.456C31.7153 12.1959 31.9507 10.9698 31.9298 9.7123C31.8984 7.95285 32.4973 6.28751 33.1145 3.14246V3.14768Z" fill="#EABEB0"/>
<path d="M61.0508 1.36206C61.6183 2.07839 62.246 2.79995 62.6827 3.61301C63.1299 4.44699 63.4568 5.41691 63.7785 6.30317C64.5736 8.49138 64.6756 10.8887 65.4497 13.0874C65.876 14.3031 66.603 15.5893 67.7877 16.1985C68.1643 16.3919 68.5592 16.5514 68.9568 16.69C69.6629 16.9331 70.2382 16.9619 70.9627 17.056C71.4779 17.1239 71.8388 17.3122 72.354 17.1475C72.7437 17.0246 73.0078 16.7815 73.3347 16.5436C74.3102 15.8377 74.4645 14.5619 74.7287 13.4351C75.0242 12.1671 75.3955 10.9489 75.7146 9.68614C75.8428 9.17895 75.8454 8.70314 75.9291 8.19857C75.9866 7.84564 76.1671 7.55806 76.0964 7.18682C76.6143 7.54237 76.3057 9.06131 76.3057 9.57372C76.3057 11.0038 76.4887 12.5724 76.2612 13.9841C76.0991 14.9828 76.0049 16.0364 76.0964 17.0534C76.1461 17.6128 76.3004 18.0442 76.3057 18.6272C76.3083 19.1867 76.3893 19.5239 75.7094 19.6285C75.0006 19.7383 74.0487 19.6494 73.3583 19.6285C72.1605 19.5945 70.9967 19.4089 69.791 19.4141C69.1006 19.4193 68.4075 19.4141 67.7171 19.4246C66.5062 19.4376 65.3451 19.1082 64.1185 19.239C63.2529 19.3305 62.4343 19.6023 61.5948 19.7723C61.2129 19.8507 60.5016 19.9553 60.1982 19.6808C59.9995 19.503 60.057 19.3174 60.0544 19.0507C60.0465 18.3605 60.0596 17.6677 60.0596 16.9775C60.0596 15.8063 60.0648 14.6325 60.0596 13.4612C60.0492 11.2966 60.669 9.17634 60.6533 7.02212C60.648 6.13063 60.6533 5.23652 60.6533 4.34503C60.6533 3.92935 60.7396 3.39864 60.6637 2.9908C60.6088 2.70322 60.3891 2.4627 61.0508 1.36206Z" fill="#EABEB0"/>
<path d="M82.4463 5.33063C82.6739 7.37766 82.6294 9.36979 83.4768 11.2992C84.06 12.6273 85.059 14.0652 86.228 14.9462C87.2035 15.6808 88.6131 16.1122 89.7482 16.5253C90.6504 16.8547 91.4481 17.2102 92.3974 17.3906C93.2343 17.5501 93.9692 17.435 94.7303 17.0926C95.371 16.805 95.8182 16.1671 96.3151 15.6547C97.0029 14.9514 97.5417 14.0442 97.6803 13.0612C97.8189 12.0756 97.8372 11.0534 98.1484 10.1044C98.6819 10.2665 98.1719 13.2835 98.117 13.6835C98.0438 14.2194 98.1353 14.7606 98.1092 15.3017C98.0883 15.7619 97.9313 16.1906 97.8895 16.6455C97.8398 17.2285 97.9915 17.8507 97.9052 18.4311C97.7875 19.2206 96.7859 19.2259 96.0876 19.2206C95.3082 19.2154 94.5263 19.2206 93.7443 19.2206C92.8839 19.2206 91.9031 19.3435 91.0584 19.205C90.2346 19.069 89.5337 19.0246 88.6864 19.0246C88.2575 19.0246 87.8233 19.001 87.3944 19.0167C86.9158 19.035 86.4791 19.1997 86.0031 19.2337C85.4147 19.2729 84.8105 19.2102 84.2195 19.2233C83.8194 19.2311 83.5971 19.1814 83.4794 18.7867C83.2152 17.8873 83.1917 16.7475 83.0871 15.8063C82.9197 14.3083 82.7183 12.8155 82.4934 11.3279C82.3208 10.1959 82.1247 9.043 82.041 7.90053C81.9913 7.22603 81.8527 6.60643 82.4437 5.33324L82.4463 5.33063Z" fill="#EABEB0"/>
<path d="M104.043 1.16338C104.245 2.78166 104.197 4.30059 104.226 5.92149C104.258 7.58421 104.687 9.54759 105.27 11.1031C106.062 13.2155 107.229 14.9488 108.607 16.6978C108.97 17.1606 109.227 17.4403 109.195 18.0285C109.169 18.5148 108.902 18.7527 108.4 18.8337C107.467 18.9854 106.366 18.8233 105.421 18.8233C104.741 18.8233 103.554 19.0847 103.444 18.2324C103.366 17.6259 103.444 16.9096 103.447 16.3109C103.45 15.2625 103.274 14.29 103.243 13.26C103.175 11.0979 103.251 8.92276 103.251 6.76069C103.251 5.88489 103.259 5.00908 103.251 4.13328C103.251 3.80126 103.219 3.46662 103.266 3.13721C103.314 2.81303 103.507 2.48624 104.043 1.16077V1.16338Z" fill="#EABEB0"/>
<path d="M178.733 47.9942C178.853 47.0896 178.798 46.517 179.25 45.7903C179.771 44.9537 180.365 44.3262 181.102 43.67C182.778 42.1825 184.69 41.6335 186.908 41.8844C188.582 42.0753 190.203 42.5589 191.872 42.7968C192.567 42.8962 193.506 42.9589 194.192 42.7916C195.381 42.4988 196.535 41.325 196.569 40.057C196.592 39.1394 197.28 37.7564 195.967 37.4662C194.885 37.2283 193.723 37.3799 192.62 37.2335C190.737 36.9825 188.843 36.878 186.945 36.8832C185.117 36.8858 183.322 36.6767 181.502 36.6845C180.239 36.6897 178.769 36.8858 177.53 36.64C177.252 36.5851 176.614 36.3002 176.332 36.4727C176.081 36.6244 176.198 36.5642 176.154 36.878C176.11 37.2021 176.209 37.4034 176.3 37.7015C176.489 38.2949 176.544 38.9119 176.74 39.5028C177.25 41.0269 177.775 42.5354 178.186 44.0857C178.338 44.6609 178.591 45.1863 178.693 45.7772C178.767 46.2112 178.665 46.6112 178.733 47.9942Z" fill="#EABEB0"/>
<path d="M180.121 68.237C180.37 66.6161 180.689 65.4762 181.921 64.3129C183.126 63.173 184.68 62.3992 186.17 61.6959C188.522 60.5848 191.132 61.1626 193.593 61.4894C194.879 61.6619 196.059 61.8867 197.366 61.8867C197.625 61.8867 198.3 62.0044 198.515 61.8528C198.698 61.722 198.784 61.1077 198.75 60.8907C198.698 60.5482 198.583 60.3652 198.549 60.0018C198.512 59.6123 198.535 59.4659 198.159 59.3012C197.322 58.9378 196.111 59.1051 195.217 59.1077C193.702 59.1129 192.188 59.1077 190.671 59.1077H186.448C185.287 59.1077 183.979 58.943 182.833 59.1521C181.887 59.3247 180.422 59.5704 179.567 59.1286C179.444 59.5391 179.528 60.0724 179.528 60.4933C179.528 61.5573 179.512 62.5769 179.677 63.6253C179.805 64.441 179.946 65.2514 180.077 66.0645C180.158 66.5612 180.383 67.1364 180.121 68.2344V68.237Z" fill="#EABEB0"/>
<path d="M181.11 87.2851C181.348 86.7387 181.539 85.9727 182.023 85.6407C182.352 85.4133 182.799 85.2459 183.147 85.0211C184.473 84.1584 185.943 83.6303 187.486 83.3009C190.242 82.7127 193.174 82.3859 195.996 82.514C196.885 82.5532 197.764 82.9976 198.549 83.3924C199.014 83.6251 199.579 83.8891 199.948 84.2316C199.893 83.7009 199.932 83.1519 199.932 82.6185C199.932 82.3414 200.102 81.1623 199.903 80.961C199.775 80.8329 199.213 80.9297 199.022 80.9297C198.235 80.9244 197.481 81.0552 196.697 81.1127C194.074 81.3087 191.37 81.1284 188.736 81.1284C187.949 81.1284 187.159 81.1101 186.372 81.1205C185.53 81.131 184.714 81.3166 183.877 81.3323C183.38 81.3401 182.818 81.4002 182.331 81.2826C182.101 81.2277 181.659 80.9506 181.419 81.1362C181.204 81.3035 181.332 81.7375 181.296 82.012C181.256 82.31 181.131 82.5819 181.102 82.8826C181.065 83.2695 181.141 83.6695 181.126 84.0564C181.092 84.8381 180.94 85.4263 181.065 86.2106C181.136 86.6446 181.243 87.0551 181.113 87.2773L181.11 87.2851Z" fill="#EABEB0"/>
<path d="M192.207 103.361C191.064 103.674 189.842 103.795 188.872 104.542C187.889 105.303 187.238 106.153 186.848 107.355C186.382 108.793 186.058 110.396 185.783 111.886C185.545 113.175 185.593 114.869 184.928 116.056C184.199 117.363 182.412 116.879 181.497 116.061C180.346 115.031 180.712 112.948 180.712 111.58C180.712 109.546 180.911 107.562 180.911 105.531C180.911 104.961 180.793 104.257 180.945 103.708C181.102 103.133 181.377 102.984 181.889 102.861C182.52 102.71 183.22 102.712 183.872 102.754C184.803 102.812 185.789 102.95 186.704 103.118C187.512 103.264 188.32 103.167 189.131 103.316C189.44 103.374 189.746 103.337 190.054 103.379C190.373 103.423 190.684 103.617 192.201 103.361H192.207Z" fill="#EABEB0"/>
<path d="M171.601 3.94245C170.814 6.77902 170.599 8.42867 171.188 11.3358C171.619 13.4691 172.443 15.4926 173.384 17.4508C174.227 19.2024 175.231 21.0769 176.434 22.6141C177.438 23.8977 178.866 24.9226 179.941 26.1853C180.48 26.818 181.272 27.4585 180.861 28.2454C180.453 29.0245 178.706 29.2441 177.943 29.3513C177.095 29.4689 176.023 29.8558 175.16 29.7434C174.648 29.6781 173.57 29.4532 173.17 29.1604C172.744 28.8493 172.555 28.0023 172.396 27.5683C172.022 26.533 171.907 25.3487 171.603 24.2664C170.923 21.8455 170.753 19.3906 170.327 16.9357C170.079 15.5031 169.998 14.094 169.71 12.6587C169.446 11.3463 169.767 10.0051 169.535 8.6901C169.336 7.55809 169.234 6.6849 169.226 5.51629C169.224 5.06662 169.182 4.60388 169.26 4.1699C169.341 3.72546 169.796 3.75683 171.603 3.93722L171.601 3.94245Z" fill="#EABEB0"/>
<path d="M147.825 2.7503C148.029 4.4287 148.061 6.1045 148.236 7.76199C148.333 8.69009 148.704 9.3306 149.026 10.1986C149.266 10.8469 149.277 11.5685 149.499 12.2142C150.2 14.2508 152.209 15.8089 153.867 17.0351C154.934 17.8246 156.618 18.9383 156.859 20.3082C157.097 21.6755 155.106 21.388 154.167 21.401C153.025 21.4167 151.811 20.9148 150.786 20.4207C149.653 19.8769 149.483 18.5723 149.211 17.4508C148.955 16.3919 149.015 15.3253 148.73 14.256C148.401 13.0221 148.341 11.9266 148.189 10.6848C148.037 9.4587 147.818 8.36591 147.841 7.11364C147.867 5.75156 147.396 4.50975 147.831 2.74768L147.825 2.7503Z" fill="#EABEB0"/>
<path d="M140.694 2.75031C141.065 5.30713 141.23 7.36462 140.317 9.81427C139.763 11.2966 138.813 13.1894 137.553 14.1907C135.191 16.0652 132.233 15.8743 129.419 15.8482C128.645 15.8403 127.96 15.7619 127.452 16.4782C127.212 16.8181 126.733 17.7619 126.895 18.141C127.055 18.5174 128.111 18.9697 128.47 19.0455C129.035 19.1632 129.796 18.9697 130.371 19.0037C131.166 19.0534 131.88 19.3592 132.67 19.4403C135.045 19.686 137.744 18.9148 140.079 19.4037C140.861 19.5684 140.861 19.9736 141.593 19.5239C142.276 19.1083 142.286 18.5488 142.276 17.8272C142.263 16.7371 142.383 15.6286 142.189 14.5567C141.933 13.1371 142.077 11.6861 141.792 10.2796C141.295 7.81952 141.483 5.26531 140.691 2.75031H140.694Z" fill="#EABEB0"/>
<path d="M119.693 7.51361C119.693 10.5724 120.043 13.5371 116.923 15.2861C115.291 16.2011 113.33 16.8625 111.811 17.9318C111.975 18.9958 114.041 19.0533 114.789 19.2206C116.037 19.503 117.546 19.4376 118.613 18.7448C119.565 18.1252 119.913 16.9226 120.109 15.8691C120.268 15.0116 120.104 13.8717 120.098 12.9933C120.09 11.8351 119.489 10.6299 119.693 9.4979V7.51361Z" fill="#EABEB0"/>
</g>
<defs>
<radialGradient id="paint0_radial_24_964" cx="0" cy="0" r="1" gradientUnits="userSpaceOnUse" gradientTransform="translate(103.178 87.3416) scale(137.286 132.663)">
<stop stop-color="#F1842A"/>
<stop offset="0.25" stop-color="#EE802A"/>
<stop offset="0.46" stop-color="#E8762A"/>
<stop offset="0.64" stop-color="#DC652A"/>
<stop offset="0.79" stop-color="#D0532B"/>
<stop offset="0.92" stop-color="#B33A3A"/>
<stop offset="0.97" stop-color="#A83141"/>
</radialGradient>
</defs>
</svg>
