<svg width="300" height="300" viewBox="0 0 300 300" fill="none" xmlns="http://www.w3.org/2000/svg">
<g clip-path="url(#clip0_26_9533)">
<g style="mix-blend-mode:multiply">
<path d="M149.998 299.996C232.84 299.996 299.996 283.277 299.996 262.653C299.996 242.028 232.84 225.309 149.998 225.309C67.1564 225.309 0 242.028 0 262.653C0 283.277 67.1564 299.996 149.998 299.996Z" fill="#F8F4E9"/>
</g>
<path d="M153.278 135.984L21.392 101.855V74.3582L153.278 108.488V135.984Z" fill="#FBC03F"/>
<path d="M153.278 282.933L36.6379 250.935L30.2567 103.986L153.278 135.984V282.933Z" fill="#F9BF3F"/>
<path d="M105.102 269.718L82.3224 263.469L77.0825 116.441L101.117 121.838L105.102 269.718Z" fill="#E84228"/>
<g style="mix-blend-mode:multiply">
<path d="M153.278 152.338L30.9771 120.526L30.2567 103.986L153.278 135.984V152.338Z" fill="#FBC03F"/>
</g>
<path d="M21.392 74.3581L153.278 50.1824V108.488L21.392 74.3581Z" fill="#F09003"/>
<path d="M21.392 74.3582C63.6945 85.0572 111.085 97.3174 153.278 108.488C110.975 97.7929 63.5845 85.5247 21.392 74.3582Z" fill="white"/>
<path d="M96.5067 121.525L70.671 114.713V86.448L96.5067 93.2597V121.525Z" fill="#E84228"/>
<path d="M153.278 135.984L285.164 101.855V74.3582L153.278 108.488V135.984Z" fill="#F39307"/>
<path d="M285.164 74.3582C242.971 85.5247 195.58 97.7929 153.278 108.488C195.467 97.3174 242.861 85.0532 285.164 74.3582Z" fill="white"/>
<path d="M153.278 282.933L269.918 250.935L276.303 103.986L153.278 135.984V282.933Z" fill="#F39307"/>
<path d="M201.453 269.718L224.233 263.469L229.473 116.441L205.442 121.838L201.453 269.718Z" fill="#D81821"/>
<g style="mix-blend-mode:multiply">
<path d="M153.278 152.338L275.582 120.526L276.303 103.986L153.278 135.984V152.338Z" fill="#FBC03F"/>
</g>
<path d="M285.164 74.3581L153.278 50.1824V108.488L285.164 74.3581Z" fill="#F09003"/>
<path d="M210.049 121.525L235.888 114.713V86.448L210.049 93.2597V121.525Z" fill="#D81821"/>
<path d="M235.888 86.448L109.61 58.1868L94.5389 60.9487L210.049 93.2597L235.888 86.448Z" fill="#D81821"/>
<path d="M70.671 86.448L196.945 58.1868L212.021 60.9487L96.5067 93.2597L70.671 86.448Z" fill="#E84228"/>
<path d="M129.774 79.3351C136.913 79.3351 144.011 79.129 151.003 78.9229L150.696 73.2406C135.332 73.6884 119.912 71.4653 104.696 68.6955C93.0981 66.5834 86.5728 63.4728 80.294 60.4097C64.4263 52.6668 52.3653 35.1204 48.8202 14.614L44.6684 20.5817L38.0787 16.6349C42.2456 40.7117 56.646 61.436 75.6683 70.7164C83.0504 74.3184 91.6914 76.6167 102.854 77.9481C111.817 79.0141 120.83 79.339 129.778 79.339L129.774 79.3351Z" fill="#E84228"/>
<path d="M91.5625 73.4349C101.504 79.3352 113.955 80.3813 125.091 78.4555C126.555 78.2019 128.022 77.9839 129.49 77.7462C137.763 76.3989 147.822 75.0556 152.065 66.6033C152.633 65.47 153.096 64.2258 153.024 62.9459C152.956 61.7492 152.429 60.6396 151.89 59.5777C144.8 45.5699 132.955 29.5491 118.721 22.9316C113.58 20.5422 105.497 17.0789 100.264 20.9622C99.1418 21.7943 98.3494 23.0109 97.5873 24.2115C92.7568 31.8197 88.2828 39.6736 84.2107 47.7493C82.694 50.7569 79.3537 55.4051 79.3461 58.797C79.3385 62.2603 82.5765 66.0446 84.8135 68.2478C86.8761 70.2806 89.1435 72.0044 91.5587 73.4388L91.5625 73.4349Z" fill="#E84228"/>
<mask id="mask0_26_9533" style="mask-type:luminance" maskUnits="userSpaceOnUse" x="79" y="19" width="75" height="61">
<path d="M91.5625 73.4349C101.504 79.3352 113.955 80.3813 125.091 78.4555C126.555 78.2019 128.022 77.9839 129.49 77.7462C137.763 76.3989 147.822 75.0556 152.065 66.6033C152.633 65.47 153.096 64.2258 153.024 62.9459C152.956 61.7492 152.429 60.6396 151.89 59.5777C144.8 45.5699 132.955 29.5491 118.721 22.9316C113.58 20.5422 105.497 17.0789 100.264 20.9622C99.1418 21.7943 98.3494 23.0109 97.5873 24.2115C92.7568 31.8197 88.2828 39.6736 84.2107 47.7493C82.694 50.7569 79.3537 55.4051 79.3461 58.797C79.3385 62.2603 82.5765 66.0446 84.8135 68.2478C86.8761 70.2806 89.1435 72.0044 91.5587 73.4388L91.5625 73.4349Z" fill="white"/>
</mask>
<g mask="url(#mask0_26_9533)">
<path d="M144.239 53.5861C139.423 51.3908 134.604 49.1916 129.789 46.9963C132.951 51.4939 136.113 55.9874 139.276 60.485C135.329 58.7652 131.146 57.7627 126.961 57.2158C124.644 56.9147 122.289 56.8117 119.969 56.776C119.139 56.7641 113.883 57.4338 113.493 56.9583C117.849 62.3117 122.665 67.2769 127.859 71.7585C130.479 74.0172 133.266 76.2006 136.47 77.3022C142.965 79.5371 150.552 76.4344 153.547 70.3201C155.303 66.7379 155.545 62.5059 155.39 58.4086C155.249 54.66 154.775 50.8083 153.096 47.4084C151.367 43.9055 148.269 40.6284 145.319 38.1597C142.278 35.6118 137.391 34.9104 133.66 33.7256C138.377 39.6298 142.028 46.4297 144.341 53.6297C144.307 53.6138 144.277 53.6019 144.243 53.5861H144.239Z" fill="#EB5946"/>
<path d="M80.6997 55.5517C82.8192 53.182 86.0534 51.5217 88.8136 51.1096C98.376 49.6791 109.535 54.248 118.502 57.418C124.322 59.4746 130.039 61.8522 135.617 64.5428C140.709 66.9996 146.29 69.3534 150.453 73.3556C148.936 71.8973 142.589 75.6856 141.255 76.5138C137.933 78.5743 134.214 80.1158 130.544 81.3561C127.416 82.4141 123.965 83.587 120.708 83.4166C116.629 83.2026 112.367 82.1763 108.412 81.15C104.291 80.0801 100.192 79.2163 96.647 76.7713C92.9995 74.2551 89.1511 71.9687 85.4467 69.496C80.5253 66.215 75.4939 61.3767 80.6997 55.5517Z" fill="#D81821"/>
</g>
<path d="M221.458 73.4349C211.516 79.3352 199.065 80.3813 187.929 78.4555C186.465 78.2019 184.998 77.9839 183.531 77.7462C175.258 76.3989 165.199 75.0556 160.956 66.6033C160.387 65.47 159.924 64.2258 159.996 62.9459C160.065 61.7492 160.592 60.6396 161.13 59.5777C168.22 45.5699 180.065 29.5491 194.299 22.9316C199.44 20.5422 207.524 17.0789 212.756 20.9622C213.878 21.7943 214.671 23.0109 215.433 24.2115C220.263 31.8197 224.737 39.6736 228.81 47.7493C230.326 50.7569 233.667 55.4051 233.674 58.797C233.682 62.2603 230.444 66.0446 228.207 68.2478C226.144 70.2806 223.877 72.0044 221.462 73.4388L221.458 73.4349Z" fill="#E84228"/>
<mask id="mask1_26_9533" style="mask-type:luminance" maskUnits="userSpaceOnUse" x="159" y="19" width="75" height="61">
<path d="M221.458 73.4349C211.516 79.3352 199.065 80.3813 187.929 78.4555C186.465 78.2019 184.998 77.9839 183.531 77.7462C175.258 76.3989 165.199 75.0556 160.956 66.6033C160.387 65.47 159.924 64.2258 159.996 62.9459C160.065 61.7492 160.592 60.6396 161.13 59.5777C168.22 45.5699 180.065 29.5491 194.299 22.9316C199.44 20.5422 207.524 17.0789 212.756 20.9622C213.878 21.7943 214.671 23.0109 215.433 24.2115C220.263 31.8197 224.737 39.6736 228.81 47.7493C230.326 50.7569 233.667 55.4051 233.674 58.797C233.682 62.2603 230.444 66.0446 228.207 68.2478C226.144 70.2806 223.877 72.0044 221.462 73.4388L221.458 73.4349Z" fill="white"/>
</mask>
<g mask="url(#mask1_26_9533)">
<path d="M168.785 53.5861C173.601 51.3908 178.42 49.1916 183.235 46.9963C180.073 51.4939 176.911 55.9874 173.748 60.485C177.695 58.7652 181.878 57.7627 186.063 57.2158C188.38 56.9147 190.735 56.8117 193.055 56.776C193.885 56.7641 199.141 57.4338 199.531 56.9583C195.175 62.3117 190.359 67.2769 185.165 71.7585C182.545 74.0172 179.758 76.2006 176.554 77.3022C170.059 79.5371 162.472 76.4344 159.477 70.3201C157.722 66.7379 157.479 62.5059 157.634 58.4086C157.775 54.66 158.249 50.8083 159.928 47.4084C161.657 43.9055 164.755 40.6284 167.705 38.1597C170.746 35.6118 175.633 34.9104 179.364 33.7256C174.643 39.6298 170.996 46.4297 168.683 53.6297C168.717 53.6138 168.747 53.6019 168.782 53.5861H168.785Z" fill="#EB5946"/>
<path d="M232.321 55.5517C230.201 53.182 226.967 51.5217 224.207 51.1096C214.644 49.6791 203.486 54.248 194.519 57.418C188.699 59.4746 182.981 61.8522 177.404 64.5428C172.311 66.9996 166.73 69.3534 162.567 73.3556C164.084 71.8973 170.431 75.6856 171.765 76.5138C175.087 78.5743 178.806 80.1158 182.477 81.3561C185.605 82.4141 189.055 83.587 192.312 83.4166C196.392 83.2026 200.653 82.1763 204.608 81.15C208.729 80.0801 212.828 79.2163 216.373 76.7713C220.021 74.2551 223.869 71.9687 227.574 69.496C232.491 66.215 237.526 61.3767 232.321 55.5517Z" fill="#D81821"/>
</g>
<path d="M195.948 29.0658C193.366 40.6841 185.658 50.9274 176.748 58.1552C175.576 59.1062 174.427 60.081 173.267 61.0399C166.704 66.4647 158.935 73.2566 150.097 70.776C148.91 70.4432 147.719 69.9518 146.866 69.0325C146.066 68.1686 145.645 67.0116 145.262 65.8822C140.197 50.9512 136.936 31.0114 141.922 15.6207C143.723 10.0612 146.764 1.52179 153.054 0.146766C154.404 -0.150428 155.799 0.0675145 157.16 0.297345C165.801 1.75558 174.37 3.65762 182.825 6.01537C185.972 6.89506 191.516 7.48945 193.912 9.78379C196.358 12.1296 196.832 17.174 196.869 20.3798C196.904 23.3398 196.581 26.2444 195.952 29.0658H195.948Z" fill="#E84228"/>
<mask id="mask2_26_9533" style="mask-type:luminance" maskUnits="userSpaceOnUse" x="139" y="0" width="58" height="72">
<path d="M195.948 29.0658C193.366 40.6841 185.658 50.9274 176.748 58.1552C175.576 59.1062 174.427 60.081 173.267 61.0399C166.704 66.4647 158.935 73.2566 150.097 70.776C148.91 70.4432 147.719 69.9518 146.866 69.0325C146.066 68.1686 145.645 67.0116 145.262 65.8822C140.197 50.9512 136.936 31.0114 141.922 15.6207C143.723 10.0612 146.764 1.52179 153.054 0.146766C154.404 -0.150428 155.799 0.0675145 157.16 0.297345C165.801 1.75558 174.37 3.65762 182.825 6.01537C185.972 6.89506 191.516 7.48945 193.912 9.78379C196.358 12.1296 196.832 17.174 196.869 20.3798C196.904 23.3398 196.581 26.2444 195.952 29.0658H195.948Z" fill="white"/>
</mask>
<g mask="url(#mask2_26_9533)">
<path d="M146.229 55.948C147.947 50.7688 149.664 45.5897 151.386 40.4106C152.413 45.883 153.437 51.3513 154.461 56.8237C155.924 52.6352 158.055 48.7479 160.508 45.1737C161.869 43.1924 163.39 41.322 164.941 39.519C165.494 38.8771 169.532 35.3028 169.46 34.6807C170.283 41.6509 170.514 48.7043 170.15 55.7221C169.968 59.2607 169.616 62.8746 168.217 66.0763C165.384 72.5671 158.055 76.2761 151.712 74.4216C147.996 73.3358 144.849 70.6531 142.066 67.7525C139.518 65.1015 137.126 62.1256 135.867 58.5355C134.57 54.8345 134.362 50.2379 134.619 46.307C134.889 42.2493 137.706 38.0331 139.397 34.3677C140.36 41.9838 142.677 49.3899 146.188 56.047C146.199 56.0114 146.21 55.9757 146.222 55.94L146.229 55.948Z" fill="#EB5946"/>
<path d="M190.708 8.61475C187.599 8.6306 184.236 9.98184 182.075 11.8165C174.583 18.1686 170.234 29.8186 166.385 38.8374C163.887 44.6902 161.687 50.6816 159.803 56.7801C158.082 62.3475 155.955 68.2201 155.955 74.1243C155.955 71.9726 162.931 69.6823 164.417 69.2186C168.126 68.0695 171.731 66.2665 175.094 64.2971C177.961 62.617 181.127 60.7704 183.216 58.163C185.832 54.8939 187.997 50.9313 189.957 47.2064C191.997 43.3231 194.17 39.5983 194.852 35.2236C195.55 30.7221 196.547 26.2245 197.321 21.7111C198.344 15.7197 198.348 8.57908 190.708 8.61871V8.61475Z" fill="#D81821"/>
</g>
<path d="M180.228 79.3351C173.089 79.3351 165.991 79.129 158.999 78.9229L159.306 73.2406C174.67 73.6884 190.09 71.4653 205.306 68.6955C216.904 66.5834 223.429 63.4728 229.708 60.4097C245.576 52.6668 257.637 35.1204 261.182 14.614L265.334 20.5817L271.923 16.6349C267.757 40.7117 253.356 61.436 234.334 70.7164C226.952 74.3184 218.311 76.6167 207.148 77.9481C198.185 79.0141 189.173 79.339 180.224 79.339L180.228 79.3351Z" fill="#D81821"/>
<path d="M166.059 78.6337C163.89 79.9295 161.339 80.401 158.757 80.6705C153.028 81.2649 143.484 81.8434 139.241 76.7832C134.528 71.1642 140.69 64.305 146.036 62.712C152.504 60.7862 167.909 60.2948 170.374 69.0086C171.492 72.9553 169.293 76.7039 166.055 78.6377L166.059 78.6337Z" fill="#D81821"/>
<path opacity="0.1" d="M153.278 282.553L276.303 103.606L269.918 250.555L153.278 282.553Z" fill="#231F20"/>
<path d="M153.278 135.984C153.509 183.072 153.513 235.897 153.278 282.985C153.043 235.897 153.047 183.072 153.278 135.984Z" fill="white"/>
</g>
<defs>
<clipPath id="clip0_26_9533">
<rect width="300" height="300" fill="white"/>
</clipPath>
</defs>
</svg>
